<?xml version="1.0" encoding="utf-8"?>
<!-- Generator: Adobe Illustrator 26.0.2, SVG Export Plug-In . SVG Version: 6.00 Build 0)  -->
<svg version="1.1" id="Layer_1" xmlns="http://www.w3.org/2000/svg" xmlns:xlink="http://www.w3.org/1999/xlink" x="0px" y="0px"
	 viewBox="0 0 152.1 247.8" style="enable-background:new 0 0 152.1 247.8;" xml:space="preserve">
<style type="text/css">
	.st0{fill:#0000FE;}
	.st1{fill:#2E5BE8;}
	.st2{fill:#FFFFFF;}
	.st3{opacity:0.48;fill:#2E5BE8;enable-background:new    ;}
	.st4{fill:none;stroke:#FFFFFF;stroke-width:15;stroke-linecap:round;stroke-linejoin:round;stroke-miterlimit:10;}
	.st5{fill:#2DD975;}
	.st6{fill:#00FF67;}
	.st7{fill:none;stroke:#FFFFFF;stroke-width:5;stroke-miterlimit:10;}
	.st8{fill:#0C0C0C;}
	.st9{fill:none;stroke:#00FF67;stroke-width:5;stroke-miterlimit:10;}
	.st10{fill:none;stroke:#0000FE;stroke-width:5;stroke-miterlimit:10;}
</style>
<rect x="1529.7" y="-4252.8" class="st0" width="1957.9" height="1124.1"/>
<rect x="85.3" y="-3505.7" width="257" height="96"/>
<polygon points="54.7,-3786 150.7,-3786 231.2,-3528.9 135.2,-3528.9 "/>
<rect x="-32.8" y="-3668.3" width="96" height="257"/>
<path d="M615.2-3396.2c0-5.4,3.2-10.2,8.2-12.4c9.5-4.1,24-8.7,41.9-8.3c16,0.3,28.9,4.4,37.8,8.3c4.9,2.1,8.1,7,8.1,12.4v238
	c0,5.9-4.8,10.7-10.7,10.7h-74.7c-5.9,0-10.7-4.8-10.7-10.7L615.2-3396.2z"/>
<path d="M514.7-3015.4c5.4,0,10.2,3.2,12.4,8.2c4.2,9.6,8.7,24,8.3,41.9c-0.3,16-4.4,28.9-8.3,37.8c-2.1,4.9-7,8.1-12.4,8.1H277.2
	c-6.9,0-13.1-4.5-15.1-11.2c-2.7-8.9-5-20.1-5.4-33.2c-0.5-16.2,2.2-30,5.4-40.4c2-6.7,8.1-11.3,15.1-11.3L514.7-3015.4z"/>
<path d="M401.2-3101.2c3,0,5.7,2.4,6.9,6.2c2.3,7.2,4.8,18.2,4.7,31.8c-0.2,12.1-2.5,21.9-4.7,28.7c-1.2,3.7-3.9,6.1-6.9,6.1h-133
	c-3.9,0-7.3-3.4-8.5-8.5c-1.5-6.8-2.8-15.3-3-25.1c-0.3-12.3,1.2-22.7,3-30.6c1.1-5.1,4.6-8.6,8.5-8.6L401.2-3101.2z"/>
<path d="M401.2-3196.3c3,0,5.7,2.4,6.9,6.2c2.3,7.2,4.8,18.2,4.7,31.8c-0.2,12.1-2.5,21.9-4.7,28.7c-1.2,3.7-3.9,6.1-6.9,6.1h-133
	c-3.9,0-7.3-3.4-8.5-8.5c-1.5-6.8-2.8-15.3-3-25.1c-0.3-12.3,1.2-22.7,3-30.6c1.1-5.1,4.6-8.6,8.5-8.6L401.2-3196.3z"/>
<path d="M533.5-3039.1c0,3.3-3.2,6.2-8.2,7.6c-9.5,2.5-70.8,2.4-79.8,0c-4.9-1.3-8.1-4.3-8.1-7.5v-144.7c0-4.2,4.5-8,11.2-9.2
	c8.9-1.6,20.1-3.1,33.2-3.3c16.2-0.3,30,1.4,40.3,3.3c6.7,1.2,11.3,5,11.3,9.2L533.5-3039.1z"/>
<path d="M729.8-3323.8c0-3.8,3.2-7.3,8.2-8.8c9.5-2.9,24-6.1,41.9-5.9c16,0.2,28.9,3.1,37.8,5.9c4.9,1.5,8.1,5,8.1,8.8v168.6
	c0,4.2-4.8,7.6-10.7,7.6h-74.7c-5.9,0-10.7-3.4-10.7-7.6L729.8-3323.8z"/>
<path class="st1" d="M-1739.3-1266.3v-183.5c0-6-3.6-11.5-9.1-13.8c-23.9-10.1-51-10.1-74.9,0c-5.5,2.3-9.1,7.8-9.1,13.8v183.5
	c0,8.3,6.7,15,15,15h63.2C-1746-1251.3-1739.3-1258-1739.3-1266.3z"/>
<path class="st1" d="M-1853.6-1378.2c6.9-22.9,6.9-47.4,0-70.3c-1.9-6.3-7.8-10.6-14.3-10.6h-186.6c-6.6,0-12.4,4.3-14.3,10.6
	c-6.9,22.9-6.9,47.4,0,70.3c1.9,6.3,7.8,10.6,14.3,10.6h186.6C-1861.4-1367.7-1855.5-1371.9-1853.6-1378.2z"/>
<path class="st1" d="M-1853.6-1261.9c6.9-22.9,6.9-47.4,0-70.3c-1.9-6.3-7.8-10.6-14.3-10.6h-186.6c-6.6,0-12.4,4.3-14.3,10.6
	c-6.9,22.9-6.9,47.4,0,70.3c1.9,6.3,7.8,10.6,14.3,10.6h186.6C-1861.4-1251.3-1855.5-1255.6-1853.6-1261.9z"/>
<path class="st1" d="M-2069.6-1142.3c-10-23.9-10-51,0-74.9c2.3-5.5,7.8-9.1,13.8-9.1h307.1c6,0,11.5,3.6,13.8,9.1
	c10.1,23.9,10.1,51,0,74.9c-2.3,5.5-7.8,9.1-13.8,9.1h-307.1C-2061.8-1133.2-2067.3-1136.8-2069.6-1142.3z"/>
<g>
	<path class="st2" d="M-2257.8,72.8c6.9-22.9,6.9-47.4,0-70.3c-1.9-6.3-7.8-10.6-14.3-10.6h-186.6c-6.6,0-12.4,4.3-14.3,10.6
		c-6.9,22.9-6.9,47.4,0,70.3c1.9,6.3,7.8,10.6,14.3,10.6h186.6C-2265.5,83.4-2259.7,79.1-2257.8,72.8z"/>
	<path class="st2" d="M-2431.9,192.4c-10.1-23.9-10.1-51,0-74.9c2.3-5.5,7.8-9.1,13.8-9.1h307.1c6,0,11.5,3.6,13.8,9.1
		c10.1,24,10.1,51,0,74.9c-2.3,5.5-7.8,9.1-13.8,9.1h-307.1C-2424.2,201.5-2429.6,197.9-2431.9,192.4z"/>
	<path class="st2" d="M-2532.8,75.1c-10.1-24-10.1-51,0-74.9c2.3-5.5,7.8-9.1,13.8-9.1h307.1c6,0,11.5,3.6,13.8,9.1
		c10,24,10,51,0,74.9c-2.3,5.5-7.8,9.1-13.8,9.1H-2519C-2525,84.3-2530.5,80.7-2532.8,75.1z"/>
	<path class="st2" d="M-2440.5-42.1c-10.1-24-10.1-51,0-74.9c2.3-5.5,7.8-9.1,13.8-9.1h307.1c6,0,11.5,3.6,13.8,9.1
		c10.1,23.9,10.1,51,0,74.9c-2.3,5.5-7.8,9.1-13.8,9.1h-307.1C-2432.7-33-2438.1-36.5-2440.5-42.1z"/>
</g>
<g>
	<rect x="-1076.3" y="-2355.2" class="st3" width="25.5" height="49.2"/>
	<rect x="-1104.6" y="-2355.2" class="st3" width="18.5" height="49.2"/>
</g>
<g>
	<g>
		<g>
			<path class="st2" d="M1946.7-924.6l16.1-32.6c2.5-5,1.4-11.1-2.6-15l-26-25.4c-9-8.8-1.5-24,10.9-22.2l36,5.2
				c5.6,0.8,11-2.1,13.5-7.1l16.1-32.6c5.6-11.3,22.3-8.8,24.4,3.6l6.1,35.8c0.9,5.5,5.4,9.8,10.9,10.7l36,5.2
				c12.4,1.8,15.3,18.5,4.2,24.3l-32.2,16.9c-5,2.6-7.7,8.1-6.8,13.7l6.1,35.8c2.1,12.4-12.9,20.3-21.9,11.5l-26-25.4
				c-4-3.9-10.1-4.8-15.1-2.2l-32.2,16.9C1953.3-901.5,1941.2-913.3,1946.7-924.6z"/>
		</g>
		<g>
			<path class="st2" d="M1960.1-1238.2l32.6,16.1c5,2.5,11.1,1.4,15-2.6l25.4-26c8.8-9,23.9-1.5,22.1,10.9l-5.2,36
				c-0.8,5.6,2.1,11,7.1,13.5l32.6,16.1c11.3,5.6,8.9,22.3-3.6,24.4l-35.8,6.2c-5.5,0.9-9.8,5.4-10.6,10.9l-5.2,36
				c-1.8,12.4-18.5,15.3-24.3,4.2l-16.9-32.2c-2.6-5-8.1-7.7-13.7-6.8l-35.8,6.2c-12.4,2.1-20.3-12.8-11.5-21.9l25.4-26
				c3.9-4,4.8-10.1,2.2-15.1l-16.9-32.2C1937-1231.6,1948.8-1243.8,1960.1-1238.2z"/>
		</g>
		<g>
			<path class="st2" d="M2273.7-1224.8l-16.1,32.6c-2.5,5-1.4,11.1,2.6,15l26,25.4c9,8.8,1.5,23.9-10.9,22.2l-36-5.2
				c-5.6-0.8-11,2.1-13.5,7.1l-16.1,32.6c-5.6,11.3-22.3,8.8-24.4-3.6l-6.1-35.8c-0.9-5.5-5.4-9.8-10.9-10.7l-36-5.2
				c-12.4-1.8-15.3-18.5-4.2-24.3l32.2-16.9c5-2.6,7.7-8.1,6.8-13.7l-6.1-35.8c-2.1-12.4,12.9-20.3,21.9-11.5l26,25.4
				c4,3.9,10.1,4.8,15.1,2.2l32.2-16.9C2267.1-1247.9,2279.2-1236.1,2273.7-1224.8z"/>
		</g>
		<g>
			<path class="st2" d="M2260.3-911.2l-32.6-16.1c-5-2.5-11.1-1.5-15,2.6l-25.4,26c-8.8,9-23.9,1.5-22.1-10.9l5.2-36
				c0.8-5.6-2.1-11-7.1-13.5l-32.6-16.1c-11.3-5.6-8.9-22.3,3.6-24.4l35.8-6.2c5.5-1,9.8-5.4,10.6-10.9l5.2-36
				c1.8-12.4,18.5-15.3,24.3-4.2l16.9,32.2c2.6,5,8.1,7.7,13.7,6.8l35.8-6.2c12.4-2.1,20.3,12.8,11.5,21.9l-25.4,26
				c-3.9,4-4.8,10.1-2.2,15.1l16.9,32.2C2283.4-917.8,2271.6-905.7,2260.3-911.2z"/>
		</g>
	</g>
	<circle class="st2" cx="2110.2" cy="-1074.7" r="31.6"/>
</g>
<g>
	<g>
		<path class="st4" d="M2737.3-988.8c0,38.5,31.2,69.7,69.7,69.7s69.7-31.2,69.7-69.7c0,38.5,31.2,69.7,69.7,69.7
			s69.7-31.2,69.7-69.7"/>
	</g>
	<g>
		<path class="st4" d="M2768.8-1131.6c-33.3,19.2-44.7,61.8-25.5,95.2c19.2,33.3,61.9,44.7,95.2,25.5
			c-33.3,19.2-44.7,61.8-25.5,95.2s61.9,44.7,95.2,25.5"/>
	</g>
	<g>
		<path class="st4" d="M2908.1-1175.7c-33.3-19.2-75.9-7.8-95.2,25.5c-19.2,33.3-7.8,75.9,25.5,95.2c-33.3-19.2-75.9-7.8-95.2,25.5
			c-19.2,33.3-7.8,75.9,25.5,95.2"/>
	</g>
	<g>
		<path class="st4" d="M3016.1-1077.1c0-38.5-31.2-69.7-69.7-69.7s-69.7,31.2-69.7,69.7c0-38.5-31.2-69.7-69.7-69.7
			s-69.7,31.2-69.7,69.7"/>
	</g>
	<g>
		<path class="st4" d="M2984.6-934.4c33.3-19.2,44.7-61.8,25.5-95.2c-19.2-33.3-61.9-44.7-95.2-25.5c33.3-19.2,44.7-61.8,25.5-95.2
			c-19.2-33.3-61.9-44.7-95.2-25.5"/>
	</g>
	<g>
		<path class="st4" d="M2845.3-890.2c33.3,19.2,75.9,7.8,95.2-25.5c19.2-33.3,7.8-75.9-25.5-95.2c33.3,19.2,75.9,7.8,95.2-25.5
			c19.2-33.3,7.8-75.9-25.5-95.2"/>
	</g>
</g>
<image style="overflow:visible;enable-background:new    ;" width="737" height="1105" xlink:href="B45F976D.jpeg"  transform="matrix(0.9986 0 0 0.9986 -1294.9901 -3867.7832)">
</image>
<image style="overflow:visible;enable-background:new    ;" width="564" height="316" xlink:href="B45F976F.jpeg"  transform="matrix(0.9968 0 0 0.9968 -2652.2915 -860.0662)">
</image>
<image style="overflow:visible;enable-background:new    ;" width="563" height="317" xlink:href="B45F976D.jpeg"  transform="matrix(0.9968 0 0 0.9968 -2055.3442 -756.6457)">
</image>
<image style="overflow:visible;enable-background:new    ;" width="565" height="565" xlink:href="B45F976B.jpeg"  transform="matrix(0.9982 0 0 0.9982 1727.8958 -395.0005)">
</image>
<g>
	<g>
		<path class="st5" d="M-472.6-1852.2v-128.6c0-6.2-3.9-11.7-9.7-13.8c-15.8-5.8-33.2-5.8-49,0c-5.8,2.1-9.7,7.6-9.7,13.8v128.6
			c0,8.1,6.6,14.7,14.7,14.7h39.1C-479.2-1837.5-472.6-1844.1-472.6-1852.2z"/>
		<path class="st5" d="M-555.7-1934.1c3.8-14.8,3.8-30.3,0-45.1c-1.7-6.5-7.5-11.1-14.2-11.1h-131.6c-6.7,0-12.6,4.6-14.2,11.1
			c-3.8,14.8-3.8,30.3,0,45.1c1.7,6.5,7.5,11.1,14.2,11.1H-570C-563.2-1923-557.4-1927.6-555.7-1934.1z"/>
		<path class="st5" d="M-555.7-1848.5c3.8-14.8,3.8-30.3,0-45.1c-1.7-6.5-7.5-11.1-14.2-11.1h-131.6c-6.7,0-12.6,4.6-14.2,11.1
			c-3.8,14.8-3.8,30.3,0,45.1c1.7,6.5,7.5,11.1,14.2,11.1H-570C-563.2-1837.5-557.4-1842-555.7-1848.5z"/>
		<path class="st5" d="M-716.5-1760.4c-5.8-15.8-5.8-33.2,0-49.1c2.1-5.8,7.6-9.7,13.8-9.7H-482c6.2,0,11.7,3.9,13.8,9.7
			c5.8,15.8,5.8,33.2,0,49.1c-2.1,5.8-7.6,9.7-13.8,9.7h-220.7C-708.9-1750.7-714.4-1754.6-716.5-1760.4z"/>
	</g>
</g>
<rect x="-771.4" y="-1506" class="st0" width="1957.9" height="1124.1"/>
<path class="st6" d="M46.8-1048.9c-8.2,4.7-17.5,7-26.9,6.7c-2.9-0.1-5.5-2.2-6.2-5.1l-18.1-73c-0.7-2.9,0.5-5.9,3.1-7.3
	c8.2-4.7,17.5-7,26.9-6.7c3,0.1,5.5,2.2,6.2,5.1l18.1,73C50.6-1053.4,49.4-1050.4,46.8-1048.9z"/>
<path class="st6" d="M73.2-1049.6c-2.6-9.1-2.6-18.7,0-27.7c0.8-2.8,3.4-4.8,6.4-4.8h75.2c3,0,5.6,1.9,6.4,4.8
	c2.6,9.1,2.6,18.7,0,27.7c-0.8,2.8-3.4,4.8-6.4,4.8H79.6C76.6-1044.8,74-1046.8,73.2-1049.6z"/>
<path class="st6" d="M50-1101.9c-2.6-9.1-2.6-18.7,0-27.7c0.8-2.8,3.4-4.8,6.4-4.8h75.2c3,0,5.6,1.9,6.4,4.8
	c2.6,9.1,2.6,18.7,0,27.7c-0.8,2.8-3.4,4.8-6.4,4.8H56.4C53.4-1097.1,50.8-1099,50-1101.9z"/>
<path class="st6" d="M144.3-994.4c4.2-9.4,4.6-20,1.1-29.7c-0.9-2.5-3.3-4.2-6-4.3l-124.3-4.7c-2.7-0.1-5.2,1.4-6.3,3.9
	c-4.2,9.4-4.6,20-1.1,29.7c0.9,2.5,3.3,4.2,6,4.3l124.3,4.7C140.7-990.5,143.2-992,144.3-994.4z"/>
<path class="st6" d="M591.8-1258.3c-9.7,6.2-20.9,9.5-32.3,9.6c-3.6,0-6.8-2.4-7.8-5.8l-26-87.7c-1-3.4,0.3-7.2,3.3-9.1
	c9.7-6.2,20.9-9.5,32.3-9.6c3.6,0,6.8,2.4,7.8,5.8l26,87.7C596.2-1264,594.8-1260.2,591.8-1258.3z"/>
<path class="st6" d="M822.1-1257.7c-3.2-11-3.2-22.7,0-33.7c1-3.4,4.2-5.8,7.8-5.8h91.5c3.6,0,6.8,2.4,7.8,5.8
	c3.2,11,3.2,22.7,0,33.7c-1,3.4-4.2,5.8-7.8,5.8h-91.5C826.3-1251.9,823.1-1254.3,822.1-1257.7z"/>
<path class="st6" d="M754-1194.1c-3.2-11-3.2-22.7,0-33.7c1-3.4,4.2-5.8,7.8-5.8h136.6c3.6,0,6.8,2.4,7.8,5.8
	c3.2,11,3.2,22.7,0,33.7c-1,3.4-4.2,5.8-7.8,5.8H761.8C758.2-1188.3,755-1190.7,754-1194.1z"/>
<path class="st6" d="M794.6-1252.1c-10,5.6-21.4,8.2-32.8,7.6c-3.6-0.2-6.6-2.8-7.4-6.3l-30.8-133.1c-0.8-3.5,0.8-7.1,3.9-8.9
	c10-5.6,21.4-8.2,32.8-7.6c3.6,0.2,6.6,2.8,7.4,6.3l30.8,133.1C799.3-1257.5,797.8-1253.9,794.6-1252.1z"/>
<path class="st6" d="M799.2-1321.3c-3.2-11-3.2-22.7,0-33.7c1-3.4,4.2-5.8,7.8-5.8h91.5c3.6,0,6.8,2.4,7.8,5.8
	c3.2,11,3.2,22.7,0,33.7c-1,3.4-4.2,5.8-7.8,5.8h-91.5C803.4-1315.5,800.2-1317.8,799.2-1321.3z"/>
<g>
	<path class="st6" d="M-652.3-658L-693-784.8c-1.5-4.6,0-9.7,3.7-12.8c14.2-11.9,32.5-17.8,51-16.4c4.9,0.4,9,3.7,10.5,8.3
		l40.7,126.8c2,6.3-1.5,13.1-7.8,15.1l-42.3,13.6C-643.5-648.2-650.3-651.7-652.3-658z"/>
	<path class="st6" d="M-588.8-754.2c-4.7-16.3-4.7-33.7,0-50c1.5-5.1,6.2-8.6,11.5-8.6h135.6c5.3,0,10,3.5,11.5,8.6
		c4.7,16.3,4.7,33.7,0,50c-1.5,5.1-6.2,8.6-11.5,8.6h-135.6C-582.6-745.6-587.3-749.1-588.8-754.2z"/>
	<path class="st6" d="M-548.6-668.7c-4.7-16.3-4.7-33.7,0-50c1.5-5.1,6.2-8.6,11.5-8.6h135.6c5.3,0,10,3.5,11.5,8.6
		c4.7,16.3,4.7,33.7,0,50c-1.5,5.1-6.2,8.6-11.5,8.6h-135.6C-542.4-660.1-547.1-663.6-548.6-668.7z"/>
	<path class="st6" d="M-420.2-569.2c7.6-16.9,8.3-36.1,2-53.5c-1.7-4.6-6-7.7-10.8-7.8l-224.2-8.5c-4.9-0.2-9.4,2.6-11.4,7
		c-7.6,16.9-8.4,36.1-2,53.5c1.7,4.6,6,7.7,10.8,7.8l224.2,8.5C-426.8-562-422.2-564.8-420.2-569.2z"/>
</g>
<g>
	<path class="st2" d="M196.6-1074.7h13.1v6.3h-21.1v-39.7h8L196.6-1074.7L196.6-1074.7z"/>
	<path class="st2" d="M243.8-1081.8h-23.1c0.2,2.3,1,4.1,2.4,5.3c1.4,1.3,3.1,1.9,5.2,1.9c3,0,5.1-1.3,6.3-3.8h8.6
		c-0.9,3-2.7,5.5-5.2,7.5c-2.6,1.9-5.8,2.9-9.5,2.9c-3,0-5.8-0.7-8.2-2s-4.3-3.2-5.6-5.7s-2-5.3-2-8.5c0-3.3,0.7-6.1,2-8.6
		s3.2-4.4,5.6-5.7c2.4-1.3,5.1-2,8.3-2c3,0,5.7,0.7,8.1,1.9c2.4,1.3,4.2,3.1,5.5,5.5s2,5.1,2,8.2
		C244.1-1083.7,244-1082.7,243.8-1081.8z M235.8-1087.2c0-2.1-0.8-3.7-2.2-4.9c-1.4-1.2-3.2-1.8-5.3-1.8c-2,0-3.6,0.6-5,1.8
		c-1.4,1.2-2.2,2.9-2.5,5L235.8-1087.2L235.8-1087.2z"/>
	<path class="st2" d="M249.7-1092.8c1.3-2.5,3-4.4,5.2-5.7s4.6-2,7.3-2c2.4,0,4.4,0.5,6.2,1.4c1.8,0.9,3.2,2.1,4.2,3.6v-4.5h8v31.5
		h-8v-4.6c-1,1.5-2.4,2.7-4.2,3.7c-1.8,1-3.9,1.4-6.2,1.4c-2.7,0-5.1-0.7-7.3-2.1c-2.2-1.4-3.9-3.3-5.2-5.8s-1.9-5.3-1.9-8.6
		C247.8-1087.5,248.5-1090.3,249.7-1092.8z M271.5-1089.2c-0.8-1.4-1.8-2.4-3.1-3.2s-2.7-1.1-4.2-1.1s-2.9,0.4-4.1,1.1
		s-2.3,1.8-3,3.2s-1.2,3-1.2,4.9s0.4,3.6,1.2,5c0.8,1.4,1.8,2.5,3.1,3.3c1.3,0.8,2.6,1.1,4.1,1.1c1.5,0,2.9-0.4,4.2-1.1
		s2.3-1.8,3.1-3.2c0.8-1.4,1.1-3.1,1.1-5C272.6-1086.1,272.3-1087.8,271.5-1089.2z"/>
	<path class="st2" d="M300.5-1099c1.7-0.9,3.5-1.4,5.7-1.4v8.4H304c-2.5,0-4.4,0.6-5.7,1.8c-1.3,1.2-1.9,3.2-1.9,6.2v15.7h-8v-31.5
		h8v4.9C297.5-1096.7,298.8-1098,300.5-1099z"/>
	<path class="st2" d="M338.1-1096.9c2.3,2.4,3.5,5.7,3.5,9.9v18.5h-8v-17.4c0-2.5-0.6-4.4-1.9-5.8s-3-2-5.1-2c-2.2,0-3.9,0.7-5.2,2
		s-1.9,3.3-1.9,5.8v17.4h-8v-31.5h8v3.9c1.1-1.4,2.4-2.4,4.1-3.2s3.5-1.2,5.4-1.2C332.7-1100.4,335.7-1099.2,338.1-1096.9z"/>
	<path class="st2" d="M349.6-1105.1c-0.9-0.9-1.4-2-1.4-3.3s0.5-2.4,1.4-3.3s2.1-1.3,3.5-1.3s2.6,0.4,3.5,1.3s1.4,2,1.4,3.3
		s-0.5,2.4-1.4,3.3c-0.9,0.9-2.1,1.3-3.5,1.3C351.7-1103.7,350.6-1104.2,349.6-1105.1z M357.1-1100v31.5h-8v-31.5H357.1z"/>
	<path class="st2" d="M379.4-1093.4h-5.5v25h-8.1v-25h-3.6v-6.6h3.6v-1.6c0-3.9,1.1-6.7,3.3-8.5c2.2-1.8,5.5-2.7,10-2.6v6.7
		c-1.9,0-3.3,0.3-4,1c-0.8,0.7-1.1,1.9-1.1,3.7v1.3h5.5V-1093.4z"/>
	<path class="st2" d="M414.8-1100l-19.5,46.5h-8.5l6.8-15.7l-12.6-30.8h8.9l8.1,22l8.3-22H414.8z"/>
	<path class="st2" d="M213-1022.6h-15.8l-2.6,7.6h-8.4l14.3-39.8h9.3L224-1015h-8.4L213-1022.6z M210.8-1029l-5.8-16.6l-5.8,16.6
		H210.8z"/>
	<path class="st2" d="M229.3-1039.3c1.3-2.4,3.2-4.3,5.5-5.7c2.4-1.3,5-2,8.1-2c3.9,0,7.1,1,9.7,2.9c2.6,2,4.3,4.7,5.1,8.2h-8.6
		c-0.5-1.4-1.2-2.4-2.3-3.2c-1.1-0.8-2.4-1.2-4-1.2c-2.3,0-4.1,0.8-5.4,2.5c-1.3,1.7-2,4-2,7c0,3,0.7,5.3,2,7s3.1,2.5,5.4,2.5
		c3.2,0,5.3-1.4,6.3-4.3h8.6c-0.9,3.4-2.6,6.1-5.2,8.1s-5.8,3-9.7,3c-3,0-5.7-0.7-8.1-2c-2.4-1.3-4.2-3.2-5.5-5.7
		c-1.3-2.5-2-5.3-2-8.6C227.3-1034.1,228-1036.9,229.3-1039.3z"/>
	<path class="st2" d="M263.5-1039.4c1.3-2.5,3-4.4,5.2-5.7s4.6-2,7.3-2c2.3,0,4.4,0.5,6.2,1.4c1.8,0.9,3.2,2.1,4.2,3.6v-4.5h8v31.5
		h-8v-4.6c-1,1.5-2.4,2.7-4.2,3.7s-3.9,1.5-6.2,1.5c-2.7,0-5.1-0.7-7.3-2c-2.2-1.4-3.9-3.3-5.2-5.8c-1.3-2.5-1.9-5.3-1.9-8.6
		C261.6-1034.1,262.2-1036.9,263.5-1039.4z M285.3-1035.8c-0.8-1.4-1.8-2.4-3.1-3.2s-2.7-1.1-4.2-1.1s-2.8,0.4-4.1,1.1
		s-2.3,1.8-3,3.2s-1.2,3-1.2,4.9s0.4,3.6,1.2,5c0.8,1.4,1.8,2.5,3.1,3.3c1.3,0.8,2.6,1.1,4.1,1.1c1.5,0,2.9-0.4,4.2-1.1
		s2.3-1.8,3.1-3.2c0.8-1.4,1.1-3.1,1.1-5C286.4-1032.7,286-1034.4,285.3-1035.8z"/>
	<path class="st2" d="M302.1-1039.4c1.3-2.5,3-4.4,5.2-5.7s4.7-2,7.3-2c2,0,4,0.4,5.9,1.3s3.3,2.1,4.4,3.6v-15h8.1v42.1H325v-4.7
		c-1,1.6-2.4,2.8-4.2,3.8c-1.8,1-3.8,1.4-6.2,1.4c-2.7,0-5.1-0.7-7.3-2c-2.2-1.4-3.9-3.3-5.2-5.8s-1.9-5.3-1.9-8.6
		C300.2-1034.1,300.8-1036.9,302.1-1039.4z M323.9-1035.8c-0.8-1.4-1.8-2.4-3.1-3.2s-2.7-1.1-4.2-1.1s-2.8,0.4-4.1,1.1
		s-2.3,1.8-3,3.2c-0.8,1.4-1.2,3-1.2,4.9s0.4,3.6,1.2,5c0.8,1.4,1.8,2.5,3.1,3.3c1.3,0.8,2.6,1.1,4.1,1.1c1.5,0,2.9-0.4,4.2-1.1
		s2.3-1.8,3.1-3.2c0.8-1.4,1.1-3.1,1.1-5C325-1032.7,324.6-1034.4,323.9-1035.8z"/>
	<path class="st2" d="M369.9-1028.4h-23.1c0.2,2.3,1,4.1,2.4,5.3c1.4,1.3,3.1,1.9,5.2,1.9c3,0,5.1-1.3,6.3-3.8h8.6
		c-0.9,3-2.7,5.5-5.2,7.5c-2.6,2-5.8,2.9-9.5,2.9c-3,0-5.8-0.7-8.2-2c-2.4-1.3-4.3-3.2-5.6-5.7c-1.3-2.5-2-5.3-2-8.5
		c0-3.3,0.7-6.1,2-8.6s3.2-4.4,5.6-5.7s5.1-2,8.3-2c3,0,5.7,0.7,8.1,1.9c2.4,1.3,4.2,3.1,5.5,5.5s2,5.1,2,8.2
		C370.2-1030.3,370.1-1029.3,369.9-1028.4z M361.9-1033.7c0-2.1-0.8-3.7-2.2-4.9c-1.4-1.2-3.2-1.8-5.3-1.8c-2,0-3.6,0.6-5,1.8
		c-1.3,1.2-2.2,2.9-2.5,5L361.9-1033.7L361.9-1033.7z"/>
	<path class="st2" d="M424.5-1043.4c2.4,2.4,3.6,5.7,3.6,9.9v18.5h-8v-17.4c0-2.5-0.6-4.3-1.9-5.7s-3-2-5.1-2s-3.9,0.7-5.2,2
		c-1.3,1.3-1.9,3.2-1.9,5.7v17.4h-8v-17.4c0-2.5-0.6-4.3-1.9-5.7s-3-2-5.1-2c-2.2,0-3.9,0.7-5.2,2c-1.3,1.3-1.9,3.2-1.9,5.7v17.4h-8
		v-31.5h8v3.8c1-1.3,2.3-2.4,4-3.1c1.6-0.8,3.4-1.1,5.3-1.1c2.5,0,4.7,0.5,6.6,1.6c1.9,1,3.4,2.5,4.5,4.5c1-1.8,2.5-3.3,4.5-4.4
		c2-1.1,4.1-1.7,6.3-1.7C419-1047,422.1-1045.8,424.5-1043.4z"/>
	<path class="st2" d="M465.8-1046.6l-19.5,46.5h-8.5l6.8-15.7l-12.6-30.8h8.9l8.1,22l8.3-22H465.8z"/>
</g>
<g>
	<path class="st2" d="M196.6-785.8h13.1v6.3h-21.1v-39.7h8L196.6-785.8L196.6-785.8z"/>
	<path class="st2" d="M243.8-792.8h-23.1c0.2,2.3,1,4.1,2.4,5.3c1.4,1.3,3.1,1.9,5.2,1.9c3,0,5.1-1.3,6.3-3.8h8.6
		c-0.9,3-2.7,5.5-5.2,7.5c-2.6,2-5.8,2.9-9.5,2.9c-3,0-5.8-0.7-8.2-2c-2.4-1.3-4.3-3.2-5.6-5.7s-2-5.3-2-8.5c0-3.3,0.7-6.1,2-8.6
		s3.2-4.4,5.6-5.7c2.4-1.3,5.1-2,8.3-2c3,0,5.7,0.7,8.1,1.9c2.4,1.3,4.2,3.1,5.5,5.5s2,5.1,2,8.2C244.1-794.8,244-793.7,243.8-792.8
		z M235.8-798.2c0-2-0.8-3.7-2.2-4.9c-1.4-1.2-3.2-1.8-5.3-1.8c-2,0-3.6,0.6-5,1.8c-1.4,1.2-2.2,2.9-2.5,5L235.8-798.2L235.8-798.2z
		"/>
	<path class="st2" d="M249.7-803.8c1.3-2.5,3-4.4,5.2-5.7s4.6-2,7.3-2c2.4,0,4.4,0.5,6.2,1.4c1.8,1,3.2,2.1,4.2,3.6v-4.5h8v31.5h-8
		v-4.6c-1,1.5-2.4,2.7-4.2,3.7s-3.9,1.5-6.2,1.5c-2.7,0-5.1-0.7-7.3-2c-2.2-1.4-3.9-3.3-5.2-5.8c-1.3-2.5-1.9-5.3-1.9-8.6
		C247.8-798.5,248.5-801.3,249.7-803.8z M271.5-800.2c-0.8-1.4-1.8-2.5-3.1-3.2s-2.7-1.1-4.2-1.1s-2.9,0.4-4.1,1.1
		c-1.2,0.7-2.3,1.8-3,3.2c-0.8,1.4-1.2,3-1.2,4.9c0,1.9,0.4,3.6,1.2,5s1.8,2.5,3.1,3.3c1.3,0.8,2.6,1.1,4.1,1.1
		c1.5,0,2.9-0.4,4.2-1.1s2.3-1.8,3.1-3.2s1.1-3,1.1-5C272.6-797.2,272.3-798.8,271.5-800.2z"/>
	<path class="st2" d="M300.5-810c1.7-1,3.5-1.4,5.7-1.4v8.4H304c-2.5,0-4.4,0.6-5.7,1.8c-1.3,1.2-1.9,3.2-1.9,6.2v15.7h-8V-811h8
		v4.9C297.5-807.8,298.8-809.1,300.5-810z"/>
	<path class="st2" d="M338.1-807.9c2.3,2.4,3.5,5.7,3.5,9.9v18.5h-8v-17.4c0-2.5-0.6-4.4-1.9-5.8c-1.2-1.3-3-2-5.1-2
		c-2.2,0-3.9,0.7-5.2,2c-1.3,1.3-1.9,3.3-1.9,5.8v17.4h-8V-811h8v3.9c1.1-1.4,2.4-2.4,4.1-3.2c1.7-0.8,3.5-1.2,5.4-1.2
		C332.7-811.4,335.7-810.2,338.1-807.9z"/>
	<path class="st2" d="M349.6-816.1c-0.9-0.9-1.4-2-1.4-3.3s0.5-2.4,1.4-3.3s2.1-1.3,3.5-1.3s2.6,0.5,3.5,1.3s1.4,2,1.4,3.3
		s-0.5,2.4-1.4,3.3c-0.9,0.9-2.1,1.3-3.5,1.3S350.6-815.2,349.6-816.1z M357.1-811v31.5h-8V-811H357.1z"/>
	<path class="st2" d="M379.4-804.4h-5.5v25h-8.1v-25h-3.6v-6.5h3.6v-1.6c0-3.9,1.1-6.7,3.3-8.5s5.5-2.7,10-2.6v6.7
		c-1.9,0-3.3,0.3-4,1c-0.8,0.7-1.1,1.9-1.1,3.7v1.3h5.5V-804.4z"/>
	<path class="st2" d="M414.8-811l-19.5,46.5h-8.5l6.8-15.7L380.9-811h8.9l8.1,22l8.3-22H414.8z"/>
	<path class="st2" d="M213-733.6h-15.8l-2.6,7.6h-8.4l14.3-39.8h9.3L224-726h-8.4L213-733.6z M210.8-740l-5.8-16.6l-5.8,16.6H210.8z
		"/>
	<path class="st2" d="M229.3-750.4c1.3-2.5,3.2-4.3,5.5-5.7c2.4-1.3,5-2,8.1-2c3.9,0,7.1,1,9.7,2.9s4.3,4.7,5.1,8.2h-8.6
		c-0.5-1.4-1.2-2.4-2.3-3.2c-1.1-0.8-2.4-1.2-4-1.2c-2.3,0-4.1,0.8-5.4,2.5c-1.3,1.7-2,4-2,7c0,3,0.7,5.3,2,7
		c1.3,1.7,3.1,2.5,5.4,2.5c3.2,0,5.3-1.4,6.3-4.3h8.6c-0.9,3.4-2.6,6.1-5.2,8.1s-5.8,3-9.7,3c-3,0-5.7-0.7-8.1-2
		c-2.4-1.3-4.2-3.2-5.5-5.7c-1.3-2.5-2-5.3-2-8.6C227.3-745.1,228-747.9,229.3-750.4z"/>
	<path class="st2" d="M263.5-750.4c1.3-2.5,3-4.4,5.2-5.7s4.6-2,7.3-2c2.3,0,4.4,0.5,6.2,1.4c1.8,1,3.2,2.1,4.2,3.6v-4.5h8v31.5h-8
		v-4.6c-1,1.5-2.4,2.7-4.2,3.7s-3.9,1.5-6.2,1.5c-2.7,0-5.1-0.7-7.3-2c-2.2-1.4-3.9-3.3-5.2-5.8c-1.3-2.5-1.9-5.3-1.9-8.6
		C261.6-745.1,262.2-747.9,263.5-750.4z M285.3-746.8c-0.8-1.4-1.8-2.5-3.1-3.2s-2.7-1.1-4.2-1.1s-2.8,0.4-4.1,1.1
		c-1.2,0.7-2.3,1.8-3,3.2c-0.8,1.4-1.2,3-1.2,4.9c0,1.9,0.4,3.6,1.2,5s1.8,2.5,3.1,3.3c1.3,0.8,2.6,1.1,4.1,1.1
		c1.5,0,2.9-0.4,4.2-1.1s2.3-1.8,3.1-3.2s1.1-3,1.1-5C286.4-743.7,286-745.4,285.3-746.8z"/>
	<path class="st2" d="M302.1-750.4c1.3-2.5,3-4.4,5.2-5.7s4.7-2,7.3-2c2,0,4,0.5,5.9,1.3s3.3,2.1,4.4,3.6v-15h8.1v42.1H325v-4.7
		c-1,1.6-2.4,2.8-4.2,3.8c-1.8,1-3.8,1.4-6.2,1.4c-2.7,0-5.1-0.7-7.3-2c-2.2-1.4-3.9-3.3-5.2-5.8c-1.3-2.5-1.9-5.3-1.9-8.6
		C300.2-745.1,300.8-747.9,302.1-750.4z M323.9-746.8c-0.8-1.4-1.8-2.5-3.1-3.2s-2.7-1.1-4.2-1.1s-2.8,0.4-4.1,1.1
		c-1.2,0.7-2.3,1.8-3,3.2c-0.8,1.4-1.2,3-1.2,4.9c0,1.9,0.4,3.6,1.2,5c0.8,1.4,1.8,2.5,3.1,3.3c1.3,0.8,2.6,1.1,4.1,1.1
		c1.5,0,2.9-0.4,4.2-1.1s2.3-1.8,3.1-3.2s1.1-3,1.1-5C325-743.7,324.6-745.4,323.9-746.8z"/>
	<path class="st2" d="M369.9-739.4h-23.1c0.2,2.3,1,4.1,2.4,5.3s3.1,1.9,5.2,1.9c3,0,5.1-1.3,6.3-3.8h8.6c-0.9,3-2.7,5.5-5.2,7.5
		c-2.6,2-5.8,2.9-9.5,2.9c-3,0-5.8-0.7-8.2-2c-2.4-1.3-4.3-3.2-5.6-5.7c-1.3-2.5-2-5.3-2-8.5c0-3.3,0.7-6.1,2-8.6s3.2-4.4,5.6-5.7
		s5.1-2,8.3-2c3,0,5.7,0.7,8.1,1.9c2.4,1.3,4.2,3.1,5.5,5.5s2,5.1,2,8.2C370.2-741.3,370.1-740.3,369.9-739.4z M361.9-744.8
		c0-2-0.8-3.7-2.2-4.9c-1.4-1.2-3.2-1.8-5.3-1.8c-2,0-3.6,0.6-5,1.8c-1.3,1.2-2.2,2.9-2.5,5L361.9-744.8L361.9-744.8z"/>
	<path class="st2" d="M424.5-754.5c2.4,2.4,3.6,5.7,3.6,9.9v18.5h-8v-17.4c0-2.5-0.6-4.4-1.9-5.7c-1.2-1.3-3-2-5.1-2s-3.9,0.7-5.2,2
		s-1.9,3.2-1.9,5.7v17.4h-8v-17.4c0-2.5-0.6-4.4-1.9-5.7c-1.2-1.3-3-2-5.1-2c-2.2,0-3.9,0.7-5.2,2s-1.9,3.2-1.9,5.7v17.4h-8v-31.5h8
		v3.8c1-1.3,2.3-2.4,4-3.1c1.6-0.8,3.4-1.1,5.3-1.1c2.5,0,4.7,0.5,6.6,1.6c1.9,1,3.4,2.5,4.5,4.5c1-1.8,2.5-3.3,4.5-4.4
		c2-1.1,4.1-1.7,6.3-1.7C419-758,422.1-756.8,424.5-754.5z"/>
	<path class="st2" d="M465.8-757.6l-19.5,46.5h-8.5l6.8-15.7L432-757.6h8.9l8.1,22l8.3-22H465.8z"/>
</g>
<g>
	<g>
		<path class="st2" d="M-588.4,2989.8l40.7-126.8c1.5-4.6,0-9.7-3.7-12.8c-14.2-11.9-32.5-17.8-51-16.4c-4.9,0.4-9,3.7-10.5,8.3
			l-40.7,126.8c-2,6.3,1.5,13.1,7.8,15.1l42.3,13.6C-597.2,2999.6-590.5,2996.1-588.4,2989.8z"/>
		<path class="st2" d="M-650.4,2900.5c4.7-16.3,4.7-33.7,0-50c-1.5-5.1-6.2-8.6-11.5-8.6h-135.6c-5.3,0-10,3.5-11.5,8.6
			c-4.7,16.3-4.7,33.7,0,50c1.5,5.1,6.2,8.6,11.5,8.6h135.7C-656.6,2909.1-651.9,2905.6-650.4,2900.5z"/>
		<path class="st2" d="M-708.4,2986c4.7-16.3,4.7-33.7,0-50c-1.5-5.1-6.2-8.6-11.5-8.6h-135.6c-5.3,0-10,3.5-11.5,8.6
			c-4.7,16.3-4.7,33.7,0,50c1.5,5.1,6.2,8.6,11.5,8.6h135.7C-714.6,2994.6-709.9,2991.1-708.4,2986z"/>
		<path class="st2" d="M-837.9,3074c-7-17.2-7-36.4,0-53.6c1.8-4.5,6.2-7.4,11.1-7.4h224.3c4.9,0,9.3,2.9,11.1,7.4
			c7,17.2,7,36.4,0,53.6c-1.8,4.5-6.2,7.4-11.1,7.4h-224.3C-831.6,3081.4-836,3078.5-837.9,3074z"/>
	</g>
	<g>
		<path class="st2" d="M-486.9,2933.8h23.6v11.4h-38v-71.7h14.4V2933.8z"/>
		<path class="st2" d="M-401.6,2921h-41.6c0.3,4.1,1.8,7.3,4.3,9.6c2.5,2.3,5.7,3.5,9.4,3.5c5.3,0,9.1-2.3,11.4-6.9h15.5
			c-1.6,5.5-4.8,10-9.5,13.5c-4.7,3.5-10.4,5.3-17.1,5.3c-5.5,0-10.4-1.2-14.7-3.6c-4.4-2.4-7.7-5.9-10.2-10.3s-3.6-9.6-3.6-15.4
			c0-5.9,1.2-11.1,3.6-15.5c2.4-4.4,5.8-7.9,10.1-10.3s9.3-3.6,14.9-3.6c5.4,0,10.2,1.2,14.5,3.5c4.3,2.3,7.6,5.6,10,9.9
			c2.4,4.3,3.5,9.2,3.5,14.7C-401.2,2917.5-401.3,2919.4-401.6,2921z M-416.1,2911.4c-0.1-3.7-1.4-6.7-4-8.9s-5.8-3.3-9.6-3.3
			c-3.6,0-6.6,1.1-9,3.2s-3.9,5.1-4.5,9L-416.1,2911.4L-416.1,2911.4z"/>
		<path class="st2" d="M-391,2901.2c2.3-4.4,5.4-7.9,9.3-10.3s8.3-3.6,13.2-3.6c4.2,0,8,0.9,11.1,2.6c3.2,1.7,5.7,3.9,7.6,6.5v-8.1
			h14.5v56.9h-14.5v-8.3c-1.9,2.7-4.4,4.9-7.6,6.6c-3.2,1.8-7,2.6-11.2,2.6c-4.8,0-9.2-1.2-13.1-3.7c-3.9-2.5-7.1-5.9-9.4-10.4
			c-2.3-4.5-3.4-9.6-3.4-15.5C-394.4,2910.8-393.3,2905.7-391,2901.2z M-351.7,2907.7c-1.4-2.5-3.2-4.4-5.5-5.8s-4.8-2-7.5-2
			s-5.1,0.6-7.4,1.9c-2.3,1.3-4.1,3.2-5.5,5.7c-1.4,2.5-2.1,5.5-2.1,8.9s0.7,6.4,2.1,9c1.4,2.6,3.2,4.5,5.5,5.9
			c2.3,1.4,4.7,2.1,7.3,2.1c2.7,0,5.2-0.7,7.5-2c2.3-1.3,4.2-3.2,5.5-5.8c1.4-2.5,2-5.5,2-9
			C-349.6,2913.2-350.3,2910.2-351.7,2907.7z"/>
		<path class="st2" d="M-299.5,2890c3-1.7,6.4-2.6,10.2-2.6v15.1h-3.8c-4.5,0-7.9,1.1-10.2,3.2c-2.3,2.1-3.4,5.8-3.4,11.1v28.3
			h-14.4v-56.9h14.4v8.8C-304.9,2894.1-302.5,2891.7-299.5,2890z"/>
		<path class="st2" d="M-231.6,2893.9c4.2,4.3,6.3,10.2,6.3,17.9v33.4h-14.4v-31.4c0-4.5-1.1-8-3.4-10.4c-2.3-2.4-5.3-3.6-9.2-3.6
			c-4,0-7.1,1.2-9.4,3.6c-2.3,2.4-3.4,5.9-3.4,10.4v31.4h-14.4v-56.9h14.4v7.1c1.9-2.5,4.4-4.4,7.3-5.8c3-1.4,6.3-2.1,9.8-2.1
			C-241.3,2887.4-235.8,2889.6-231.6,2893.9z"/>
		<path class="st2" d="M-210.8,2879.1c-1.7-1.6-2.5-3.6-2.5-6s0.8-4.4,2.5-6s3.8-2.4,6.3-2.4c2.5,0,4.6,0.8,6.3,2.4
			c1.7,1.6,2.5,3.6,2.5,6s-0.8,4.4-2.5,6s-3.8,2.4-6.3,2.4C-207,2881.5-209.1,2880.7-210.8,2879.1z M-197.4,2888.3v56.9h-14.4v-56.9
			H-197.4z"/>
		<path class="st2" d="M-157.1,2900.1h-10v45.1h-14.6v-45.1h-6.5v-11.8h6.5v-2.9c0-7,2-12.1,6-15.4c4-3.3,10-4.8,18-4.6v12.1
			c-3.5-0.1-5.9,0.5-7.3,1.8c-1.4,1.2-2.1,3.5-2.1,6.7v2.4h10C-157.1,2888.3-157.1,2900.1-157.1,2900.1z"/>
		<path class="st2" d="M-93.3,2888.3l-35.2,83.8h-15.3l12.3-28.3l-22.8-55.5h16.1l14.7,39.7l14.9-39.7H-93.3z"/>
		<path class="st2" d="M-457.3,3027.8h-28.5l-4.7,13.7h-15.1l25.8-71.8h16.7l25.8,71.8h-15.2L-457.3,3027.8z M-461.2,3016.3
			l-10.4-30l-10.4,30H-461.2z"/>
		<path class="st2" d="M-427.8,2997.6c2.4-4.4,5.7-7.8,10-10.3s9.1-3.6,14.6-3.6c7.1,0,12.9,1.8,17.5,5.3s7.7,8.5,9.3,14.8H-392
			c-0.8-2.5-2.2-4.4-4.2-5.8c-2-1.4-4.4-2.1-7.2-2.1c-4.1,0-7.4,1.5-9.8,4.5s-3.6,7.2-3.6,12.7c0,5.4,1.2,9.6,3.6,12.6
			c2.4,3,5.6,4.5,9.8,4.5c5.8,0,9.6-2.6,11.4-7.8h15.5c-1.6,6.2-4.7,11.1-9.4,14.7s-10.5,5.4-17.5,5.4c-5.5,0-10.3-1.2-14.6-3.6
			c-4.2-2.4-7.6-5.9-10-10.3c-2.4-4.4-3.6-9.6-3.6-15.5C-431.4,3007.2-430.2,3002-427.8,2997.6z"/>
		<path class="st2" d="M-366.1,2997.5c2.3-4.4,5.4-7.9,9.4-10.3s8.3-3.6,13.2-3.6c4.2,0,8,0.9,11.1,2.6s5.7,3.9,7.6,6.5v-8.1h14.5
			v56.9h-14.5v-8.3c-1.9,2.7-4.4,4.9-7.7,6.6c-3.2,1.8-7,2.6-11.2,2.6c-4.8,0-9.2-1.2-13.1-3.7c-3.9-2.5-7.1-5.9-9.4-10.4
			c-2.3-4.5-3.4-9.6-3.4-15.5C-369.6,3007.1-368.4,3002-366.1,2997.5z M-326.9,3004.1c-1.4-2.5-3.2-4.4-5.5-5.8
			c-2.3-1.3-4.8-2-7.5-2c-2.7,0-5.1,0.6-7.4,1.9c-2.3,1.3-4.1,3.2-5.5,5.7s-2.1,5.5-2.1,8.9s0.7,6.4,2.1,9s3.2,4.5,5.6,5.9
			c2.3,1.4,4.7,2.1,7.3,2.1c2.7,0,5.2-0.7,7.5-2c2.3-1.3,4.2-3.2,5.6-5.8c1.4-2.5,2.1-5.5,2.1-9
			C-324.8,3009.6-325.5,3006.6-326.9,3004.1z"/>
		<path class="st2" d="M-296.5,2997.5c2.3-4.4,5.4-7.9,9.4-10.3s8.4-3.6,13.2-3.6c3.7,0,7.2,0.8,10.6,2.4c3.4,1.6,6,3.8,8,6.4v-27
			h14.6v76h-14.6v-8.4c-1.8,2.8-4.3,5.1-7.5,6.8s-6.9,2.6-11.2,2.6c-4.8,0-9.2-1.2-13.1-3.7c-4-2.5-7.1-5.9-9.4-10.4
			c-2.3-4.5-3.4-9.6-3.4-15.5C-299.9,3007.1-298.8,3002-296.5,2997.5z M-257.2,3004.1c-1.4-2.5-3.2-4.4-5.5-5.8
			c-2.3-1.3-4.8-2-7.5-2c-2.7,0-5.1,0.6-7.4,1.9c-2.3,1.3-4.1,3.2-5.5,5.7s-2.1,5.5-2.1,8.9s0.7,6.4,2.1,9s3.2,4.5,5.5,5.9
			c2.3,1.4,4.7,2.1,7.3,2.1c2.7,0,5.2-0.7,7.5-2c2.3-1.3,4.2-3.2,5.6-5.8c1.4-2.5,2-5.5,2-9
			C-255.2,3009.6-255.9,3006.6-257.2,3004.1z"/>
		<path class="st2" d="M-174.1,3017.4h-41.6c0.3,4.1,1.8,7.3,4.3,9.6c2.5,2.3,5.6,3.5,9.3,3.5c5.3,0,9.1-2.3,11.4-6.9h15.5
			c-1.6,5.5-4.8,10-9.4,13.5c-4.7,3.5-10.4,5.3-17.1,5.3c-5.5,0-10.4-1.2-14.7-3.6c-4.3-2.4-7.7-5.9-10.2-10.3
			c-2.4-4.4-3.6-9.6-3.6-15.4c0-5.9,1.2-11.1,3.6-15.5c2.4-4.4,5.8-7.9,10.1-10.3s9.3-3.6,14.9-3.6c5.4,0,10.2,1.2,14.5,3.5
			c4.3,2.3,7.6,5.6,10,9.9s3.5,9.2,3.5,14.7C-173.7,3013.9-173.9,3015.7-174.1,3017.4z M-188.6,3007.7c-0.1-3.7-1.4-6.7-4-8.9
			c-2.6-2.2-5.8-3.3-9.6-3.3c-3.6,0-6.6,1.1-9,3.2c-2.4,2.2-3.9,5.1-4.5,9L-188.6,3007.7L-188.6,3007.7z"/>
		<path class="st2" d="M-75.7,2990.2c4.3,4.3,6.4,10.2,6.4,17.9v33.4h-14.4v-31.4c0-4.4-1.1-7.9-3.4-10.2c-2.3-2.4-5.3-3.5-9.2-3.5
			s-7,1.2-9.3,3.5s-3.4,5.8-3.4,10.2v31.4h-14.4v-31.4c0-4.4-1.1-7.9-3.4-10.2c-2.3-2.4-5.3-3.5-9.2-3.5c-4,0-7.1,1.2-9.4,3.5
			c-2.3,2.4-3.4,5.8-3.4,10.2v31.4h-14.4v-56.9h14.4v6.9c1.9-2.4,4.2-4.3,7.1-5.6c2.9-1.4,6.1-2.1,9.6-2.1c4.5,0,8.4,0.9,11.9,2.8
			c3.5,1.9,6.2,4.6,8.1,8.1c1.9-3.3,4.5-5.9,8.1-7.9s7.3-3,11.4-3C-85.6,2983.8-80,2985.9-75.7,2990.2z"/>
		<path class="st2" d="M-1.2,2984.6l-35.2,83.8h-15.3l12.3-28.3l-22.8-55.5h16.1l14.7,39.7l14.9-39.7H-1.2z"/>
	</g>
</g>
<g>
	<g>
		<path class="st0" d="M-588.4,2643l40.7-126.8c1.5-4.6,0-9.7-3.7-12.8c-14.2-11.9-32.5-17.8-51-16.4c-4.9,0.4-9,3.7-10.5,8.3
			l-40.7,126.8c-2,6.3,1.5,13.1,7.8,15.1l42.3,13.6C-597.2,2652.8-590.5,2649.3-588.4,2643z"/>
		<path class="st0" d="M-650.4,2553.7c4.7-16.3,4.7-33.7,0-50c-1.5-5.1-6.2-8.6-11.5-8.6h-135.6c-5.3,0-10,3.5-11.5,8.6
			c-4.7,16.3-4.7,33.7,0,50c1.5,5.1,6.2,8.6,11.5,8.6h135.7C-656.6,2562.3-651.9,2558.8-650.4,2553.7z"/>
		<path class="st0" d="M-708.4,2639.2c4.7-16.3,4.7-33.7,0-50c-1.5-5.1-6.2-8.6-11.5-8.6h-135.6c-5.3,0-10,3.5-11.5,8.6
			c-4.7,16.3-4.7,33.7,0,50c1.5,5.1,6.2,8.6,11.5,8.6h135.7C-714.6,2647.8-709.9,2644.3-708.4,2639.2z"/>
		<path class="st0" d="M-837.9,2727.1c-7-17.2-7-36.4,0-53.6c1.8-4.5,6.2-7.4,11.1-7.4h224.3c4.9,0,9.3,2.9,11.1,7.4
			c7,17.2,7,36.4,0,53.6c-1.8,4.5-6.2,7.4-11.1,7.4h-224.3C-831.6,2734.6-836,2731.6-837.9,2727.1z"/>
	</g>
	<g>
		<path class="st0" d="M-486.9,2586.9h23.6v11.4h-38v-71.7h14.4V2586.9z"/>
		<path class="st0" d="M-401.6,2574.2h-41.6c0.3,4.1,1.8,7.3,4.3,9.6c2.5,2.3,5.7,3.5,9.4,3.5c5.3,0,9.1-2.3,11.4-6.9h15.5
			c-1.6,5.5-4.8,10-9.5,13.5c-4.7,3.5-10.4,5.3-17.1,5.3c-5.5,0-10.4-1.2-14.7-3.6c-4.4-2.4-7.7-5.9-10.2-10.3s-3.6-9.6-3.6-15.4
			c0-5.9,1.2-11.1,3.6-15.5c2.4-4.4,5.8-7.9,10.1-10.3s9.3-3.6,14.9-3.6c5.4,0,10.2,1.2,14.5,3.5c4.3,2.3,7.6,5.6,10,9.9
			c2.4,4.3,3.5,9.2,3.5,14.7C-401.2,2570.7-401.3,2572.5-401.6,2574.2z M-416.1,2564.5c-0.1-3.7-1.4-6.7-4-8.9s-5.8-3.3-9.6-3.3
			c-3.6,0-6.6,1.1-9,3.2s-3.9,5.1-4.5,9L-416.1,2564.5L-416.1,2564.5z"/>
		<path class="st0" d="M-391,2554.4c2.3-4.4,5.4-7.9,9.3-10.3s8.3-3.6,13.2-3.6c4.2,0,8,0.9,11.1,2.6c3.2,1.7,5.7,3.9,7.6,6.5v-8.1
			h14.5v56.9h-14.5v-8.3c-1.9,2.7-4.4,4.9-7.6,6.6c-3.2,1.8-7,2.6-11.2,2.6c-4.8,0-9.2-1.2-13.1-3.7c-3.9-2.5-7.1-5.9-9.4-10.4
			c-2.3-4.5-3.4-9.6-3.4-15.5C-394.4,2563.9-393.3,2558.8-391,2554.4z M-351.7,2560.9c-1.4-2.5-3.2-4.4-5.5-5.8s-4.8-2-7.5-2
			s-5.1,0.6-7.4,1.9c-2.3,1.3-4.1,3.2-5.5,5.7c-1.4,2.5-2.1,5.5-2.1,8.9s0.7,6.4,2.1,9c1.4,2.6,3.2,4.5,5.5,5.9
			c2.3,1.4,4.7,2.1,7.3,2.1c2.7,0,5.2-0.7,7.5-2c2.3-1.3,4.2-3.2,5.5-5.8c1.4-2.5,2-5.5,2-9
			C-349.6,2566.4-350.3,2563.4-351.7,2560.9z"/>
		<path class="st0" d="M-299.5,2543.2c3-1.7,6.4-2.6,10.2-2.6v15.1h-3.8c-4.5,0-7.9,1.1-10.2,3.2c-2.3,2.1-3.4,5.8-3.4,11.1v28.3
			h-14.4v-56.9h14.4v8.8C-304.9,2547.2-302.5,2544.9-299.5,2543.2z"/>
		<path class="st0" d="M-231.6,2547c4.2,4.3,6.3,10.2,6.3,17.9v33.4h-14.4v-31.4c0-4.5-1.1-8-3.4-10.4c-2.3-2.4-5.3-3.6-9.2-3.6
			c-4,0-7.1,1.2-9.4,3.6c-2.3,2.4-3.4,5.9-3.4,10.4v31.4h-14.4v-56.9h14.4v7.1c1.9-2.5,4.4-4.4,7.3-5.8c3-1.4,6.3-2.1,9.8-2.1
			C-241.3,2540.6-235.8,2542.7-231.6,2547z"/>
		<path class="st0" d="M-210.8,2532.2c-1.7-1.6-2.5-3.6-2.5-6s0.8-4.4,2.5-6s3.8-2.4,6.3-2.4c2.5,0,4.6,0.8,6.3,2.4
			c1.7,1.6,2.5,3.6,2.5,6s-0.8,4.4-2.5,6s-3.8,2.4-6.3,2.4C-207,2534.6-209.1,2533.8-210.8,2532.2z M-197.4,2541.4v56.9h-14.4v-56.9
			H-197.4z"/>
		<path class="st0" d="M-157.1,2553.2h-10v45.1h-14.6v-45.1h-6.5v-11.8h6.5v-2.9c0-7,2-12.1,6-15.4c4-3.3,10-4.8,18-4.6v12.1
			c-3.5-0.1-5.9,0.5-7.3,1.8c-1.4,1.2-2.1,3.5-2.1,6.7v2.4h10C-157.1,2541.4-157.1,2553.2-157.1,2553.2z"/>
		<path class="st0" d="M-93.3,2541.4l-35.2,83.8h-15.3l12.3-28.3l-22.8-55.5h16.1l14.7,39.7l14.9-39.7H-93.3z"/>
		<path class="st0" d="M-457.3,2681h-28.5l-4.7,13.7h-15.1l25.8-71.8h16.7l25.8,71.8h-15.2L-457.3,2681z M-461.2,2669.5l-10.4-30
			l-10.4,30H-461.2z"/>
		<path class="st0" d="M-427.8,2650.8c2.4-4.4,5.7-7.8,10-10.3s9.1-3.6,14.6-3.6c7.1,0,12.9,1.8,17.5,5.3s7.7,8.5,9.3,14.8H-392
			c-0.8-2.5-2.2-4.4-4.2-5.8c-2-1.4-4.4-2.1-7.2-2.1c-4.1,0-7.4,1.5-9.8,4.5s-3.6,7.2-3.6,12.7c0,5.4,1.2,9.6,3.6,12.6
			c2.4,3,5.6,4.5,9.8,4.5c5.8,0,9.6-2.6,11.4-7.8h15.5c-1.6,6.2-4.7,11.1-9.4,14.7s-10.5,5.4-17.5,5.4c-5.5,0-10.3-1.2-14.6-3.6
			c-4.2-2.4-7.6-5.9-10-10.3c-2.4-4.4-3.6-9.6-3.6-15.5C-431.4,2660.3-430.2,2655.2-427.8,2650.8z"/>
		<path class="st0" d="M-366.1,2650.7c2.3-4.4,5.4-7.9,9.4-10.3s8.3-3.6,13.2-3.6c4.2,0,8,0.9,11.1,2.6s5.7,3.9,7.6,6.5v-8.1h14.5
			v56.9h-14.5v-8.3c-1.9,2.7-4.4,4.9-7.7,6.6c-3.2,1.8-7,2.6-11.2,2.6c-4.8,0-9.2-1.2-13.1-3.7c-3.9-2.5-7.1-5.9-9.4-10.4
			c-2.3-4.5-3.4-9.6-3.4-15.5C-369.6,2660.2-368.4,2655.1-366.1,2650.7z M-326.9,2657.2c-1.4-2.5-3.2-4.4-5.5-5.8
			c-2.3-1.3-4.8-2-7.5-2c-2.7,0-5.1,0.6-7.4,1.9c-2.3,1.3-4.1,3.2-5.5,5.7s-2.1,5.5-2.1,8.9s0.7,6.4,2.1,9s3.2,4.5,5.6,5.9
			c2.3,1.4,4.7,2.1,7.3,2.1c2.7,0,5.2-0.7,7.5-2c2.3-1.3,4.2-3.2,5.6-5.8c1.4-2.5,2.1-5.5,2.1-9
			C-324.8,2662.7-325.5,2659.7-326.9,2657.2z"/>
		<path class="st0" d="M-296.5,2650.7c2.3-4.4,5.4-7.9,9.4-10.3s8.4-3.6,13.2-3.6c3.7,0,7.2,0.8,10.6,2.4c3.4,1.6,6,3.8,8,6.4v-27
			h14.6v76h-14.6v-8.4c-1.8,2.8-4.3,5.1-7.5,6.8s-6.9,2.6-11.2,2.6c-4.8,0-9.2-1.2-13.1-3.7c-4-2.5-7.1-5.9-9.4-10.4
			c-2.3-4.5-3.4-9.6-3.4-15.5C-299.9,2660.2-298.8,2655.1-296.5,2650.7z M-257.2,2657.2c-1.4-2.5-3.2-4.4-5.5-5.8
			c-2.3-1.3-4.8-2-7.5-2c-2.7,0-5.1,0.6-7.4,1.9c-2.3,1.3-4.1,3.2-5.5,5.7s-2.1,5.5-2.1,8.9s0.7,6.4,2.1,9s3.2,4.5,5.5,5.9
			c2.3,1.4,4.7,2.1,7.3,2.1c2.7,0,5.2-0.7,7.5-2c2.3-1.3,4.2-3.2,5.6-5.8c1.4-2.5,2-5.5,2-9
			C-255.2,2662.7-255.9,2659.7-257.2,2657.2z"/>
		<path class="st0" d="M-174.1,2670.5h-41.6c0.3,4.1,1.8,7.3,4.3,9.6c2.5,2.3,5.6,3.5,9.3,3.5c5.3,0,9.1-2.3,11.4-6.9h15.5
			c-1.6,5.5-4.8,10-9.4,13.5c-4.7,3.5-10.4,5.3-17.1,5.3c-5.5,0-10.4-1.2-14.7-3.6c-4.3-2.4-7.7-5.9-10.2-10.3
			c-2.4-4.4-3.6-9.6-3.6-15.4c0-5.9,1.2-11.1,3.6-15.5c2.4-4.4,5.8-7.9,10.1-10.3s9.3-3.6,14.9-3.6c5.4,0,10.2,1.2,14.5,3.5
			c4.3,2.3,7.6,5.6,10,9.9s3.5,9.2,3.5,14.7C-173.7,2667-173.9,2668.9-174.1,2670.5z M-188.6,2660.9c-0.1-3.7-1.4-6.7-4-8.9
			c-2.6-2.2-5.8-3.3-9.6-3.3c-3.6,0-6.6,1.1-9,3.2c-2.4,2.2-3.9,5.1-4.5,9L-188.6,2660.9L-188.6,2660.9z"/>
		<path class="st0" d="M-75.7,2643.4c4.3,4.3,6.4,10.2,6.4,17.9v33.4h-14.4v-31.4c0-4.4-1.1-7.9-3.4-10.2c-2.3-2.4-5.3-3.5-9.2-3.5
			s-7,1.2-9.3,3.5s-3.4,5.8-3.4,10.2v31.4h-14.4v-31.4c0-4.4-1.1-7.9-3.4-10.2c-2.3-2.4-5.3-3.5-9.2-3.5c-4,0-7.1,1.2-9.4,3.5
			c-2.3,2.4-3.4,5.8-3.4,10.2v31.4h-14.4v-56.9h14.4v6.9c1.9-2.4,4.2-4.3,7.1-5.6c2.9-1.4,6.1-2.1,9.6-2.1c4.5,0,8.4,0.9,11.9,2.8
			c3.5,1.9,6.2,4.6,8.1,8.1c1.9-3.3,4.5-5.9,8.1-7.9s7.3-3,11.4-3C-85.6,2636.9-80,2639.1-75.7,2643.4z"/>
		<path class="st0" d="M-1.2,2637.8l-35.2,83.8h-15.3l12.3-28.3l-22.8-55.5h16.1l14.7,39.7l14.9-39.7H-1.2z"/>
	</g>
</g>
<g>
	<g>
		<path class="st6" d="M-588.4,2338.7l40.7-126.8c1.5-4.6,0-9.7-3.7-12.8c-14.2-11.9-32.5-17.8-51-16.4c-4.9,0.4-9,3.7-10.5,8.3
			l-40.7,126.8c-2,6.3,1.5,13.1,7.8,15.1l42.3,13.6C-597.2,2348.5-590.5,2345-588.4,2338.7z"/>
		<path class="st6" d="M-650.4,2249.4c4.7-16.3,4.7-33.7,0-50c-1.5-5.1-6.2-8.6-11.5-8.6h-135.6c-5.3,0-10,3.5-11.5,8.6
			c-4.7,16.3-4.7,33.7,0,50c1.5,5.1,6.2,8.6,11.5,8.6h135.7C-656.6,2258-651.9,2254.5-650.4,2249.4z"/>
		<path class="st6" d="M-708.4,2334.9c4.7-16.3,4.7-33.7,0-50c-1.5-5.1-6.2-8.6-11.5-8.6h-135.6c-5.3,0-10,3.5-11.5,8.6
			c-4.7,16.3-4.7,33.7,0,50c1.5,5.1,6.2,8.6,11.5,8.6h135.7C-714.6,2343.5-709.9,2340.1-708.4,2334.9z"/>
		<path class="st6" d="M-837.9,2422.9c-7-17.2-7-36.4,0-53.6c1.8-4.5,6.2-7.4,11.1-7.4h224.3c4.9,0,9.3,2.9,11.1,7.4
			c7,17.2,7,36.4,0,53.6c-1.8,4.5-6.2,7.4-11.1,7.4h-224.3C-831.6,2430.3-836,2427.4-837.9,2422.9z"/>
	</g>
	<g>
		<path class="st0" d="M-486.9,2282.7h23.6v11.4h-38v-71.7h14.4V2282.7z"/>
		<path class="st0" d="M-401.6,2269.9h-41.6c0.3,4.1,1.8,7.3,4.3,9.6c2.5,2.3,5.7,3.5,9.4,3.5c5.3,0,9.1-2.3,11.4-6.9h15.5
			c-1.6,5.5-4.8,10-9.5,13.5c-4.7,3.5-10.4,5.3-17.1,5.3c-5.5,0-10.4-1.2-14.7-3.6c-4.4-2.4-7.7-5.9-10.2-10.3s-3.6-9.6-3.6-15.4
			c0-5.9,1.2-11.1,3.6-15.5c2.4-4.4,5.8-7.9,10.1-10.3s9.3-3.6,14.9-3.6c5.4,0,10.2,1.2,14.5,3.5c4.3,2.3,7.6,5.6,10,9.9
			c2.4,4.3,3.5,9.2,3.5,14.7C-401.2,2266.4-401.3,2268.3-401.6,2269.9z M-416.1,2260.3c-0.1-3.7-1.4-6.7-4-8.9s-5.8-3.3-9.6-3.3
			c-3.6,0-6.6,1.1-9,3.2s-3.9,5.1-4.5,9L-416.1,2260.3L-416.1,2260.3z"/>
		<path class="st0" d="M-391,2250.1c2.3-4.4,5.4-7.9,9.3-10.3s8.3-3.6,13.2-3.6c4.2,0,8,0.9,11.1,2.6c3.2,1.7,5.7,3.9,7.6,6.5v-8.1
			h14.5v56.9h-14.5v-8.3c-1.9,2.7-4.4,4.9-7.6,6.6c-3.2,1.8-7,2.6-11.2,2.6c-4.8,0-9.2-1.2-13.1-3.7c-3.9-2.5-7.1-5.9-9.4-10.4
			c-2.3-4.5-3.4-9.6-3.4-15.5C-394.4,2259.7-393.3,2254.6-391,2250.1z M-351.7,2256.6c-1.4-2.5-3.2-4.4-5.5-5.8s-4.8-2-7.5-2
			s-5.1,0.6-7.4,1.9c-2.3,1.3-4.1,3.2-5.5,5.7c-1.4,2.5-2.1,5.5-2.1,8.9s0.7,6.4,2.1,9c1.4,2.6,3.2,4.5,5.5,5.9
			c2.3,1.4,4.7,2.1,7.3,2.1c2.7,0,5.2-0.7,7.5-2c2.3-1.3,4.2-3.2,5.5-5.8c1.4-2.5,2-5.5,2-9
			C-349.6,2262.1-350.3,2259.1-351.7,2256.6z"/>
		<path class="st0" d="M-299.5,2238.9c3-1.7,6.4-2.6,10.2-2.6v15.1h-3.8c-4.5,0-7.9,1.1-10.2,3.2c-2.3,2.1-3.4,5.8-3.4,11.1v28.3
			h-14.4v-56.9h14.4v8.8C-304.9,2243-302.5,2240.6-299.5,2238.9z"/>
		<path class="st0" d="M-231.6,2242.8c4.2,4.3,6.3,10.2,6.3,17.9v33.4h-14.4v-31.4c0-4.5-1.1-8-3.4-10.4c-2.3-2.4-5.3-3.6-9.2-3.6
			c-4,0-7.1,1.2-9.4,3.6c-2.3,2.4-3.4,5.9-3.4,10.4v31.4h-14.4v-56.9h14.4v7.1c1.9-2.5,4.4-4.4,7.3-5.8c3-1.4,6.3-2.1,9.8-2.1
			C-241.3,2236.4-235.8,2238.5-231.6,2242.8z"/>
		<path class="st0" d="M-210.8,2228c-1.7-1.6-2.5-3.6-2.5-6s0.8-4.4,2.5-6s3.8-2.4,6.3-2.4c2.5,0,4.6,0.8,6.3,2.4
			c1.7,1.6,2.5,3.6,2.5,6s-0.8,4.4-2.5,6s-3.8,2.4-6.3,2.4C-207,2230.4-209.1,2229.6-210.8,2228z M-197.4,2237.2v56.9h-14.4v-56.9
			H-197.4z"/>
		<path class="st0" d="M-157.1,2249h-10v45.1h-14.6V2249h-6.5v-11.8h6.5v-2.9c0-7,2-12.1,6-15.4c4-3.3,10-4.8,18-4.6v12.1
			c-3.5-0.1-5.9,0.5-7.3,1.8c-1.4,1.2-2.1,3.5-2.1,6.7v2.4h10C-157.1,2237.2-157.1,2249-157.1,2249z"/>
		<path class="st0" d="M-93.3,2237.2l-35.2,83.8h-15.3l12.3-28.3l-22.8-55.5h16.1l14.7,39.7l14.9-39.7H-93.3z"/>
		<path class="st0" d="M-457.3,2376.7h-28.5l-4.7,13.7h-15.1l25.8-71.8h16.7l25.8,71.8h-15.2L-457.3,2376.7z M-461.2,2365.2
			l-10.4-30l-10.4,30H-461.2z"/>
		<path class="st0" d="M-427.8,2346.5c2.4-4.4,5.7-7.8,10-10.3s9.1-3.6,14.6-3.6c7.1,0,12.9,1.8,17.5,5.3s7.7,8.5,9.3,14.8H-392
			c-0.8-2.5-2.2-4.4-4.2-5.8c-2-1.4-4.4-2.1-7.2-2.1c-4.1,0-7.4,1.5-9.8,4.5s-3.6,7.2-3.6,12.7c0,5.4,1.2,9.6,3.6,12.6
			c2.4,3,5.6,4.5,9.8,4.5c5.8,0,9.6-2.6,11.4-7.8h15.5c-1.6,6.2-4.7,11.1-9.4,14.7s-10.5,5.4-17.5,5.4c-5.5,0-10.3-1.2-14.6-3.6
			c-4.2-2.4-7.6-5.9-10-10.3c-2.4-4.4-3.6-9.6-3.6-15.5C-431.4,2356.1-430.2,2350.9-427.8,2346.5z"/>
		<path class="st0" d="M-366.1,2346.4c2.3-4.4,5.4-7.9,9.4-10.3s8.3-3.6,13.2-3.6c4.2,0,8,0.9,11.1,2.6s5.7,3.9,7.6,6.5v-8.1h14.5
			v56.9h-14.5v-8.3c-1.9,2.7-4.4,4.9-7.7,6.6c-3.2,1.8-7,2.6-11.2,2.6c-4.8,0-9.2-1.2-13.1-3.7c-3.9-2.5-7.1-5.9-9.4-10.4
			c-2.3-4.5-3.4-9.6-3.4-15.5C-369.6,2356-368.4,2350.9-366.1,2346.4z M-326.9,2353c-1.4-2.5-3.2-4.4-5.5-5.8c-2.3-1.3-4.8-2-7.5-2
			c-2.7,0-5.1,0.6-7.4,1.9c-2.3,1.3-4.1,3.2-5.5,5.7s-2.1,5.5-2.1,8.9s0.7,6.4,2.1,9s3.2,4.5,5.6,5.9c2.3,1.4,4.7,2.1,7.3,2.1
			c2.7,0,5.2-0.7,7.5-2c2.3-1.3,4.2-3.2,5.6-5.8c1.4-2.5,2.1-5.5,2.1-9C-324.8,2358.5-325.5,2355.5-326.9,2353z"/>
		<path class="st0" d="M-296.5,2346.4c2.3-4.4,5.4-7.9,9.4-10.3s8.4-3.6,13.2-3.6c3.7,0,7.2,0.8,10.6,2.4c3.4,1.6,6,3.8,8,6.4v-27
			h14.6v76h-14.6v-8.4c-1.8,2.8-4.3,5.1-7.5,6.8s-6.9,2.6-11.2,2.6c-4.8,0-9.2-1.2-13.1-3.7c-4-2.5-7.1-5.9-9.4-10.4
			c-2.3-4.5-3.4-9.6-3.4-15.5C-299.9,2356-298.8,2350.9-296.5,2346.4z M-257.2,2353c-1.4-2.5-3.2-4.4-5.5-5.8c-2.3-1.3-4.8-2-7.5-2
			c-2.7,0-5.1,0.6-7.4,1.9c-2.3,1.3-4.1,3.2-5.5,5.7s-2.1,5.5-2.1,8.9s0.7,6.4,2.1,9s3.2,4.5,5.5,5.9c2.3,1.4,4.7,2.1,7.3,2.1
			c2.7,0,5.2-0.7,7.5-2c2.3-1.3,4.2-3.2,5.6-5.8c1.4-2.5,2-5.5,2-9C-255.2,2358.5-255.9,2355.5-257.2,2353z"/>
		<path class="st0" d="M-174.1,2366.3h-41.6c0.3,4.1,1.8,7.3,4.3,9.6c2.5,2.3,5.6,3.5,9.3,3.5c5.3,0,9.1-2.3,11.4-6.9h15.5
			c-1.6,5.5-4.8,10-9.4,13.5c-4.7,3.5-10.4,5.3-17.1,5.3c-5.5,0-10.4-1.2-14.7-3.6c-4.3-2.4-7.7-5.9-10.2-10.3
			c-2.4-4.4-3.6-9.6-3.6-15.4c0-5.9,1.2-11.1,3.6-15.5c2.4-4.4,5.8-7.9,10.1-10.3s9.3-3.6,14.9-3.6c5.4,0,10.2,1.2,14.5,3.5
			c4.3,2.3,7.6,5.6,10,9.9s3.5,9.2,3.5,14.7C-173.7,2362.8-173.9,2364.6-174.1,2366.3z M-188.6,2356.6c-0.1-3.7-1.4-6.7-4-8.9
			c-2.6-2.2-5.8-3.3-9.6-3.3c-3.6,0-6.6,1.1-9,3.2c-2.4,2.2-3.9,5.1-4.5,9L-188.6,2356.6L-188.6,2356.6z"/>
		<path class="st0" d="M-75.7,2339.1c4.3,4.3,6.4,10.2,6.4,17.9v33.4h-14.4V2359c0-4.4-1.1-7.9-3.4-10.2c-2.3-2.4-5.3-3.5-9.2-3.5
			s-7,1.2-9.3,3.5s-3.4,5.8-3.4,10.2v31.4h-14.4V2359c0-4.4-1.1-7.9-3.4-10.2c-2.3-2.4-5.3-3.5-9.2-3.5c-4,0-7.1,1.2-9.4,3.5
			c-2.3,2.4-3.4,5.8-3.4,10.2v31.4h-14.4v-56.9h14.4v6.9c1.9-2.4,4.2-4.3,7.1-5.6c2.9-1.4,6.1-2.1,9.6-2.1c4.5,0,8.4,0.9,11.9,2.8
			c3.5,1.9,6.2,4.6,8.1,8.1c1.9-3.3,4.5-5.9,8.1-7.9s7.3-3,11.4-3C-85.6,2332.7-80,2334.8-75.7,2339.1z"/>
		<path class="st0" d="M-1.2,2333.5l-35.2,83.8h-15.3l12.3-28.3l-22.8-55.5h16.1l14.7,39.7l14.9-39.7H-1.2z"/>
	</g>
</g>
<g>
	<g>
		<path class="st0" d="M-588.4,2036.8l40.7-126.8c1.5-4.6,0-9.7-3.7-12.8c-14.2-11.9-32.5-17.8-51-16.4c-4.9,0.4-9,3.7-10.5,8.3
			l-40.7,126.8c-2,6.3,1.5,13.1,7.8,15.1l42.3,13.6C-597.2,2046.6-590.5,2043.1-588.4,2036.8z"/>
		<path class="st0" d="M-650.4,1947.5c4.7-16.3,4.7-33.7,0-50c-1.5-5.1-6.2-8.6-11.5-8.6h-135.6c-5.3,0-10,3.5-11.5,8.6
			c-4.7,16.3-4.7,33.7,0,50c1.5,5.1,6.2,8.6,11.5,8.6h135.7C-656.6,1956.1-651.9,1952.6-650.4,1947.5z"/>
		<path class="st0" d="M-708.4,2033c4.7-16.3,4.7-33.7,0-50c-1.5-5.1-6.2-8.6-11.5-8.6h-135.6c-5.3,0-10,3.5-11.5,8.6
			c-4.7,16.3-4.7,33.7,0,50c1.5,5.1,6.2,8.6,11.5,8.6h135.7C-714.6,2041.6-709.9,2038.1-708.4,2033z"/>
		<path class="st0" d="M-837.9,2120.9c-7-17.2-7-36.4,0-53.6c1.8-4.5,6.2-7.4,11.1-7.4h224.3c4.9,0,9.3,2.9,11.1,7.4
			c7,17.2,7,36.4,0,53.6c-1.8,4.5-6.2,7.4-11.1,7.4h-224.3C-831.6,2128.4-836,2125.4-837.9,2120.9z"/>
	</g>
	<g>
		<path class="st6" d="M-486.9,1980.7h23.6v11.4h-38v-71.7h14.4V1980.7z"/>
		<path class="st6" d="M-401.6,1968h-41.6c0.3,4.1,1.8,7.3,4.3,9.7c2.5,2.3,5.7,3.5,9.4,3.5c5.3,0,9.1-2.3,11.4-6.9h15.5
			c-1.6,5.5-4.8,10-9.5,13.5c-4.7,3.5-10.4,5.3-17.1,5.3c-5.5,0-10.4-1.2-14.7-3.7c-4.4-2.4-7.7-5.9-10.2-10.3s-3.6-9.6-3.6-15.4
			c0-5.9,1.2-11.1,3.6-15.5c2.4-4.4,5.8-7.9,10.1-10.3s9.3-3.6,14.9-3.6c5.4,0,10.2,1.2,14.5,3.5c4.3,2.3,7.6,5.6,10,9.9
			c2.4,4.3,3.5,9.2,3.5,14.7C-401.2,1964.5-401.3,1966.3-401.6,1968z M-416.1,1958.3c-0.1-3.7-1.4-6.7-4-8.9s-5.8-3.3-9.6-3.3
			c-3.6,0-6.6,1.1-9,3.2s-3.9,5.2-4.5,9L-416.1,1958.3L-416.1,1958.3z"/>
		<path class="st6" d="M-391,1948.2c2.3-4.4,5.4-7.9,9.3-10.3s8.3-3.6,13.2-3.6c4.2,0,8,0.9,11.1,2.6c3.2,1.7,5.7,3.9,7.6,6.5v-8.1
			h14.5v56.9h-14.5v-8.3c-1.9,2.7-4.4,4.9-7.6,6.6c-3.2,1.8-7,2.6-11.2,2.6c-4.8,0-9.2-1.2-13.1-3.7c-3.9-2.5-7.1-5.9-9.4-10.4
			c-2.3-4.5-3.4-9.6-3.4-15.5C-394.4,1957.7-393.3,1952.6-391,1948.2z M-351.7,1954.7c-1.4-2.5-3.2-4.4-5.5-5.8s-4.8-2-7.5-2
			s-5.1,0.7-7.4,1.9c-2.3,1.3-4.1,3.2-5.5,5.7c-1.4,2.5-2.1,5.5-2.1,8.9s0.7,6.4,2.1,9c1.4,2.6,3.2,4.5,5.5,5.9
			c2.3,1.4,4.7,2.1,7.3,2.1c2.7,0,5.2-0.7,7.5-2c2.3-1.3,4.2-3.2,5.5-5.8c1.4-2.5,2-5.5,2-9
			C-349.6,1960.2-350.3,1957.2-351.7,1954.7z"/>
		<path class="st6" d="M-299.5,1937c3-1.7,6.4-2.6,10.2-2.6v15.1h-3.8c-4.5,0-7.9,1.1-10.2,3.2c-2.3,2.1-3.4,5.8-3.4,11.1v28.3
			h-14.4v-56.9h14.4v8.8C-304.9,1941.1-302.5,1938.7-299.5,1937z"/>
		<path class="st6" d="M-231.6,1940.8c4.2,4.3,6.3,10.2,6.3,17.9v33.4h-14.4v-31.4c0-4.5-1.1-8-3.4-10.4c-2.3-2.4-5.3-3.7-9.2-3.7
			c-4,0-7.1,1.2-9.4,3.7c-2.3,2.4-3.4,5.9-3.4,10.4v31.4h-14.4v-56.9h14.4v7.1c1.9-2.5,4.4-4.4,7.3-5.8c3-1.4,6.3-2.1,9.8-2.1
			C-241.3,1934.4-235.8,1936.6-231.6,1940.8z"/>
		<path class="st6" d="M-210.8,1926c-1.7-1.6-2.5-3.6-2.5-6s0.8-4.4,2.5-6s3.8-2.4,6.3-2.4c2.5,0,4.6,0.8,6.3,2.4
			c1.7,1.6,2.5,3.6,2.5,6s-0.8,4.4-2.5,6s-3.8,2.4-6.3,2.4C-207,1928.4-209.1,1927.7-210.8,1926z M-197.4,1935.2v56.9h-14.4v-56.9
			H-197.4z"/>
		<path class="st6" d="M-157.1,1947h-10v45.1h-14.6V1947h-6.5v-11.8h6.5v-2.9c0-7,2-12.1,6-15.4c4-3.3,10-4.8,18-4.6v12.1
			c-3.5-0.1-5.9,0.5-7.3,1.8c-1.4,1.2-2.1,3.5-2.1,6.7v2.4h10C-157.1,1935.2-157.1,1947-157.1,1947z"/>
		<path class="st6" d="M-93.3,1935.2l-35.2,83.8h-15.3l12.3-28.3l-22.8-55.5h16.1l14.7,39.7l14.9-39.7L-93.3,1935.2L-93.3,1935.2z"
			/>
		<path class="st6" d="M-457.3,2074.8h-28.5l-4.7,13.7h-15.1l25.8-71.8h16.7l25.8,71.8h-15.2L-457.3,2074.8z M-461.2,2063.3
			l-10.4-30l-10.4,30H-461.2z"/>
		<path class="st6" d="M-427.8,2044.6c2.4-4.4,5.7-7.8,10-10.3s9.1-3.7,14.6-3.7c7.1,0,12.9,1.8,17.5,5.3s7.7,8.5,9.3,14.8H-392
			c-0.8-2.5-2.2-4.4-4.2-5.8s-4.4-2.1-7.2-2.1c-4.1,0-7.4,1.5-9.8,4.5c-2.4,3-3.6,7.2-3.6,12.7c0,5.4,1.2,9.6,3.6,12.6
			c2.4,3,5.6,4.5,9.8,4.5c5.8,0,9.6-2.6,11.4-7.8h15.5c-1.6,6.2-4.7,11.1-9.4,14.7s-10.5,5.4-17.5,5.4c-5.5,0-10.3-1.2-14.6-3.6
			c-4.2-2.4-7.6-5.9-10-10.3c-2.4-4.4-3.6-9.6-3.6-15.5C-431.4,2054.1-430.2,2049-427.8,2044.6z"/>
		<path class="st6" d="M-366.1,2044.5c2.3-4.4,5.4-7.9,9.4-10.3s8.3-3.6,13.2-3.6c4.2,0,8,0.9,11.1,2.6s5.7,3.9,7.6,6.5v-8.1h14.5
			v56.9h-14.5v-8.3c-1.9,2.7-4.4,4.9-7.7,6.6c-3.2,1.8-7,2.6-11.2,2.6c-4.8,0-9.2-1.2-13.1-3.7c-3.9-2.5-7.1-5.9-9.4-10.4
			c-2.3-4.5-3.4-9.6-3.4-15.5C-369.6,2054.1-368.4,2049-366.1,2044.5z M-326.9,2051c-1.4-2.5-3.2-4.4-5.5-5.8c-2.3-1.3-4.8-2-7.5-2
			c-2.7,0-5.1,0.7-7.4,1.9c-2.3,1.3-4.1,3.2-5.5,5.7s-2.1,5.5-2.1,8.9s0.7,6.4,2.1,9s3.2,4.5,5.6,5.9c2.3,1.4,4.7,2.1,7.3,2.1
			c2.7,0,5.2-0.7,7.5-2c2.3-1.3,4.2-3.2,5.6-5.8c1.4-2.5,2.1-5.5,2.1-9C-324.8,2056.5-325.5,2053.5-326.9,2051z"/>
		<path class="st6" d="M-296.5,2044.5c2.3-4.4,5.4-7.9,9.4-10.3s8.4-3.6,13.2-3.6c3.7,0,7.2,0.8,10.6,2.4c3.4,1.6,6,3.8,8,6.4v-27
			h14.6v76h-14.6v-8.4c-1.8,2.8-4.3,5.1-7.5,6.8s-6.9,2.6-11.2,2.6c-4.8,0-9.2-1.2-13.1-3.7c-4-2.5-7.1-5.9-9.4-10.4
			c-2.3-4.5-3.4-9.6-3.4-15.5C-299.9,2054.1-298.8,2049-296.5,2044.5z M-257.2,2051c-1.4-2.5-3.2-4.4-5.5-5.8c-2.3-1.3-4.8-2-7.5-2
			c-2.7,0-5.1,0.7-7.4,1.9c-2.3,1.3-4.1,3.2-5.5,5.7s-2.1,5.5-2.1,8.9s0.7,6.4,2.1,9s3.2,4.5,5.5,5.9c2.3,1.4,4.7,2.1,7.3,2.1
			c2.7,0,5.2-0.7,7.5-2c2.3-1.3,4.2-3.2,5.6-5.8c1.4-2.5,2-5.5,2-9C-255.2,2056.5-255.9,2053.5-257.2,2051z"/>
		<path class="st6" d="M-174.1,2064.3h-41.6c0.3,4.1,1.8,7.3,4.3,9.6c2.5,2.3,5.6,3.5,9.3,3.5c5.3,0,9.1-2.3,11.4-6.9h15.5
			c-1.6,5.5-4.8,10-9.4,13.5c-4.7,3.5-10.4,5.3-17.1,5.3c-5.5,0-10.4-1.2-14.7-3.6c-4.3-2.4-7.7-5.9-10.2-10.3
			c-2.4-4.4-3.6-9.6-3.6-15.4c0-5.9,1.2-11.1,3.6-15.5c2.4-4.4,5.8-7.9,10.1-10.3s9.3-3.6,14.9-3.6c5.4,0,10.2,1.2,14.5,3.5
			c4.3,2.3,7.6,5.6,10,9.9s3.5,9.2,3.5,14.7C-173.7,2060.8-173.9,2062.7-174.1,2064.3z M-188.6,2054.7c-0.1-3.7-1.4-6.7-4-8.9
			c-2.6-2.2-5.8-3.3-9.6-3.3c-3.6,0-6.6,1.1-9,3.2c-2.4,2.2-3.9,5.1-4.5,9L-188.6,2054.7L-188.6,2054.7z"/>
		<path class="st6" d="M-75.7,2037.2c4.3,4.3,6.4,10.2,6.4,17.9v33.4h-14.4V2057c0-4.4-1.1-7.9-3.4-10.2c-2.3-2.4-5.3-3.5-9.2-3.5
			s-7,1.2-9.3,3.5c-2.3,2.4-3.4,5.8-3.4,10.2v31.4h-14.4V2057c0-4.4-1.1-7.9-3.4-10.2c-2.3-2.4-5.3-3.5-9.2-3.5
			c-4,0-7.1,1.2-9.4,3.5c-2.3,2.4-3.4,5.8-3.4,10.2v31.4h-14.4v-56.9h14.4v6.9c1.9-2.4,4.2-4.3,7.1-5.7c2.9-1.4,6.1-2.1,9.6-2.1
			c4.5,0,8.4,0.9,11.9,2.8s6.2,4.6,8.1,8.1c1.9-3.3,4.5-5.9,8.1-7.9s7.3-3,11.4-3C-85.6,2030.8-80,2032.9-75.7,2037.2z"/>
		<path class="st6" d="M-1.2,2031.6l-35.2,83.8h-15.3l12.3-28.3l-22.8-55.5h16.1l14.7,39.7l14.9-39.7L-1.2,2031.6L-1.2,2031.6z"/>
	</g>
</g>
<g>
	<g>
		<path class="st6" d="M-588.4,1601.3l40.7-126.8c1.5-4.6,0-9.7-3.7-12.8c-14.2-11.9-32.5-17.8-51-16.4c-4.9,0.4-9,3.7-10.5,8.3
			l-40.7,126.8c-2,6.3,1.5,13.1,7.8,15.1l42.3,13.6C-597.2,1611.1-590.5,1607.6-588.4,1601.3z"/>
		<path class="st6" d="M-650.4,1512c4.7-16.3,4.7-33.7,0-50c-1.5-5.1-6.2-8.6-11.5-8.6h-135.6c-5.3,0-10,3.5-11.5,8.6
			c-4.7,16.3-4.7,33.7,0,50c1.5,5.1,6.2,8.6,11.5,8.6h135.7C-656.6,1520.6-651.9,1517.1-650.4,1512z"/>
		<path class="st6" d="M-708.4,1597.5c4.7-16.3,4.7-33.7,0-50c-1.5-5.1-6.2-8.6-11.5-8.6h-135.6c-5.3,0-10,3.5-11.5,8.6
			c-4.7,16.3-4.7,33.7,0,50c1.5,5.1,6.2,8.6,11.5,8.6h135.7C-714.6,1606.1-709.9,1602.6-708.4,1597.5z"/>
		<path class="st6" d="M-837.9,1685.4c-7-17.2-7-36.4,0-53.6c1.8-4.5,6.2-7.4,11.1-7.4h224.3c4.9,0,9.3,2.9,11.1,7.4
			c7,17.2,7,36.4,0,53.6c-1.8,4.5-6.2,7.4-11.1,7.4h-224.3C-831.6,1692.9-836,1689.9-837.9,1685.4z"/>
	</g>
	<g>
		<path class="st6" d="M-486.9,1545.2h23.6v11.4h-38V1485h14.4V1545.2z"/>
		<path class="st6" d="M-401.6,1532.5h-41.6c0.3,4.1,1.8,7.3,4.3,9.7c2.5,2.3,5.7,3.5,9.4,3.5c5.3,0,9.1-2.3,11.4-6.9h15.5
			c-1.6,5.5-4.8,10-9.5,13.5c-4.7,3.5-10.4,5.3-17.1,5.3c-5.5,0-10.4-1.2-14.7-3.7c-4.4-2.4-7.7-5.9-10.2-10.3s-3.6-9.6-3.6-15.4
			c0-5.9,1.2-11.1,3.6-15.5c2.4-4.4,5.8-7.9,10.1-10.3s9.3-3.6,14.9-3.6c5.4,0,10.2,1.2,14.5,3.5c4.3,2.3,7.6,5.6,10,9.9
			c2.4,4.3,3.5,9.2,3.5,14.7C-401.2,1529-401.3,1530.9-401.6,1532.5z M-416.1,1522.9c-0.1-3.7-1.4-6.7-4-8.9s-5.8-3.3-9.6-3.3
			c-3.6,0-6.6,1.1-9,3.2s-3.9,5.2-4.5,9L-416.1,1522.9L-416.1,1522.9z"/>
		<path class="st6" d="M-391,1512.7c2.3-4.4,5.4-7.9,9.3-10.3s8.3-3.6,13.2-3.6c4.2,0,8,0.9,11.1,2.6c3.2,1.7,5.7,3.9,7.6,6.5v-8.1
			h14.5v56.9h-14.5v-8.3c-1.9,2.7-4.4,4.9-7.6,6.6c-3.2,1.8-7,2.6-11.2,2.6c-4.8,0-9.2-1.2-13.1-3.7c-3.9-2.5-7.1-5.9-9.4-10.4
			c-2.3-4.5-3.4-9.6-3.4-15.5C-394.4,1522.2-393.3,1517.1-391,1512.7z M-351.7,1519.2c-1.4-2.5-3.2-4.4-5.5-5.8s-4.8-2-7.5-2
			s-5.1,0.7-7.4,1.9c-2.3,1.3-4.1,3.2-5.5,5.7c-1.4,2.5-2.1,5.5-2.1,8.9s0.7,6.4,2.1,9c1.4,2.6,3.2,4.5,5.5,5.9
			c2.3,1.4,4.7,2.1,7.3,2.1c2.7,0,5.2-0.7,7.5-2c2.3-1.3,4.2-3.2,5.5-5.8c1.4-2.5,2-5.5,2-9
			C-349.6,1524.7-350.3,1521.7-351.7,1519.2z"/>
		<path class="st6" d="M-299.5,1501.5c3-1.7,6.4-2.6,10.2-2.6v15.1h-3.8c-4.5,0-7.9,1.1-10.2,3.2c-2.3,2.1-3.4,5.8-3.4,11.1v28.3
			h-14.4v-56.9h14.4v8.8C-304.9,1505.6-302.5,1503.2-299.5,1501.5z"/>
		<path class="st6" d="M-231.6,1505.3c4.2,4.3,6.3,10.2,6.3,17.9v33.4h-14.4v-31.4c0-4.5-1.1-8-3.4-10.4c-2.3-2.4-5.3-3.7-9.2-3.7
			c-4,0-7.1,1.2-9.4,3.7c-2.3,2.4-3.4,5.9-3.4,10.4v31.4h-14.4v-56.9h14.4v7.1c1.9-2.5,4.4-4.4,7.3-5.8c3-1.4,6.3-2.1,9.8-2.1
			C-241.3,1498.9-235.8,1501.1-231.6,1505.3z"/>
		<path class="st6" d="M-210.8,1490.6c-1.7-1.6-2.5-3.6-2.5-6s0.8-4.4,2.5-6s3.8-2.4,6.3-2.4c2.5,0,4.6,0.8,6.3,2.4
			c1.7,1.6,2.5,3.6,2.5,6s-0.8,4.4-2.5,6s-3.8,2.4-6.3,2.4C-207,1493-209.1,1492.2-210.8,1490.6z M-197.4,1499.8v56.9h-14.4v-56.9
			H-197.4z"/>
		<path class="st6" d="M-157.1,1511.6h-10v45.1h-14.6v-45.1h-6.5v-11.8h6.5v-2.9c0-7,2-12.1,6-15.4c4-3.3,10-4.8,18-4.6v12.1
			c-3.5-0.1-5.9,0.5-7.3,1.8c-1.4,1.2-2.1,3.5-2.1,6.7v2.4h10C-157.1,1499.8-157.1,1511.6-157.1,1511.6z"/>
		<path class="st6" d="M-93.3,1499.8l-35.2,83.8h-15.3l12.3-28.3l-22.8-55.5h16.1l14.7,39.7l14.9-39.7L-93.3,1499.8L-93.3,1499.8z"
			/>
		<path class="st6" d="M-457.3,1639.3h-28.5l-4.7,13.7h-15.1l25.8-71.8h16.7l25.8,71.8h-15.2L-457.3,1639.3z M-461.2,1627.8
			l-10.4-30l-10.4,30H-461.2z"/>
		<path class="st6" d="M-427.8,1609.1c2.4-4.4,5.7-7.8,10-10.3s9.1-3.7,14.6-3.7c7.1,0,12.9,1.8,17.5,5.3s7.7,8.5,9.3,14.8H-392
			c-0.8-2.5-2.2-4.4-4.2-5.8s-4.4-2.1-7.2-2.1c-4.1,0-7.4,1.5-9.8,4.5s-3.6,7.2-3.6,12.7c0,5.4,1.2,9.6,3.6,12.6
			c2.4,3,5.6,4.5,9.8,4.5c5.8,0,9.6-2.6,11.4-7.8h15.5c-1.6,6.2-4.7,11.1-9.4,14.7c-4.7,3.6-10.5,5.4-17.5,5.4
			c-5.5,0-10.3-1.2-14.6-3.7c-4.2-2.4-7.6-5.8-10-10.3c-2.4-4.4-3.6-9.6-3.6-15.5C-431.4,1618.7-430.2,1613.5-427.8,1609.1z"/>
		<path class="st6" d="M-366.1,1609c2.3-4.4,5.4-7.9,9.4-10.3s8.3-3.6,13.2-3.6c4.2,0,8,0.9,11.1,2.6s5.7,3.9,7.6,6.5v-8.1h14.5
			v56.9h-14.5v-8.3c-1.9,2.7-4.4,4.9-7.7,6.6c-3.2,1.8-7,2.6-11.2,2.6c-4.8,0-9.2-1.2-13.1-3.7c-3.9-2.5-7.1-5.9-9.4-10.4
			c-2.3-4.5-3.4-9.6-3.4-15.5C-369.6,1618.6-368.4,1613.5-366.1,1609z M-326.9,1615.6c-1.4-2.5-3.2-4.4-5.5-5.8
			c-2.3-1.3-4.8-2-7.5-2c-2.7,0-5.1,0.7-7.4,1.9c-2.3,1.3-4.1,3.2-5.5,5.7s-2.1,5.5-2.1,8.9s0.7,6.4,2.1,9s3.2,4.5,5.6,5.9
			c2.3,1.4,4.7,2.1,7.3,2.1c2.7,0,5.2-0.7,7.5-2c2.3-1.3,4.2-3.2,5.6-5.8c1.4-2.5,2.1-5.5,2.1-9
			C-324.8,1621-325.5,1618.1-326.9,1615.6z"/>
		<path class="st6" d="M-296.5,1609c2.3-4.4,5.4-7.9,9.4-10.3s8.4-3.6,13.2-3.6c3.7,0,7.2,0.8,10.6,2.4c3.4,1.6,6,3.8,8,6.4v-27
			h14.6v76h-14.6v-8.4c-1.8,2.8-4.3,5.1-7.5,6.8c-3.2,1.7-6.9,2.6-11.2,2.6c-4.8,0-9.2-1.2-13.1-3.7c-4-2.5-7.1-5.9-9.4-10.4
			c-2.3-4.5-3.4-9.6-3.4-15.5C-299.9,1618.6-298.8,1613.5-296.5,1609z M-257.2,1615.6c-1.4-2.5-3.2-4.4-5.5-5.8
			c-2.3-1.3-4.8-2-7.5-2c-2.7,0-5.1,0.7-7.4,1.9c-2.3,1.3-4.1,3.2-5.5,5.7s-2.1,5.5-2.1,8.9s0.7,6.4,2.1,9s3.2,4.5,5.5,5.9
			c2.3,1.4,4.7,2.1,7.3,2.1c2.7,0,5.2-0.7,7.5-2c2.3-1.3,4.2-3.2,5.6-5.8c1.4-2.5,2-5.5,2-9C-255.2,1621-255.9,1618.1-257.2,1615.6z
			"/>
		<path class="st6" d="M-174.1,1628.8h-41.6c0.3,4.1,1.8,7.3,4.3,9.7c2.5,2.3,5.6,3.5,9.3,3.5c5.3,0,9.1-2.3,11.4-6.9h15.5
			c-1.6,5.5-4.8,10-9.4,13.5c-4.7,3.5-10.4,5.3-17.1,5.3c-5.5,0-10.4-1.2-14.7-3.7c-4.3-2.4-7.7-5.9-10.2-10.3
			c-2.4-4.4-3.6-9.6-3.6-15.4c0-5.9,1.2-11.1,3.6-15.5c2.4-4.4,5.8-7.9,10.1-10.3s9.3-3.6,14.9-3.6c5.4,0,10.2,1.2,14.5,3.5
			c4.3,2.3,7.6,5.6,10,9.9s3.5,9.2,3.5,14.7C-173.7,1625.3-173.9,1627.2-174.1,1628.8z M-188.6,1619.2c-0.1-3.7-1.4-6.7-4-8.9
			c-2.6-2.2-5.8-3.3-9.6-3.3c-3.6,0-6.6,1.1-9,3.2c-2.4,2.2-3.9,5.2-4.5,9L-188.6,1619.2L-188.6,1619.2z"/>
		<path class="st6" d="M-75.7,1601.7c4.3,4.3,6.4,10.2,6.4,17.9v33.4h-14.4v-31.4c0-4.4-1.1-7.9-3.4-10.2s-5.3-3.5-9.2-3.5
			s-7,1.2-9.3,3.5s-3.4,5.8-3.4,10.2v31.4h-14.4v-31.4c0-4.4-1.1-7.9-3.4-10.2s-5.3-3.5-9.2-3.5c-4,0-7.1,1.2-9.4,3.5
			c-2.3,2.4-3.4,5.8-3.4,10.2v31.4h-14.4v-56.9h14.4v6.9c1.9-2.4,4.2-4.3,7.1-5.7c2.9-1.4,6.1-2.1,9.6-2.1c4.5,0,8.4,0.9,11.9,2.8
			s6.2,4.6,8.1,8.1c1.9-3.3,4.5-5.9,8.1-7.9s7.3-3,11.4-3C-85.6,1595.3-80,1597.4-75.7,1601.7z"/>
		<path class="st6" d="M-1.2,1596.1l-35.2,83.8h-15.3l12.3-28.3l-22.8-55.5h16.1l14.7,39.7l14.9-39.7L-1.2,1596.1L-1.2,1596.1z"/>
	</g>
</g>
<g>
	<g>
		<path class="st6" d="M-588.4,1284.3l40.7-126.8c1.5-4.6,0-9.7-3.7-12.8c-14.2-11.9-32.5-17.8-51-16.4c-4.9,0.4-9,3.7-10.5,8.3
			l-40.7,126.8c-2,6.3,1.5,13.1,7.8,15.1l42.3,13.6C-597.2,1294-590.5,1290.6-588.4,1284.3z"/>
		<path class="st6" d="M-650.4,1195c4.7-16.3,4.7-33.7,0-50c-1.5-5.1-6.2-8.6-11.5-8.6h-135.6c-5.3,0-10,3.5-11.5,8.6
			c-4.7,16.3-4.7,33.7,0,50c1.5,5.1,6.2,8.6,11.5,8.6h135.7C-656.6,1203.6-651.9,1200.1-650.4,1195z"/>
		<path class="st6" d="M-708.4,1280.5c4.7-16.3,4.7-33.7,0-50c-1.5-5.1-6.2-8.6-11.5-8.6h-135.6c-5.3,0-10,3.5-11.5,8.6
			c-4.7,16.3-4.7,33.7,0,50c1.5,5.1,6.2,8.6,11.5,8.6h135.7C-714.6,1289.1-709.9,1285.6-708.4,1280.5z"/>
		<path class="st6" d="M-837.9,1368.4c-7-17.2-7-36.4,0-53.6c1.8-4.5,6.2-7.4,11.1-7.4h224.3c4.9,0,9.3,2.9,11.1,7.4
			c7,17.2,7,36.4,0,53.6c-1.8,4.5-6.2,7.4-11.1,7.4h-224.3C-831.6,1375.8-836,1372.9-837.9,1368.4z"/>
	</g>
	<g>
		<path class="st2" d="M-486.9,1228.2h23.6v11.4h-38v-71.7h14.4V1228.2z"/>
		<path class="st2" d="M-401.6,1215.5h-41.6c0.3,4.1,1.8,7.3,4.3,9.7c2.5,2.3,5.7,3.5,9.4,3.5c5.3,0,9.1-2.3,11.4-6.9h15.5
			c-1.6,5.5-4.8,10-9.5,13.5c-4.7,3.5-10.4,5.3-17.1,5.3c-5.5,0-10.4-1.2-14.7-3.7c-4.4-2.4-7.7-5.9-10.2-10.3s-3.6-9.6-3.6-15.4
			c0-5.9,1.2-11.1,3.6-15.5c2.4-4.4,5.8-7.9,10.1-10.3s9.3-3.6,14.9-3.6c5.4,0,10.2,1.2,14.5,3.5c4.3,2.3,7.6,5.6,10,9.9
			c2.4,4.3,3.5,9.2,3.5,14.7C-401.2,1212-401.3,1213.8-401.6,1215.5z M-416.1,1205.8c-0.1-3.7-1.4-6.7-4-8.9s-5.8-3.3-9.6-3.3
			c-3.6,0-6.6,1.1-9,3.2s-3.9,5.2-4.5,9L-416.1,1205.8L-416.1,1205.8z"/>
		<path class="st2" d="M-391,1195.7c2.3-4.4,5.4-7.9,9.3-10.3s8.3-3.6,13.2-3.6c4.2,0,8,0.9,11.1,2.6c3.2,1.7,5.7,3.9,7.6,6.5v-8.1
			h14.5v56.9h-14.5v-8.3c-1.9,2.7-4.4,4.9-7.6,6.6c-3.2,1.8-7,2.6-11.2,2.6c-4.8,0-9.2-1.2-13.1-3.7c-3.9-2.5-7.1-5.9-9.4-10.4
			c-2.3-4.5-3.4-9.6-3.4-15.5C-394.4,1205.2-393.3,1200.1-391,1195.7z M-351.7,1202.2c-1.4-2.5-3.2-4.4-5.5-5.8s-4.8-2-7.5-2
			s-5.1,0.7-7.4,1.9c-2.3,1.3-4.1,3.2-5.5,5.7c-1.4,2.5-2.1,5.5-2.1,8.9s0.7,6.4,2.1,9c1.4,2.6,3.2,4.5,5.5,5.9
			c2.3,1.4,4.7,2.1,7.3,2.1c2.7,0,5.2-0.7,7.5-2c2.3-1.3,4.2-3.2,5.5-5.8c1.4-2.5,2-5.5,2-9
			C-349.6,1207.7-350.3,1204.7-351.7,1202.2z"/>
		<path class="st2" d="M-299.5,1184.5c3-1.7,6.4-2.6,10.2-2.6v15.1h-3.8c-4.5,0-7.9,1.1-10.2,3.2c-2.3,2.1-3.4,5.8-3.4,11.1v28.3
			h-14.4v-56.9h14.4v8.8C-304.9,1188.5-302.5,1186.2-299.5,1184.5z"/>
		<path class="st2" d="M-231.6,1188.3c4.2,4.3,6.3,10.2,6.3,17.9v33.4h-14.4v-31.4c0-4.5-1.1-8-3.4-10.4c-2.3-2.4-5.3-3.7-9.2-3.7
			c-4,0-7.1,1.2-9.4,3.7c-2.3,2.4-3.4,5.9-3.4,10.4v31.4h-14.4v-56.9h14.4v7.1c1.9-2.5,4.4-4.4,7.3-5.8c3-1.4,6.3-2.1,9.8-2.1
			C-241.3,1181.9-235.8,1184-231.6,1188.3z"/>
		<path class="st2" d="M-210.8,1173.5c-1.7-1.6-2.5-3.6-2.5-6s0.8-4.4,2.5-6s3.8-2.4,6.3-2.4c2.5,0,4.6,0.8,6.3,2.4
			c1.7,1.6,2.5,3.6,2.5,6s-0.8,4.4-2.5,6s-3.8,2.4-6.3,2.4C-207,1175.9-209.1,1175.1-210.8,1173.5z M-197.4,1182.7v56.9h-14.4v-56.9
			H-197.4z"/>
		<path class="st2" d="M-157.1,1194.5h-10v45.1h-14.6v-45.1h-6.5v-11.8h6.5v-2.9c0-7,2-12.1,6-15.4c4-3.3,10-4.8,18-4.6v12.1
			c-3.5-0.1-5.9,0.5-7.3,1.8c-1.4,1.2-2.1,3.5-2.1,6.7v2.4h10C-157.1,1182.7-157.1,1194.5-157.1,1194.5z"/>
		<path class="st2" d="M-93.3,1182.7l-35.2,83.8h-15.3l12.3-28.3l-22.8-55.5h16.1l14.7,39.7l14.9-39.7L-93.3,1182.7L-93.3,1182.7z"
			/>
		<path class="st2" d="M-457.3,1322.3h-28.5l-4.7,13.7h-15.1l25.8-71.8h16.7l25.8,71.8h-15.2L-457.3,1322.3z M-461.2,1310.8
			l-10.4-30l-10.4,30H-461.2z"/>
		<path class="st2" d="M-427.8,1292c2.4-4.4,5.7-7.8,10-10.3s9.1-3.7,14.6-3.7c7.1,0,12.9,1.8,17.5,5.3s7.7,8.5,9.3,14.8H-392
			c-0.8-2.5-2.2-4.4-4.2-5.8s-4.4-2.1-7.2-2.1c-4.1,0-7.4,1.5-9.8,4.5s-3.6,7.2-3.6,12.7c0,5.4,1.2,9.6,3.6,12.6
			c2.4,3,5.6,4.5,9.8,4.5c5.8,0,9.6-2.6,11.4-7.8h15.5c-1.6,6.2-4.7,11.1-9.4,14.7c-4.7,3.6-10.5,5.4-17.5,5.4
			c-5.5,0-10.3-1.2-14.6-3.7c-4.2-2.4-7.6-5.8-10-10.3c-2.4-4.4-3.6-9.6-3.6-15.5C-431.4,1301.6-430.2,1296.5-427.8,1292z"/>
		<path class="st2" d="M-366.1,1292c2.3-4.4,5.4-7.9,9.4-10.3s8.3-3.6,13.2-3.6c4.2,0,8,0.9,11.1,2.6s5.7,3.9,7.6,6.5v-8.1h14.5
			v56.9h-14.5v-8.3c-1.9,2.7-4.4,4.9-7.7,6.6c-3.2,1.8-7,2.6-11.2,2.6c-4.8,0-9.2-1.2-13.1-3.7c-3.9-2.5-7.1-5.9-9.4-10.4
			c-2.3-4.5-3.4-9.6-3.4-15.5C-369.6,1301.5-368.4,1296.4-366.1,1292z M-326.9,1298.5c-1.4-2.5-3.2-4.4-5.5-5.8
			c-2.3-1.3-4.8-2-7.5-2c-2.7,0-5.1,0.7-7.4,1.9c-2.3,1.3-4.1,3.2-5.5,5.7s-2.1,5.5-2.1,8.9s0.7,6.4,2.1,9s3.2,4.5,5.6,5.9
			c2.3,1.4,4.7,2.1,7.3,2.1c2.7,0,5.2-0.7,7.5-2c2.3-1.3,4.2-3.2,5.6-5.8c1.4-2.5,2.1-5.5,2.1-9
			C-324.8,1304-325.5,1301-326.9,1298.5z"/>
		<path class="st2" d="M-296.5,1292c2.3-4.4,5.4-7.9,9.4-10.3s8.4-3.6,13.2-3.6c3.7,0,7.2,0.8,10.6,2.4c3.4,1.6,6,3.8,8,6.4v-27
			h14.6v76h-14.6v-8.4c-1.8,2.8-4.3,5.1-7.5,6.8c-3.2,1.7-6.9,2.6-11.2,2.6c-4.8,0-9.2-1.2-13.1-3.7c-4-2.5-7.1-5.9-9.4-10.4
			c-2.3-4.5-3.4-9.6-3.4-15.5C-299.9,1301.5-298.8,1296.4-296.5,1292z M-257.2,1298.5c-1.4-2.5-3.2-4.4-5.5-5.8
			c-2.3-1.3-4.8-2-7.5-2c-2.7,0-5.1,0.7-7.4,1.9c-2.3,1.3-4.1,3.2-5.5,5.7s-2.1,5.5-2.1,8.9s0.7,6.4,2.1,9s3.2,4.5,5.5,5.9
			c2.3,1.4,4.7,2.1,7.3,2.1c2.7,0,5.2-0.7,7.5-2c2.3-1.3,4.2-3.2,5.6-5.8c1.4-2.5,2-5.5,2-9C-255.2,1304-255.9,1301-257.2,1298.5z"
			/>
		<path class="st2" d="M-174.1,1311.8h-41.6c0.3,4.1,1.8,7.3,4.3,9.7c2.5,2.3,5.6,3.5,9.3,3.5c5.3,0,9.1-2.3,11.4-6.9h15.5
			c-1.6,5.5-4.8,10-9.4,13.5c-4.7,3.5-10.4,5.3-17.1,5.3c-5.5,0-10.4-1.2-14.7-3.7c-4.3-2.4-7.7-5.9-10.2-10.3
			c-2.4-4.4-3.6-9.6-3.6-15.4c0-5.9,1.2-11.1,3.6-15.5c2.4-4.4,5.8-7.9,10.1-10.3s9.3-3.6,14.9-3.6c5.4,0,10.2,1.2,14.5,3.5
			c4.3,2.3,7.6,5.6,10,9.9s3.5,9.2,3.5,14.7C-173.7,1308.3-173.9,1310.2-174.1,1311.8z M-188.6,1302.2c-0.1-3.7-1.4-6.7-4-8.9
			c-2.6-2.2-5.8-3.3-9.6-3.3c-3.6,0-6.6,1.1-9,3.2c-2.4,2.2-3.9,5.2-4.5,9L-188.6,1302.2L-188.6,1302.2z"/>
		<path class="st2" d="M-75.7,1284.7c4.3,4.3,6.4,10.2,6.4,17.9v33.4h-14.4v-31.4c0-4.4-1.1-7.9-3.4-10.2s-5.3-3.5-9.2-3.5
			s-7,1.2-9.3,3.5s-3.4,5.8-3.4,10.2v31.4h-14.4v-31.4c0-4.4-1.1-7.9-3.4-10.2s-5.3-3.5-9.2-3.5c-4,0-7.1,1.2-9.4,3.5
			c-2.3,2.4-3.4,5.8-3.4,10.2v31.4h-14.4v-56.9h14.4v6.9c1.9-2.4,4.2-4.3,7.1-5.7c2.9-1.4,6.1-2.1,9.6-2.1c4.5,0,8.4,0.9,11.9,2.8
			s6.2,4.6,8.1,8.1c1.9-3.3,4.5-5.9,8.1-7.9s7.3-3,11.4-3C-85.6,1278.2-80,1280.4-75.7,1284.7z"/>
		<path class="st2" d="M-1.2,1279.1l-35.2,83.8h-15.3l12.3-28.3l-22.8-55.5h16.1l14.7,39.7l14.9-39.7L-1.2,1279.1L-1.2,1279.1z"/>
	</g>
</g>
<rect x="-771.4" y="-2713.7" class="st0" width="1957.9" height="1124.1"/>
<g>
	<path class="st6" d="M-1889.7-2624.9l40.7-126.8c1.5-4.6,0.1-9.7-3.7-12.8c-14.2-11.9-32.6-17.8-51-16.4c-4.8,0.4-9,3.7-10.5,8.3
		l-40.7,126.8c-2,6.3,1.4,13.1,7.8,15.1l42.3,13.6C-1898.5-2615.1-1891.7-2618.6-1889.7-2624.9z"/>
	<path class="st6" d="M-1951.7-2714.2c4.7-16.3,4.7-33.7,0-50c-1.5-5.1-6.2-8.6-11.5-8.6h-135.6c-5.3,0-10,3.5-11.5,8.6
		c-4.7,16.3-4.7,33.7,0,50c1.5,5.1,6.2,8.6,11.5,8.6h135.6C-1957.9-2705.6-1953.2-2709.1-1951.7-2714.2z"/>
	<path class="st6" d="M-2009.7-2628.7c4.7-16.3,4.7-33.7,0-50c-1.5-5.1-6.2-8.6-11.5-8.6h-135.6c-5.3,0-10,3.5-11.5,8.6
		c-4.7,16.3-4.7,33.7,0,50c1.5,5.1,6.2,8.6,11.5,8.6h135.6C-2015.9-2620.1-2011.2-2623.6-2009.7-2628.7z"/>
	<path class="st6" d="M-2139.1-2540.8c-7-17.2-7-36.4,0-53.6c1.8-4.5,6.2-7.4,11.1-7.4h224.3c4.9,0,9.3,2.9,11.1,7.4
		c7,17.2,7,36.4,0,53.6c-1.8,4.5-6.2,7.4-11.1,7.4H-2128C-2132.9-2533.4-2137.3-2536.3-2139.1-2540.8z"/>
</g>
<g>
	<g>
		<path class="st2" d="M-42.5,834.4l40.7-126.8c1.5-4.6,0.1-9.7-3.7-12.8c-14.2-11.9-32.6-17.8-51-16.4c-4.9,0.4-9,3.7-10.5,8.3
			l-40.7,126.8c-2,6.3,1.4,13.1,7.8,15.1l42.3,13.6C-51.2,844.2-44.5,840.7-42.5,834.4z"/>
		<path class="st2" d="M-104.4,745.1c4.7-16.3,4.7-33.7,0-50c-1.5-5.1-6.2-8.6-11.5-8.6h-135.6c-5.3,0-10,3.5-11.5,8.6
			c-4.7,16.3-4.7,33.7,0,50c1.5,5.1,6.2,8.6,11.5,8.6H-116C-110.6,753.7-105.9,750.2-104.4,745.1z"/>
		<path class="st2" d="M-162.4,830.6c4.7-16.3,4.7-33.7,0-50c-1.5-5.1-6.2-8.6-11.5-8.6h-135.6c-5.3,0-10,3.5-11.5,8.6
			c-4.7,16.3-4.7,33.7,0,50c1.5,5.1,6.2,8.6,11.5,8.6h135.7C-168.6,839.2-163.9,835.8-162.4,830.6z"/>
		<path class="st2" d="M-291.9,918.6c-7-17.2-7-36.4,0-53.6c1.8-4.5,6.2-7.4,11.1-7.4h224.4c4.9,0,9.3,2.9,11.1,7.4
			c7,17.2,7,36.4,0,53.6c-1.8,4.5-6.2,7.4-11.1,7.4h-224.3C-285.6,926-290,923.1-291.9,918.6z"/>
	</g>
</g>
<g>
	<g>
		<path class="st0" d="M-42.5,495.3l40.7-126.8c1.5-4.6,0.1-9.7-3.7-12.8c-14.2-11.9-32.6-17.8-51-16.4c-4.9,0.4-9,3.7-10.5,8.3
			l-40.7,126.8c-2,6.3,1.4,13.1,7.8,15.1l42.3,13.6C-51.2,505.1-44.5,501.6-42.5,495.3z"/>
		<path class="st0" d="M-104.4,406c4.7-16.3,4.7-33.7,0-50c-1.5-5.1-6.2-8.6-11.5-8.6h-135.6c-5.3,0-10,3.5-11.5,8.6
			c-4.7,16.3-4.7,33.7,0,50c1.5,5.1,6.2,8.6,11.5,8.6H-116C-110.6,414.6-105.9,411.1-104.4,406z"/>
		<path class="st0" d="M-162.4,491.5c4.7-16.3,4.7-33.7,0-50c-1.5-5.1-6.2-8.6-11.5-8.6h-135.6c-5.3,0-10,3.5-11.5,8.6
			c-4.7,16.3-4.7,33.7,0,50c1.5,5.1,6.2,8.6,11.5,8.6H-174C-168.6,500.1-163.9,496.7-162.4,491.5z"/>
		<path class="st0" d="M-291.9,579.5c-7-17.2-7-36.4,0-53.6c1.8-4.5,6.2-7.4,11.1-7.4h224.4c4.9,0,9.3,2.9,11.1,7.4
			c7,17.2,7,36.4,0,53.6c-1.8,4.5-6.2,7.4-11.1,7.4h-224.3C-285.6,586.9-290,584-291.9,579.5z"/>
	</g>
</g>
<text transform="matrix(1 0 0 1 83.6543 -2551.1863)" class="st2" style="font-family:'Poppins-SemiBold'; font-size:135.6253px;">learnify</text>
<image style="overflow:visible;enable-background:new    ;" width="737" height="1105" xlink:href="B45F9775.jpeg"  transform="matrix(0.9986 0 0 0.9986 -1590.0225 -2063.5249)">
</image>
<path class="st7" d="M3725.3-1497.3H3284c-51,0-92.3-41.3-92.3-92.3l0,0c0-51,41.3-92.3,92.3-92.3h441.3c51,0,92.3,41.3,92.3,92.3
	l0,0C3817.6-1538.6,3776.3-1497.3,3725.3-1497.3z"/>
<path class="st8" d="M1798.1-2453.5h-285c-32.9,0-59.6-26.7-59.6-59.6l0,0c0-32.9,26.7-59.6,59.6-59.6h285
	c32.9,0,59.6,26.7,59.6,59.6l0,0C1857.7-2480.2,1831-2453.5,1798.1-2453.5z"/>
<text transform="matrix(1 0 0 1 1502.8936 -2491.5688)" class="st6" style="font-family:'Poppins-SemiBold'; font-size:56.4582px;">Read More</text>
<path class="st8" d="M2657.5-2264.1h-285c-32.9,0-59.6-26.7-59.6-59.6l0,0c0-32.9,26.7-59.6,59.6-59.6h285
	c32.9,0,59.6,26.7,59.6,59.6l0,0C2717.1-2290.8,2690.4-2264.1,2657.5-2264.1z"/>
<text transform="matrix(1 0 0 1 2362.2483 -2302.1482)" class="st2" style="font-family:'Poppins-SemiBold'; font-size:56.4582px;">Read More</text>
<path class="st0" d="M2227.8-2453.5h-285c-32.9,0-59.6-26.7-59.6-59.6l0,0c0-32.9,26.7-59.6,59.6-59.6h285
	c32.9,0,59.6,26.7,59.6,59.6l0,0C2287.4-2480.2,2260.7-2453.5,2227.8-2453.5z"/>
<text transform="matrix(1 0 0 1 1932.5708 -2491.5688)" class="st6" style="font-family:'Poppins-SemiBold'; font-size:56.4582px;">Read More</text>
<path class="st0" d="M2657.5-2453.5h-285c-32.9,0-59.6-26.7-59.6-59.6l0,0c0-32.9,26.7-59.6,59.6-59.6h285
	c32.9,0,59.6,26.7,59.6,59.6l0,0C2717.1-2480.2,2690.4-2453.5,2657.5-2453.5z"/>
<text transform="matrix(1 0 0 1 2362.2483 -2491.5688)" class="st2" style="font-family:'Poppins-SemiBold'; font-size:56.4582px;">Read More</text>
<path class="st6" d="M3087.1-2453.5h-285c-32.9,0-59.6-26.7-59.6-59.6l0,0c0-32.9,26.7-59.6,59.6-59.6h285
	c32.9,0,59.6,26.7,59.6,59.6l0,0C3146.8-2480.2,3120.1-2453.5,3087.1-2453.5z"/>
<text transform="matrix(1 0 0 1 2791.9255 -2491.5688)" class="st2" style="font-family:'Poppins-SemiBold'; font-size:56.4582px;">Read More</text>
<path class="st9" d="M3087.1-2264.1h-285c-32.9,0-59.6-26.7-59.6-59.6l0,0c0-32.9,26.7-59.6,59.6-59.6h285
	c32.9,0,59.6,26.7,59.6,59.6l0,0C3146.8-2290.8,3120.1-2264.1,3087.1-2264.1z"/>
<g>
	
		<text transform="matrix(1 0 0 1 2791.9255 -2302.1482)" class="st6" style="font-family:'Poppins-SemiBold'; font-size:56.4582px;">Read More</text>
</g>
<path class="st10" d="M3087.1-2102.1h-285c-32.9,0-59.6-26.7-59.6-59.6l0,0c0-32.9,26.7-59.6,59.6-59.6h285
	c32.9,0,59.6,26.7,59.6,59.6l0,0C3146.8-2128.8,3120.1-2102.1,3087.1-2102.1z"/>
<g>
	
		<text transform="matrix(1 0 0 1 2791.9255 -2140.1077)" class="st0" style="font-family:'Poppins-SemiBold'; font-size:56.4582px;">Read More</text>
</g>
<path class="st6" d="M2227.8-2264.1h-285c-32.9,0-59.6-26.7-59.6-59.6l0,0c0-32.9,26.7-59.6,59.6-59.6h285
	c32.9,0,59.6,26.7,59.6,59.6l0,0C2287.4-2290.8,2260.7-2264.1,2227.8-2264.1z"/>
<g>
	
		<text transform="matrix(1 0 0 1 1932.5708 -2302.1482)" class="st8" style="font-family:'Poppins-SemiBold'; font-size:56.4582px;">Read More</text>
</g>
<path class="st6" d="M1798.1-2264.1h-285c-32.9,0-59.6-26.7-59.6-59.6l0,0c0-32.9,26.7-59.6,59.6-59.6h285
	c32.9,0,59.6,26.7,59.6,59.6l0,0C1857.7-2290.8,1831-2264.1,1798.1-2264.1z"/>
<g>
	
		<text transform="matrix(1 0 0 1 1502.8936 -2302.1482)" class="st0" style="font-family:'Poppins-SemiBold'; font-size:56.4582px;">Read More</text>
</g>
<rect x="691.3" y="-1126.6" class="st6" width="91.9" height="109.9"/>
<rect x="701.1" y="-1131.7" class="st0" width="87.2" height="105.5"/>
<rect x="707.7" y="-1126.6" class="st6" width="75.5" height="92.3"/>
<rect x="697.7" y="-1126.6" class="st6" width="20.9" height="34"/>
<path class="st6" d="M-400.8-1207.4H-474c-5.1,0-9.3-4.2-9.3-9.3v-91.3c0-5.1,4.2-9.3,9.3-9.3h73.3c5.1,0,9.3,4.2,9.3,9.3v91.3
	C-391.5-1211.6-395.6-1207.4-400.8-1207.4z"/>
<image style="overflow:visible;enable-background:new    ;" width="1029" height="771" xlink:href="B45F9777.jpeg"  transform="matrix(0.2002 0 0 0.2002 6.0531 -1422.244)">
</image>
<path class="st0" d="M-383.3-1231.9h-85.4c-5.5,0-10,4.5-10,10l0,0c0,5.5,4.5,10,10,10h85.4c0.3,0,0.6-0.3,0.6-0.6v-18.7
	C-382.6-1231.6-382.9-1231.9-383.3-1231.9z"/>
<path class="st0" d="M-392.6-1307.4v85.4c0,5.5,4.5,10,10,10l0,0c5.5,0,10-4.5,10-10v-85.4c0-0.3-0.3-0.6-0.6-0.6H-392
	C-392.3-1308-392.6-1307.7-392.6-1307.4z"/>
<path class="st6" d="M-153.6-1336.2v127.1c0,7.5-6.1,13.6-13.6,13.6h-85.9c-8.6,0-15.5-6.9-15.5-15.5v-126.3c0-2.5,2.1-4.6,4.6-4.6
	l0,0c2.5,0,4.6,2.1,4.6,4.6v121.2c0,7.2,5.8,13,13,13h76.7c4.4,0,8-3.6,8-7.9l0,0c0-4.4-3.6-7.9-8-7.9h-66.1c-3.7,0-6.7-3-6.7-6.7
	v-110c0-3.4,2.8-6.2,6.1-6.2h77.2C-156.1-1341.8-153.6-1339.3-153.6-1336.2z"/>
<rect x="-635.7" y="-1089.6" class="st6" width="115" height="146.3"/>
<rect x="-613.5" y="-972.8" class="st0" width="81.6" height="19.9"/>
<rect x="-624.6" y="-1092.6" class="st0" width="19.9" height="139.8"/>
<path class="st0" d="M-205.8-1288.4l-13.7,23.8c-1.2,2.1,0.3,4.7,2.7,4.7h27.5c2.4,0,3.9-2.6,2.7-4.7l-13.7-23.8
	C-201.6-1290.5-204.6-1290.5-205.8-1288.4z"/>
<path class="st6" d="M134.1-785.9v128.1c0,7.5-6.1,13.6-13.6,13.6H34.6c-8.5,0-15.5-6.9-15.5-15.5V-786c0-2.5,2-4.6,4.6-4.6l0,0
	c2.5,0,4.6,2,4.6,4.6v121.2c0,7.2,5.8,13,13,13h75.6c5,0,9-4,9-9l0,0c0-4.1-2.7-7.6-6.6-8.7l-51.1-14.3c-5.9-1.7-10-7.1-10-13.2
	v-104.8c0-3.9,3.6-6.7,7.4-5.8l64,16C132.2-791,134.1-788.6,134.1-785.9z"/>
<path class="st6" d="M-198.7-990V-862c0,7.5-6.1,13.6-13.6,13.6h-85.9c-8.5,0-15.5-6.9-15.5-15.5v-126.3c0-2.5,2.1-4.6,4.6-4.6l0,0
	c2.5,0,4.6,2,4.6,4.6V-869c0,7.2,5.8,13,13,13h75.6c5,0,9.1-4,9.1-9l0,0c0-4.1-2.7-7.6-6.6-8.7l-51.1-14.3c-5.9-1.7-10-7.1-10-13.2
	v-104.8c0-3.9,3.6-6.7,7.4-5.8l64,16C-200.6-995.2-198.7-992.8-198.7-990z"/>
<g>
	<path class="st6" d="M-242.7-979.4l-64-16c-3.8-0.9-7.4,1.9-7.4,5.8v9.8c0-3.9,3.6-6.7,7.4-5.8l64,16c2.6,0.7,4.5,3,4.5,5.8v-9.8
		C-238.2-976.4-240-978.8-242.7-979.4z"/>
</g>
<path class="st0" d="M522.7-481.7l-13.7,23.8c-1.2,2.1,0.3,4.6,2.7,4.6h27.5c2.4,0,3.9-2.6,2.7-4.6L528-481.7
	C526.8-483.8,523.8-483.8,522.7-481.7z"/>
<path class="st6" d="M42.3-892.4l5.5,14.9c3.1,8.3,9.6,14.8,17.9,17.9l14.9,5.5l-14.9,5.5c-8.3,3.1-14.8,9.6-17.9,17.9l-5.5,14.9
	l-5.5-14.9c-3.1-8.3-9.6-14.8-17.9-17.9L4-854.1l14.9-5.5c8.3-3.1,14.8-9.6,17.9-17.9L42.3-892.4z"/>
<path class="st6" d="M986.7-1008.3l5.5,14.9c3.1,8.3,9.6,14.8,17.9,17.9l14.9,5.5l-14.9,5.5c-8.3,3.1-14.8,9.6-17.9,17.9l-5.5,14.9
	l-5.5-14.9c-3.1-8.3-9.6-14.8-17.8-17.9l-14.9-5.5l14.9-5.5c8.3-3.1,14.8-9.6,17.8-17.9L986.7-1008.3z"/>
<rect x="512.4" y="-857.1" class="st2" width="48.2" height="48.2"/>
<circle class="st2" cx="512.4" cy="-857.1" r="19.7"/>
<path class="st6" d="M563.4-994.1h-5.6c-0.1,11.7-9.6,21.2-21.3,21.2v5.9c11.7,0,21.2,9.5,21.3,21.2h5.6
	c0.1-11.7,9.6-21.2,21.3-21.2v-5.9C573-973,563.5-982.4,563.4-994.1z"/>
<path class="st6" d="M536.5-559.4v5.8c11.7,0,21.2,9.5,21.3,21.2h5.6c0.1-11.7,9.6-21.2,21.3-21.2v-5.8c-11.8,0-21.3-9.5-21.3-21.3
	h-5.6C557.8-569,548.3-559.4,536.5-559.4z"/>
<g>
	<path class="st6" d="M804.8-787.3L750-801.1c-8.4-2.1-16.6,4.3-16.6,13v79.3c0,6.2,4.1,11.5,10,13.2l51.1,14.3
		c3.9,1.1,6.6,4.7,6.6,8.7c0,5-4.1,9-9.1,9h-75.6c-7.2,0-13-5.8-13-13v-105.2c0-2.5-2-4.6-4.6-4.6l0,0c-2.5,0-4.6,2-4.6,4.6v110.3
		c0,8.5,6.9,15.5,15.5,15.5h85.9c7.5,0,13.6-6.1,13.6-13.6v-112.1C809.3-784.3,807.4-786.7,804.8-787.3z"/>
	<path class="st6" d="M696.9-815.9c10.5,1.3,18.6,11.2,18.7,22l0,0v60.8c0,1.5,1.3,2.8,2.8,2.8s2.8-1.3,2.8-2.8V-794l0,0
		c0.1-10.8,8.2-20.7,18.7-22c1.5-0.2,2.6-1.5,2.6-3v-0.2c0-1.5-1.1-2.8-2.6-3c-9.7-1.2-17.3-8.8-18.5-18.4c-0.2-1.5-1.5-2.6-3-2.6
		s-2.8,1.1-3,2.6c-1.2,9.6-8.9,17.2-18.5,18.4c-1.5,0.2-2.6,1.5-2.6,3v0.2C694.3-817.4,695.4-816.1,696.9-815.9z"/>
</g>
<g>
	<path class="st6" d="M-113.6-2303l-110.2-27.6c-16.9-4.2-33.4,8.6-33.4,26.1v159.6c0,12.4,8.2,23.2,20.2,26.6l102.9,28.8
		c7.9,2.2,13.3,9.4,13.3,17.5c0,10.1-8.1,18.2-18.2,18.2h-152.1c-14.5,0-26.2-11.7-26.2-26.2v-211.5c0-5.1-4.1-9.2-9.2-9.2l0,0
		c-5.1,0-9.2,4.1-9.2,9.2v221.8c0,17.2,14,31.2,31.2,31.2h172.7c15.1,0,27.4-12.3,27.4-27.4v-225.4
		C-104.5-2296.9-108.3-2301.7-113.6-2303z"/>
	<path class="st6" d="M-330.6-2360.5c21.1,2.6,37.5,22.5,37.6,44.2l0,0v122.4c0,3.1,2.5,5.7,5.7,5.7s5.7-2.5,5.7-5.7v-122.4l0,0
		c0.1-21.8,16.5-41.7,37.6-44.2c3-0.4,5.2-3,5.2-6v-0.5c0-3-2.2-5.6-5.2-6c-19.4-2.4-34.8-17.7-37.3-37.1c-0.4-3-3-5.2-6-5.2
		s-5.6,2.2-6,5.2c-2.5,19.4-17.9,34.7-37.3,37.1c-3,0.4-5.2,3-5.2,6v0.5C-335.8-2363.5-333.6-2360.9-330.6-2360.5z"/>
</g>
<g>
	<path class="st2" d="M146.1,73.9L73.6,55.7c-11.2-2.8-22,5.6-22,17.1v105c0,8.1,5.4,15.3,13.3,17.5l67.7,19
		c5.2,1.4,8.7,6.2,8.7,11.5c0,6.6-5.4,12-12,12H29.4c-9.5,0-17.2-7.7-17.2-17.2V81.4c0-3.3-2.7-6.1-6.1-6.1l0,0
		c-3.3,0-6.1,2.7-6.1,6.1v145.9c0,11.3,9.2,20.5,20.5,20.5h113.6c9.9,0,18-8.1,18-18V81.5C152.1,77.9,149.7,74.7,146.1,73.9z"/>
	<path class="st2" d="M3.4,36c13.9,1.7,24.7,14.8,24.8,29.1l0,0v80.5c0,2.1,1.7,3.7,3.7,3.7s3.7-1.7,3.7-3.7V65.1l0,0
		C35.7,50.8,46.5,37.7,60.4,36c2-0.2,3.4-2,3.4-4v-0.3c0-2-1.5-3.7-3.4-4C47.6,26.2,37.5,16.1,35.8,3.4c-0.2-2-2-3.4-3.9-3.4
		s-3.7,1.4-4,3.4C26.3,16.1,16.2,26.2,3.4,27.8c-2,0.2-3.4,2-3.4,4v0.3C0,34.1,1.5,35.8,3.4,36z"/>
</g>
<g>
	<path class="st6" d="M-92.9,73.9l-72.5-18.2c-11.1-2.8-22,5.6-22,17.1v105c0,8.1,5.4,15.3,13.3,17.5l67.7,19
		c5.2,1.4,8.7,6.2,8.7,11.5c0,6.6-5.4,12-12,12h-100.1c-9.5,0-17.2-7.7-17.2-17.2V81.4c0-3.3-2.7-6.1-6.1-6.1l0,0
		c-3.3,0-6.1,2.7-6.1,6.1v145.9c0,11.3,9.2,20.5,20.5,20.5h113.6c9.9,0,18-8.1,18-18V81.5C-86.9,77.9-89.3,74.7-92.9,73.9z"/>
	<path class="st6" d="M-235.6,36c13.9,1.7,24.7,14.8,24.8,29.1l0,0v80.5c0,2.1,1.7,3.7,3.7,3.7c2,0,3.7-1.7,3.7-3.7V65.1l0,0
		c0.1-14.3,10.9-27.4,24.7-29.1c2-0.2,3.4-2,3.4-4v-0.3c0-2-1.5-3.7-3.4-4c-12.8-1.6-22.9-11.6-24.5-24.4c-0.2-2-2-3.4-4-3.4
		s-3.7,1.4-3.9,3.4c-1.6,12.7-11.8,22.8-24.5,24.4c-2,0.2-3.4,2-3.4,4v0.3C-239,34.1-237.5,35.8-235.6,36z"/>
</g>
<text transform="matrix(1 0 0 1 663.2035 -2121.0811)" class="st6" style="font-family:'Poppins-SemiBold'; font-size:70.2994px;">Academy</text>
<g>
	<g>
		<path class="st2" d="M364-2167.7c0,12.8,0,25.7,0,38.5c0,0.9,0,1.8-0.1,2.6c-0.4,2.6-1.8,4.1-4.4,4.1c-8.2,0.1-16.4,0.1-24.7,0
			c-2.7,0-4.1-1.6-4.4-4.2c-0.1-0.9-0.1-1.8-0.1-2.6c0-27.7,0-55.5,0-83.2c0-0.7,0-1.5,0-2.2c0.3-2.9,1.5-4.4,4.4-4.4
			c9.7-0.1,19.4-0.1,29.1,0c2.8,0,4.5,1.8,5.5,4.3c4,9.2,8.5,18.1,13.7,26.8c3.3,5.6,6.7,11,10.4,16.3c0.2,0.3,0.5,0.6,1.1,1.4
			c0.1-1.2,0.1-2,0.1-2.7c0-13.2,0-26.4,0-39.6c0-5.3,1.2-6.5,6.5-6.5c7.1,0,14.2,0,21.3,0c4.4,0,5.8,1.4,5.8,5.8
			c0,28.4,0,56.8,0,85.2c0,4.4-1.6,5.9-6,5.9c-8.3,0-16.6-0.1-24.9,0c-3.7,0.1-6.2-1.4-8.3-4.3c-9-12.6-17.2-25.7-23.9-39.6
			c-0.2-0.5-0.5-1-0.8-1.5C364.2-2167.7,364.1-2167.7,364-2167.7z"/>
		<path class="st2" d="M296.9-2157.3c3.6,2.3,7.2,3.2,11,3.7c1.5,0.2,3.1,0.2,4.6,0.3c3.2,0.2,4.7,1.4,4.8,4.8
			c0.2,4.4,0.1,8.8,0.1,13.2c0,3,0,6,0,9c0,3.7-1.4,5.2-5.2,5.2c-6.8,0-13.6-1-20.1-3.3c-12.8-4.5-21.3-13.3-25.4-26.3
			c-0.6-2-1.9-1.4-3.1-1.4c-1.6,0-0.9,1.3-0.9,2c-0.1,7.3,0,14.5,0,21.8c0,4.4-1.5,5.9-6,5.9c-7.4,0-14.8,0-22.2,0
			c-4.5,0-6-1.6-6-6.1c0-27.1,0-54.1,0-81.2c0-6.1,1.7-8.2,7.8-9c14.3-1.7,28.6-2.7,43.1-1.4c8.6,0.8,16.8,3.1,24.1,8.2
			c7,4.9,10.5,11.8,11.3,20c0.9,9.5-0.8,18.4-7,26C304.7-2162.3,301.3-2159.4,296.9-2157.3z M262.7-2185.9c0,2.3,0,4.7,0,7
			c0,1,0.2,1.4,1.3,1.4c3,0,6,0,9-0.5c4-0.6,6.6-3.6,6.9-7.6c0.3-4.9-1.5-7.9-5.8-9.1c-3.4-0.9-6.8-0.5-10.2,0.2
			c-1,0.2-1.2,0.7-1.2,1.7C262.8-2190.5,262.7-2188.2,262.7-2185.9z"/>
		<path class="st2" d="M33.1-2170.9c0-14.1,0-28.2,0-42.3c0-4.8,1.3-6.1,6.1-6.1c21.6,0,43.3,0,65,0c4.9,0,6.1,1.2,6.1,6.1
			c0,4.4,0,8.8,0,13.2c0,4.5-1.4,5.9-5.9,6c-11.5,0-22.9,0.1-34.4,0c-2.1,0-3.1,0.4-2.8,2.7c0.2,1.7,0.2,3.5,0,5.3
			c-0.2,2.1,0.3,2.9,2.7,2.8c9.7-0.2,19.4-0.1,29.1-0.1c1.2,0,2.4-0.1,3.5,0.4c1.9,0.7,2.7,2.3,2.7,4.1c0.1,5.2,0.1,10.4,0,15.6
			c-0.1,3.3-1.8,4.6-5.4,4.6c-10.1,0-20.1,0.1-30.2,0c-1.8,0-2.5,0.4-2.3,2.3c0.2,2.1,0.1,4.3,0,6.4c-0.1,1.7,0.4,2.2,2.2,2.2
			c11.7-0.1,23.5,0,35.2,0c6.5,0,7.3,0.9,7.3,7.4c0,4.1,0,8.2,0,12.3c0,4-1.6,5.6-5.6,5.6c-22.5,0-45.1,0-67.6,0
			c-4,0-5.6-1.6-5.6-5.6C33.1-2142.3,33.1-2156.6,33.1-2170.9z"/>
		<path class="st2" d="M203.8-2122.4c-3.7,0-7.5,0-11.2,0c-3.9,0-5.4-1.2-6.4-4.9c-0.6-2.1-1.1-4.2-1.6-6.4
			c-0.2-1.1-0.7-1.4-1.8-1.4c-9.8,0-19.5,0-29.3,0c-1.1,0-1.5,0.4-1.8,1.4c-0.5,2.1-1.1,4.3-1.7,6.4c-1.1,3.9-2.5,4.9-6.4,4.9
			c-6.9,0-13.8,0-20.7,0c-5.5,0-6.9-1.8-5.4-7.1c8.2-28.6,19.2-56,32-82.8c2.5-5.1,5.5-7.6,11.3-7.1c6.2,0.5,12.5,0.1,18.7,0.1
			c3.2,0,5.4,1.4,6.8,4.3c13.4,27.7,25.1,56.1,33.4,85.7c1.4,5,0,6.9-5.2,6.9C211-2122.4,207.4-2122.4,203.8-2122.4z M168.2-2185.7
			c-3.9,9-6.4,18.3-9.4,27.4c-0.3,1,0.3,1.1,1,1.1c5.6,0,11.1,0,16.7,0c1.1,0,1.2-0.4,0.9-1.3
			C174.5-2167.6,171.7-2176.7,168.2-2185.7z"/>
		<path class="st2" d="M493.5-2170.8c0-14.2,0-28.3,0-42.5c0-4.6,1.3-5.9,5.9-5.9c21.2,0,42.4,0,63.6,0c4.4,0,5.8,1.4,5.8,5.8
			c0,5.4,0,10.9,0,16.3c0,5-1.3,6.3-6.4,6.4c-10.8,0-21.6,0.1-32.4,0c-1.8,0-2.4,0.4-2.3,2.3c0.2,3.2,0.1,6.5,0,9.7
			c-0.1,1.6,0.4,2.1,2,2.1c8.7-0.1,17.3-0.1,26,0c0.9,0,1.8,0,2.6,0.1c2.8,0.4,3.9,1.4,4,4.3c0.2,4.9,0.1,9.8,0.1,14.7
			c0,1.5,0,2.9-0.1,4.4c-0.2,2.6-1.5,4-4.2,4.1c-4.5,0.2-9,0.1-13.4,0.1c-5.1,0-10.1,0.1-15.2,0c-1.5,0-1.8,0.5-1.8,1.9
			c0.1,6.2,0,12.5,0,18.7c0,4.6-1.5,6.1-6.1,6.1c-7.4,0-14.8,0-22.2,0c-4.5,0-5.9-1.5-6-5.9C493.5-2142.5,493.5-2156.6,493.5-2170.8
			z"/>
		<path class="st2" d="M623.5-2182.7c4.2-6.8,7.6-13.4,10.6-20.3c1.7-3.9,3.3-7.8,4.8-11.8c1.1-3,3.1-4.4,6.1-4.4
			c8.3,0,16.6-0.1,24.9,0c3.5,0,4.7,2.1,3.1,5.5c-3.4,7.1-7.1,14.1-10.9,21c-6.5,11.8-13.6,23.1-21.2,34.1c-0.7,1-1,2-1,3.3
			c0,8.9,0,17.9,0,26.9c0,4.5-1.5,6-5.9,6c-7.5,0-15,0-22.5,0c-4.3,0-5.9-1.6-5.9-6c0-9,0-18.1,0-27.1c0-1.2-0.2-2.2-1-3.3
			c-11.9-17.2-22.3-35.3-31.4-54.1c-0.2-0.4-0.4-0.8-0.6-1.2c-1.2-3.1,0-5,3.3-5.2c0.4,0,0.7,0,1.1,0c8,0,16,0,24,0
			c4.8,0,6,0.9,7.7,5.3c3.6,9.8,7.9,19.2,13.1,28.2C622.2-2184.8,622.7-2183.9,623.5-2182.7z"/>
		<path class="st2" d="M-50.6-2170.9c0-14,0-28,0-42c0-5.1,1.2-6.3,6.4-6.3c7.3,0,14.7,0,22,0c4.5,0,5.8,1.3,5.8,5.7
			c0,20.1,0,40.2,0,60.3c0,1.8,0.4,2.3,2.3,2.3c10.6-0.1,21.3-0.1,31.9,0c0.9,0,1.8,0,2.6,0.1c2.8,0.4,4,1.7,4.1,4.5
			c0.1,6.4,0.1,12.8,0,19.1c0,3.1-1.7,4.7-4.9,4.7c-4,0.1-8.1,0-12.1,0c-17.2,0-34.5,0-51.7,0c-4.9,0-6.3-1.4-6.3-6.3
			C-50.6-2142.7-50.6-2156.8-50.6-2170.9z"/>
		<path class="st2" d="M443.7-2171c0-14.1,0-28.2,0-42.2c0-4.6,1.3-5.9,5.9-5.9c7.6,0,15.1,0,22.7,0c4.3,0,5.7,1.4,5.7,5.6
			c0,28.5,0,56.9,0,85.4c0,4.3-1.6,5.8-5.9,5.8c-7.6,0-15.1,0-22.7,0c-4.1,0-5.7-1.6-5.7-5.8C443.7-2142.4,443.7-2156.7,443.7-2171z
			"/>
	</g>
</g>
</svg>
