<?xml version="1.0" encoding="utf-8"?>
<!-- Generator: Adobe Illustrator 26.0.2, SVG Export Plug-In . SVG Version: 6.00 Build 0)  -->
<svg version="1.1" id="Layer_1" xmlns="http://www.w3.org/2000/svg" xmlns:xlink="http://www.w3.org/1999/xlink" x="0px" y="0px"
	 viewBox="0 0 2807 1604" style="enable-background:new 0 0 2807 1604;" xml:space="preserve">
<style type="text/css">
	.st0{fill:#FFFFFF;}
</style>
<g>
	<g>
		<rect x="-210.59" y="1708.61" class="st0" width="3227.43" height="4.18"/>
	</g>
	<g>
		<rect x="-210.59" y="1607.61" class="st0" width="3227.43" height="4.18"/>
	</g>
	<g>
		<rect x="-210.59" y="1506.62" class="st0" width="3227.43" height="4.18"/>
	</g>
	<g>
		<rect x="-210.59" y="1405.63" class="st0" width="3227.43" height="4.18"/>
	</g>
	<g>
		<rect x="-210.59" y="1304.64" class="st0" width="3227.43" height="4.18"/>
	</g>
	<g>
		<rect x="-210.59" y="1203.66" class="st0" width="3227.43" height="4.18"/>
	</g>
	<g>
		<rect x="-210.59" y="1102.67" class="st0" width="3227.43" height="4.18"/>
	</g>
	<g>
		<rect x="-210.59" y="1001.68" class="st0" width="3227.43" height="4.18"/>
	</g>
	<g>
		<rect x="-210.59" y="900.69" class="st0" width="3227.43" height="4.18"/>
	</g>
	<g>
		<rect x="-210.59" y="799.7" class="st0" width="3227.43" height="4.18"/>
	</g>
	<g>
		<rect x="-210.59" y="698.71" class="st0" width="3227.43" height="4.18"/>
	</g>
	<g>
		<rect x="-210.59" y="597.71" class="st0" width="3227.43" height="4.18"/>
	</g>
	<g>
		<rect x="-210.59" y="496.73" class="st0" width="3227.43" height="4.18"/>
	</g>
	<g>
		<rect x="-210.59" y="395.74" class="st0" width="3227.43" height="4.18"/>
	</g>
	<g>
		<rect x="-210.59" y="294.75" class="st0" width="3227.43" height="4.18"/>
	</g>
	<g>
		<rect x="-210.59" y="193.76" class="st0" width="3227.43" height="4.18"/>
	</g>
	<g>
		<rect x="-210.59" y="92.77" class="st0" width="3227.43" height="4.18"/>
	</g>
	<g>
		<rect x="-210.59" y="-8.22" class="st0" width="3227.43" height="4.18"/>
	</g>
	<g>
		<rect x="-210.59" y="-109.21" class="st0" width="3227.43" height="4.18"/>
	</g>
	<g>
		<rect x="2916.95" y="-208.11" class="st0" width="4.18" height="2019.8"/>
	</g>
	<g>
		<rect x="2819.15" y="-208.11" class="st0" width="4.18" height="2019.8"/>
	</g>
	<g>
		<rect x="2721.34" y="-208.11" class="st0" width="4.18" height="2019.8"/>
	</g>
	<g>
		<rect x="2623.54" y="-208.11" class="st0" width="4.18" height="2019.8"/>
	</g>
	<g>
		<rect x="2525.74" y="-208.11" class="st0" width="4.18" height="2019.8"/>
	</g>
	<g>
		<rect x="2427.94" y="-208.11" class="st0" width="4.18" height="2019.8"/>
	</g>
	<g>
		<rect x="2330.14" y="-208.11" class="st0" width="4.18" height="2019.8"/>
	</g>
	<g>
		<rect x="2232.34" y="-208.11" class="st0" width="4.18" height="2019.8"/>
	</g>
	<g>
		<rect x="2134.54" y="-208.11" class="st0" width="4.18" height="2019.8"/>
	</g>
	<g>
		<rect x="2036.74" y="-208.11" class="st0" width="4.18" height="2019.8"/>
	</g>
	<g>
		<rect x="1938.94" y="-208.11" class="st0" width="4.18" height="2019.8"/>
	</g>
	<g>
		<rect x="1841.14" y="-208.11" class="st0" width="4.18" height="2019.8"/>
	</g>
	<g>
		<rect x="1743.34" y="-208.11" class="st0" width="4.18" height="2019.8"/>
	</g>
	<g>
		<rect x="1645.54" y="-208.11" class="st0" width="4.18" height="2019.8"/>
	</g>
	<g>
		<rect x="1547.73" y="-208.11" class="st0" width="4.18" height="2019.8"/>
	</g>
	<g>
		<rect x="1449.93" y="-208.11" class="st0" width="4.18" height="2019.8"/>
	</g>
	<g>
		<rect x="1352.13" y="-208.11" class="st0" width="4.18" height="2019.8"/>
	</g>
	<g>
		<rect x="1254.33" y="-208.11" class="st0" width="4.18" height="2019.8"/>
	</g>
	<g>
		<rect x="1156.53" y="-208.11" class="st0" width="4.18" height="2019.8"/>
	</g>
	<g>
		<rect x="1058.73" y="-208.11" class="st0" width="4.18" height="2019.8"/>
	</g>
	<g>
		<rect x="960.93" y="-208.11" class="st0" width="4.18" height="2019.8"/>
	</g>
	<g>
		<rect x="863.13" y="-208.11" class="st0" width="4.18" height="2019.8"/>
	</g>
	<g>
		<rect x="765.33" y="-208.11" class="st0" width="4.18" height="2019.8"/>
	</g>
	<g>
		<rect x="667.53" y="-208.11" class="st0" width="4.18" height="2019.8"/>
	</g>
	<g>
		<rect x="569.73" y="-208.11" class="st0" width="4.18" height="2019.8"/>
	</g>
	<g>
		<rect x="471.93" y="-208.11" class="st0" width="4.18" height="2019.8"/>
	</g>
	<g>
		<rect x="374.12" y="-208.11" class="st0" width="4.18" height="2019.8"/>
	</g>
	<g>
		<rect x="276.32" y="-208.11" class="st0" width="4.18" height="2019.8"/>
	</g>
	<g>
		<rect x="178.52" y="-208.11" class="st0" width="4.18" height="2019.8"/>
	</g>
	<g>
		<rect x="80.72" y="-208.11" class="st0" width="4.18" height="2019.8"/>
	</g>
	<g>
		<rect x="-17.08" y="-208.11" class="st0" width="4.18" height="2019.8"/>
	</g>
	<g>
		<rect x="-114.88" y="-208.11" class="st0" width="4.18" height="2019.8"/>
	</g>
</g>
</svg>
