<?xml version="1.0" encoding="utf-8"?>
<!-- Generator: Adobe Illustrator 26.0.2, SVG Export Plug-In . SVG Version: 6.00 Build 0)  -->
<svg version="1.1" id="Layer_1" xmlns="http://www.w3.org/2000/svg" xmlns:xlink="http://www.w3.org/1999/xlink" x="0px" y="0px"
	 viewBox="0 0 146.7 146.7" style="enable-background:new 0 0 146.7 146.7;" xml:space="preserve">
<style type="text/css">
	.st0{fill:#0000FE;}
	.st1{fill:#2E5BE8;}
	.st2{fill:#FFFFFF;}
	.st3{opacity:0.48;fill:#2E5BE8;enable-background:new    ;}
	.st4{fill:none;stroke:#FFFFFF;stroke-width:15;stroke-linecap:round;stroke-linejoin:round;stroke-miterlimit:10;}
	.st5{fill:#2DD975;}
	.st6{fill:#00FF67;}
	.st7{fill:none;stroke:#FFFFFF;stroke-width:5;stroke-miterlimit:10;}
	.st8{fill:#0C0C0C;}
	.st9{fill:none;stroke:#00FF67;stroke-width:5;stroke-miterlimit:10;}
	.st10{fill:none;stroke:#0000FE;stroke-width:5;stroke-miterlimit:10;}
</style>
<rect x="448.8" y="-4156.6" class="st0" width="1957.9" height="1124.1"/>
<rect x="-995.5" y="-3409.6" width="257" height="96"/>
<polygon points="-1026.1,-3689.8 -930.1,-3689.8 -849.6,-3432.8 -945.6,-3432.8 "/>
<rect x="-1113.6" y="-3572.1" width="96" height="257"/>
<path d="M-465.6-3300.1c0-5.4,3.2-10.2,8.2-12.4c9.5-4.1,24-8.7,41.9-8.3c16,0.3,28.9,4.4,37.8,8.3c4.9,2.1,8.1,7,8.1,12.4v238
	c0,5.9-4.8,10.7-10.7,10.7h-74.7c-5.9,0-10.7-4.8-10.7-10.7L-465.6-3300.1z"/>
<path d="M-566.1-2919.3c5.4,0,10.2,3.2,12.4,8.2c4.2,9.6,8.7,24,8.3,41.9c-0.3,16-4.4,28.9-8.3,37.8c-2.1,4.9-7,8.1-12.4,8.1h-237.5
	c-6.9,0-13.1-4.5-15.1-11.2c-2.7-8.9-5-20.1-5.4-33.2c-0.5-16.2,2.2-30,5.3-40.4c2-6.7,8.1-11.3,15.1-11.3L-566.1-2919.3z"/>
<path d="M-679.7-3005c3,0,5.7,2.4,6.9,6.2c2.3,7.2,4.9,18.2,4.7,31.8c-0.2,12.1-2.5,21.9-4.7,28.7c-1.2,3.7-3.9,6.1-6.9,6.1h-133
	c-3.9,0-7.3-3.4-8.5-8.5c-1.5-6.8-2.8-15.3-3-25.1c-0.3-12.3,1.2-22.7,3-30.6c1.1-5.1,4.6-8.6,8.5-8.6L-679.7-3005z"/>
<path d="M-679.7-3100.1c3,0,5.7,2.4,6.9,6.2c2.3,7.2,4.9,18.2,4.7,31.8c-0.2,12.1-2.5,21.9-4.7,28.7c-1.2,3.7-3.9,6.1-6.9,6.1h-133
	c-3.9,0-7.3-3.4-8.5-8.5c-1.5-6.8-2.8-15.3-3-25.1c-0.3-12.3,1.2-22.7,3-30.6c1.1-5.1,4.6-8.6,8.5-8.6L-679.7-3100.1z"/>
<path d="M-547.3-2942.9c0,3.3-3.2,6.2-8.2,7.6c-9.5,2.5-70.8,2.4-79.8,0c-4.9-1.3-8.1-4.3-8.1-7.5v-144.7c0-4.2,4.5-8,11.2-9.2
	c8.9-1.6,20.1-3.1,33.2-3.3c16.2-0.3,30,1.4,40.3,3.3c6.7,1.2,11.3,5,11.3,9.2L-547.3-2942.9z"/>
<path d="M-351-3227.6c0-3.8,3.2-7.3,8.2-8.8c9.5-2.9,24-6.1,41.9-5.9c16,0.2,28.9,3.1,37.8,5.9c4.9,1.5,8.1,5,8.1,8.8v168.6
	c0,4.2-4.8,7.6-10.7,7.6h-74.7c-5.9,0-10.7-3.4-10.7-7.6L-351-3227.6z"/>
<path class="st1" d="M-2820.1-1170.1v-183.5c0-6-3.6-11.5-9.1-13.8c-23.9-10.1-51-10.1-74.9,0c-5.5,2.3-9.1,7.8-9.1,13.8v183.5
	c0,8.3,6.7,15,15,15h63.2C-2826.8-1155.1-2820.1-1161.8-2820.1-1170.1z"/>
<path class="st1" d="M-2934.4-1282.1c6.9-22.9,6.9-47.4,0-70.3c-1.9-6.3-7.8-10.6-14.3-10.6h-186.6c-6.6,0-12.4,4.3-14.3,10.6
	c-6.9,22.9-6.9,47.4,0,70.3c1.9,6.3,7.8,10.6,14.3,10.6h186.6C-2942.2-1271.5-2936.3-1275.8-2934.4-1282.1z"/>
<path class="st1" d="M-2934.4-1165.7c6.9-22.9,6.9-47.4,0-70.3c-1.9-6.3-7.8-10.6-14.3-10.6h-186.6c-6.6,0-12.4,4.3-14.3,10.6
	c-6.9,22.9-6.9,47.4,0,70.3c1.9,6.3,7.8,10.6,14.3,10.6h186.6C-2942.2-1155.1-2936.3-1159.4-2934.4-1165.7z"/>
<path class="st1" d="M-3150.4-1046.2c-10.1-23.9-10.1-51,0-74.9c2.3-5.5,7.8-9.1,13.8-9.1h307.1c6,0,11.5,3.6,13.8,9.1
	c10.1,23.9,10.1,51,0,74.9c-2.3,5.5-7.8,9.1-13.8,9.1h-307.1C-3142.6-1037-3148.1-1040.6-3150.4-1046.2z"/>
<g>
	<path class="st2" d="M-3338.6,169c6.9-22.9,6.9-47.4,0-70.3c-1.9-6.3-7.8-10.6-14.3-10.6h-186.6c-6.6,0-12.4,4.3-14.3,10.6
		c-6.9,22.9-6.9,47.4,0,70.3c1.9,6.3,7.8,10.6,14.3,10.6h186.6C-3346.4,179.6-3340.5,175.3-3338.6,169z"/>
	<path class="st2" d="M-3512.8,288.5c-10.1-23.9-10.1-51,0-74.9c2.3-5.5,7.8-9.1,13.8-9.1h307.1c6,0,11.5,3.6,13.8,9.1
		c10.1,23.9,10.1,51,0,74.9c-2.3,5.5-7.8,9.1-13.8,9.1H-3499C-3505,297.6-3510.4,294.1-3512.8,288.5z"/>
	<path class="st2" d="M-3613.6,171.3c-10.1-23.9-10.1-51,0-74.9c2.3-5.5,7.8-9.1,13.8-9.1h307.1c6,0,11.5,3.6,13.8,9.1
		c10.1,23.9,10.1,51,0,74.9c-2.3,5.5-7.8,9.1-13.8,9.1h-307.1C-3605.8,180.4-3611.3,176.8-3613.6,171.3z"/>
	<path class="st2" d="M-3521.3,54.1c-10.1-23.9-10.1-51,0-74.9c2.3-5.5,7.8-9.1,13.8-9.1h307.1c6,0,11.5,3.6,13.8,9.1
		c10.1,23.9,10.1,51,0,74.9c-2.3,5.5-7.8,9.1-13.8,9.1h-307.1C-3513.5,63.2-3519,59.6-3521.3,54.1z"/>
</g>
<g>
	<rect x="-2157.2" y="-2259" class="st3" width="25.5" height="49.2"/>
	<rect x="-2185.4" y="-2259" class="st3" width="18.4" height="49.2"/>
</g>
<g>
	<g>
		<g>
			<path class="st2" d="M865.9-828.5L882-861c2.5-5,1.4-11.1-2.6-15l-26-25.4c-9-8.8-1.5-24,10.9-22.2l36,5.2
				c5.6,0.8,11-2.1,13.5-7.1l16.1-32.6c5.6-11.3,22.3-8.8,24.4,3.6l6.1,35.8c0.9,5.5,5.4,9.8,10.9,10.7l36,5.2
				c12.4,1.8,15.3,18.5,4.2,24.3l-32.2,16.9c-5,2.6-7.7,8.1-6.8,13.7l6.1,35.8c2.1,12.4-12.9,20.3-21.9,11.5l-26-25.4
				c-4-3.9-10.1-4.8-15.1-2.2l-32.2,16.9C872.5-805.4,860.3-817.2,865.9-828.5z"/>
		</g>
		<g>
			<path class="st2" d="M879.3-1142l32.6,16.1c5,2.5,11.1,1.4,15-2.6l25.4-26c8.8-9,23.9-1.5,22.1,10.9l-5.2,36
				c-0.8,5.6,2.1,11,7.1,13.5l32.6,16.1c11.3,5.6,8.9,22.3-3.6,24.4l-35.8,6.2c-5.5,0.9-9.8,5.4-10.6,10.9l-5.2,36
				c-1.8,12.4-18.5,15.3-24.3,4.2l-16.9-32.2c-2.6-5-8.1-7.7-13.7-6.8l-35.8,6.2c-12.4,2.1-20.3-12.8-11.5-21.9l25.4-26
				c3.9-4,4.8-10.1,2.2-15.1l-16.9-32.2C856.2-1135.5,868-1147.6,879.3-1142z"/>
		</g>
		<g>
			<path class="st2" d="M1192.9-1128.6l-16.1,32.6c-2.5,5-1.4,11.1,2.6,15l26,25.4c9,8.8,1.5,23.9-10.9,22.2l-36-5.2
				c-5.6-0.8-11,2.1-13.5,7.1l-16.1,32.6c-5.6,11.3-22.3,8.8-24.4-3.6l-6.1-35.8c-0.9-5.5-5.4-9.8-10.9-10.7l-36-5.2
				c-12.4-1.8-15.3-18.5-4.2-24.3l32.2-16.9c5-2.6,7.7-8.1,6.8-13.7l-6.1-35.8c-2.1-12.4,12.9-20.3,21.9-11.5l26,25.4
				c4,3.9,10.1,4.8,15.1,2.2l32.2-16.9C1186.3-1151.7,1198.4-1139.9,1192.9-1128.6z"/>
		</g>
		<g>
			<path class="st2" d="M1179.5-815.1l-32.6-16.1c-5-2.5-11.1-1.5-15,2.6l-25.4,26c-8.8,9-23.9,1.5-22.1-10.9l5.2-36
				c0.8-5.6-2.1-11-7.1-13.5l-32.6-16.1c-11.3-5.6-8.9-22.3,3.6-24.4l35.8-6.2c5.5-1,9.8-5.4,10.6-10.9l5.2-36
				c1.8-12.4,18.5-15.3,24.3-4.2l16.9,32.2c2.6,5,8.1,7.7,13.7,6.8l35.8-6.2c12.4-2.1,20.3,12.8,11.5,21.9l-25.4,26
				c-3.9,4-4.8,10.1-2.2,15.1l16.9,32.2C1202.6-821.6,1190.8-809.5,1179.5-815.1z"/>
		</g>
	</g>
	<circle class="st2" cx="1029.4" cy="-978.5" r="31.6"/>
</g>
<g>
	<g>
		<path class="st4" d="M1656.5-892.6c0,38.5,31.2,69.7,69.7,69.7s69.7-31.2,69.7-69.7c0,38.5,31.2,69.7,69.7,69.7
			s69.7-31.2,69.7-69.7"/>
	</g>
	<g>
		<path class="st4" d="M1688-1035.4c-33.3,19.2-44.7,61.9-25.5,95.2s61.9,44.7,95.2,25.5c-33.3,19.2-44.7,61.8-25.5,95.2
			s61.9,44.7,95.2,25.5"/>
	</g>
	<g>
		<path class="st4" d="M1827.3-1079.6c-33.3-19.2-75.9-7.8-95.2,25.5c-19.2,33.3-7.8,75.9,25.5,95.2c-33.3-19.2-75.9-7.8-95.2,25.5
			c-19.2,33.3-7.8,75.9,25.5,95.2"/>
	</g>
	<g>
		<path class="st4" d="M1935.2-981c0-38.5-31.2-69.7-69.7-69.7s-69.7,31.2-69.7,69.7c0-38.5-31.2-69.7-69.7-69.7
			s-69.7,31.2-69.7,69.7"/>
	</g>
	<g>
		<path class="st4" d="M1903.8-838.2c33.3-19.2,44.7-61.8,25.5-95.2c-19.2-33.3-61.9-44.7-95.2-25.5c33.3-19.2,44.7-61.8,25.5-95.2
			c-19.2-33.3-61.9-44.7-95.2-25.5"/>
	</g>
	<g>
		<path class="st4" d="M1764.4-794c33.3,19.2,75.9,7.8,95.2-25.5s7.8-75.9-25.5-95.2c33.3,19.2,75.9,7.8,95.2-25.5
			c19.2-33.3,7.8-75.9-25.5-95.2"/>
	</g>
</g>
<image style="overflow:visible;enable-background:new    ;" width="737" height="1105" xlink:href="E9FFD47F.jpeg"  transform="matrix(0.9986 0 0 0.9986 -2375.8093 -3771.6218)">
</image>
<image style="overflow:visible;enable-background:new    ;" width="564" height="316" xlink:href="E9FFD47D.jpeg"  transform="matrix(0.9968 0 0 0.9968 -3733.1106 -763.9049)">
</image>
<image style="overflow:visible;enable-background:new    ;" width="563" height="317" xlink:href="E9FFD483.jpeg"  transform="matrix(0.9968 0 0 0.9968 -3136.1633 -660.4844)">
</image>
<image style="overflow:visible;enable-background:new    ;" width="565" height="565" xlink:href="E9FFD485.jpeg"  transform="matrix(0.9982 0 0 0.9982 647.0766 -298.8392)">
</image>
<g>
	<g>
		<path class="st5" d="M-1553.4-1756v-128.6c0-6.2-3.9-11.7-9.7-13.8c-15.8-5.8-33.2-5.8-49,0c-5.8,2.1-9.7,7.6-9.7,13.8v128.6
			c0,8.1,6.6,14.7,14.7,14.7h39.1C-1560-1741.3-1553.4-1747.9-1553.4-1756z"/>
		<path class="st5" d="M-1636.5-1837.9c3.8-14.8,3.8-30.3,0-45.1c-1.7-6.5-7.5-11.1-14.2-11.1h-131.5c-6.7,0-12.6,4.6-14.2,11.1
			c-3.8,14.8-3.8,30.3,0,45.1c1.7,6.5,7.5,11.1,14.2,11.1h131.5C-1644.1-1826.8-1638.2-1831.4-1636.5-1837.9z"/>
		<path class="st5" d="M-1636.5-1752.4c3.8-14.8,3.8-30.3,0-45.1c-1.7-6.5-7.5-11.1-14.2-11.1h-131.5c-6.7,0-12.6,4.6-14.2,11.1
			c-3.8,14.8-3.8,30.3,0,45.1c1.7,6.5,7.5,11.1,14.2,11.1h131.5C-1644.1-1741.3-1638.2-1745.9-1636.5-1752.4z"/>
		<path class="st5" d="M-1797.3-1664.3c-5.8-15.8-5.8-33.2,0-49.1c2.1-5.8,7.6-9.7,13.8-9.7h220.7c6.2,0,11.7,3.9,13.8,9.7
			c5.8,15.8,5.8,33.2,0,49.1c-2.1,5.8-7.6,9.7-13.8,9.7h-220.7C-1789.7-1654.6-1795.2-1658.5-1797.3-1664.3z"/>
	</g>
</g>
<rect x="-1852.2" y="-1409.8" class="st0" width="1957.9" height="1124.1"/>
<path class="st6" d="M-1034-952.8c-8.2,4.7-17.5,7-26.9,6.7c-2.9-0.1-5.5-2.2-6.2-5.1l-18.1-73c-0.7-2.9,0.5-5.9,3.1-7.3
	c8.2-4.7,17.5-7,26.9-6.7c2.9,0.1,5.5,2.2,6.2,5.1l18.1,73C-1030.2-957.2-1031.5-954.2-1034-952.8z"/>
<path class="st6" d="M-1007.6-953.4c-2.6-9.1-2.6-18.7,0-27.7c0.8-2.8,3.4-4.8,6.4-4.8h75.2c3,0,5.6,1.9,6.4,4.8
	c2.6,9.1,2.6,18.7,0,27.7c-0.8,2.8-3.4,4.8-6.4,4.8h-75.2C-1004.2-948.6-1006.8-950.6-1007.6-953.4z"/>
<path class="st6" d="M-1030.8-1005.7c-2.6-9.1-2.6-18.7,0-27.7c0.8-2.8,3.4-4.8,6.4-4.8h75.2c3,0,5.6,1.9,6.4,4.8
	c2.6,9.1,2.6,18.7,0,27.7c-0.8,2.8-3.4,4.8-6.4,4.8h-75.2C-1027.4-1000.9-1030-1002.9-1030.8-1005.7z"/>
<path class="st6" d="M-936.5-898.3c4.2-9.4,4.6-20,1.1-29.7c-0.9-2.5-3.3-4.2-6-4.3l-124.3-4.7c-2.7-0.1-5.2,1.4-6.3,3.9
	c-4.2,9.4-4.6,20-1.1,29.7c0.9,2.5,3.3,4.2,6,4.3l124.3,4.7C-940.1-894.3-937.6-895.8-936.5-898.3z"/>
<path class="st6" d="M-489-1162.1c-9.7,6.2-20.9,9.5-32.3,9.6c-3.6,0-6.8-2.4-7.8-5.8l-26-87.7c-1-3.4,0.3-7.2,3.3-9.1
	c9.7-6.2,20.9-9.5,32.3-9.6c3.6,0,6.8,2.4,7.8,5.8l26,87.7C-484.7-1167.8-486-1164.1-489-1162.1z"/>
<path class="st6" d="M-258.7-1161.6c-3.2-11-3.2-22.7,0-33.7c1-3.4,4.2-5.8,7.8-5.8h91.5c3.6,0,6.8,2.4,7.8,5.8
	c3.2,11,3.2,22.7,0,33.7c-1,3.4-4.2,5.8-7.8,5.8H-251C-254.5-1155.8-257.7-1158.1-258.7-1161.6z"/>
<path class="st6" d="M-326.8-1098c-3.2-11-3.2-22.7,0-33.7c1-3.4,4.2-5.8,7.8-5.8h136.6c3.6,0,6.8,2.4,7.8,5.8
	c3.2,11,3.2,22.7,0,33.7c-1,3.4-4.2,5.8-7.8,5.8H-319C-322.6-1092.2-325.8-1094.5-326.8-1098z"/>
<path class="st6" d="M-286.2-1156c-10,5.6-21.4,8.2-32.8,7.6c-3.6-0.2-6.6-2.8-7.4-6.3l-30.8-133.1c-0.8-3.5,0.8-7.1,3.9-8.9
	c10-5.6,21.4-8.2,32.8-7.6c3.6,0.2,6.6,2.8,7.4,6.3l30.8,133.1C-281.5-1161.3-283.1-1157.7-286.2-1156z"/>
<path class="st6" d="M-281.6-1225.1c-3.2-11-3.2-22.7,0-33.7c1-3.4,4.2-5.8,7.8-5.8h91.5c3.6,0,6.8,2.4,7.8,5.8
	c3.2,11,3.2,22.7,0,33.7c-1,3.4-4.2,5.8-7.8,5.8h-91.5C-277.4-1219.3-280.6-1221.7-281.6-1225.1z"/>
<g>
	<path class="st6" d="M-1733.1-561.8l-40.7-126.8c-1.5-4.6-0.1-9.7,3.7-12.8c14.2-11.9,32.6-17.8,51-16.4c4.8,0.4,9,3.7,10.5,8.3
		l40.7,126.8c2,6.3-1.5,13.1-7.8,15.1l-42.3,13.6C-1724.3-552.1-1731.1-555.5-1733.1-561.8z"/>
	<path class="st6" d="M-1669.6-658c-4.7-16.3-4.7-33.7,0-50c1.5-5.1,6.2-8.6,11.5-8.6h135.7c5.3,0,10,3.5,11.5,8.6
		c4.7,16.3,4.7,33.7,0,50c-1.5,5.1-6.2,8.6-11.5,8.6h-135.7C-1663.4-649.4-1668.1-652.9-1669.6-658z"/>
	<path class="st6" d="M-1629.4-572.5c-4.7-16.3-4.7-33.7,0-50c1.5-5.1,6.2-8.6,11.5-8.6h135.7c5.3,0,10,3.5,11.5,8.6
		c4.7,16.3,4.7,33.7,0,50c-1.5,5.1-6.2,8.6-11.5,8.6h-135.7C-1623.2-563.9-1627.9-567.4-1629.4-572.5z"/>
	<path class="st6" d="M-1501.1-473c7.6-16.9,8.3-36.1,2-53.5c-1.7-4.6-6-7.7-10.8-7.8l-224.2-8.5c-4.9-0.2-9.4,2.6-11.4,7
		c-7.6,16.9-8.3,36.1-2,53.5c1.7,4.6,6,7.7,10.8,7.8l224.2,8.5C-1507.6-465.9-1503.1-468.6-1501.1-473z"/>
</g>
<g>
	<path class="st2" d="M-884.2-978.6h13.1v6.3h-21.1v-39.7h8L-884.2-978.6L-884.2-978.6z"/>
	<path class="st2" d="M-837-985.6H-860c0.2,2.3,1,4.1,2.4,5.3c1.4,1.3,3.1,1.9,5.2,1.9c3,0,5.1-1.3,6.3-3.8h8.6
		c-0.9,3-2.7,5.5-5.2,7.5c-2.6,1.9-5.8,2.9-9.5,2.9c-3,0-5.8-0.7-8.2-2c-2.4-1.3-4.3-3.2-5.6-5.7c-1.4-2.5-2-5.3-2-8.5
		c0-3.3,0.7-6.1,2-8.6c1.3-2.5,3.2-4.4,5.6-5.7s5.1-2,8.3-2c3,0,5.7,0.7,8.1,1.9c2.4,1.3,4.2,3.1,5.5,5.5s2,5.1,2,8.2
		C-836.8-987.6-836.8-986.5-837-985.6z M-845-991c0-2.1-0.8-3.7-2.2-4.9c-1.4-1.2-3.2-1.8-5.3-1.8c-2,0-3.6,0.6-5,1.8
		c-1.3,1.2-2.2,2.9-2.5,5L-845-991L-845-991z"/>
	<path class="st2" d="M-831.1-996.6c1.3-2.5,3-4.4,5.2-5.7s4.6-2,7.3-2c2.4,0,4.4,0.5,6.2,1.4c1.8,0.9,3.2,2.1,4.2,3.6v-4.5h8v31.5
		h-8v-4.6c-1,1.5-2.4,2.7-4.2,3.7c-1.8,1-3.9,1.4-6.2,1.4c-2.7,0-5.1-0.7-7.3-2.1s-3.9-3.3-5.2-5.8c-1.3-2.5-1.9-5.3-1.9-8.6
		C-833-991.3-832.4-994.2-831.1-996.6z M-809.3-993c-0.8-1.4-1.8-2.4-3.1-3.2c-1.3-0.7-2.7-1.1-4.2-1.1c-1.5,0-2.8,0.4-4.1,1.1
		s-2.3,1.8-3,3.2c-0.8,1.4-1.2,3-1.2,4.9s0.4,3.6,1.2,5c0.8,1.4,1.8,2.5,3.1,3.3c1.3,0.8,2.6,1.1,4.1,1.1c1.5,0,2.9-0.4,4.2-1.1
		c1.3-0.7,2.3-1.8,3.1-3.2c0.8-1.4,1.1-3.1,1.1-5C-808.2-990-808.6-991.6-809.3-993z"/>
	<path class="st2" d="M-780.4-1002.8c1.6-0.9,3.5-1.4,5.7-1.4v8.4h-2.1c-2.5,0-4.4,0.6-5.7,1.8c-1.3,1.2-1.9,3.2-1.9,6.2v15.7h-8
		v-31.5h8v4.9C-783.4-1000.6-782-1001.9-780.4-1002.8z"/>
	<path class="st2" d="M-742.8-1000.7c2.3,2.4,3.5,5.7,3.5,9.9v18.5h-8v-17.4c0-2.5-0.6-4.4-1.9-5.8s-3-2-5.1-2c-2.2,0-3.9,0.7-5.2,2
		c-1.3,1.3-1.9,3.3-1.9,5.8v17.4h-8v-31.5h8v3.9c1.1-1.4,2.4-2.4,4.1-3.2c1.6-0.8,3.5-1.2,5.4-1.2
		C-748.1-1004.3-745.1-1003.1-742.8-1000.7z"/>
	<path class="st2" d="M-731.2-1008.9c-0.9-0.9-1.4-2-1.4-3.3s0.5-2.4,1.4-3.3c0.9-0.9,2.1-1.3,3.5-1.3c1.4,0,2.6,0.4,3.5,1.3
		s1.4,2,1.4,3.3s-0.5,2.4-1.4,3.3s-2.1,1.3-3.5,1.3C-729.1-1007.6-730.2-1008-731.2-1008.9z M-723.7-1003.8v31.5h-8v-31.5H-723.7z"
		/>
	<path class="st2" d="M-701.4-997.2h-5.5v25h-8.1v-25h-3.6v-6.6h3.6v-1.6c0-3.9,1.1-6.7,3.3-8.5c2.2-1.8,5.5-2.7,10-2.6v6.7
		c-1.9,0-3.3,0.3-4,1c-0.8,0.7-1.1,1.9-1.1,3.7v1.3h5.5L-701.4-997.2L-701.4-997.2z"/>
	<path class="st2" d="M-666.1-1003.8l-19.5,46.5h-8.5l6.8-15.7l-12.6-30.8h8.9l8.1,22l8.3-22H-666.1z"/>
	<path class="st2" d="M-867.8-926.4h-15.8l-2.6,7.6h-8.4l14.3-39.8h9.3l14.3,39.8h-8.4L-867.8-926.4z M-870-932.8l-5.8-16.6
		l-5.8,16.6H-870z"/>
	<path class="st2" d="M-851.5-943.2c1.3-2.4,3.2-4.3,5.5-5.7c2.4-1.3,5-2,8.1-2c3.9,0,7.1,1,9.7,2.9c2.6,2,4.3,4.7,5.2,8.2h-8.6
		c-0.5-1.4-1.2-2.4-2.3-3.2c-1.1-0.8-2.4-1.2-4-1.2c-2.3,0-4.1,0.8-5.4,2.5s-2,4-2,7c0,3,0.7,5.3,2,7c1.3,1.7,3.1,2.5,5.4,2.5
		c3.2,0,5.3-1.4,6.3-4.3h8.6c-0.9,3.4-2.6,6.1-5.2,8.1c-2.6,2-5.8,3-9.7,3c-3,0-5.7-0.7-8.1-2c-2.3-1.3-4.2-3.2-5.5-5.7
		c-1.3-2.5-2-5.3-2-8.6C-853.5-937.9-852.8-940.7-851.5-943.2z"/>
	<path class="st2" d="M-817.3-943.2c1.3-2.5,3-4.4,5.2-5.7s4.6-2,7.3-2c2.3,0,4.4,0.5,6.2,1.4c1.8,0.9,3.2,2.1,4.2,3.6v-4.5h8v31.5
		h-8v-4.6c-1,1.5-2.4,2.7-4.2,3.7s-3.9,1.5-6.2,1.5c-2.7,0-5.1-0.7-7.3-2c-2.2-1.4-3.9-3.3-5.2-5.8c-1.3-2.5-1.9-5.3-1.9-8.6
		C-819.2-937.9-818.6-940.7-817.3-943.2z M-795.5-939.6c-0.8-1.4-1.8-2.4-3.1-3.2c-1.3-0.7-2.7-1.1-4.2-1.1c-1.5,0-2.9,0.4-4.1,1.1
		s-2.3,1.8-3,3.2c-0.8,1.4-1.2,3-1.2,4.9s0.4,3.6,1.2,5c0.8,1.4,1.8,2.5,3.1,3.3c1.3,0.8,2.6,1.1,4.1,1.1c1.5,0,2.9-0.4,4.2-1.1
		c1.3-0.7,2.3-1.8,3.1-3.2c0.8-1.4,1.1-3.1,1.1-5C-794.4-936.6-794.8-938.2-795.5-939.6z"/>
	<path class="st2" d="M-778.7-943.2c1.3-2.5,3-4.4,5.2-5.7s4.6-2,7.3-2c2,0,4,0.4,5.9,1.3s3.3,2.1,4.4,3.6v-15h8.1v42.1h-8.1v-4.7
		c-1,1.6-2.4,2.8-4.2,3.8c-1.8,1-3.9,1.4-6.2,1.4c-2.7,0-5.1-0.7-7.3-2s-3.9-3.3-5.2-5.8c-1.3-2.5-1.9-5.3-1.9-8.6
		C-780.6-937.9-780-940.7-778.7-943.2z M-756.9-939.6c-0.8-1.4-1.8-2.4-3.1-3.2c-1.3-0.7-2.7-1.1-4.2-1.1c-1.5,0-2.8,0.4-4.1,1.1
		s-2.3,1.8-3,3.2c-0.8,1.4-1.2,3-1.2,4.9s0.4,3.6,1.2,5c0.8,1.4,1.8,2.5,3.1,3.3c1.3,0.8,2.6,1.1,4.1,1.1c1.5,0,2.9-0.4,4.2-1.1
		c1.3-0.7,2.3-1.8,3.1-3.2c0.8-1.4,1.1-3.1,1.1-5C-755.8-936.6-756.2-938.2-756.9-939.6z"/>
	<path class="st2" d="M-710.9-932.2h-23.1c0.2,2.3,1,4.1,2.4,5.3c1.4,1.3,3.1,1.9,5.2,1.9c3,0,5.1-1.3,6.3-3.8h8.6
		c-0.9,3-2.7,5.5-5.2,7.5c-2.6,2-5.8,2.9-9.5,2.9c-3,0-5.8-0.7-8.2-2c-2.4-1.3-4.3-3.2-5.6-5.7c-1.4-2.5-2-5.3-2-8.5
		c0-3.3,0.7-6.1,2-8.6c1.3-2.5,3.2-4.4,5.6-5.7s5.1-2,8.3-2c3,0,5.7,0.7,8.1,1.9c2.4,1.3,4.2,3.1,5.5,5.5s2,5.1,2,8.2
		C-710.6-934.2-710.7-933.1-710.9-932.2z M-718.9-937.6c0-2.1-0.8-3.7-2.2-4.9c-1.4-1.2-3.2-1.8-5.3-1.8c-2,0-3.6,0.6-5,1.8
		c-1.4,1.2-2.2,2.9-2.5,5L-718.9-937.6L-718.9-937.6z"/>
	<path class="st2" d="M-656.3-947.3c2.4,2.4,3.6,5.7,3.6,9.9v18.5h-8v-17.4c0-2.5-0.6-4.3-1.9-5.7s-3-2-5.1-2c-2.2,0-3.9,0.7-5.1,2
		c-1.3,1.3-1.9,3.2-1.9,5.7v17.4h-8v-17.4c0-2.5-0.6-4.3-1.9-5.7s-3-2-5.1-2c-2.2,0-3.9,0.7-5.2,2c-1.3,1.3-1.9,3.2-1.9,5.7v17.4h-8
		v-31.5h8v3.8c1-1.3,2.3-2.4,4-3.1c1.6-0.8,3.4-1.1,5.3-1.1c2.5,0,4.7,0.5,6.6,1.6c1.9,1,3.4,2.5,4.5,4.5c1-1.8,2.5-3.3,4.5-4.4
		c2-1.1,4.1-1.7,6.4-1.7C-661.8-950.8-658.7-949.7-656.3-947.3z"/>
	<path class="st2" d="M-615-950.4l-19.5,46.5h-8.5l6.8-15.7l-12.6-30.8h8.9l8.1,22l8.3-22H-615z"/>
</g>
<g>
	<path class="st2" d="M-884.2-689.6h13.1v6.3h-21.1V-723h8L-884.2-689.6L-884.2-689.6z"/>
	<path class="st2" d="M-837-696.7H-860c0.2,2.3,1,4.1,2.4,5.3c1.4,1.3,3.1,1.9,5.2,1.9c3,0,5.1-1.3,6.3-3.8h8.6
		c-0.9,3-2.7,5.5-5.2,7.5c-2.6,2-5.8,2.9-9.5,2.9c-3,0-5.8-0.7-8.2-2c-2.4-1.3-4.3-3.2-5.6-5.7c-1.4-2.5-2-5.3-2-8.5
		c0-3.3,0.7-6.1,2-8.6c1.3-2.5,3.2-4.4,5.6-5.7s5.1-2,8.3-2c3,0,5.7,0.7,8.1,1.9c2.4,1.3,4.2,3.1,5.5,5.5s2,5.1,2,8.2
		C-836.8-698.6-836.8-697.6-837-696.7z M-845-702c0-2-0.8-3.7-2.2-4.9c-1.4-1.2-3.2-1.8-5.3-1.8c-2,0-3.6,0.6-5,1.8
		c-1.3,1.2-2.2,2.9-2.5,5L-845-702L-845-702z"/>
	<path class="st2" d="M-831.1-707.6c1.3-2.5,3-4.4,5.2-5.7s4.6-2,7.3-2c2.4,0,4.4,0.5,6.2,1.4c1.8,1,3.2,2.1,4.2,3.6v-4.5h8v31.5h-8
		v-4.6c-1,1.5-2.4,2.7-4.2,3.7s-3.9,1.5-6.2,1.5c-2.7,0-5.1-0.7-7.3-2s-3.9-3.3-5.2-5.8c-1.3-2.5-1.9-5.3-1.9-8.6
		C-833-702.4-832.4-705.2-831.1-707.6z M-809.3-704c-0.8-1.4-1.8-2.5-3.1-3.2c-1.3-0.7-2.7-1.1-4.2-1.1c-1.5,0-2.8,0.4-4.1,1.1
		c-1.2,0.7-2.3,1.8-3,3.2c-0.8,1.4-1.2,3-1.2,4.9c0,1.9,0.4,3.6,1.2,5c0.8,1.4,1.8,2.5,3.1,3.3c1.3,0.8,2.6,1.1,4.1,1.1
		c1.5,0,2.9-0.4,4.2-1.1c1.3-0.7,2.3-1.8,3.1-3.2s1.1-3,1.1-5C-808.2-701-808.6-702.6-809.3-704z"/>
	<path class="st2" d="M-780.4-713.9c1.6-1,3.5-1.4,5.7-1.4v8.4h-2.1c-2.5,0-4.4,0.6-5.7,1.8c-1.3,1.2-1.9,3.2-1.9,6.2v15.7h-8v-31.5
		h8v4.9C-783.4-711.6-782-712.9-780.4-713.9z"/>
	<path class="st2" d="M-742.8-711.7c2.3,2.4,3.5,5.7,3.5,9.9v18.5h-8v-17.4c0-2.5-0.6-4.4-1.9-5.8c-1.2-1.3-3-2-5.1-2
		c-2.2,0-3.9,0.7-5.2,2c-1.3,1.3-1.9,3.3-1.9,5.8v17.4h-8v-31.5h8v3.9c1.1-1.4,2.4-2.4,4.1-3.2c1.6-0.8,3.5-1.2,5.4-1.2
		C-748.1-715.3-745.1-714.1-742.8-711.7z"/>
	<path class="st2" d="M-731.2-719.9c-0.9-0.9-1.4-2-1.4-3.3s0.5-2.4,1.4-3.3c0.9-0.9,2.1-1.3,3.5-1.3c1.4,0,2.6,0.5,3.5,1.3
		s1.4,2,1.4,3.3s-0.5,2.4-1.4,3.3s-2.1,1.3-3.5,1.3C-729.1-718.6-730.2-719-731.2-719.9z M-723.7-714.8v31.5h-8v-31.5H-723.7z"/>
	<path class="st2" d="M-701.4-708.3h-5.5v25h-8.1v-25h-3.6v-6.5h3.6v-1.6c0-3.9,1.1-6.7,3.3-8.5s5.5-2.7,10-2.6v6.7
		c-1.9,0-3.3,0.3-4,1c-0.8,0.7-1.1,1.9-1.1,3.7v1.3h5.5L-701.4-708.3L-701.4-708.3z"/>
	<path class="st2" d="M-666.1-714.8l-19.5,46.5h-8.5l6.8-15.7l-12.6-30.8h8.9l8.1,22l8.3-22H-666.1z"/>
	<path class="st2" d="M-867.8-637.4h-15.8l-2.6,7.6h-8.4l14.3-39.8h9.3l14.3,39.8h-8.4L-867.8-637.4z M-870-643.8l-5.8-16.6
		l-5.8,16.6H-870z"/>
	<path class="st2" d="M-851.5-654.2c1.3-2.5,3.2-4.3,5.5-5.7c2.4-1.3,5-2,8.1-2c3.9,0,7.1,1,9.7,2.9s4.3,4.7,5.2,8.2h-8.6
		c-0.5-1.4-1.2-2.4-2.3-3.2c-1.1-0.8-2.4-1.2-4-1.2c-2.3,0-4.1,0.8-5.4,2.5c-1.3,1.7-2,4-2,7c0,3,0.7,5.3,2,7
		c1.3,1.7,3.1,2.5,5.4,2.5c3.2,0,5.3-1.4,6.3-4.3h8.6c-0.9,3.4-2.6,6.1-5.2,8.1c-2.6,2-5.8,3-9.7,3c-3,0-5.7-0.7-8.1-2
		c-2.3-1.3-4.2-3.2-5.5-5.7c-1.3-2.5-2-5.3-2-8.6C-853.5-648.9-852.8-651.8-851.5-654.2z"/>
	<path class="st2" d="M-817.3-654.2c1.3-2.5,3-4.4,5.2-5.7s4.6-2,7.3-2c2.3,0,4.4,0.5,6.2,1.4c1.8,1,3.2,2.1,4.2,3.6v-4.5h8v31.5h-8
		v-4.6c-1,1.5-2.4,2.7-4.2,3.7s-3.9,1.5-6.2,1.5c-2.7,0-5.1-0.7-7.3-2c-2.2-1.4-3.9-3.3-5.2-5.8c-1.3-2.5-1.9-5.3-1.9-8.6
		C-819.2-648.9-818.6-651.8-817.3-654.2z M-795.5-650.6c-0.8-1.4-1.8-2.5-3.1-3.2c-1.3-0.7-2.7-1.1-4.2-1.1c-1.5,0-2.9,0.4-4.1,1.1
		c-1.2,0.7-2.3,1.8-3,3.2c-0.8,1.4-1.2,3-1.2,4.9c0,1.9,0.4,3.6,1.2,5c0.8,1.4,1.8,2.5,3.1,3.3c1.3,0.8,2.6,1.1,4.1,1.1
		c1.5,0,2.9-0.4,4.2-1.1c1.3-0.7,2.3-1.8,3.1-3.2s1.1-3,1.1-5C-794.4-647.6-794.8-649.2-795.5-650.6z"/>
	<path class="st2" d="M-778.7-654.2c1.3-2.5,3-4.4,5.2-5.7s4.6-2,7.3-2c2,0,4,0.5,5.9,1.3s3.3,2.1,4.4,3.6v-15h8.1v42.1h-8.1v-4.7
		c-1,1.6-2.4,2.8-4.2,3.8c-1.8,1-3.9,1.4-6.2,1.4c-2.7,0-5.1-0.7-7.3-2s-3.9-3.3-5.2-5.8c-1.3-2.5-1.9-5.3-1.9-8.6
		C-780.6-648.9-780-651.8-778.7-654.2z M-756.9-650.6c-0.8-1.4-1.8-2.5-3.1-3.2c-1.3-0.7-2.7-1.1-4.2-1.1c-1.5,0-2.8,0.4-4.1,1.1
		c-1.2,0.7-2.3,1.8-3,3.2c-0.8,1.4-1.2,3-1.2,4.9c0,1.9,0.4,3.6,1.2,5c0.8,1.4,1.8,2.5,3.1,3.3c1.3,0.8,2.6,1.1,4.1,1.1
		c1.5,0,2.9-0.4,4.2-1.1c1.3-0.7,2.3-1.8,3.1-3.2s1.1-3,1.1-5C-755.8-647.6-756.2-649.2-756.9-650.6z"/>
	<path class="st2" d="M-710.9-643.2h-23.1c0.2,2.3,1,4.1,2.4,5.3c1.4,1.3,3.1,1.9,5.2,1.9c3,0,5.1-1.3,6.3-3.8h8.6
		c-0.9,3-2.7,5.5-5.2,7.5c-2.6,2-5.8,2.9-9.5,2.9c-3,0-5.8-0.7-8.2-2c-2.4-1.3-4.3-3.2-5.6-5.7c-1.4-2.5-2-5.3-2-8.5
		c0-3.3,0.7-6.1,2-8.6c1.3-2.5,3.2-4.4,5.6-5.7s5.1-2,8.3-2c3,0,5.7,0.7,8.1,1.9c2.4,1.3,4.2,3.1,5.5,5.5s2,5.1,2,8.2
		C-710.6-645.2-710.7-644.2-710.9-643.2z M-718.9-648.6c0-2-0.8-3.7-2.2-4.9c-1.4-1.2-3.2-1.8-5.3-1.8c-2,0-3.6,0.6-5,1.8
		c-1.4,1.2-2.2,2.9-2.5,5L-718.9-648.6L-718.9-648.6z"/>
	<path class="st2" d="M-656.3-658.3c2.4,2.4,3.6,5.7,3.6,9.9v18.5h-8v-17.4c0-2.5-0.6-4.4-1.9-5.7c-1.2-1.3-3-2-5.1-2
		c-2.2,0-3.9,0.7-5.1,2c-1.3,1.3-1.9,3.2-1.9,5.7v17.4h-8v-17.4c0-2.5-0.6-4.4-1.9-5.7c-1.2-1.3-3-2-5.1-2c-2.2,0-3.9,0.7-5.2,2
		c-1.3,1.3-1.9,3.2-1.9,5.7v17.4h-8v-31.5h8v3.8c1-1.3,2.3-2.4,4-3.1c1.6-0.8,3.4-1.1,5.3-1.1c2.5,0,4.7,0.5,6.6,1.6
		c1.9,1,3.4,2.5,4.5,4.5c1-1.8,2.5-3.3,4.5-4.4c2-1.1,4.1-1.7,6.4-1.7C-661.8-661.9-658.7-660.7-656.3-658.3z"/>
	<path class="st2" d="M-615-661.4l-19.5,46.5h-8.5l6.8-15.7l-12.6-30.8h8.9l8.1,22l8.3-22H-615z"/>
</g>
<g>
	<g>
		<path class="st2" d="M-1669.3,3086l40.7-126.8c1.5-4.6,0-9.7-3.7-12.8c-14.2-11.9-32.5-17.8-51-16.4c-4.8,0.4-9,3.7-10.5,8.3
			l-40.7,126.8c-2,6.3,1.4,13.1,7.8,15.1l42.3,13.6C-1678,3095.8-1671.3,3092.3-1669.3,3086z"/>
		<path class="st2" d="M-1731.2,2996.7c4.7-16.3,4.7-33.7,0-50c-1.5-5.1-6.2-8.6-11.5-8.6h-135.7c-5.3,0-10,3.5-11.5,8.6
			c-4.7,16.3-4.7,33.7,0,50c1.5,5.1,6.2,8.6,11.5,8.6h135.7C-1737.4,3005.3-1732.7,3001.8-1731.2,2996.7z"/>
		<path class="st2" d="M-1789.2,3082.2c4.7-16.3,4.7-33.7,0-50c-1.5-5.1-6.2-8.6-11.5-8.6h-135.7c-5.3,0-10,3.5-11.5,8.6
			c-4.7,16.3-4.7,33.7,0,50c1.5,5.1,6.2,8.6,11.5,8.6h135.7C-1795.4,3090.8-1790.7,3087.3-1789.2,3082.2z"/>
		<path class="st2" d="M-1918.7,3170.1c-7-17.2-7-36.4,0-53.6c1.8-4.5,6.2-7.4,11.1-7.4h224.3c4.9,0,9.3,2.9,11.1,7.4
			c7,17.2,7,36.4,0,53.6c-1.8,4.5-6.2,7.4-11.1,7.4h-224.3C-1912.4,3177.6-1916.8,3174.6-1918.7,3170.1z"/>
	</g>
	<g>
		<path class="st2" d="M-1567.7,3029.9h23.6v11.4h-38v-71.7h14.4V3029.9z"/>
		<path class="st2" d="M-1482.4,3017.2h-41.6c0.3,4.1,1.8,7.3,4.3,9.6c2.5,2.3,5.7,3.5,9.3,3.5c5.3,0,9.1-2.3,11.4-6.9h15.5
			c-1.6,5.5-4.8,10-9.4,13.5c-4.7,3.5-10.4,5.3-17.2,5.3c-5.5,0-10.4-1.2-14.7-3.6c-4.3-2.4-7.7-5.9-10.2-10.3
			c-2.4-4.4-3.7-9.6-3.7-15.4c0-5.9,1.2-11.1,3.6-15.5c2.4-4.4,5.8-7.9,10.1-10.3c4.3-2.4,9.3-3.6,14.9-3.6c5.4,0,10.2,1.2,14.5,3.5
			c4.3,2.3,7.6,5.6,10,9.9s3.5,9.2,3.5,14.7C-1482,3013.7-1482.2,3015.5-1482.4,3017.2z M-1496.9,3007.5c-0.1-3.7-1.4-6.7-4-8.9
			c-2.6-2.2-5.8-3.3-9.6-3.3c-3.6,0-6.6,1.1-9,3.2c-2.4,2.2-3.9,5.1-4.5,9L-1496.9,3007.5L-1496.9,3007.5z"/>
		<path class="st2" d="M-1471.8,2997.4c2.3-4.4,5.4-7.9,9.3-10.3c3.9-2.4,8.3-3.6,13.2-3.6c4.2,0,8,0.9,11.1,2.6
			c3.2,1.7,5.7,3.9,7.6,6.5v-8.1h14.5v56.9h-14.5v-8.3c-1.8,2.7-4.4,4.9-7.6,6.6c-3.2,1.8-7,2.6-11.2,2.6c-4.8,0-9.2-1.2-13.1-3.7
			c-3.9-2.5-7-5.9-9.3-10.4c-2.3-4.5-3.4-9.6-3.4-15.5C-1475.2,3006.9-1474.1,3001.8-1471.8,2997.4z M-1432.5,3003.9
			c-1.4-2.5-3.2-4.4-5.6-5.8s-4.8-2-7.5-2s-5.1,0.6-7.4,1.9s-4.1,3.2-5.5,5.7s-2.1,5.5-2.1,8.9s0.7,6.4,2.1,9
			c1.4,2.6,3.2,4.5,5.6,5.9c2.3,1.4,4.7,2.1,7.3,2.1c2.7,0,5.2-0.7,7.5-2s4.2-3.2,5.5-5.8c1.4-2.5,2.1-5.5,2.1-9
			C-1430.5,3009.4-1431.2,3006.4-1432.5,3003.9z"/>
		<path class="st2" d="M-1380.3,2986.2c3-1.7,6.4-2.6,10.2-2.6v15.1h-3.8c-4.5,0-7.9,1.1-10.2,3.2c-2.3,2.1-3.4,5.8-3.4,11.1v28.3
			h-14.4v-56.9h14.4v8.8C-1385.7,2990.2-1383.3,2987.9-1380.3,2986.2z"/>
		<path class="st2" d="M-1312.5,2990c4.2,4.3,6.3,10.2,6.3,17.9v33.4h-14.4v-31.4c0-4.5-1.1-8-3.4-10.4s-5.3-3.6-9.2-3.6
			c-4,0-7.1,1.2-9.4,3.6c-2.3,2.4-3.4,5.9-3.4,10.4v31.4h-14.4v-56.9h14.4v7.1c1.9-2.5,4.4-4.4,7.3-5.8c3-1.4,6.2-2.1,9.8-2.1
			C-1322.1,2983.6-1316.6,2985.7-1312.5,2990z"/>
		<path class="st2" d="M-1291.6,2975.2c-1.7-1.6-2.5-3.6-2.5-6s0.8-4.4,2.5-6c1.7-1.6,3.8-2.4,6.3-2.4c2.5,0,4.6,0.8,6.3,2.4
			c1.7,1.6,2.5,3.6,2.5,6s-0.8,4.4-2.5,6s-3.8,2.4-6.3,2.4C-1287.8,2977.7-1289.9,2976.8-1291.6,2975.2z M-1278.2,2984.4v56.9h-14.4
			v-56.9H-1278.2z"/>
		<path class="st2" d="M-1237.9,2996.2h-10v45.1h-14.6v-45.1h-6.5v-11.8h6.5v-2.9c0-7,2-12.1,6-15.4c4-3.3,10-4.8,18-4.6v12.1
			c-3.5-0.1-5.9,0.5-7.3,1.8c-1.4,1.2-2.1,3.5-2.1,6.7v2.4h10L-1237.9,2996.2L-1237.9,2996.2z"/>
		<path class="st2" d="M-1174.1,2984.4l-35.2,83.8h-15.3l12.3-28.3l-22.8-55.5h16.1l14.7,39.7l14.9-39.7H-1174.1z"/>
		<path class="st2" d="M-1538.1,3124h-28.5l-4.7,13.7h-15.1l25.8-71.8h16.7l25.8,71.8h-15.2L-1538.1,3124z M-1542,3112.5l-10.4-30
			l-10.4,30H-1542z"/>
		<path class="st2" d="M-1508.6,3093.8c2.4-4.4,5.7-7.8,10-10.3s9.1-3.6,14.6-3.6c7,0,12.9,1.8,17.5,5.3s7.7,8.5,9.3,14.8h-15.5
			c-0.8-2.5-2.2-4.4-4.2-5.8c-2-1.4-4.4-2.1-7.2-2.1c-4.1,0-7.4,1.5-9.8,4.5s-3.6,7.2-3.6,12.7c0,5.4,1.2,9.6,3.6,12.6
			c2.4,3,5.7,4.5,9.8,4.5c5.8,0,9.6-2.6,11.4-7.8h15.5c-1.6,6.2-4.7,11.1-9.4,14.7c-4.7,3.6-10.5,5.4-17.5,5.4
			c-5.5,0-10.3-1.2-14.6-3.6c-4.2-2.4-7.6-5.9-10-10.3c-2.4-4.4-3.6-9.6-3.6-15.5C-1512.2,3103.3-1511,3098.2-1508.6,3093.8z"/>
		<path class="st2" d="M-1446.9,3093.7c2.3-4.4,5.4-7.9,9.3-10.3c3.9-2.4,8.3-3.6,13.2-3.6c4.2,0,8,0.9,11.1,2.6
			c3.2,1.7,5.7,3.9,7.6,6.5v-8.1h14.5v56.9h-14.5v-8.3c-1.8,2.7-4.4,4.9-7.6,6.6c-3.2,1.8-7,2.6-11.2,2.6c-4.8,0-9.2-1.2-13.1-3.7
			c-3.9-2.5-7-5.9-9.3-10.4c-2.3-4.5-3.4-9.6-3.4-15.5C-1450.4,3103.3-1449.2,3098.2-1446.9,3093.7z M-1407.7,3100.2
			c-1.4-2.5-3.2-4.4-5.6-5.8s-4.8-2-7.5-2s-5.1,0.6-7.4,1.9s-4.1,3.2-5.5,5.7s-2.1,5.5-2.1,8.9s0.7,6.4,2.1,9s3.2,4.5,5.6,5.9
			c2.3,1.4,4.7,2.1,7.3,2.1c2.7,0,5.2-0.7,7.5-2s4.2-3.2,5.5-5.8c1.4-2.5,2.1-5.5,2.1-9C-1405.6,3105.7-1406.3,3102.7-1407.7,3100.2
			z"/>
		<path class="st2" d="M-1377.3,3093.7c2.3-4.4,5.4-7.9,9.4-10.3s8.4-3.6,13.2-3.6c3.7,0,7.2,0.8,10.6,2.4c3.3,1.6,6,3.8,8,6.4v-27
			h14.6v76h-14.6v-8.4c-1.8,2.8-4.3,5.1-7.5,6.8s-6.9,2.6-11.2,2.6c-4.8,0-9.2-1.2-13.1-3.7c-4-2.5-7.1-5.9-9.4-10.4
			c-2.3-4.5-3.4-9.6-3.4-15.5C-1380.8,3103.3-1379.6,3098.2-1377.3,3093.7z M-1338,3100.2c-1.4-2.5-3.2-4.4-5.6-5.8
			c-2.3-1.3-4.8-2-7.5-2c-2.7,0-5.1,0.6-7.4,1.9s-4.1,3.2-5.5,5.7s-2.1,5.5-2.1,8.9s0.7,6.4,2.1,9s3.2,4.5,5.6,5.9
			c2.3,1.4,4.7,2.1,7.3,2.1c2.7,0,5.2-0.7,7.5-2s4.2-3.2,5.6-5.8c1.4-2.5,2-5.5,2-9C-1336,3105.7-1336.7,3102.7-1338,3100.2z"/>
		<path class="st2" d="M-1255,3113.5h-41.6c0.3,4.1,1.8,7.3,4.3,9.6c2.5,2.3,5.7,3.5,9.4,3.5c5.3,0,9.1-2.3,11.4-6.9h15.5
			c-1.6,5.5-4.8,10-9.4,13.5c-4.7,3.5-10.4,5.3-17.2,5.3c-5.5,0-10.4-1.2-14.7-3.6c-4.3-2.4-7.7-5.9-10.2-10.3
			c-2.4-4.4-3.6-9.6-3.6-15.4c0-5.9,1.2-11.1,3.6-15.5c2.4-4.4,5.8-7.9,10.1-10.3c4.3-2.4,9.3-3.6,14.9-3.6c5.4,0,10.2,1.2,14.5,3.5
			c4.3,2.3,7.6,5.6,10,9.9s3.5,9.2,3.5,14.7C-1254.5,3110-1254.7,3111.9-1255,3113.5z M-1269.4,3103.9c-0.1-3.7-1.4-6.7-4-8.9
			s-5.8-3.3-9.6-3.3c-3.6,0-6.6,1.1-9,3.2c-2.4,2.2-3.9,5.1-4.5,9L-1269.4,3103.9L-1269.4,3103.9z"/>
		<path class="st2" d="M-1156.5,3086.4c4.3,4.3,6.4,10.2,6.4,17.9v33.4h-14.4v-31.4c0-4.4-1.1-7.9-3.4-10.2
			c-2.3-2.4-5.3-3.5-9.2-3.5c-3.9,0-7,1.2-9.3,3.5c-2.3,2.4-3.4,5.8-3.4,10.2v31.4h-14.4v-31.4c0-4.4-1.1-7.9-3.4-10.2
			c-2.3-2.4-5.3-3.5-9.2-3.5c-4,0-7.1,1.2-9.4,3.5c-2.3,2.4-3.4,5.8-3.4,10.2v31.4h-14.4v-56.9h14.4v6.9c1.8-2.4,4.2-4.3,7.1-5.6
			c2.9-1.4,6.1-2.1,9.6-2.1c4.4,0,8.4,0.9,11.9,2.8c3.5,1.9,6.2,4.6,8.1,8.1c1.8-3.3,4.5-5.9,8.1-7.9c3.5-2,7.3-3,11.5-3
			C-1166.4,3079.9-1160.8,3082.1-1156.5,3086.4z"/>
		<path class="st2" d="M-1082,3080.8l-35.2,83.8h-15.3l12.3-28.3l-22.8-55.5h16.1l14.7,39.7l14.9-39.7H-1082z"/>
	</g>
</g>
<g>
	<g>
		<path class="st0" d="M-1669.3,2739.1l40.7-126.8c1.5-4.6,0-9.7-3.7-12.8c-14.2-11.9-32.5-17.8-51-16.4c-4.8,0.4-9,3.7-10.5,8.3
			l-40.7,126.8c-2,6.3,1.4,13.1,7.8,15.1l42.3,13.6C-1678,2748.9-1671.3,2745.4-1669.3,2739.1z"/>
		<path class="st0" d="M-1731.2,2649.8c4.7-16.3,4.7-33.7,0-50c-1.5-5.1-6.2-8.6-11.5-8.6h-135.7c-5.3,0-10,3.5-11.5,8.6
			c-4.7,16.3-4.7,33.7,0,50c1.5,5.1,6.2,8.6,11.5,8.6h135.7C-1737.4,2658.4-1732.7,2654.9-1731.2,2649.8z"/>
		<path class="st0" d="M-1789.2,2735.4c4.7-16.3,4.7-33.7,0-50c-1.5-5.1-6.2-8.6-11.5-8.6h-135.7c-5.3,0-10,3.5-11.5,8.6
			c-4.7,16.3-4.7,33.7,0,50c1.5,5.1,6.2,8.6,11.5,8.6h135.7C-1795.4,2744-1790.7,2740.5-1789.2,2735.4z"/>
		<path class="st0" d="M-1918.7,2823.3c-7-17.2-7-36.4,0-53.6c1.8-4.5,6.2-7.4,11.1-7.4h224.3c4.9,0,9.3,2.9,11.1,7.4
			c7,17.2,7,36.4,0,53.6c-1.8,4.5-6.2,7.4-11.1,7.4h-224.3C-1912.4,2830.7-1916.8,2827.8-1918.7,2823.3z"/>
	</g>
	<g>
		<path class="st0" d="M-1567.7,2683.1h23.6v11.4h-38v-71.7h14.4V2683.1z"/>
		<path class="st0" d="M-1482.4,2670.4h-41.6c0.3,4.1,1.8,7.3,4.3,9.6c2.5,2.3,5.7,3.5,9.3,3.5c5.3,0,9.1-2.3,11.4-6.9h15.5
			c-1.6,5.5-4.8,10-9.4,13.5c-4.7,3.5-10.4,5.3-17.2,5.3c-5.5,0-10.4-1.2-14.7-3.6c-4.3-2.4-7.7-5.9-10.2-10.3
			c-2.4-4.4-3.7-9.6-3.7-15.4c0-5.9,1.2-11.1,3.6-15.5c2.4-4.4,5.8-7.9,10.1-10.3c4.3-2.4,9.3-3.6,14.9-3.6c5.4,0,10.2,1.2,14.5,3.5
			c4.3,2.3,7.6,5.6,10,9.9s3.5,9.2,3.5,14.7C-1482,2666.9-1482.2,2668.7-1482.4,2670.4z M-1496.9,2660.7c-0.1-3.7-1.4-6.7-4-8.9
			c-2.6-2.2-5.8-3.3-9.6-3.3c-3.6,0-6.6,1.1-9,3.2c-2.4,2.2-3.9,5.1-4.5,9L-1496.9,2660.7L-1496.9,2660.7z"/>
		<path class="st0" d="M-1471.8,2650.5c2.3-4.4,5.4-7.9,9.3-10.3c3.9-2.4,8.3-3.6,13.2-3.6c4.2,0,8,0.9,11.1,2.6
			c3.2,1.7,5.7,3.9,7.6,6.5v-8.1h14.5v56.9h-14.5v-8.3c-1.8,2.7-4.4,4.9-7.6,6.6c-3.2,1.8-7,2.6-11.2,2.6c-4.8,0-9.2-1.2-13.1-3.7
			c-3.9-2.5-7-5.9-9.3-10.4c-2.3-4.5-3.4-9.6-3.4-15.5C-1475.2,2660.1-1474.1,2655-1471.8,2650.5z M-1432.5,2657.1
			c-1.4-2.5-3.2-4.4-5.6-5.8s-4.8-2-7.5-2s-5.1,0.6-7.4,1.9s-4.1,3.2-5.5,5.7s-2.1,5.5-2.1,8.9s0.7,6.4,2.1,9
			c1.4,2.6,3.2,4.5,5.6,5.9c2.3,1.4,4.7,2.1,7.3,2.1c2.7,0,5.2-0.7,7.5-2s4.2-3.2,5.5-5.8c1.4-2.5,2.1-5.5,2.1-9
			C-1430.5,2662.5-1431.2,2659.6-1432.5,2657.1z"/>
		<path class="st0" d="M-1380.3,2639.3c3-1.7,6.4-2.6,10.2-2.6v15.1h-3.8c-4.5,0-7.9,1.1-10.2,3.2c-2.3,2.1-3.4,5.8-3.4,11.1v28.3
			h-14.4v-56.9h14.4v8.8C-1385.7,2643.4-1383.3,2641-1380.3,2639.3z"/>
		<path class="st0" d="M-1312.5,2643.2c4.2,4.3,6.3,10.2,6.3,17.9v33.4h-14.4v-31.4c0-4.5-1.1-8-3.4-10.4s-5.3-3.6-9.2-3.6
			c-4,0-7.1,1.2-9.4,3.6c-2.3,2.4-3.4,5.9-3.4,10.4v31.4h-14.4v-56.9h14.4v7.1c1.9-2.5,4.4-4.4,7.3-5.8c3-1.4,6.2-2.1,9.8-2.1
			C-1322.1,2636.8-1316.6,2638.9-1312.5,2643.2z"/>
		<path class="st0" d="M-1291.6,2628.4c-1.7-1.6-2.5-3.6-2.5-6s0.8-4.4,2.5-6c1.7-1.6,3.8-2.4,6.3-2.4c2.5,0,4.6,0.8,6.3,2.4
			c1.7,1.6,2.5,3.6,2.5,6s-0.8,4.4-2.5,6s-3.8,2.4-6.3,2.4C-1287.8,2630.8-1289.9,2630-1291.6,2628.4z M-1278.2,2637.6v56.9h-14.4
			v-56.9H-1278.2z"/>
		<path class="st0" d="M-1237.9,2649.4h-10v45.1h-14.6v-45.1h-6.5v-11.8h6.5v-2.9c0-7,2-12.1,6-15.4c4-3.3,10-4.8,18-4.6v12.1
			c-3.5-0.1-5.9,0.5-7.3,1.8c-1.4,1.2-2.1,3.5-2.1,6.7v2.4h10L-1237.9,2649.4L-1237.9,2649.4z"/>
		<path class="st0" d="M-1174.1,2637.6l-35.2,83.8h-15.3l12.3-28.3l-22.8-55.5h16.1l14.7,39.7l14.9-39.7H-1174.1z"/>
		<path class="st0" d="M-1538.1,2777.2h-28.5l-4.7,13.7h-15.1l25.8-71.8h16.7l25.8,71.8h-15.2L-1538.1,2777.2z M-1542,2765.7
			l-10.4-30l-10.4,30H-1542z"/>
		<path class="st0" d="M-1508.6,2746.9c2.4-4.4,5.7-7.8,10-10.3s9.1-3.6,14.6-3.6c7,0,12.9,1.8,17.5,5.3s7.7,8.5,9.3,14.8h-15.5
			c-0.8-2.5-2.2-4.4-4.2-5.8c-2-1.4-4.4-2.1-7.2-2.1c-4.1,0-7.4,1.5-9.8,4.5s-3.6,7.2-3.6,12.7c0,5.4,1.2,9.6,3.6,12.6
			c2.4,3,5.7,4.5,9.8,4.5c5.8,0,9.6-2.6,11.4-7.8h15.5c-1.6,6.2-4.7,11.1-9.4,14.7c-4.7,3.6-10.5,5.4-17.5,5.4
			c-5.5,0-10.3-1.2-14.6-3.6c-4.2-2.4-7.6-5.9-10-10.3c-2.4-4.4-3.6-9.6-3.6-15.5C-1512.2,2756.5-1511,2751.3-1508.6,2746.9z"/>
		<path class="st0" d="M-1446.9,2746.9c2.3-4.4,5.4-7.9,9.3-10.3c3.9-2.4,8.3-3.6,13.2-3.6c4.2,0,8,0.9,11.1,2.6
			c3.2,1.7,5.7,3.9,7.6,6.5v-8.1h14.5v56.9h-14.5v-8.3c-1.8,2.7-4.4,4.9-7.6,6.6c-3.2,1.8-7,2.6-11.2,2.6c-4.8,0-9.2-1.2-13.1-3.7
			c-3.9-2.5-7-5.9-9.3-10.4c-2.3-4.5-3.4-9.6-3.4-15.5C-1450.4,2756.4-1449.2,2751.3-1446.9,2746.9z M-1407.7,2753.4
			c-1.4-2.5-3.2-4.4-5.6-5.8s-4.8-2-7.5-2s-5.1,0.6-7.4,1.9s-4.1,3.2-5.5,5.7s-2.1,5.5-2.1,8.9s0.7,6.4,2.1,9s3.2,4.5,5.6,5.9
			c2.3,1.4,4.7,2.1,7.3,2.1c2.7,0,5.2-0.7,7.5-2s4.2-3.2,5.5-5.8c1.4-2.5,2.1-5.5,2.1-9C-1405.6,2758.9-1406.3,2755.9-1407.7,2753.4
			z"/>
		<path class="st0" d="M-1377.3,2746.9c2.3-4.4,5.4-7.9,9.4-10.3s8.4-3.6,13.2-3.6c3.7,0,7.2,0.8,10.6,2.4c3.3,1.6,6,3.8,8,6.4v-27
			h14.6v76h-14.6v-8.4c-1.8,2.8-4.3,5.1-7.5,6.8s-6.9,2.6-11.2,2.6c-4.8,0-9.2-1.2-13.1-3.7c-4-2.5-7.1-5.9-9.4-10.4
			c-2.3-4.5-3.4-9.6-3.4-15.5C-1380.8,2756.4-1379.6,2751.3-1377.3,2746.9z M-1338,2753.4c-1.4-2.5-3.2-4.4-5.6-5.8
			c-2.3-1.3-4.8-2-7.5-2c-2.7,0-5.1,0.6-7.4,1.9s-4.1,3.2-5.5,5.7s-2.1,5.5-2.1,8.9s0.7,6.4,2.1,9s3.2,4.5,5.6,5.9
			c2.3,1.4,4.7,2.1,7.3,2.1c2.7,0,5.2-0.7,7.5-2s4.2-3.2,5.6-5.8c1.4-2.5,2-5.5,2-9C-1336,2758.9-1336.7,2755.9-1338,2753.4z"/>
		<path class="st0" d="M-1255,2766.7h-41.6c0.3,4.1,1.8,7.3,4.3,9.6c2.5,2.3,5.7,3.5,9.4,3.5c5.3,0,9.1-2.3,11.4-6.9h15.5
			c-1.6,5.5-4.8,10-9.4,13.5c-4.7,3.5-10.4,5.3-17.2,5.3c-5.5,0-10.4-1.2-14.7-3.6c-4.3-2.4-7.7-5.9-10.2-10.3
			c-2.4-4.4-3.6-9.6-3.6-15.4c0-5.9,1.2-11.1,3.6-15.5c2.4-4.4,5.8-7.9,10.1-10.3c4.3-2.4,9.3-3.6,14.9-3.6c5.4,0,10.2,1.2,14.5,3.5
			c4.3,2.3,7.6,5.6,10,9.9s3.5,9.2,3.5,14.7C-1254.5,2763.2-1254.7,2765-1255,2766.7z M-1269.4,2757c-0.1-3.7-1.4-6.7-4-8.9
			s-5.8-3.3-9.6-3.3c-3.6,0-6.6,1.1-9,3.2c-2.4,2.2-3.9,5.1-4.5,9L-1269.4,2757L-1269.4,2757z"/>
		<path class="st0" d="M-1156.5,2739.5c4.3,4.3,6.4,10.2,6.4,17.9v33.4h-14.4v-31.4c0-4.4-1.1-7.9-3.4-10.2
			c-2.3-2.4-5.3-3.5-9.2-3.5c-3.9,0-7,1.2-9.3,3.5c-2.3,2.4-3.4,5.8-3.4,10.2v31.4h-14.4v-31.4c0-4.4-1.1-7.9-3.4-10.2
			c-2.3-2.4-5.3-3.5-9.2-3.5c-4,0-7.1,1.2-9.4,3.5c-2.3,2.4-3.4,5.8-3.4,10.2v31.4h-14.4v-56.9h14.4v6.9c1.8-2.4,4.2-4.3,7.1-5.6
			c2.9-1.4,6.1-2.1,9.6-2.1c4.4,0,8.4,0.9,11.9,2.8c3.5,1.9,6.2,4.6,8.1,8.1c1.8-3.3,4.5-5.9,8.1-7.9c3.5-2,7.3-3,11.5-3
			C-1166.4,2733.1-1160.8,2735.2-1156.5,2739.5z"/>
		<path class="st0" d="M-1082,2733.9l-35.2,83.8h-15.3l12.3-28.3l-22.8-55.5h16.1l14.7,39.7l14.9-39.7H-1082z"/>
	</g>
</g>
<g>
	<g>
		<path class="st6" d="M-1669.3,2434.9l40.7-126.8c1.5-4.6,0-9.7-3.7-12.8c-14.2-11.9-32.5-17.8-51-16.4c-4.8,0.4-9,3.7-10.5,8.3
			l-40.7,126.8c-2,6.3,1.4,13.1,7.8,15.1l42.3,13.6C-1678,2444.7-1671.3,2441.2-1669.3,2434.9z"/>
		<path class="st6" d="M-1731.2,2345.6c4.7-16.3,4.7-33.7,0-50c-1.5-5.1-6.2-8.6-11.5-8.6h-135.7c-5.3,0-10,3.5-11.5,8.6
			c-4.7,16.3-4.7,33.7,0,50c1.5,5.1,6.2,8.6,11.5,8.6h135.7C-1737.4,2354.2-1732.7,2350.7-1731.2,2345.6z"/>
		<path class="st6" d="M-1789.2,2431.1c4.7-16.3,4.7-33.7,0-50c-1.5-5.1-6.2-8.6-11.5-8.6h-135.7c-5.3,0-10,3.5-11.5,8.6
			c-4.7,16.3-4.7,33.7,0,50c1.5,5.1,6.2,8.6,11.5,8.6h135.7C-1795.4,2439.7-1790.7,2436.2-1789.2,2431.1z"/>
		<path class="st6" d="M-1918.7,2519c-7-17.2-7-36.4,0-53.6c1.8-4.5,6.2-7.4,11.1-7.4h224.3c4.9,0,9.3,2.9,11.1,7.4
			c7,17.2,7,36.4,0,53.6c-1.8,4.5-6.2,7.4-11.1,7.4h-224.3C-1912.4,2526.5-1916.8,2523.5-1918.7,2519z"/>
	</g>
	<g>
		<path class="st0" d="M-1567.7,2378.8h23.6v11.4h-38v-71.7h14.4V2378.8z"/>
		<path class="st0" d="M-1482.4,2366.1h-41.6c0.3,4.1,1.8,7.3,4.3,9.6c2.5,2.3,5.7,3.5,9.3,3.5c5.3,0,9.1-2.3,11.4-6.9h15.5
			c-1.6,5.5-4.8,10-9.4,13.5c-4.7,3.5-10.4,5.3-17.2,5.3c-5.5,0-10.4-1.2-14.7-3.6c-4.3-2.4-7.7-5.9-10.2-10.3
			c-2.4-4.4-3.7-9.6-3.7-15.4c0-5.9,1.2-11.1,3.6-15.5c2.4-4.4,5.8-7.9,10.1-10.3c4.3-2.4,9.3-3.6,14.9-3.6c5.4,0,10.2,1.2,14.5,3.5
			c4.3,2.3,7.6,5.6,10,9.9s3.5,9.2,3.5,14.7C-1482,2362.6-1482.2,2364.4-1482.4,2366.1z M-1496.9,2356.4c-0.1-3.7-1.4-6.7-4-8.9
			c-2.6-2.2-5.8-3.3-9.6-3.3c-3.6,0-6.6,1.1-9,3.2c-2.4,2.2-3.9,5.1-4.5,9L-1496.9,2356.4L-1496.9,2356.4z"/>
		<path class="st0" d="M-1471.8,2346.3c2.3-4.4,5.4-7.9,9.3-10.3c3.9-2.4,8.3-3.6,13.2-3.6c4.2,0,8,0.9,11.1,2.6
			c3.2,1.7,5.7,3.9,7.6,6.5v-8.1h14.5v56.9h-14.5v-8.3c-1.8,2.7-4.4,4.9-7.6,6.6c-3.2,1.8-7,2.6-11.2,2.6c-4.8,0-9.2-1.2-13.1-3.7
			c-3.9-2.5-7-5.9-9.3-10.4c-2.3-4.5-3.4-9.6-3.4-15.5C-1475.2,2355.8-1474.1,2350.7-1471.8,2346.3z M-1432.5,2352.8
			c-1.4-2.5-3.2-4.4-5.6-5.8s-4.8-2-7.5-2s-5.1,0.6-7.4,1.9s-4.1,3.2-5.5,5.7s-2.1,5.5-2.1,8.9s0.7,6.4,2.1,9
			c1.4,2.6,3.2,4.5,5.6,5.9c2.3,1.4,4.7,2.1,7.3,2.1c2.7,0,5.2-0.7,7.5-2s4.2-3.2,5.5-5.8c1.4-2.5,2.1-5.5,2.1-9
			C-1430.5,2358.3-1431.2,2355.3-1432.5,2352.8z"/>
		<path class="st0" d="M-1380.3,2335.1c3-1.7,6.4-2.6,10.2-2.6v15.1h-3.8c-4.5,0-7.9,1.1-10.2,3.2c-2.3,2.1-3.4,5.8-3.4,11.1v28.3
			h-14.4v-56.9h14.4v8.8C-1385.7,2339.2-1383.3,2336.8-1380.3,2335.1z"/>
		<path class="st0" d="M-1312.5,2338.9c4.2,4.3,6.3,10.2,6.3,17.9v33.4h-14.4v-31.4c0-4.5-1.1-8-3.4-10.4s-5.3-3.6-9.2-3.6
			c-4,0-7.1,1.2-9.4,3.6c-2.3,2.4-3.4,5.9-3.4,10.4v31.4h-14.4v-56.9h14.4v7.1c1.9-2.5,4.4-4.4,7.3-5.8c3-1.4,6.2-2.1,9.8-2.1
			C-1322.1,2332.5-1316.6,2334.7-1312.5,2338.9z"/>
		<path class="st0" d="M-1291.6,2324.1c-1.7-1.6-2.5-3.6-2.5-6s0.8-4.4,2.5-6c1.7-1.6,3.8-2.4,6.3-2.4c2.5,0,4.6,0.8,6.3,2.4
			c1.7,1.6,2.5,3.6,2.5,6s-0.8,4.4-2.5,6s-3.8,2.4-6.3,2.4C-1287.8,2326.6-1289.9,2325.7-1291.6,2324.1z M-1278.2,2333.3v56.9h-14.4
			v-56.9H-1278.2z"/>
		<path class="st0" d="M-1237.9,2345.1h-10v45.1h-14.6v-45.1h-6.5v-11.8h6.5v-2.9c0-7,2-12.1,6-15.4c4-3.3,10-4.8,18-4.6v12.1
			c-3.5-0.1-5.9,0.5-7.3,1.8c-1.4,1.2-2.1,3.5-2.1,6.7v2.4h10L-1237.9,2345.1L-1237.9,2345.1z"/>
		<path class="st0" d="M-1174.1,2333.3l-35.2,83.8h-15.3l12.3-28.3l-22.8-55.5h16.1l14.7,39.7l14.9-39.7H-1174.1z"/>
		<path class="st0" d="M-1538.1,2472.9h-28.5l-4.7,13.7h-15.1l25.8-71.8h16.7l25.8,71.8h-15.2L-1538.1,2472.9z M-1542,2461.4
			l-10.4-30l-10.4,30H-1542z"/>
		<path class="st0" d="M-1508.6,2442.7c2.4-4.4,5.7-7.8,10-10.3s9.1-3.6,14.6-3.6c7,0,12.9,1.8,17.5,5.3s7.7,8.5,9.3,14.8h-15.5
			c-0.8-2.5-2.2-4.4-4.2-5.8c-2-1.4-4.4-2.1-7.2-2.1c-4.1,0-7.4,1.5-9.8,4.5s-3.6,7.2-3.6,12.7c0,5.4,1.2,9.6,3.6,12.6
			c2.4,3,5.7,4.5,9.8,4.5c5.8,0,9.6-2.6,11.4-7.8h15.5c-1.6,6.2-4.7,11.1-9.4,14.7c-4.7,3.6-10.5,5.4-17.5,5.4
			c-5.5,0-10.3-1.2-14.6-3.6c-4.2-2.4-7.6-5.9-10-10.3c-2.4-4.4-3.6-9.6-3.6-15.5S-1511,2447.1-1508.6,2442.7z"/>
		<path class="st0" d="M-1446.9,2442.6c2.3-4.4,5.4-7.9,9.3-10.3c3.9-2.4,8.3-3.6,13.2-3.6c4.2,0,8,0.9,11.1,2.6
			c3.2,1.7,5.7,3.9,7.6,6.5v-8.1h14.5v56.9h-14.5v-8.3c-1.8,2.7-4.4,4.9-7.6,6.6c-3.2,1.8-7,2.6-11.2,2.6c-4.8,0-9.2-1.2-13.1-3.7
			c-3.9-2.5-7-5.9-9.3-10.4c-2.3-4.5-3.4-9.6-3.4-15.5C-1450.4,2452.2-1449.2,2447.1-1446.9,2442.6z M-1407.7,2449.1
			c-1.4-2.5-3.2-4.4-5.6-5.8s-4.8-2-7.5-2s-5.1,0.6-7.4,1.9s-4.1,3.2-5.5,5.7s-2.1,5.5-2.1,8.9s0.7,6.4,2.1,9s3.2,4.5,5.6,5.9
			c2.3,1.4,4.7,2.1,7.3,2.1c2.7,0,5.2-0.7,7.5-2s4.2-3.2,5.5-5.8c1.4-2.5,2.1-5.5,2.1-9C-1405.6,2454.6-1406.3,2451.6-1407.7,2449.1
			z"/>
		<path class="st0" d="M-1377.3,2442.6c2.3-4.4,5.4-7.9,9.4-10.3s8.4-3.6,13.2-3.6c3.7,0,7.2,0.8,10.6,2.4c3.3,1.6,6,3.8,8,6.4v-27
			h14.6v76h-14.6v-8.4c-1.8,2.8-4.3,5.1-7.5,6.8s-6.9,2.6-11.2,2.6c-4.8,0-9.2-1.2-13.1-3.7c-4-2.5-7.1-5.9-9.4-10.4
			c-2.3-4.5-3.4-9.6-3.4-15.5C-1380.8,2452.2-1379.6,2447.1-1377.3,2442.6z M-1338,2449.1c-1.4-2.5-3.2-4.4-5.6-5.8
			c-2.3-1.3-4.8-2-7.5-2c-2.7,0-5.1,0.6-7.4,1.9s-4.1,3.2-5.5,5.7s-2.1,5.5-2.1,8.9s0.7,6.4,2.1,9s3.2,4.5,5.6,5.9
			c2.3,1.4,4.7,2.1,7.3,2.1c2.7,0,5.2-0.7,7.5-2s4.2-3.2,5.6-5.8c1.4-2.5,2-5.5,2-9C-1336,2454.6-1336.7,2451.6-1338,2449.1z"/>
		<path class="st0" d="M-1255,2462.4h-41.6c0.3,4.1,1.8,7.3,4.3,9.6c2.5,2.3,5.7,3.5,9.4,3.5c5.3,0,9.1-2.3,11.4-6.9h15.5
			c-1.6,5.5-4.8,10-9.4,13.5c-4.7,3.5-10.4,5.3-17.2,5.3c-5.5,0-10.4-1.2-14.7-3.6c-4.3-2.4-7.7-5.9-10.2-10.3
			c-2.4-4.4-3.6-9.6-3.6-15.4c0-5.9,1.2-11.1,3.6-15.5c2.4-4.4,5.8-7.9,10.1-10.3c4.3-2.4,9.3-3.6,14.9-3.6c5.4,0,10.2,1.2,14.5,3.5
			c4.3,2.3,7.6,5.6,10,9.9s3.5,9.2,3.5,14.7C-1254.5,2458.9-1254.7,2460.8-1255,2462.4z M-1269.4,2452.8c-0.1-3.7-1.4-6.7-4-8.9
			s-5.8-3.3-9.6-3.3c-3.6,0-6.6,1.1-9,3.2c-2.4,2.2-3.9,5.1-4.5,9L-1269.4,2452.8L-1269.4,2452.8z"/>
		<path class="st0" d="M-1156.5,2435.3c4.3,4.3,6.4,10.2,6.4,17.9v33.4h-14.4v-31.4c0-4.4-1.1-7.9-3.4-10.2
			c-2.3-2.4-5.3-3.5-9.2-3.5c-3.9,0-7,1.2-9.3,3.5c-2.3,2.4-3.4,5.8-3.4,10.2v31.4h-14.4v-31.4c0-4.4-1.1-7.9-3.4-10.2
			c-2.3-2.4-5.3-3.5-9.2-3.5c-4,0-7.1,1.2-9.4,3.5c-2.3,2.4-3.4,5.8-3.4,10.2v31.4h-14.4v-56.9h14.4v6.9c1.8-2.4,4.2-4.3,7.1-5.6
			c2.9-1.4,6.1-2.1,9.6-2.1c4.4,0,8.4,0.9,11.9,2.8c3.5,1.9,6.2,4.6,8.1,8.1c1.8-3.3,4.5-5.9,8.1-7.9c3.5-2,7.3-3,11.5-3
			C-1166.4,2428.8-1160.8,2431-1156.5,2435.3z"/>
		<path class="st0" d="M-1082,2429.7l-35.2,83.8h-15.3l12.3-28.3l-22.8-55.5h16.1l14.7,39.7l14.9-39.7H-1082z"/>
	</g>
</g>
<g>
	<g>
		<path class="st0" d="M-1669.3,2132.9l40.7-126.8c1.5-4.6,0-9.7-3.7-12.8c-14.2-11.9-32.5-17.8-51-16.4c-4.8,0.4-9,3.7-10.5,8.3
			l-40.7,126.8c-2,6.3,1.4,13.1,7.8,15.1l42.3,13.6C-1678,2142.7-1671.3,2139.2-1669.3,2132.9z"/>
		<path class="st0" d="M-1731.2,2043.6c4.7-16.3,4.7-33.7,0-50c-1.5-5.1-6.2-8.6-11.5-8.6h-135.7c-5.3,0-10,3.5-11.5,8.6
			c-4.7,16.3-4.7,33.7,0,50c1.5,5.1,6.2,8.6,11.5,8.6h135.7C-1737.4,2052.3-1732.7,2048.8-1731.2,2043.6z"/>
		<path class="st0" d="M-1789.2,2129.2c4.7-16.3,4.7-33.7,0-50c-1.5-5.1-6.2-8.6-11.5-8.6h-135.7c-5.3,0-10,3.5-11.5,8.6
			c-4.7,16.3-4.7,33.7,0,50c1.5,5.1,6.2,8.6,11.5,8.6h135.7C-1795.4,2137.8-1790.7,2134.3-1789.2,2129.2z"/>
		<path class="st0" d="M-1918.7,2217.1c-7-17.2-7-36.4,0-53.6c1.8-4.5,6.2-7.4,11.1-7.4h224.3c4.9,0,9.3,2.9,11.1,7.4
			c7,17.2,7,36.4,0,53.6c-1.8,4.5-6.2,7.4-11.1,7.4h-224.3C-1912.4,2224.5-1916.8,2221.6-1918.7,2217.1z"/>
	</g>
	<g>
		<path class="st6" d="M-1567.7,2076.9h23.6v11.4h-38v-71.7h14.4V2076.9z"/>
		<path class="st6" d="M-1482.4,2064.2h-41.6c0.3,4.1,1.8,7.3,4.3,9.6c2.5,2.3,5.7,3.5,9.3,3.5c5.3,0,9.1-2.3,11.4-6.9h15.5
			c-1.6,5.5-4.8,10-9.4,13.5c-4.7,3.5-10.4,5.3-17.2,5.3c-5.5,0-10.4-1.2-14.7-3.7c-4.3-2.4-7.7-5.9-10.2-10.3
			c-2.4-4.4-3.7-9.6-3.7-15.4c0-5.9,1.2-11.1,3.6-15.5c2.4-4.4,5.8-7.9,10.1-10.3c4.3-2.4,9.3-3.6,14.9-3.6c5.4,0,10.2,1.2,14.5,3.5
			c4.3,2.3,7.6,5.6,10,9.9s3.5,9.2,3.5,14.7C-1482,2060.7-1482.2,2062.5-1482.4,2064.2z M-1496.9,2054.5c-0.1-3.7-1.4-6.7-4-8.9
			c-2.6-2.2-5.8-3.3-9.6-3.3c-3.6,0-6.6,1.1-9,3.2c-2.4,2.2-3.9,5.2-4.5,9L-1496.9,2054.5L-1496.9,2054.5z"/>
		<path class="st6" d="M-1471.8,2044.3c2.3-4.4,5.4-7.9,9.3-10.3c3.9-2.4,8.3-3.6,13.2-3.6c4.2,0,8,0.9,11.1,2.6
			c3.2,1.7,5.7,3.9,7.6,6.5v-8.1h14.5v56.9h-14.5v-8.3c-1.8,2.7-4.4,4.9-7.6,6.6c-3.2,1.8-7,2.6-11.2,2.6c-4.8,0-9.2-1.2-13.1-3.7
			c-3.9-2.5-7-5.9-9.3-10.4c-2.3-4.5-3.4-9.6-3.4-15.5C-1475.2,2053.9-1474.1,2048.8-1471.8,2044.3z M-1432.5,2050.9
			c-1.4-2.5-3.2-4.4-5.6-5.8s-4.8-2-7.5-2s-5.1,0.7-7.4,1.9c-2.3,1.3-4.1,3.2-5.5,5.7s-2.1,5.5-2.1,8.9c0,3.4,0.7,6.4,2.1,9
			c1.4,2.6,3.2,4.5,5.6,5.9c2.3,1.4,4.7,2.1,7.3,2.1c2.7,0,5.2-0.7,7.5-2c2.3-1.3,4.2-3.2,5.5-5.8c1.4-2.5,2.1-5.5,2.1-9
			C-1430.5,2056.4-1431.2,2053.4-1432.5,2050.9z"/>
		<path class="st6" d="M-1380.3,2033.1c3-1.7,6.4-2.6,10.2-2.6v15.1h-3.8c-4.5,0-7.9,1.1-10.2,3.2c-2.3,2.1-3.4,5.8-3.4,11.1v28.3
			h-14.4v-56.9h14.4v8.8C-1385.7,2037.2-1383.3,2034.9-1380.3,2033.1z"/>
		<path class="st6" d="M-1312.5,2037c4.2,4.3,6.3,10.2,6.3,17.9v33.4h-14.4v-31.4c0-4.5-1.1-8-3.4-10.4c-2.3-2.4-5.3-3.7-9.2-3.7
			c-4,0-7.1,1.2-9.4,3.7c-2.3,2.4-3.4,5.9-3.4,10.4v31.4h-14.4v-56.9h14.4v7.1c1.9-2.5,4.4-4.4,7.3-5.8s6.2-2.1,9.8-2.1
			C-1322.1,2030.6-1316.6,2032.7-1312.5,2037z"/>
		<path class="st6" d="M-1291.6,2022.2c-1.7-1.6-2.5-3.6-2.5-6s0.8-4.4,2.5-6c1.7-1.6,3.8-2.4,6.3-2.4c2.5,0,4.6,0.8,6.3,2.4
			c1.7,1.6,2.5,3.6,2.5,6s-0.8,4.4-2.5,6s-3.8,2.4-6.3,2.4C-1287.8,2024.6-1289.9,2023.8-1291.6,2022.2z M-1278.2,2031.4v56.9h-14.4
			v-56.9H-1278.2z"/>
		<path class="st6" d="M-1237.9,2043.2h-10v45.1h-14.6v-45.1h-6.5v-11.8h6.5v-2.9c0-7,2-12.1,6-15.4c4-3.3,10-4.8,18-4.6v12.1
			c-3.5-0.1-5.9,0.5-7.3,1.8c-1.4,1.2-2.1,3.5-2.1,6.7v2.4h10L-1237.9,2043.2L-1237.9,2043.2z"/>
		<path class="st6" d="M-1174.1,2031.4l-35.2,83.8h-15.3l12.3-28.3l-22.8-55.5h16.1l14.7,39.7l14.9-39.7L-1174.1,2031.4
			L-1174.1,2031.4z"/>
		<path class="st6" d="M-1538.1,2171h-28.5l-4.7,13.7h-15.1l25.8-71.8h16.7l25.8,71.8h-15.2L-1538.1,2171z M-1542,2159.5l-10.4-30
			l-10.4,30H-1542z"/>
		<path class="st6" d="M-1508.6,2140.7c2.4-4.4,5.7-7.8,10-10.3c4.2-2.4,9.1-3.7,14.6-3.7c7,0,12.9,1.8,17.5,5.3s7.7,8.5,9.3,14.8
			h-15.5c-0.8-2.5-2.2-4.4-4.2-5.8c-2-1.4-4.4-2.1-7.2-2.1c-4.1,0-7.4,1.5-9.8,4.5c-2.4,3-3.6,7.2-3.6,12.7c0,5.4,1.2,9.6,3.6,12.6
			c2.4,3,5.7,4.5,9.8,4.5c5.8,0,9.6-2.6,11.4-7.8h15.5c-1.6,6.2-4.7,11.1-9.4,14.7c-4.7,3.6-10.5,5.4-17.5,5.4
			c-5.5,0-10.3-1.2-14.6-3.6c-4.2-2.4-7.6-5.9-10-10.3c-2.4-4.4-3.6-9.6-3.6-15.5C-1512.2,2150.3-1511,2145.1-1508.6,2140.7z"/>
		<path class="st6" d="M-1446.9,2140.7c2.3-4.4,5.4-7.9,9.3-10.3c3.9-2.4,8.3-3.6,13.2-3.6c4.2,0,8,0.9,11.1,2.6
			c3.2,1.7,5.7,3.9,7.6,6.5v-8.1h14.5v56.9h-14.5v-8.3c-1.8,2.7-4.4,4.9-7.6,6.6c-3.2,1.8-7,2.6-11.2,2.6c-4.8,0-9.2-1.2-13.1-3.7
			c-3.9-2.5-7-5.9-9.3-10.4c-2.3-4.5-3.4-9.6-3.4-15.5C-1450.4,2150.2-1449.2,2145.1-1446.9,2140.7z M-1407.7,2147.2
			c-1.4-2.5-3.2-4.4-5.6-5.8c-2.3-1.3-4.8-2-7.5-2s-5.1,0.6-7.4,1.9s-4.1,3.2-5.5,5.7s-2.1,5.5-2.1,8.9s0.7,6.4,2.1,9
			s3.2,4.5,5.6,5.9c2.3,1.4,4.7,2.1,7.3,2.1c2.7,0,5.2-0.7,7.5-2s4.2-3.2,5.5-5.8c1.4-2.5,2.1-5.5,2.1-9
			C-1405.6,2152.7-1406.3,2149.7-1407.7,2147.2z"/>
		<path class="st6" d="M-1377.3,2140.7c2.3-4.4,5.4-7.9,9.4-10.3c4-2.4,8.4-3.6,13.2-3.6c3.7,0,7.2,0.8,10.6,2.4
			c3.3,1.6,6,3.8,8,6.4v-27h14.6v76h-14.6v-8.4c-1.8,2.8-4.3,5.1-7.5,6.8s-6.9,2.6-11.2,2.6c-4.8,0-9.2-1.2-13.1-3.7
			c-4-2.5-7.1-5.9-9.4-10.4c-2.3-4.5-3.4-9.6-3.4-15.5C-1380.8,2150.2-1379.6,2145.1-1377.3,2140.7z M-1338,2147.2
			c-1.4-2.5-3.2-4.4-5.6-5.8c-2.3-1.3-4.8-2-7.5-2c-2.7,0-5.1,0.6-7.4,1.9s-4.1,3.2-5.5,5.7s-2.1,5.5-2.1,8.9s0.7,6.4,2.1,9
			s3.2,4.5,5.6,5.9c2.3,1.4,4.7,2.1,7.3,2.1c2.7,0,5.2-0.7,7.5-2s4.2-3.2,5.6-5.8c1.4-2.5,2-5.5,2-9
			C-1336,2152.7-1336.7,2149.7-1338,2147.2z"/>
		<path class="st6" d="M-1255,2160.5h-41.6c0.3,4.1,1.8,7.3,4.3,9.6c2.5,2.3,5.7,3.5,9.4,3.5c5.3,0,9.1-2.3,11.4-6.9h15.5
			c-1.6,5.5-4.8,10-9.4,13.5c-4.7,3.5-10.4,5.3-17.2,5.3c-5.5,0-10.4-1.2-14.7-3.6c-4.3-2.4-7.7-5.9-10.2-10.3
			c-2.4-4.4-3.6-9.6-3.6-15.4c0-5.9,1.2-11.1,3.6-15.5c2.4-4.4,5.8-7.9,10.1-10.3c4.3-2.4,9.3-3.6,14.9-3.6c5.4,0,10.2,1.2,14.5,3.5
			c4.3,2.3,7.6,5.6,10,9.9s3.5,9.2,3.5,14.7C-1254.5,2157-1254.7,2158.9-1255,2160.5z M-1269.4,2150.8c-0.1-3.7-1.4-6.7-4-8.9
			c-2.6-2.2-5.8-3.3-9.6-3.3c-3.6,0-6.6,1.1-9,3.2c-2.4,2.2-3.9,5.1-4.5,9L-1269.4,2150.8L-1269.4,2150.8z"/>
		<path class="st6" d="M-1156.5,2133.3c4.3,4.3,6.4,10.2,6.4,17.9v33.4h-14.4v-31.4c0-4.4-1.1-7.9-3.4-10.2
			c-2.3-2.4-5.3-3.5-9.2-3.5c-3.9,0-7,1.2-9.3,3.5c-2.3,2.4-3.4,5.8-3.4,10.2v31.4h-14.4v-31.4c0-4.4-1.1-7.9-3.4-10.2
			c-2.3-2.4-5.3-3.5-9.2-3.5c-4,0-7.1,1.2-9.4,3.5c-2.3,2.4-3.4,5.8-3.4,10.2v31.4h-14.4v-56.9h14.4v6.9c1.8-2.4,4.2-4.3,7.1-5.7
			c2.9-1.4,6.1-2.1,9.6-2.1c4.4,0,8.4,0.9,11.9,2.8c3.5,1.9,6.2,4.6,8.1,8.1c1.8-3.3,4.5-5.9,8.1-7.9c3.5-2,7.3-3,11.5-3
			C-1166.4,2126.9-1160.8,2129.1-1156.5,2133.3z"/>
		<path class="st6" d="M-1082,2127.7l-35.2,83.8h-15.3l12.3-28.3l-22.8-55.5h16.1l14.7,39.7l14.9-39.7H-1082L-1082,2127.7z"/>
	</g>
</g>
<g>
	<g>
		<path class="st6" d="M-1669.3,1697.5l40.7-126.8c1.5-4.6,0-9.7-3.7-12.8c-14.2-11.9-32.5-17.8-51-16.4c-4.8,0.4-9,3.7-10.5,8.3
			l-40.7,126.8c-2,6.3,1.4,13.1,7.8,15.1l42.3,13.6C-1678,1707.2-1671.3,1703.8-1669.3,1697.5z"/>
		<path class="st6" d="M-1731.2,1608.2c4.7-16.3,4.7-33.7,0-50c-1.5-5.1-6.2-8.6-11.5-8.6h-135.7c-5.3,0-10,3.5-11.5,8.6
			c-4.7,16.3-4.7,33.7,0,50c1.5,5.1,6.2,8.6,11.5,8.6h135.7C-1737.4,1616.8-1732.7,1613.3-1731.2,1608.2z"/>
		<path class="st6" d="M-1789.2,1693.7c4.7-16.3,4.7-33.7,0-50c-1.5-5.1-6.2-8.6-11.5-8.6h-135.7c-5.3,0-10,3.5-11.5,8.6
			c-4.7,16.3-4.7,33.7,0,50c1.5,5.1,6.2,8.6,11.5,8.6h135.7C-1795.4,1702.3-1790.7,1698.8-1789.2,1693.7z"/>
		<path class="st6" d="M-1918.7,1781.6c-7-17.2-7-36.4,0-53.6c1.8-4.5,6.2-7.4,11.1-7.4h224.3c4.9,0,9.3,2.9,11.1,7.4
			c7,17.2,7,36.4,0,53.6c-1.8,4.5-6.2,7.4-11.1,7.4h-224.3C-1912.4,1789-1916.8,1786.1-1918.7,1781.6z"/>
	</g>
	<g>
		<path class="st6" d="M-1567.7,1641.4h23.6v11.4h-38v-71.7h14.4V1641.4z"/>
		<path class="st6" d="M-1482.4,1628.7h-41.6c0.3,4.1,1.8,7.3,4.3,9.7c2.5,2.3,5.7,3.5,9.3,3.5c5.3,0,9.1-2.3,11.4-6.9h15.5
			c-1.6,5.5-4.8,10-9.4,13.5c-4.7,3.5-10.4,5.3-17.2,5.3c-5.5,0-10.4-1.2-14.7-3.7c-4.3-2.4-7.7-5.9-10.2-10.3
			c-2.4-4.4-3.7-9.6-3.7-15.4c0-5.9,1.2-11.1,3.6-15.5c2.4-4.4,5.8-7.9,10.1-10.3c4.3-2.4,9.3-3.6,14.9-3.6c5.4,0,10.2,1.2,14.5,3.5
			c4.3,2.3,7.6,5.6,10,9.9s3.5,9.2,3.5,14.7C-1482,1625.2-1482.2,1627-1482.4,1628.7z M-1496.9,1619c-0.1-3.7-1.4-6.7-4-8.9
			c-2.6-2.2-5.8-3.3-9.6-3.3c-3.6,0-6.6,1.1-9,3.2c-2.4,2.2-3.9,5.2-4.5,9L-1496.9,1619L-1496.9,1619z"/>
		<path class="st6" d="M-1471.8,1608.9c2.3-4.4,5.4-7.9,9.3-10.3c3.9-2.4,8.3-3.6,13.2-3.6c4.2,0,8,0.9,11.1,2.6
			c3.2,1.7,5.7,3.9,7.6,6.5v-8.1h14.5v56.9h-14.5v-8.3c-1.8,2.7-4.4,4.9-7.6,6.6c-3.2,1.8-7,2.6-11.2,2.6c-4.8,0-9.2-1.2-13.1-3.7
			c-3.9-2.5-7-5.9-9.3-10.4c-2.3-4.5-3.4-9.6-3.4-15.5C-1475.2,1618.4-1474.1,1613.3-1471.8,1608.9z M-1432.5,1615.4
			c-1.4-2.5-3.2-4.4-5.6-5.8s-4.8-2-7.5-2s-5.1,0.7-7.4,1.9c-2.3,1.3-4.1,3.2-5.5,5.7s-2.1,5.5-2.1,8.9s0.7,6.4,2.1,9
			c1.4,2.6,3.2,4.5,5.6,5.9c2.3,1.4,4.7,2.1,7.3,2.1c2.7,0,5.2-0.7,7.5-2s4.2-3.2,5.5-5.8c1.4-2.5,2.1-5.5,2.1-9
			C-1430.5,1620.9-1431.2,1617.9-1432.5,1615.4z"/>
		<path class="st6" d="M-1380.3,1597.7c3-1.7,6.4-2.6,10.2-2.6v15.1h-3.8c-4.5,0-7.9,1.1-10.2,3.2c-2.3,2.1-3.4,5.8-3.4,11.1v28.3
			h-14.4v-56.9h14.4v8.8C-1385.7,1601.7-1383.3,1599.4-1380.3,1597.7z"/>
		<path class="st6" d="M-1312.5,1601.5c4.2,4.3,6.3,10.2,6.3,17.9v33.4h-14.4v-31.4c0-4.5-1.1-8-3.4-10.4s-5.3-3.7-9.2-3.7
			c-4,0-7.1,1.2-9.4,3.7c-2.3,2.4-3.4,5.9-3.4,10.4v31.4h-14.4v-56.9h14.4v7.1c1.9-2.5,4.4-4.4,7.3-5.8s6.2-2.1,9.8-2.1
			C-1322.1,1595.1-1316.6,1597.2-1312.5,1601.5z"/>
		<path class="st6" d="M-1291.6,1586.7c-1.7-1.6-2.5-3.6-2.5-6s0.8-4.4,2.5-6c1.7-1.6,3.8-2.4,6.3-2.4c2.5,0,4.6,0.8,6.3,2.4
			c1.7,1.6,2.5,3.6,2.5,6s-0.8,4.4-2.5,6s-3.8,2.4-6.3,2.4C-1287.8,1589.1-1289.9,1588.3-1291.6,1586.7z M-1278.2,1595.9v56.9h-14.4
			v-56.9H-1278.2z"/>
		<path class="st6" d="M-1237.9,1607.7h-10v45.1h-14.6v-45.1h-6.5v-11.8h6.5v-2.9c0-7,2-12.1,6-15.4c4-3.3,10-4.8,18-4.6v12.1
			c-3.5-0.1-5.9,0.5-7.3,1.8c-1.4,1.2-2.1,3.5-2.1,6.7v2.4h10L-1237.9,1607.7L-1237.9,1607.7z"/>
		<path class="st6" d="M-1174.1,1595.9l-35.2,83.8h-15.3l12.3-28.3l-22.8-55.5h16.1l14.7,39.7l14.9-39.7L-1174.1,1595.9
			L-1174.1,1595.9z"/>
		<path class="st6" d="M-1538.1,1735.5h-28.5l-4.7,13.7h-15.1l25.8-71.8h16.7l25.8,71.8h-15.2L-1538.1,1735.5z M-1542,1724l-10.4-30
			l-10.4,30H-1542z"/>
		<path class="st6" d="M-1508.6,1705.2c2.4-4.4,5.7-7.8,10-10.3s9.1-3.7,14.6-3.7c7,0,12.9,1.8,17.5,5.3s7.7,8.5,9.3,14.8h-15.5
			c-0.8-2.5-2.2-4.4-4.2-5.8c-2-1.4-4.4-2.1-7.2-2.1c-4.1,0-7.4,1.5-9.8,4.5s-3.6,7.2-3.6,12.7c0,5.4,1.2,9.6,3.6,12.6
			c2.4,3,5.7,4.5,9.8,4.5c5.8,0,9.6-2.6,11.4-7.8h15.5c-1.6,6.2-4.7,11.1-9.4,14.7c-4.7,3.6-10.5,5.4-17.5,5.4
			c-5.5,0-10.3-1.2-14.6-3.7c-4.2-2.4-7.6-5.8-10-10.3c-2.4-4.4-3.6-9.6-3.6-15.5C-1512.2,1714.8-1511,1709.7-1508.6,1705.2z"/>
		<path class="st6" d="M-1446.9,1705.2c2.3-4.4,5.4-7.9,9.3-10.3c3.9-2.4,8.3-3.6,13.2-3.6c4.2,0,8,0.9,11.1,2.6
			c3.2,1.7,5.7,3.9,7.6,6.5v-8.1h14.5v56.9h-14.5v-8.3c-1.8,2.7-4.4,4.9-7.6,6.6c-3.2,1.8-7,2.6-11.2,2.6c-4.8,0-9.2-1.2-13.1-3.7
			c-3.9-2.5-7-5.9-9.3-10.4c-2.3-4.5-3.4-9.6-3.4-15.5C-1450.4,1714.7-1449.2,1709.6-1446.9,1705.2z M-1407.7,1711.7
			c-1.4-2.5-3.2-4.4-5.6-5.8s-4.8-2-7.5-2s-5.1,0.7-7.4,1.9c-2.3,1.3-4.1,3.2-5.5,5.7s-2.1,5.5-2.1,8.9s0.7,6.4,2.1,9
			s3.2,4.5,5.6,5.9c2.3,1.4,4.7,2.1,7.3,2.1c2.7,0,5.2-0.7,7.5-2s4.2-3.2,5.5-5.8c1.4-2.5,2.1-5.5,2.1-9
			C-1405.6,1717.2-1406.3,1714.2-1407.7,1711.7z"/>
		<path class="st6" d="M-1377.3,1705.2c2.3-4.4,5.4-7.9,9.4-10.3s8.4-3.6,13.2-3.6c3.7,0,7.2,0.8,10.6,2.4c3.3,1.6,6,3.8,8,6.4v-27
			h14.6v76h-14.6v-8.4c-1.8,2.8-4.3,5.1-7.5,6.8c-3.2,1.7-6.9,2.6-11.2,2.6c-4.8,0-9.2-1.2-13.1-3.7c-4-2.5-7.1-5.9-9.4-10.4
			c-2.3-4.5-3.4-9.6-3.4-15.5C-1380.8,1714.7-1379.6,1709.6-1377.3,1705.2z M-1338,1711.7c-1.4-2.5-3.2-4.4-5.6-5.8
			c-2.3-1.3-4.8-2-7.5-2c-2.7,0-5.1,0.7-7.4,1.9c-2.3,1.3-4.1,3.2-5.5,5.7s-2.1,5.5-2.1,8.9s0.7,6.4,2.1,9s3.2,4.5,5.6,5.9
			c2.3,1.4,4.7,2.1,7.3,2.1c2.7,0,5.2-0.7,7.5-2s4.2-3.2,5.6-5.8c1.4-2.5,2-5.5,2-9C-1336,1717.2-1336.7,1714.2-1338,1711.7z"/>
		<path class="st6" d="M-1255,1725h-41.6c0.3,4.1,1.8,7.3,4.3,9.7c2.5,2.3,5.7,3.5,9.4,3.5c5.3,0,9.1-2.3,11.4-6.9h15.5
			c-1.6,5.5-4.8,10-9.4,13.5c-4.7,3.5-10.4,5.3-17.2,5.3c-5.5,0-10.4-1.2-14.7-3.7c-4.3-2.4-7.7-5.9-10.2-10.3
			c-2.4-4.4-3.6-9.6-3.6-15.4c0-5.9,1.2-11.1,3.6-15.5c2.4-4.4,5.8-7.9,10.1-10.3c4.3-2.4,9.3-3.6,14.9-3.6c5.4,0,10.2,1.2,14.5,3.5
			c4.3,2.3,7.6,5.6,10,9.9s3.5,9.2,3.5,14.7C-1254.5,1721.5-1254.7,1723.4-1255,1725z M-1269.4,1715.4c-0.1-3.7-1.4-6.7-4-8.9
			s-5.8-3.3-9.6-3.3c-3.6,0-6.6,1.1-9,3.2c-2.4,2.2-3.9,5.2-4.5,9L-1269.4,1715.4L-1269.4,1715.4z"/>
		<path class="st6" d="M-1156.5,1697.8c4.3,4.3,6.4,10.2,6.4,17.9v33.4h-14.4v-31.4c0-4.4-1.1-7.9-3.4-10.2
			c-2.3-2.4-5.3-3.5-9.2-3.5c-3.9,0-7,1.2-9.3,3.5c-2.3,2.4-3.4,5.8-3.4,10.2v31.4h-14.4v-31.4c0-4.4-1.1-7.9-3.4-10.2
			s-5.3-3.5-9.2-3.5c-4,0-7.1,1.2-9.4,3.5c-2.3,2.4-3.4,5.8-3.4,10.2v31.4h-14.4v-56.9h14.4v6.9c1.8-2.4,4.2-4.3,7.1-5.7
			s6.1-2.1,9.6-2.1c4.4,0,8.4,0.9,11.9,2.8s6.2,4.6,8.1,8.1c1.8-3.3,4.5-5.9,8.1-7.9c3.5-2,7.3-3,11.5-3
			C-1166.4,1691.4-1160.8,1693.6-1156.5,1697.8z"/>
		<path class="st6" d="M-1082,1692.3l-35.2,83.8h-15.3l12.3-28.3l-22.8-55.5h16.1l14.7,39.7l14.9-39.7L-1082,1692.3L-1082,1692.3z"
			/>
	</g>
</g>
<g>
	<g>
		<path class="st6" d="M-1669.3,1380.4l40.7-126.8c1.5-4.6,0-9.7-3.7-12.8c-14.2-11.9-32.5-17.8-51-16.4c-4.8,0.4-9,3.7-10.5,8.3
			l-40.7,126.8c-2,6.3,1.4,13.1,7.8,15.1l42.3,13.6C-1678,1390.2-1671.3,1386.7-1669.3,1380.4z"/>
		<path class="st6" d="M-1731.2,1291.1c4.7-16.3,4.7-33.7,0-50c-1.5-5.1-6.2-8.6-11.5-8.6h-135.7c-5.3,0-10,3.5-11.5,8.6
			c-4.7,16.3-4.7,33.7,0,50c1.5,5.1,6.2,8.6,11.5,8.6h135.7C-1737.4,1299.7-1732.7,1296.2-1731.2,1291.1z"/>
		<path class="st6" d="M-1789.2,1376.6c4.7-16.3,4.7-33.7,0-50c-1.5-5.1-6.2-8.6-11.5-8.6h-135.7c-5.3,0-10,3.5-11.5,8.6
			c-4.7,16.3-4.7,33.7,0,50c1.5,5.1,6.2,8.6,11.5,8.6h135.7C-1795.4,1385.3-1790.7,1381.8-1789.2,1376.6z"/>
		<path class="st6" d="M-1918.7,1464.6c-7-17.2-7-36.4,0-53.6c1.8-4.5,6.2-7.4,11.1-7.4h224.3c4.9,0,9.3,2.9,11.1,7.4
			c7,17.2,7,36.4,0,53.6c-1.8,4.5-6.2,7.4-11.1,7.4h-224.3C-1912.4,1472-1916.8,1469.1-1918.7,1464.6z"/>
	</g>
	<g>
		<path class="st2" d="M-1567.7,1324.4h23.6v11.4h-38v-71.7h14.4V1324.4z"/>
		<path class="st2" d="M-1482.4,1311.6h-41.6c0.3,4.1,1.8,7.3,4.3,9.7c2.5,2.3,5.7,3.5,9.3,3.5c5.3,0,9.1-2.3,11.4-6.9h15.5
			c-1.6,5.5-4.8,10-9.4,13.5c-4.7,3.5-10.4,5.3-17.2,5.3c-5.5,0-10.4-1.2-14.7-3.7c-4.3-2.4-7.7-5.9-10.2-10.3
			c-2.4-4.4-3.7-9.6-3.7-15.4c0-5.9,1.2-11.1,3.6-15.5c2.4-4.4,5.8-7.9,10.1-10.3c4.3-2.4,9.3-3.6,14.9-3.6c5.4,0,10.2,1.2,14.5,3.5
			c4.3,2.3,7.6,5.6,10,9.9s3.5,9.2,3.5,14.7C-1482,1308.1-1482.2,1310-1482.4,1311.6z M-1496.9,1302c-0.1-3.7-1.4-6.7-4-8.9
			c-2.6-2.2-5.8-3.3-9.6-3.3c-3.6,0-6.6,1.1-9,3.2c-2.4,2.2-3.9,5.2-4.5,9L-1496.9,1302L-1496.9,1302z"/>
		<path class="st2" d="M-1471.8,1291.8c2.3-4.4,5.4-7.9,9.3-10.3c3.9-2.4,8.3-3.6,13.2-3.6c4.2,0,8,0.9,11.1,2.6
			c3.2,1.7,5.7,3.9,7.6,6.5v-8.1h14.5v56.9h-14.5v-8.3c-1.8,2.7-4.4,4.9-7.6,6.6c-3.2,1.8-7,2.6-11.2,2.6c-4.8,0-9.2-1.2-13.1-3.7
			c-3.9-2.5-7-5.9-9.3-10.4c-2.3-4.5-3.4-9.6-3.4-15.5C-1475.2,1301.4-1474.1,1296.3-1471.8,1291.8z M-1432.5,1298.3
			c-1.4-2.5-3.2-4.4-5.6-5.8s-4.8-2-7.5-2s-5.1,0.7-7.4,1.9c-2.3,1.3-4.1,3.2-5.5,5.7s-2.1,5.5-2.1,8.9s0.7,6.4,2.1,9
			c1.4,2.6,3.2,4.5,5.6,5.9c2.3,1.4,4.7,2.1,7.3,2.1c2.7,0,5.2-0.7,7.5-2s4.2-3.2,5.5-5.8c1.4-2.5,2.1-5.5,2.1-9
			C-1430.5,1303.8-1431.2,1300.8-1432.5,1298.3z"/>
		<path class="st2" d="M-1380.3,1280.6c3-1.7,6.4-2.6,10.2-2.6v15.1h-3.8c-4.5,0-7.9,1.1-10.2,3.2c-2.3,2.1-3.4,5.8-3.4,11.1v28.3
			h-14.4v-56.9h14.4v8.8C-1385.7,1284.7-1383.3,1282.3-1380.3,1280.6z"/>
		<path class="st2" d="M-1312.5,1284.5c4.2,4.3,6.3,10.2,6.3,17.9v33.4h-14.4v-31.4c0-4.5-1.1-8-3.4-10.4s-5.3-3.7-9.2-3.7
			c-4,0-7.1,1.2-9.4,3.7c-2.3,2.4-3.4,5.9-3.4,10.4v31.4h-14.4v-56.9h14.4v7.1c1.9-2.5,4.4-4.4,7.3-5.8s6.2-2.1,9.8-2.1
			C-1322.1,1278.1-1316.6,1280.2-1312.5,1284.5z"/>
		<path class="st2" d="M-1291.6,1269.7c-1.7-1.6-2.5-3.6-2.5-6s0.8-4.4,2.5-6c1.7-1.6,3.8-2.4,6.3-2.4c2.5,0,4.6,0.8,6.3,2.4
			c1.7,1.6,2.5,3.6,2.5,6s-0.8,4.4-2.5,6s-3.8,2.4-6.3,2.4C-1287.8,1272.1-1289.9,1271.3-1291.6,1269.7z M-1278.2,1278.9v56.9h-14.4
			v-56.9H-1278.2z"/>
		<path class="st2" d="M-1237.9,1290.7h-10v45.1h-14.6v-45.1h-6.5v-11.8h6.5v-2.9c0-7,2-12.1,6-15.4c4-3.3,10-4.8,18-4.6v12.1
			c-3.5-0.1-5.9,0.5-7.3,1.8c-1.4,1.2-2.1,3.5-2.1,6.7v2.4h10L-1237.9,1290.7L-1237.9,1290.7z"/>
		<path class="st2" d="M-1174.1,1278.9l-35.2,83.8h-15.3l12.3-28.3l-22.8-55.5h16.1l14.7,39.7l14.9-39.7L-1174.1,1278.9
			L-1174.1,1278.9z"/>
		<path class="st2" d="M-1538.1,1418.5h-28.5l-4.7,13.7h-15.1l25.8-71.8h16.7l25.8,71.8h-15.2L-1538.1,1418.5z M-1542,1407l-10.4-30
			l-10.4,30H-1542z"/>
		<path class="st2" d="M-1508.6,1388.2c2.4-4.4,5.7-7.8,10-10.3s9.1-3.7,14.6-3.7c7,0,12.9,1.8,17.5,5.3s7.7,8.5,9.3,14.8h-15.5
			c-0.8-2.5-2.2-4.4-4.2-5.8c-2-1.4-4.4-2.1-7.2-2.1c-4.1,0-7.4,1.5-9.8,4.5s-3.6,7.2-3.6,12.7c0,5.4,1.2,9.6,3.6,12.6
			c2.4,3,5.7,4.5,9.8,4.5c5.8,0,9.6-2.6,11.4-7.8h15.5c-1.6,6.2-4.7,11.1-9.4,14.7c-4.7,3.6-10.5,5.4-17.5,5.4
			c-5.5,0-10.3-1.2-14.6-3.7c-4.2-2.4-7.6-5.8-10-10.3c-2.4-4.4-3.6-9.6-3.6-15.5C-1512.2,1397.8-1511,1392.6-1508.6,1388.2z"/>
		<path class="st2" d="M-1446.9,1388.2c2.3-4.4,5.4-7.9,9.3-10.3c3.9-2.4,8.3-3.6,13.2-3.6c4.2,0,8,0.9,11.1,2.6
			c3.2,1.7,5.7,3.9,7.6,6.5v-8.1h14.5v56.9h-14.5v-8.3c-1.8,2.7-4.4,4.9-7.6,6.6c-3.2,1.8-7,2.6-11.2,2.6c-4.8,0-9.2-1.2-13.1-3.7
			c-3.9-2.5-7-5.9-9.3-10.4c-2.3-4.5-3.4-9.6-3.4-15.5C-1450.4,1397.7-1449.2,1392.6-1446.9,1388.2z M-1407.7,1394.7
			c-1.4-2.5-3.2-4.4-5.6-5.8s-4.8-2-7.5-2s-5.1,0.7-7.4,1.9c-2.3,1.3-4.1,3.2-5.5,5.7s-2.1,5.5-2.1,8.9s0.7,6.4,2.1,9
			s3.2,4.5,5.6,5.9c2.3,1.4,4.7,2.1,7.3,2.1c2.7,0,5.2-0.7,7.5-2s4.2-3.2,5.5-5.8c1.4-2.5,2.1-5.5,2.1-9
			C-1405.6,1400.2-1406.3,1397.2-1407.7,1394.7z"/>
		<path class="st2" d="M-1377.3,1388.2c2.3-4.4,5.4-7.9,9.4-10.3s8.4-3.6,13.2-3.6c3.7,0,7.2,0.8,10.6,2.4c3.3,1.6,6,3.8,8,6.4v-27
			h14.6v76h-14.6v-8.4c-1.8,2.8-4.3,5.1-7.5,6.8c-3.2,1.7-6.9,2.6-11.2,2.6c-4.8,0-9.2-1.2-13.1-3.7c-4-2.5-7.1-5.9-9.4-10.4
			c-2.3-4.5-3.4-9.6-3.4-15.5C-1380.8,1397.7-1379.6,1392.6-1377.3,1388.2z M-1338,1394.7c-1.4-2.5-3.2-4.4-5.6-5.8
			c-2.3-1.3-4.8-2-7.5-2c-2.7,0-5.1,0.7-7.4,1.9c-2.3,1.3-4.1,3.2-5.5,5.7s-2.1,5.5-2.1,8.9s0.7,6.4,2.1,9s3.2,4.5,5.6,5.9
			c2.3,1.4,4.7,2.1,7.3,2.1c2.7,0,5.2-0.7,7.5-2s4.2-3.2,5.6-5.8c1.4-2.5,2-5.5,2-9C-1336,1400.2-1336.7,1397.2-1338,1394.7z"/>
		<path class="st2" d="M-1255,1408h-41.6c0.3,4.1,1.8,7.3,4.3,9.7c2.5,2.3,5.7,3.5,9.4,3.5c5.3,0,9.1-2.3,11.4-6.9h15.5
			c-1.6,5.5-4.8,10-9.4,13.5c-4.7,3.5-10.4,5.3-17.2,5.3c-5.5,0-10.4-1.2-14.7-3.7c-4.3-2.4-7.7-5.9-10.2-10.3
			c-2.4-4.4-3.6-9.6-3.6-15.4c0-5.9,1.2-11.1,3.6-15.5c2.4-4.4,5.8-7.9,10.1-10.3c4.3-2.4,9.3-3.6,14.9-3.6c5.4,0,10.2,1.2,14.5,3.5
			c4.3,2.3,7.6,5.6,10,9.9s3.5,9.2,3.5,14.7C-1254.5,1404.5-1254.7,1406.3-1255,1408z M-1269.4,1398.3c-0.1-3.7-1.4-6.7-4-8.9
			s-5.8-3.3-9.6-3.3c-3.6,0-6.6,1.1-9,3.2c-2.4,2.2-3.9,5.2-4.5,9L-1269.4,1398.3L-1269.4,1398.3z"/>
		<path class="st2" d="M-1156.5,1380.8c4.3,4.3,6.4,10.2,6.4,17.9v33.4h-14.4v-31.4c0-4.4-1.1-7.9-3.4-10.2
			c-2.3-2.4-5.3-3.5-9.2-3.5c-3.9,0-7,1.2-9.3,3.5c-2.3,2.4-3.4,5.8-3.4,10.2v31.4h-14.4v-31.4c0-4.4-1.1-7.9-3.4-10.2
			s-5.3-3.5-9.2-3.5c-4,0-7.1,1.2-9.4,3.5c-2.3,2.4-3.4,5.8-3.4,10.2v31.4h-14.4v-56.9h14.4v6.9c1.8-2.4,4.2-4.3,7.1-5.7
			s6.1-2.1,9.6-2.1c4.4,0,8.4,0.9,11.9,2.8s6.2,4.6,8.1,8.1c1.8-3.3,4.5-5.9,8.1-7.9c3.5-2,7.3-3,11.5-3
			C-1166.4,1374.4-1160.8,1376.5-1156.5,1380.8z"/>
		<path class="st2" d="M-1082,1375.2l-35.2,83.8h-15.3l12.3-28.3l-22.8-55.5h16.1l14.7,39.7l14.9-39.7L-1082,1375.2L-1082,1375.2z"
			/>
	</g>
</g>
<rect x="-1852.2" y="-2617.5" class="st0" width="1957.9" height="1124.1"/>
<g>
	<path class="st6" d="M-2970.5-2528.8l40.7-126.8c1.5-4.6,0.1-9.7-3.7-12.8c-14.2-11.9-32.6-17.8-51-16.4c-4.9,0.4-9,3.7-10.5,8.3
		l-40.7,126.8c-2,6.3,1.4,13.1,7.8,15.1l42.3,13.6C-2979.3-2519-2972.6-2522.5-2970.5-2528.8z"/>
	<path class="st6" d="M-3032.5-2618.1c4.7-16.3,4.7-33.7,0-50c-1.5-5.1-6.2-8.6-11.5-8.6h-135.7c-5.3,0-10,3.5-11.5,8.6
		c-4.7,16.3-4.7,33.7,0,50c1.5,5.1,6.2,8.6,11.5,8.6h135.6C-3038.7-2609.5-3034-2612.9-3032.5-2618.1z"/>
	<path class="st6" d="M-3090.5-2532.5c4.7-16.3,4.7-33.7,0-50c-1.5-5.1-6.2-8.6-11.5-8.6h-135.6c-5.3,0-10,3.5-11.5,8.6
		c-4.7,16.3-4.7,33.7,0,50c1.5,5.1,6.2,8.6,11.5,8.6h135.6C-3096.7-2523.9-3092-2527.4-3090.5-2532.5z"/>
	<path class="st6" d="M-3219.9-2444.6c-7-17.2-7-36.4,0-53.6c1.8-4.5,6.2-7.4,11.1-7.4h224.3c4.9,0,9.3,2.9,11.1,7.4
		c7,17.2,7,36.4,0,53.6c-1.8,4.5-6.2,7.4-11.1,7.4h-224.4C-3213.7-2437.2-3218.1-2440.1-3219.9-2444.6z"/>
</g>
<g>
	<g>
		<path class="st2" d="M-1123.3,930.6l40.7-126.8c1.5-4.6,0.1-9.7-3.7-12.8c-14.2-11.9-32.6-17.8-51-16.4c-4.8,0.4-9,3.7-10.5,8.3
			l-40.7,126.8c-2,6.3,1.5,13.1,7.8,15.1l42.3,13.6C-1132.1,940.4-1125.3,936.9-1123.3,930.6z"/>
		<path class="st2" d="M-1185.3,841.3c4.7-16.3,4.7-33.7,0-50c-1.5-5.1-6.2-8.6-11.5-8.6h-135.7c-5.3,0-10,3.5-11.5,8.6
			c-4.7,16.3-4.7,33.7,0,50c1.5,5.1,6.2,8.6,11.5,8.6h135.7C-1191.5,849.9-1186.7,846.4-1185.3,841.3z"/>
		<path class="st2" d="M-1243.3,926.8c4.7-16.3,4.7-33.7,0-50c-1.5-5.1-6.2-8.6-11.5-8.6h-135.7c-5.3,0-10,3.5-11.5,8.6
			c-4.7,16.3-4.7,33.7,0,50c1.5,5.1,6.2,8.6,11.5,8.6h135.7C-1249.5,935.4-1244.7,931.9-1243.3,926.8z"/>
		<path class="st2" d="M-1372.7,1014.7c-7-17.2-7-36.4,0-53.6c1.8-4.5,6.2-7.4,11.1-7.4h224.4c4.9,0,9.3,2.9,11.1,7.4
			c7,17.2,7,36.4,0,53.6c-1.8,4.5-6.2,7.4-11.1,7.4h-224.3C-1366.5,1022.2-1370.9,1019.2-1372.7,1014.7z"/>
	</g>
</g>
<g>
	<g>
		<path class="st0" d="M-1123.3,591.5l40.7-126.8c1.5-4.6,0.1-9.7-3.7-12.8c-14.2-11.9-32.6-17.8-51-16.4c-4.8,0.4-9,3.7-10.5,8.3
			l-40.7,126.8c-2,6.3,1.5,13.1,7.8,15.1l42.3,13.6C-1132.1,601.3-1125.3,597.8-1123.3,591.5z"/>
		<path class="st0" d="M-1185.3,502.2c4.7-16.3,4.7-33.7,0-50c-1.5-5.1-6.2-8.6-11.5-8.6h-135.7c-5.3,0-10,3.5-11.5,8.6
			c-4.7,16.3-4.7,33.7,0,50c1.5,5.1,6.2,8.6,11.5,8.6h135.7C-1191.5,510.8-1186.7,507.3-1185.3,502.2z"/>
		<path class="st0" d="M-1243.3,587.7c4.7-16.3,4.7-33.7,0-50c-1.5-5.1-6.2-8.6-11.5-8.6h-135.7c-5.3,0-10,3.5-11.5,8.6
			c-4.7,16.3-4.7,33.7,0,50c1.5,5.1,6.2,8.6,11.5,8.6h135.7C-1249.5,596.3-1244.7,592.8-1243.3,587.7z"/>
		<path class="st0" d="M-1372.7,675.6c-7-17.2-7-36.4,0-53.6c1.8-4.5,6.2-7.4,11.1-7.4h224.4c4.9,0,9.3,2.9,11.1,7.4
			c7,17.2,7,36.4,0,53.6c-1.8,4.5-6.2,7.4-11.1,7.4h-224.3C-1366.5,683.1-1370.9,680.1-1372.7,675.6z"/>
	</g>
</g>
<text transform="matrix(1 0 0 1 -997.165 -2455.0249)" class="st2" style="font-family:'Poppins-SemiBold'; font-size:135.6253px;">learnify</text>
<image style="overflow:visible;enable-background:new    ;" width="737" height="1105" xlink:href="E9FFD487.jpeg"  transform="matrix(0.9986 0 0 0.9986 -2670.8416 -1967.3638)">
</image>
<path class="st7" d="M2644.5-1401.1h-441.3c-51,0-92.3-41.3-92.3-92.3l0,0c0-51,41.3-92.3,92.3-92.3h441.3c51,0,92.3,41.3,92.3,92.3
	l0,0C2736.8-1442.4,2695.5-1401.1,2644.5-1401.1z"/>
<path class="st8" d="M717.3-2357.4h-285c-32.9,0-59.6-26.7-59.6-59.6l0,0c0-32.9,26.7-59.6,59.6-59.6h285
	c32.9,0,59.6,26.7,59.6,59.6l0,0C776.9-2384,750.2-2357.4,717.3-2357.4z"/>
<text transform="matrix(1 0 0 1 422.0742 -2395.4075)" class="st6" style="font-family:'Poppins-SemiBold'; font-size:56.4582px;">Read More</text>
<path class="st8" d="M1576.6-2167.9h-285c-32.9,0-59.6-26.7-59.6-59.6l0,0c0-32.9,26.7-59.6,59.6-59.6h285
	c32.9,0,59.6,26.7,59.6,59.6l0,0C1636.3-2194.6,1609.6-2167.9,1576.6-2167.9z"/>
<text transform="matrix(1 0 0 1 1281.4291 -2205.9868)" class="st2" style="font-family:'Poppins-SemiBold'; font-size:56.4582px;">Read More</text>
<path class="st0" d="M1147-2357.4H862c-32.9,0-59.6-26.7-59.6-59.6l0,0c0-32.9,26.7-59.6,59.6-59.6h285c32.9,0,59.6,26.7,59.6,59.6
	l0,0C1206.6-2384,1179.9-2357.4,1147-2357.4z"/>
<text transform="matrix(1 0 0 1 851.7516 -2395.4075)" class="st6" style="font-family:'Poppins-SemiBold'; font-size:56.4582px;">Read More</text>
<path class="st0" d="M1576.6-2357.4h-285c-32.9,0-59.6-26.7-59.6-59.6l0,0c0-32.9,26.7-59.6,59.6-59.6h285
	c32.9,0,59.6,26.7,59.6,59.6l0,0C1636.3-2384,1609.6-2357.4,1576.6-2357.4z"/>
<text transform="matrix(1 0 0 1 1281.4291 -2395.4075)" class="st2" style="font-family:'Poppins-SemiBold'; font-size:56.4582px;">Read More</text>
<path class="st6" d="M2006.3-2357.4h-285c-32.9,0-59.6-26.7-59.6-59.6l0,0c0-32.9,26.7-59.6,59.6-59.6h285
	c32.9,0,59.6,26.7,59.6,59.6l0,0C2065.9-2384,2039.3-2357.4,2006.3-2357.4z"/>
<text transform="matrix(1 0 0 1 1711.1063 -2395.4075)" class="st2" style="font-family:'Poppins-SemiBold'; font-size:56.4582px;">Read More</text>
<path class="st9" d="M2006.3-2167.9h-285c-32.9,0-59.6-26.7-59.6-59.6l0,0c0-32.9,26.7-59.6,59.6-59.6h285
	c32.9,0,59.6,26.7,59.6,59.6l0,0C2065.9-2194.6,2039.3-2167.9,2006.3-2167.9z"/>
<g>
	
		<text transform="matrix(1 0 0 1 1711.1063 -2205.9868)" class="st6" style="font-family:'Poppins-SemiBold'; font-size:56.4582px;">Read More</text>
</g>
<path class="st10" d="M2006.3-2005.9h-285c-32.9,0-59.6-26.7-59.6-59.6l0,0c0-32.9,26.7-59.6,59.6-59.6h285
	c32.9,0,59.6,26.7,59.6,59.6l0,0C2065.9-2032.6,2039.3-2005.9,2006.3-2005.9z"/>
<g>
	
		<text transform="matrix(1 0 0 1 1711.1063 -2043.9464)" class="st0" style="font-family:'Poppins-SemiBold'; font-size:56.4582px;">Read More</text>
</g>
<path class="st6" d="M1147-2167.9H862c-32.9,0-59.6-26.7-59.6-59.6l0,0c0-32.9,26.7-59.6,59.6-59.6h285c32.9,0,59.6,26.7,59.6,59.6
	l0,0C1206.6-2194.6,1179.9-2167.9,1147-2167.9z"/>
<g>
	<text transform="matrix(1 0 0 1 851.7516 -2205.9868)" class="st8" style="font-family:'Poppins-SemiBold'; font-size:56.4582px;">Read More</text>
</g>
<path class="st6" d="M717.3-2167.9h-285c-32.9,0-59.6-26.7-59.6-59.6l0,0c0-32.9,26.7-59.6,59.6-59.6h285
	c32.9,0,59.6,26.7,59.6,59.6l0,0C776.9-2194.6,750.2-2167.9,717.3-2167.9z"/>
<g>
	<text transform="matrix(1 0 0 1 422.0742 -2205.9868)" class="st0" style="font-family:'Poppins-SemiBold'; font-size:56.4582px;">Read More</text>
</g>
<rect x="-389.5" y="-1030.4" class="st6" width="91.9" height="109.9"/>
<rect x="-379.7" y="-1035.5" class="st0" width="87.2" height="105.5"/>
<rect x="-373.1" y="-1030.4" class="st6" width="75.5" height="92.3"/>
<rect x="-383.2" y="-1030.4" class="st6" width="20.9" height="34"/>
<path class="st6" d="M-1481.6-1111.2h-73.3c-5.1,0-9.3-4.2-9.3-9.3v-91.3c0-5.1,4.2-9.3,9.3-9.3h73.3c5.1,0,9.3,4.2,9.3,9.3v91.3
	C-1472.3-1115.4-1476.4-1111.2-1481.6-1111.2z"/>
<image style="overflow:visible;enable-background:new    ;" width="1029" height="771" xlink:href="E9FFD485.jpeg"  transform="matrix(0.2002 0 0 0.2002 -1074.7661 -1326.0828)">
</image>
<path class="st0" d="M-1464.1-1135.7h-85.4c-5.5,0-10,4.5-10,10l0,0c0,5.5,4.5,10,10,10h85.4c0.3,0,0.6-0.3,0.6-0.6v-18.7
	C-1463.5-1135.5-1463.7-1135.7-1464.1-1135.7z"/>
<path class="st0" d="M-1473.4-1211.2v85.4c0,5.5,4.5,10,10,10l0,0c5.5,0,10-4.5,10-10v-85.4c0-0.3-0.3-0.6-0.6-0.6h-18.7
	C-1473.1-1211.8-1473.4-1211.5-1473.4-1211.2z"/>
<path class="st6" d="M-1234.4-1240.1v127.1c0,7.5-6.1,13.6-13.6,13.6h-85.9c-8.5,0-15.5-6.9-15.5-15.5v-126.3c0-2.5,2.1-4.6,4.6-4.6
	l0,0c2.5,0,4.6,2.1,4.6,4.6v121.2c0,7.2,5.8,13,13,13h76.7c4.4,0,8-3.6,8-7.9l0,0c0-4.4-3.6-7.9-8-7.9h-66.1c-3.7,0-6.7-3-6.7-6.7
	v-110c0-3.4,2.8-6.2,6.2-6.2h77.1C-1236.9-1245.7-1234.4-1243.2-1234.4-1240.1z"/>
<rect x="-1716.5" y="-993.5" class="st6" width="115" height="146.3"/>
<rect x="-1694.3" y="-876.6" class="st0" width="81.6" height="19.9"/>
<rect x="-1705.4" y="-996.5" class="st0" width="19.9" height="139.8"/>
<path class="st0" d="M-1286.6-1192.3l-13.7,23.8c-1.2,2.1,0.3,4.7,2.7,4.7h27.5c2.4,0,3.9-2.6,2.7-4.7l-13.7-23.8
	C-1282.4-1194.3-1285.4-1194.3-1286.6-1192.3z"/>
<path class="st6" d="M-946.7-689.7v128.1c0,7.5-6.1,13.6-13.6,13.6h-85.9c-8.5,0-15.5-6.9-15.5-15.5v-126.3c0-2.5,2.1-4.6,4.6-4.6
	l0,0c2.5,0,4.6,2,4.6,4.6v121.2c0,7.2,5.8,13,13,13h75.6c5,0,9-4,9-9l0,0c0-4.1-2.7-7.6-6.6-8.7l-51.1-14.3c-5.9-1.7-10-7.1-10-13.2
	v-104.8c0-3.9,3.7-6.7,7.4-5.8l64,16C-948.6-694.8-946.7-692.4-946.7-689.7z"/>
<path class="st6" d="M-1279.5-893.9v128.1c0,7.5-6.1,13.6-13.6,13.6h-85.9c-8.5,0-15.5-6.9-15.5-15.5V-894c0-2.5,2.1-4.6,4.6-4.6
	l0,0c2.5,0,4.6,2,4.6,4.6v121.2c0,7.2,5.8,13,13,13h75.6c5,0,9.1-4,9.1-9l0,0c0-4.1-2.7-7.6-6.6-8.7l-51.1-14.3
	c-5.9-1.7-10-7.1-10-13.2v-104.8c0-3.9,3.7-6.7,7.4-5.8l64,16C-1281.4-899-1279.5-896.6-1279.5-893.9z"/>
<g>
	<path class="st6" d="M-1323.5-883.3l-64-16c-3.8-0.9-7.4,1.9-7.4,5.8v9.8c0-3.9,3.6-6.7,7.4-5.8l64,16c2.6,0.7,4.5,3,4.5,5.8v-9.8
		C-1319-880.2-1320.9-882.6-1323.5-883.3z"/>
</g>
<path class="st0" d="M-558.2-385.5l-13.7,23.8c-1.2,2.1,0.3,4.6,2.7,4.6h27.5c2.4,0,3.9-2.6,2.7-4.6l-13.7-23.8
	C-554-387.6-557-387.6-558.2-385.5z"/>
<path class="st6" d="M-1038.5-796.3l5.5,14.9c3.1,8.3,9.6,14.8,17.9,17.9l14.9,5.5l-14.9,5.5c-8.3,3.1-14.8,9.6-17.9,17.9l-5.5,14.9
	l-5.5-14.9c-3.1-8.3-9.6-14.8-17.9-17.9l-14.9-5.5l14.9-5.5c8.3-3.1,14.8-9.6,17.9-17.9L-1038.5-796.3z"/>
<path class="st6" d="M-94.1-912.2l5.5,14.9c3.1,8.3,9.6,14.8,17.9,17.9l14.9,5.5l-14.9,5.5c-8.3,3.1-14.8,9.6-17.9,17.9l-5.5,14.9
	l-5.5-14.9c-3.1-8.3-9.6-14.8-17.9-17.9l-14.9-5.5l14.9-5.5c8.3-3.1,14.8-9.6,17.9-17.9L-94.1-912.2z"/>
<rect x="-568.4" y="-760.9" class="st2" width="48.2" height="48.2"/>
<circle class="st2" cx="-568.4" cy="-760.9" r="19.7"/>
<path class="st6" d="M-517.4-898h-5.6c-0.1,11.7-9.6,21.2-21.3,21.2v5.9c11.7,0,21.2,9.5,21.3,21.2h5.6c0.1-11.7,9.6-21.2,21.3-21.2
	v-5.9C-507.8-876.8-517.3-886.3-517.4-898z"/>
<path class="st6" d="M-544.3-463.2v5.8c11.7,0,21.2,9.5,21.3,21.2h5.6c0.1-11.7,9.6-21.2,21.3-21.2v-5.8c-11.8,0-21.3-9.5-21.3-21.3
	h-5.6C-523-472.8-532.5-463.2-544.3-463.2z"/>
<path class="st0" d="M173.4,73.3v0.5c0,4.5,3.3,8.5,7.8,9c29.4,3.5,52.8,26.8,56.5,56.1c0.6,4.5,4.5,7.7,9,7.7h0.2
	c4.5,0,8.4-3.3,9-7.7c3.7-29.4,27.1-52.6,56.5-56.1c4.5-0.5,7.8-4.5,7.8-9v-0.5c0-4.5-3.3-8.5-7.8-9c-29.6-3.5-53-27-56.5-56.5
	c-0.5-4.5-4.5-7.8-9-7.8h0c-4.5,0-8.5,3.3-9,7.8c-3.6,29.6-27,53-56.6,56.5C176.7,64.9,173.4,68.8,173.4,73.3z"/>
<path class="st6" d="M0,73.3v0.5c0,4.5,3.3,8.5,7.8,9c29.4,3.5,52.8,26.8,56.5,56.1c0.6,4.5,4.5,7.7,9,7.7h0.2c4.5,0,8.4-3.3,9-7.7
	c3.7-29.4,27.1-52.6,56.5-56.1c4.5-0.5,7.8-4.5,7.8-9v-0.5c0-4.5-3.3-8.5-7.8-9c-29.6-3.5-53-27-56.5-56.5c-0.5-4.5-4.5-7.8-9-7.8h0
	c-4.5,0-8.5,3.3-9,7.8c-3.6,29.6-27,53-56.6,56.5C3.3,64.9,0,68.8,0,73.3z"/>
<g>
	<path class="st6" d="M-276-691.2l-54.8-13.7c-8.4-2.1-16.6,4.3-16.6,13v79.3c0,6.2,4.1,11.5,10,13.2l51.1,14.3
		c3.9,1.1,6.6,4.7,6.6,8.7c0,5-4,9-9,9h-75.6c-7.2,0-13-5.8-13-13v-105.2c0-2.5-2-4.6-4.6-4.6l0,0c-2.5,0-4.6,2-4.6,4.6v110.3
		c0,8.5,6.9,15.5,15.5,15.5h85.9c7.5,0,13.6-6.1,13.6-13.6v-112.1C-271.5-688.1-273.4-690.5-276-691.2z"/>
	<path class="st6" d="M-383.9-719.8c10.5,1.3,18.6,11.2,18.7,22l0,0v60.8c0,1.5,1.3,2.8,2.8,2.8s2.8-1.3,2.8-2.8v-60.8l0,0
		c0.1-10.8,8.2-20.7,18.7-22c1.5-0.2,2.6-1.5,2.6-3v-0.2c0-1.5-1.1-2.8-2.6-3c-9.7-1.2-17.3-8.8-18.5-18.4c-0.2-1.5-1.5-2.6-3-2.6
		s-2.8,1.1-3,2.6c-1.2,9.6-8.9,17.2-18.5,18.4c-1.5,0.2-2.6,1.5-2.6,3v0.2C-386.5-721.3-385.4-720-383.9-719.8z"/>
</g>
<g>
	<path class="st6" d="M-1194.4-2206.8l-110.2-27.6c-17-4.2-33.4,8.6-33.4,26.1v159.6c0,12.4,8.2,23.2,20.1,26.6l102.9,28.8
		c7.9,2.2,13.3,9.4,13.3,17.5c0,10.1-8.2,18.2-18.2,18.2H-1372c-14.5,0-26.2-11.7-26.2-26.2v-211.5c0-5.1-4.1-9.2-9.2-9.2l0,0
		c-5.1,0-9.2,4.1-9.2,9.2v221.8c0,17.2,13.9,31.2,31.2,31.2h172.7c15.1,0,27.4-12.3,27.4-27.4v-225.4
		C-1185.3-2200.7-1189.1-2205.5-1194.4-2206.8z"/>
	<path class="st6" d="M-1411.4-2264.4c21.1,2.6,37.5,22.5,37.6,44.2l0,0v122.4c0,3.1,2.5,5.7,5.7,5.7s5.7-2.5,5.7-5.7v-122.4l0,0
		c0.2-21.8,16.5-41.7,37.6-44.2c3-0.4,5.2-3,5.2-6v-0.5c0-3-2.2-5.6-5.2-6c-19.4-2.4-34.8-17.7-37.3-37.1c-0.4-3-3-5.2-6-5.2
		c-3,0-5.6,2.2-6,5.2c-2.5,19.4-17.9,34.7-37.3,37.1c-3,0.4-5.2,3-5.2,6v0.5C-1416.6-2267.3-1414.4-2264.7-1411.4-2264.4z"/>
</g>
<g>
	<path class="st2" d="M-804.6,170l-72.5-18.1c-11.2-2.8-22,5.6-22,17.1v105c0,8.1,5.4,15.3,13.3,17.5l67.7,19
		c5.2,1.5,8.7,6.2,8.7,11.5c0,6.6-5.4,12-12,12h-100c-9.5,0-17.2-7.7-17.2-17.2V177.6c0-3.3-2.7-6.1-6-6.1l0,0
		c-3.3,0-6.1,2.7-6.1,6.1v145.9c0,11.3,9.2,20.5,20.5,20.5h113.6c9.9,0,18-8.1,18-18V177.7C-798.7,174.1-801.1,170.9-804.6,170z"/>
	<path class="st2" d="M-947.4,132.2c13.9,1.7,24.7,14.8,24.8,29.1l0,0v80.5c0,2.1,1.7,3.7,3.7,3.7c2.1,0,3.7-1.7,3.7-3.7v-80.5l0,0
		c0.1-14.3,10.9-27.4,24.7-29.1c2-0.2,3.4-2,3.4-4v-0.3c0-2-1.5-3.7-3.4-4c-12.8-1.5-22.9-11.6-24.5-24.4c-0.2-2-2-3.4-4-3.4
		c-2,0-3.7,1.4-3.9,3.4c-1.6,12.7-11.8,22.8-24.5,24.4c-2,0.2-3.4,2-3.4,4v0.3C-950.8,130.2-949.3,132-947.4,132.2z"/>
</g>
<g>
	<path class="st0" d="M-987.3,170l-72.5-18.1c-11.2-2.8-22,5.6-22,17.1v105c0,8.1,5.4,15.3,13.3,17.5l67.7,19
		c5.2,1.5,8.7,6.2,8.7,11.5c0,6.6-5.4,12-12,12h-100c-9.5,0-17.2-7.7-17.2-17.2V177.6c0-3.3-2.7-6.1-6.1-6.1l0,0
		c-3.3,0-6.1,2.7-6.1,6.1v145.9c0,11.3,9.2,20.5,20.5,20.5h113.6c9.9,0,18-8.1,18-18V177.7C-981.4,174.1-983.8,170.9-987.3,170z"/>
	<path class="st0" d="M-1130.1,132.2c13.9,1.7,24.7,14.8,24.8,29.1l0,0v80.5c0,2.1,1.7,3.7,3.7,3.7c2.1,0,3.7-1.7,3.7-3.7v-80.5l0,0
		c0.1-14.3,10.9-27.4,24.7-29.1c2-0.2,3.4-2,3.4-4v-0.3c0-2-1.5-3.7-3.4-4c-12.8-1.6-22.9-11.6-24.5-24.4c-0.2-2-2-3.4-4-3.4
		s-3.7,1.4-3.9,3.4c-1.6,12.7-11.8,22.8-24.5,24.4c-2,0.2-3.4,2-3.4,4v0.3C-1133.5,130.2-1132,132-1130.1,132.2z"/>
</g>
<g>
	<path class="st6" d="M-1173.7,170l-72.5-18.1c-11.2-2.8-22,5.6-22,17.1v105c0,8.1,5.4,15.3,13.3,17.5l67.7,19
		c5.2,1.5,8.7,6.2,8.7,11.5c0,6.6-5.4,12-12,12h-100c-9.5,0-17.2-7.7-17.2-17.2V177.6c0-3.3-2.7-6.1-6.1-6.1l0,0c-3.3,0-6,2.7-6,6.1
		v145.9c0,11.3,9.2,20.5,20.5,20.5h113.6c9.9,0,18-8.1,18-18V177.7C-1167.7,174.1-1170.2,170.9-1173.7,170z"/>
	<path class="st6" d="M-1316.4,132.2c13.9,1.7,24.7,14.8,24.8,29.1l0,0v80.5c0,2.1,1.7,3.7,3.7,3.7c2.1,0,3.7-1.7,3.7-3.7v-80.5l0,0
		c0.1-14.3,10.9-27.4,24.7-29.1c2-0.2,3.4-2,3.4-4v-0.3c0-2-1.5-3.7-3.4-4c-12.8-1.5-22.9-11.6-24.5-24.4c-0.2-2-2-3.4-3.9-3.4
		s-3.7,1.4-4,3.4c-1.6,12.7-11.8,22.8-24.5,24.4c-2,0.2-3.4,2-3.4,4v0.3C-1319.8,130.2-1318.4,132-1316.4,132.2z"/>
</g>
<text transform="matrix(1 0 0 1 -417.6158 -2024.9198)" class="st6" style="font-family:'Poppins-SemiBold'; font-size:70.2994px;">Academy</text>
<g>
	<g>
		<path class="st2" d="M-716.9-2071.5c0,12.8,0,25.7,0,38.5c0,0.9,0,1.8-0.1,2.6c-0.4,2.6-1.8,4.1-4.4,4.1c-8.2,0.1-16.4,0.1-24.6,0
			c-2.7,0-4.1-1.6-4.4-4.2c-0.1-0.9-0.1-1.8-0.1-2.6c0-27.7,0-55.5,0-83.2c0-0.7,0-1.5,0-2.2c0.3-2.9,1.5-4.4,4.4-4.4
			c9.7-0.1,19.4-0.1,29.1,0c2.8,0,4.5,1.8,5.5,4.3c4,9.2,8.5,18.1,13.6,26.8c3.3,5.6,6.7,11,10.4,16.3c0.2,0.3,0.5,0.6,1.1,1.4
			c0.1-1.2,0.1-2,0.1-2.7c0-13.2,0-26.4,0-39.6c0-5.3,1.2-6.5,6.5-6.5c7.1,0,14.2,0,21.3,0c4.4,0,5.8,1.4,5.9,5.8
			c0,28.4,0,56.8,0,85.2c0,4.4-1.6,5.9-6,5.9c-8.3,0-16.6-0.1-24.9,0c-3.7,0.1-6.2-1.4-8.3-4.3c-9-12.6-17.2-25.7-23.9-39.6
			c-0.2-0.5-0.5-1-0.8-1.5C-716.6-2071.6-716.7-2071.5-716.9-2071.5z"/>
		<path class="st2" d="M-783.9-2061.1c3.6,2.3,7.2,3.2,11,3.7c1.5,0.2,3.1,0.2,4.6,0.3c3.2,0.2,4.7,1.4,4.8,4.8
			c0.2,4.4,0.1,8.8,0.1,13.2c0,3,0,6,0,9c0,3.7-1.4,5.2-5.2,5.2c-6.8,0-13.6-1-20.1-3.3c-12.8-4.5-21.3-13.3-25.4-26.3
			c-0.6-2-1.9-1.4-3.1-1.4c-1.6,0-0.9,1.3-0.9,2c-0.1,7.3,0,14.5,0,21.8c0,4.4-1.5,5.9-6,5.9c-7.4,0-14.8,0-22.2,0
			c-4.5,0-6-1.6-6-6.1c0-27.1,0-54.1,0-81.2c0-6.1,1.7-8.2,7.8-9c14.3-1.7,28.7-2.7,43-1.4c8.6,0.8,16.8,3.1,24.1,8.2
			c7,4.9,10.5,11.8,11.3,20c0.9,9.5-0.8,18.4-7,26C-776.1-2066.1-779.5-2063.3-783.9-2061.1z M-818.1-2089.8c0,2.3,0,4.7,0,7
			c0,1,0.2,1.4,1.3,1.4c3,0,6,0,9-0.5c4-0.6,6.6-3.6,6.9-7.6c0.3-4.9-1.5-7.9-5.8-9.1c-3.4-0.9-6.8-0.5-10.2,0.2
			c-1,0.2-1.2,0.7-1.2,1.7C-818.1-2094.3-818.1-2092-818.1-2089.8z"/>
		<path class="st2" d="M-1047.7-2074.7c0-14.1,0-28.2,0-42.3c0-4.8,1.3-6.1,6.2-6.1c21.6,0,43.3,0,65,0c4.9,0,6.1,1.2,6.1,6.1
			c0,4.4,0,8.8,0,13.2c0,4.5-1.4,5.9-5.9,6c-11.4,0-22.9,0.1-34.3,0c-2.2,0-3.1,0.4-2.8,2.7c0.2,1.7,0.2,3.5,0,5.3
			c-0.2,2.1,0.3,2.9,2.7,2.8c9.7-0.2,19.4-0.1,29.1-0.1c1.2,0,2.3-0.1,3.5,0.4c1.9,0.7,2.7,2.3,2.7,4.1c0.1,5.2,0.1,10.4,0,15.6
			c-0.1,3.3-1.8,4.6-5.4,4.6c-10.1,0-20.1,0.1-30.2,0c-1.8,0-2.5,0.4-2.3,2.3c0.2,2.1,0.2,4.3,0,6.4c-0.1,1.7,0.4,2.2,2.2,2.2
			c11.7-0.1,23.5,0,35.2,0c6.5,0,7.3,0.9,7.3,7.4c0,4.1,0,8.2,0,12.3c0,4-1.7,5.6-5.7,5.6c-22.5,0-45.1,0-67.6,0
			c-4,0-5.6-1.6-5.6-5.6C-1047.7-2046.1-1047.7-2060.4-1047.7-2074.7z"/>
		<path class="st2" d="M-877-2026.2c-3.7,0-7.5,0-11.2,0c-3.9,0-5.4-1.2-6.4-4.9c-0.6-2.1-1.1-4.2-1.6-6.4c-0.2-1.1-0.7-1.4-1.8-1.4
			c-9.8,0-19.5,0-29.3,0c-1.1,0-1.5,0.4-1.8,1.4c-0.5,2.1-1.1,4.3-1.7,6.4c-1.1,3.9-2.5,4.9-6.4,4.9c-6.9,0-13.8,0-20.7,0
			c-5.5,0-6.9-1.8-5.4-7.1c8.2-28.5,19.2-56,32-82.8c2.5-5.1,5.5-7.6,11.3-7.1c6.2,0.5,12.5,0.1,18.7,0.1c3.2,0,5.3,1.4,6.8,4.3
			c13.4,27.7,25.1,56.1,33.4,85.7c1.4,5,0,6.9-5.2,6.9C-869.8-2026.2-873.4-2026.2-877-2026.2z M-912.6-2089.6
			c-3.8,9-6.4,18.3-9.4,27.4c-0.3,1,0.3,1.1,1,1.1c5.6,0,11.2,0,16.7,0c1.1,0,1.2-0.4,0.9-1.3
			C-906.3-2071.4-909.1-2080.6-912.6-2089.6z"/>
		<path class="st2" d="M-587.3-2074.6c0-14.2,0-28.3,0-42.5c0-4.6,1.3-5.9,5.9-5.9c21.2,0,42.4,0,63.6,0c4.4,0,5.8,1.4,5.8,5.8
			c0,5.4,0,10.9,0,16.3c0,5-1.3,6.3-6.4,6.4c-10.8,0-21.6,0.1-32.4,0c-1.8,0-2.4,0.4-2.3,2.3c0.2,3.2,0.1,6.5,0,9.7
			c-0.1,1.6,0.4,2.1,2,2.1c8.7-0.1,17.3-0.1,26,0c0.9,0,1.8,0,2.6,0.1c2.8,0.4,3.9,1.4,4,4.3c0.2,4.9,0.1,9.8,0.1,14.7
			c0,1.5,0,2.9-0.1,4.4c-0.2,2.6-1.5,4-4.2,4.1c-4.5,0.2-9,0.1-13.4,0.1c-5.1,0-10.1,0.1-15.2,0c-1.5,0-1.8,0.5-1.8,1.9
			c0.1,6.2,0,12.5,0,18.7c0,4.6-1.5,6.1-6.1,6.1c-7.4,0-14.8,0-22.2,0c-4.5,0-5.9-1.5-6-5.9
			C-587.3-2046.3-587.3-2060.5-587.3-2074.6z"/>
		<path class="st2" d="M-457.4-2086.5c4.2-6.8,7.6-13.4,10.6-20.3c1.7-3.9,3.3-7.8,4.8-11.8c1.1-3,3.1-4.4,6.1-4.4
			c8.3,0,16.6-0.1,24.9,0c3.5,0,4.7,2.1,3.1,5.5c-3.4,7.1-7.1,14.1-10.9,21c-6.5,11.8-13.6,23.1-21.2,34.1c-0.7,1-1,2-1,3.3
			c0,8.9,0,17.9,0,26.8c0,4.5-1.5,6-5.9,6c-7.5,0-15,0-22.5,0c-4.3,0-5.9-1.6-5.9-6c0-9,0-18,0-27.1c0-1.2-0.2-2.2-1-3.3
			c-11.9-17.2-22.3-35.3-31.4-54.1c-0.2-0.4-0.4-0.8-0.6-1.2c-1.2-3.1,0-5,3.3-5.2c0.4,0,0.7,0,1.1,0c8,0,16,0,24,0
			c4.8,0,6,0.9,7.7,5.3c3.6,9.8,7.9,19.2,13.1,28.2C-458.6-2088.6-458.1-2087.7-457.4-2086.5z"/>
		<path class="st2" d="M-1131.4-2074.7c0-14,0-28,0-42c0-5.1,1.2-6.3,6.4-6.3c7.3,0,14.7,0,22,0c4.5,0,5.8,1.3,5.8,5.7
			c0,20.1,0,40.2,0,60.3c0,1.8,0.4,2.3,2.3,2.3c10.6-0.1,21.3-0.1,31.9,0c0.9,0,1.8,0,2.6,0.1c2.8,0.4,4,1.7,4.1,4.5
			c0.1,6.4,0.1,12.8,0,19.1c0,3.1-1.7,4.7-4.9,4.7c-4,0.1-8.1,0-12.1,0c-17.2,0-34.5,0-51.7,0c-4.9,0-6.3-1.4-6.3-6.3
			C-1131.4-2046.5-1131.4-2060.6-1131.4-2074.7z"/>
		<path class="st2" d="M-637.1-2074.9c0-14.1,0-28.2,0-42.2c0-4.6,1.4-5.9,5.9-5.9c7.6,0,15.1,0,22.7,0c4.3,0,5.7,1.4,5.7,5.6
			c0,28.5,0,56.9,0,85.4c0,4.3-1.6,5.8-5.9,5.8c-7.6,0-15.1,0-22.7,0c-4.1,0-5.7-1.6-5.7-5.8
			C-637.1-2046.3-637.1-2060.6-637.1-2074.9z"/>
	</g>
</g>
</svg>
