<?xml version="1.0" encoding="utf-8"?>
<!-- Generator: Adobe Illustrator 26.0.2, SVG Export Plug-In . SVG Version: 6.00 Build 0)  -->
<svg version="1.1" id="Layer_1" xmlns="http://www.w3.org/2000/svg" xmlns:xlink="http://www.w3.org/1999/xlink" x="0px" y="0px"
	 viewBox="0 0 146.8 146.6" style="enable-background:new 0 0 146.8 146.6;" xml:space="preserve">
<style type="text/css">
	.st0{fill:#0000FE;}
	.st1{fill:#2E5BE8;}
	.st2{fill:#FFFFFF;}
	.st3{opacity:0.48;fill:#2E5BE8;enable-background:new    ;}
	.st4{fill:none;stroke:#FFFFFF;stroke-width:15;stroke-linecap:round;stroke-linejoin:round;stroke-miterlimit:10;}
	.st5{fill:#2DD975;}
	.st6{fill:#00FF67;}
	.st7{fill:none;stroke:#FFFFFF;stroke-width:5;stroke-miterlimit:10;}
	.st8{fill:#0C0C0C;}
	.st9{fill:none;stroke:#00FF67;stroke-width:5;stroke-miterlimit:10;}
	.st10{fill:none;stroke:#0000FE;stroke-width:5;stroke-miterlimit:10;}
</style>
<rect x="275.4" y="-4156.7" class="st0" width="1957.9" height="1124.1"/>
<rect x="-1168.9" y="-3409.6" width="257" height="96"/>
<polygon points="-1199.5,-3689.9 -1103.5,-3689.9 -1023,-3432.8 -1119,-3432.8 "/>
<rect x="-1287" y="-3572.2" width="96" height="257"/>
<path d="M-639-3300.1c0-5.4,3.2-10.2,8.2-12.4c9.5-4.1,24-8.7,41.9-8.3c16,0.3,28.9,4.4,37.8,8.3c4.9,2.1,8.1,7,8.1,12.4v238
	c0,5.9-4.8,10.7-10.7,10.7h-74.7c-5.9,0-10.7-4.8-10.7-10.7L-639-3300.1z"/>
<path d="M-739.5-2919.3c5.4,0,10.2,3.2,12.4,8.2c4.2,9.6,8.7,24,8.3,41.9c-0.3,16-4.4,28.9-8.3,37.8c-2.1,4.9-7,8.1-12.4,8.1H-977
	c-6.9,0-13.1-4.5-15.1-11.2c-2.7-8.9-5-20.1-5.4-33.2c-0.5-16.2,2.2-30,5.4-40.4c2-6.7,8.1-11.3,15.1-11.3L-739.5-2919.3z"/>
<path d="M-853.1-3005.1c3,0,5.7,2.4,6.9,6.2c2.3,7.2,4.9,18.2,4.6,31.8c-0.2,12.1-2.5,21.9-4.7,28.7c-1.2,3.7-3.9,6.1-6.9,6.1h-133
	c-3.9,0-7.3-3.4-8.5-8.5c-1.5-6.8-2.8-15.3-3-25.1c-0.3-12.3,1.2-22.7,3-30.6c1.1-5.1,4.6-8.6,8.5-8.6L-853.1-3005.1z"/>
<path d="M-853.1-3100.2c3,0,5.7,2.4,6.9,6.2c2.3,7.2,4.9,18.2,4.6,31.8c-0.2,12.1-2.5,21.9-4.7,28.7c-1.2,3.7-3.9,6.1-6.9,6.1h-133
	c-3.9,0-7.3-3.4-8.5-8.5c-1.5-6.8-2.8-15.3-3-25.1c-0.3-12.3,1.2-22.7,3-30.6c1.1-5.1,4.6-8.6,8.5-8.6L-853.1-3100.2z"/>
<path d="M-720.7-2943c0,3.3-3.2,6.2-8.2,7.6c-9.5,2.5-70.8,2.4-79.8,0c-4.9-1.3-8.1-4.3-8.1-7.5v-144.7c0-4.2,4.5-8,11.2-9.2
	c8.9-1.6,20.1-3.1,33.2-3.3c16.2-0.3,30,1.4,40.3,3.3c6.7,1.2,11.3,5,11.3,9.2L-720.7-2943z"/>
<path d="M-524.4-3227.7c0-3.8,3.2-7.3,8.2-8.8c9.5-2.9,24-6.1,41.9-5.9c16,0.2,28.9,3.1,37.8,5.9c4.9,1.5,8.1,5,8.1,8.8v168.6
	c0,4.2-4.8,7.6-10.7,7.6h-74.7c-5.9,0-10.7-3.4-10.7-7.6L-524.4-3227.7z"/>
<path class="st1" d="M-2993.5-1170.2v-183.5c0-6-3.6-11.5-9.1-13.8c-23.9-10.1-51-10.1-74.9,0c-5.5,2.3-9.1,7.8-9.1,13.8v183.5
	c0,8.3,6.7,15,15,15h63.2C-3000.2-1155.2-2993.5-1161.9-2993.5-1170.2z"/>
<path class="st1" d="M-3107.8-1282.1c6.9-22.9,6.9-47.4,0-70.3c-1.9-6.3-7.8-10.6-14.3-10.6h-186.6c-6.6,0-12.4,4.3-14.3,10.6
	c-6.9,22.9-6.9,47.4,0,70.3c1.9,6.3,7.8,10.6,14.3,10.6h186.6C-3115.6-1271.6-3109.7-1275.8-3107.8-1282.1z"/>
<path class="st1" d="M-3107.8-1165.8c6.9-22.9,6.9-47.4,0-70.3c-1.9-6.3-7.8-10.6-14.3-10.6h-186.6c-6.6,0-12.4,4.3-14.3,10.6
	c-6.9,22.9-6.9,47.4,0,70.3c1.9,6.3,7.8,10.6,14.3,10.6h186.6C-3115.6-1155.2-3109.7-1159.5-3107.8-1165.8z"/>
<path class="st1" d="M-3323.8-1046.2c-10.1-23.9-10.1-51,0-74.9c2.3-5.5,7.8-9.1,13.8-9.1h307.1c6,0,11.5,3.6,13.8,9.1
	c10.1,23.9,10.1,51,0,74.9c-2.3,5.5-7.8,9.1-13.8,9.1H-3310C-3316-1037.1-3321.5-1040.7-3323.8-1046.2z"/>
<g>
	<path class="st2" d="M-3512,168.9c6.9-22.9,6.9-47.4,0-70.3c-1.9-6.3-7.8-10.6-14.3-10.6h-186.6c-6.6,0-12.4,4.3-14.3,10.6
		c-6.9,22.9-6.9,47.4,0,70.3c1.9,6.3,7.8,10.6,14.3,10.6h186.6C-3519.8,179.5-3513.9,175.2-3512,168.9z"/>
	<path class="st2" d="M-3686.2,288.5c-10.1-23.9-10.1-51,0-74.9c2.3-5.5,7.8-9.1,13.8-9.1h307.1c6,0,11.5,3.6,13.8,9.1
		c10.1,24,10.1,51,0,74.9c-2.3,5.5-7.8,9.1-13.8,9.1h-307.1C-3678.4,297.6-3683.8,294-3686.2,288.5z"/>
	<path class="st2" d="M-3787,171.2c-10.1-24-10.1-51,0-74.9c2.3-5.5,7.8-9.1,13.8-9.1h307.1c6,0,11.5,3.6,13.8,9.1
		c10.1,24,10.1,51,0,74.9c-2.3,5.5-7.8,9.1-13.8,9.1h-307.1C-3779.2,180.4-3784.7,176.8-3787,171.2z"/>
	<path class="st2" d="M-3694.7,54c-10.1-24-10.1-51,0-74.9c2.3-5.5,7.8-9.1,13.8-9.1h307.1c6,0,11.5,3.6,13.8,9.1
		c10.1,23.9,10.1,51,0,74.9c-2.3,5.5-7.8,9.1-13.8,9.1h-307.1C-3686.9,63.1-3692.4,59.6-3694.7,54z"/>
</g>
<g>
	<rect x="-2330.6" y="-2259.1" class="st3" width="25.5" height="49.2"/>
	<rect x="-2358.8" y="-2259.1" class="st3" width="18.4" height="49.2"/>
</g>
<g>
	<g>
		<g>
			<path class="st2" d="M692.5-828.5l16.1-32.6c2.5-5,1.4-11.1-2.6-15l-26-25.4c-9-8.8-1.5-24,10.9-22.2l36,5.2
				c5.6,0.8,11-2.1,13.5-7.1l16.1-32.6c5.6-11.3,22.3-8.8,24.4,3.6l6.1,35.8c0.9,5.5,5.4,9.8,10.9,10.7l36,5.2
				c12.4,1.8,15.3,18.5,4.2,24.3l-32.2,16.9c-5,2.6-7.7,8.1-6.8,13.7l6.1,35.8c2.1,12.4-12.9,20.3-21.9,11.5l-26-25.4
				c-4-3.9-10.1-4.8-15.1-2.2L710-811.4C699.1-805.4,686.9-817.2,692.5-828.5z"/>
		</g>
		<g>
			<path class="st2" d="M705.9-1142.1l32.6,16.1c5,2.5,11.1,1.4,15-2.6l25.4-26c8.8-9,23.9-1.5,22.1,10.9l-5.2,36
				c-0.8,5.6,2.1,11,7.1,13.5l32.6,16.1c11.3,5.6,8.9,22.3-3.6,24.4l-35.8,6.2c-5.5,0.9-9.8,5.4-10.6,10.9l-5.2,36
				c-1.8,12.4-18.5,15.3-24.3,4.2l-16.9-32.2c-2.6-5-8.1-7.7-13.7-6.8l-35.8,6.2c-12.4,2.1-20.3-12.8-11.5-21.9l25.4-26
				c3.9-4,4.8-10.1,2.2-15.1l-16.9-32.2C682.8-1135.5,694.6-1147.7,705.9-1142.1z"/>
		</g>
		<g>
			<path class="st2" d="M1019.5-1128.7l-16.1,32.6c-2.5,5-1.4,11.1,2.6,15l26,25.4c9,8.8,1.5,23.9-10.9,22.2l-36-5.2
				c-5.6-0.8-11,2.1-13.5,7.1L955.5-999c-5.6,11.3-22.3,8.8-24.4-3.6l-6.1-35.8c-0.9-5.5-5.4-9.8-10.9-10.7l-36-5.2
				c-12.4-1.8-15.3-18.5-4.2-24.3l32.2-16.9c5-2.6,7.7-8.1,6.8-13.7l-6.1-35.8c-2.1-12.4,12.9-20.3,21.9-11.5l26,25.4
				c4,3.9,10.1,4.8,15.1,2.2l32.2-16.9C1012.9-1151.8,1025-1140,1019.5-1128.7z"/>
		</g>
		<g>
			<path class="st2" d="M1006.1-815.1l-32.6-16.1c-5-2.5-11.1-1.5-15,2.6l-25.4,26c-8.8,9-23.9,1.5-22.1-10.9l5.2-36
				c0.8-5.6-2.1-11-7.1-13.5l-32.6-16.1c-11.3-5.6-8.9-22.3,3.6-24.4l35.8-6.2c5.5-1,9.8-5.4,10.6-10.9l5.2-36
				c1.8-12.4,18.5-15.3,24.3-4.2l16.9,32.2c2.6,5,8.1,7.7,13.7,6.8l35.8-6.2c12.4-2.1,20.3,12.8,11.5,21.9l-25.4,26
				c-3.9,4-4.8,10.1-2.2,15.1l16.9,32.2C1029.2-821.7,1017.3-809.6,1006.1-815.1z"/>
		</g>
	</g>
	<circle class="st2" cx="856" cy="-978.6" r="31.6"/>
</g>
<g>
	<g>
		<path class="st4" d="M1483.1-892.7c0,38.5,31.2,69.7,69.7,69.7s69.7-31.2,69.7-69.7c0,38.5,31.2,69.7,69.7,69.7
			s69.7-31.2,69.7-69.7"/>
	</g>
	<g>
		<path class="st4" d="M1514.5-1035.5c-33.3,19.2-44.7,61.8-25.5,95.2s61.9,44.7,95.2,25.5c-33.3,19.2-44.7,61.8-25.5,95.2
			s61.9,44.7,95.2,25.5"/>
	</g>
	<g>
		<path class="st4" d="M1653.9-1079.6c-33.3-19.2-75.9-7.8-95.2,25.5c-19.2,33.3-7.8,75.9,25.5,95.2c-33.3-19.2-75.9-7.8-95.2,25.5
			c-19.2,33.3-7.8,75.9,25.5,95.2"/>
	</g>
	<g>
		<path class="st4" d="M1761.8-981c0-38.5-31.2-69.7-69.7-69.7s-69.7,31.2-69.7,69.7c0-38.5-31.2-69.7-69.7-69.7
			s-69.7,31.2-69.7,69.7"/>
	</g>
	<g>
		<path class="st4" d="M1730.4-838.3c33.3-19.2,44.7-61.8,25.5-95.2c-19.2-33.3-61.9-44.7-95.2-25.5c33.3-19.2,44.7-61.8,25.5-95.2
			c-19.2-33.3-61.9-44.7-95.2-25.5"/>
	</g>
	<g>
		<path class="st4" d="M1591-794.1c33.3,19.2,75.9,7.8,95.2-25.5c19.3-33.3,7.8-75.9-25.5-95.2c33.3,19.2,75.9,7.8,95.2-25.5
			c19.2-33.3,7.8-75.9-25.5-95.2"/>
	</g>
</g>
<image style="overflow:visible;enable-background:new    ;" width="737" height="1105" xlink:href="FAF98B52.jpeg"  transform="matrix(0.9986 0 0 0.9986 -2549.2129 -3771.6831)">
</image>
<image style="overflow:visible;enable-background:new    ;" width="562" height="317" xlink:href="FAF98B56.jpeg"  transform="matrix(0.9987 0 0 0.9987 -3906.0613 -764.7715)">
</image>
<image style="overflow:visible;enable-background:new    ;" width="562" height="317" xlink:href="FAF98B56.jpeg"  transform="matrix(0.9981 0 0 0.9981 -3309.4465 -660.759)">
</image>
<image style="overflow:visible;enable-background:new    ;" width="737" height="1105" xlink:href="FAF98B52.jpeg"  transform="matrix(0.6005 0 0 0.6005 534.3831 -348.6813)">
</image>
<g>
	<g>
		<path class="st5" d="M-1726.8-1756.1v-128.6c0-6.2-3.9-11.7-9.7-13.8c-15.8-5.8-33.2-5.8-49,0c-5.8,2.1-9.7,7.6-9.7,13.8v128.6
			c0,8.1,6.6,14.7,14.7,14.7h39.1C-1733.4-1741.4-1726.8-1748-1726.8-1756.1z"/>
		<path class="st5" d="M-1809.9-1838c3.8-14.8,3.8-30.3,0-45.1c-1.7-6.5-7.5-11.1-14.2-11.1h-131.5c-6.7,0-12.6,4.6-14.2,11.1
			c-3.8,14.8-3.8,30.3,0,45.1c1.7,6.5,7.5,11.1,14.2,11.1h131.5C-1817.5-1826.9-1811.6-1831.5-1809.9-1838z"/>
		<path class="st5" d="M-1809.9-1752.4c3.8-14.8,3.8-30.3,0-45.1c-1.7-6.5-7.5-11.1-14.2-11.1h-131.5c-6.7,0-12.6,4.6-14.2,11.1
			c-3.8,14.8-3.8,30.3,0,45.1c1.7,6.5,7.5,11.1,14.2,11.1h131.5C-1817.5-1741.4-1811.6-1745.9-1809.9-1752.4z"/>
		<path class="st5" d="M-1970.7-1664.3c-5.8-15.8-5.8-33.2,0-49.1c2.1-5.8,7.6-9.7,13.8-9.7h220.7c6.2,0,11.7,3.9,13.8,9.7
			c5.8,15.8,5.8,33.2,0,49.1c-2.1,5.8-7.6,9.7-13.8,9.7h-220.7C-1963.1-1654.6-1968.6-1658.5-1970.7-1664.3z"/>
	</g>
</g>
<rect x="-2025.6" y="-1409.9" class="st0" width="1957.9" height="1124.1"/>
<path class="st6" d="M-1207.4-952.8c-8.2,4.7-17.5,7-26.9,6.7c-2.9-0.1-5.5-2.2-6.2-5.1l-18.1-73c-0.7-2.9,0.5-5.9,3.1-7.3
	c8.2-4.7,17.5-7,26.9-6.7c2.9,0.1,5.5,2.2,6.2,5.1l18.1,73C-1203.6-957.3-1204.9-954.3-1207.4-952.8z"/>
<path class="st6" d="M-1181-953.5c-2.6-9.1-2.6-18.7,0-27.7c0.8-2.8,3.4-4.8,6.4-4.8h75.2c2.9,0,5.6,1.9,6.4,4.8
	c2.6,9.1,2.6,18.7,0,27.7c-0.8,2.8-3.4,4.8-6.4,4.8h-75.2C-1177.6-948.7-1180.2-950.7-1181-953.5z"/>
<path class="st6" d="M-1204.2-1005.8c-2.6-9.1-2.6-18.7,0-27.7c0.8-2.8,3.4-4.8,6.4-4.8h75.2c2.9,0,5.6,1.9,6.4,4.8
	c2.6,9.1,2.6,18.7,0,27.7c-0.8,2.8-3.4,4.8-6.4,4.8h-75.2C-1200.8-1001-1203.4-1002.9-1204.2-1005.8z"/>
<path class="st6" d="M-1109.9-898.3c4.2-9.4,4.6-20,1.1-29.7c-0.9-2.5-3.3-4.2-6-4.3l-124.3-4.7c-2.7-0.1-5.2,1.4-6.3,3.9
	c-4.2,9.4-4.6,20-1.1,29.7c0.9,2.5,3.3,4.2,6,4.3l124.3,4.7C-1113.5-894.4-1111-895.9-1109.9-898.3z"/>
<path class="st6" d="M-662.4-1162.2c-9.7,6.2-20.9,9.5-32.3,9.6c-3.6,0-6.8-2.4-7.8-5.8l-26-87.7c-1-3.4,0.3-7.2,3.3-9.1
	c9.7-6.2,20.9-9.5,32.3-9.6c3.6,0,6.8,2.4,7.8,5.8l26,87.7C-658.1-1167.9-659.4-1164.1-662.4-1162.2z"/>
<path class="st6" d="M-432.1-1161.6c-3.2-11-3.2-22.7,0-33.7c1-3.4,4.2-5.8,7.8-5.8h91.4c3.6,0,6.8,2.4,7.8,5.8
	c3.2,11,3.2,22.7,0,33.7c-1,3.4-4.2,5.8-7.8,5.8h-91.5C-427.9-1155.8-431.1-1158.2-432.1-1161.6z"/>
<path class="st6" d="M-500.2-1098c-3.2-11-3.2-22.7,0-33.7c1-3.4,4.2-5.8,7.8-5.8h136.6c3.6,0,6.8,2.4,7.8,5.8
	c3.2,11,3.2,22.7,0,33.7c-1,3.4-4.2,5.8-7.8,5.8h-136.6C-496-1092.2-499.2-1094.6-500.2-1098z"/>
<path class="st6" d="M-459.6-1156c-10,5.6-21.4,8.2-32.8,7.6c-3.6-0.2-6.6-2.8-7.4-6.3l-30.8-133.1c-0.8-3.5,0.8-7.1,3.9-8.9
	c10-5.6,21.4-8.2,32.8-7.6c3.6,0.2,6.6,2.8,7.4,6.3l30.8,133.1C-454.9-1161.4-456.5-1157.8-459.6-1156z"/>
<path class="st6" d="M-455-1225.2c-3.2-11-3.2-22.7,0-33.7c1-3.4,4.2-5.8,7.8-5.8h91.5c3.6,0,6.8,2.4,7.8,5.8
	c3.2,11,3.2,22.7,0,33.7c-1,3.4-4.2,5.8-7.8,5.8h-91.5C-450.9-1219.4-454-1221.7-455-1225.2z"/>
<g>
	<path class="st6" d="M-1906.5-561.9l-40.7-126.8c-1.5-4.6,0-9.7,3.7-12.8c14.2-11.9,32.5-17.8,51-16.4c4.8,0.4,9,3.7,10.5,8.3
		l40.7,126.8c2,6.3-1.5,13.1-7.8,15.1l-42.3,13.6C-1897.7-552.1-1904.5-555.6-1906.5-561.9z"/>
	<path class="st6" d="M-1843-658.1c-4.7-16.3-4.7-33.7,0-50c1.5-5.1,6.2-8.6,11.5-8.6h135.6c5.3,0,10,3.5,11.5,8.6
		c4.7,16.3,4.7,33.7,0,50c-1.5,5.1-6.2,8.6-11.5,8.6h-135.6C-1836.8-649.5-1841.5-653-1843-658.1z"/>
	<path class="st6" d="M-1802.8-572.6c-4.7-16.3-4.7-33.7,0-50c1.5-5.1,6.2-8.6,11.5-8.6h135.6c5.3,0,10,3.5,11.5,8.6
		c4.7,16.3,4.7,33.7,0,50c-1.5,5.1-6.2,8.6-11.5,8.6h-135.6C-1796.6-564-1801.3-567.5-1802.8-572.6z"/>
	<path class="st6" d="M-1674.5-473.1c7.6-16.9,8.4-36.1,2-53.5c-1.7-4.6-6-7.7-10.8-7.8l-224.2-8.5c-4.9-0.2-9.4,2.6-11.4,7
		c-7.6,16.9-8.3,36.1-2,53.5c1.7,4.6,6,7.7,10.8,7.8l224.2,8.5C-1681-465.9-1676.5-468.7-1674.5-473.1z"/>
</g>
<g>
	<path class="st2" d="M-1057.7-978.6h13.1v6.3h-21.1v-39.7h8V-978.6L-1057.7-978.6z"/>
	<path class="st2" d="M-1010.4-985.7h-23.1c0.2,2.3,1,4.1,2.4,5.3c1.4,1.3,3.1,1.9,5.2,1.9c3,0,5.1-1.3,6.3-3.8h8.6
		c-0.9,3-2.7,5.5-5.2,7.5c-2.6,1.9-5.8,2.9-9.5,2.9c-3,0-5.8-0.7-8.2-2s-4.3-3.2-5.6-5.7c-1.3-2.5-2-5.3-2-8.5c0-3.3,0.7-6.1,2-8.6
		c1.3-2.5,3.2-4.4,5.6-5.7c2.4-1.3,5.1-2,8.3-2c3,0,5.7,0.7,8.1,1.9c2.4,1.3,4.2,3.1,5.5,5.5s2,5.1,2,8.2
		C-1010.2-987.6-1010.2-986.6-1010.4-985.7z M-1018.4-991.1c0-2.1-0.8-3.7-2.2-4.9c-1.4-1.2-3.2-1.8-5.3-1.8c-2,0-3.6,0.6-5,1.8
		c-1.4,1.2-2.2,2.9-2.5,5L-1018.4-991.1L-1018.4-991.1z"/>
	<path class="st2" d="M-1004.5-996.7c1.3-2.5,3-4.4,5.2-5.7c2.2-1.3,4.6-2,7.3-2c2.4,0,4.4,0.5,6.2,1.4c1.8,0.9,3.2,2.1,4.2,3.6
		v-4.5h8v31.5h-8v-4.6c-1,1.5-2.4,2.7-4.2,3.7c-1.8,1-3.9,1.4-6.2,1.4c-2.7,0-5.1-0.7-7.3-2.1c-2.2-1.4-3.9-3.3-5.2-5.8
		c-1.3-2.5-1.9-5.3-1.9-8.6C-1006.4-991.4-1005.8-994.2-1004.5-996.7z M-982.7-993.1c-0.8-1.4-1.8-2.4-3.1-3.2
		c-1.3-0.8-2.7-1.1-4.2-1.1s-2.9,0.4-4.1,1.1s-2.3,1.8-3,3.2s-1.2,3-1.2,4.9s0.4,3.6,1.2,5s1.8,2.5,3.1,3.3c1.3,0.8,2.6,1.1,4.1,1.1
		s2.9-0.4,4.2-1.1s2.3-1.8,3.1-3.2c0.8-1.4,1.1-3.1,1.1-5C-981.6-990-982-991.7-982.7-993.1z"/>
	<path class="st2" d="M-953.8-1002.9c1.6-0.9,3.5-1.4,5.7-1.4v8.4h-2.1c-2.5,0-4.4,0.6-5.7,1.8s-1.9,3.2-1.9,6.2v15.7h-8v-31.5h8
		v4.9C-956.8-1000.6-955.4-1001.9-953.8-1002.9z"/>
	<path class="st2" d="M-916.2-1000.8c2.3,2.4,3.5,5.7,3.5,9.9v18.5h-8v-17.4c0-2.5-0.6-4.4-1.9-5.8c-1.3-1.4-3-2-5.1-2
		c-2.2,0-3.9,0.7-5.2,2s-1.9,3.3-1.9,5.8v17.4h-8v-31.5h8v3.9c1.1-1.4,2.4-2.4,4.1-3.2s3.5-1.2,5.4-1.2
		C-921.5-1004.3-918.5-1003.1-916.2-1000.8z"/>
	<path class="st2" d="M-904.6-1009c-0.9-0.9-1.4-2-1.4-3.3s0.5-2.4,1.4-3.3s2.1-1.3,3.5-1.3s2.6,0.4,3.5,1.3s1.4,2,1.4,3.3
		s-0.5,2.4-1.4,3.3s-2.1,1.3-3.5,1.3C-902.5-1007.6-903.7-1008.1-904.6-1009z M-897.1-1003.9v31.5h-8v-31.5H-897.1z"/>
	<path class="st2" d="M-874.8-997.3h-5.5v25h-8.1v-25h-3.6v-6.6h3.6v-1.6c0-3.9,1.1-6.7,3.3-8.5s5.5-2.7,10-2.6v6.7
		c-1.9,0-3.3,0.3-4,1c-0.8,0.7-1.1,1.9-1.1,3.7v1.3h5.5L-874.8-997.3L-874.8-997.3z"/>
	<path class="st2" d="M-839.5-1003.9l-19.5,46.5h-8.5l6.8-15.7l-12.6-30.8h8.9l8.1,22l8.3-22H-839.5z"/>
	<path class="st2" d="M-1041.3-926.5h-15.8l-2.6,7.6h-8.4l14.3-39.8h9.3l14.3,39.8h-8.4L-1041.3-926.5z M-1043.4-932.9l-5.8-16.6
		l-5.7,16.6H-1043.4z"/>
	<path class="st2" d="M-1024.9-943.2c1.3-2.4,3.2-4.3,5.5-5.7c2.4-1.3,5-2,8.1-2c3.9,0,7.1,1,9.7,2.9c2.6,2,4.3,4.7,5.1,8.2h-8.6
		c-0.5-1.4-1.2-2.4-2.3-3.2c-1.1-0.8-2.4-1.2-4-1.2c-2.3,0-4.1,0.8-5.4,2.5s-2,4-2,7s0.7,5.3,2,7s3.1,2.5,5.4,2.5
		c3.2,0,5.3-1.4,6.3-4.3h8.6c-0.9,3.4-2.6,6.1-5.2,8.1s-5.8,3-9.7,3c-3,0-5.7-0.7-8.1-2c-2.4-1.3-4.2-3.2-5.5-5.7
		c-1.3-2.5-2-5.3-2-8.6C-1026.9-938-1026.2-940.8-1024.9-943.2z"/>
	<path class="st2" d="M-990.7-943.3c1.3-2.5,3-4.4,5.2-5.7s4.6-2,7.3-2c2.4,0,4.4,0.5,6.2,1.4c1.8,0.9,3.2,2.1,4.2,3.6v-4.5h8v31.5
		h-8v-4.6c-1,1.5-2.4,2.7-4.2,3.7s-3.9,1.5-6.2,1.5c-2.7,0-5.1-0.7-7.3-2c-2.2-1.4-3.9-3.3-5.2-5.8s-1.9-5.3-1.9-8.6
		C-992.6-938-992-940.8-990.7-943.3z M-968.9-939.7c-0.8-1.4-1.8-2.4-3.1-3.2c-1.3-0.8-2.7-1.1-4.2-1.1s-2.9,0.4-4.1,1.1
		s-2.3,1.8-3,3.2s-1.2,3-1.2,4.9s0.4,3.6,1.2,5c0.8,1.4,1.8,2.5,3.1,3.3c1.3,0.8,2.6,1.1,4.1,1.1s2.9-0.4,4.2-1.1s2.3-1.8,3.1-3.2
		c0.8-1.4,1.1-3.1,1.1-5C-967.8-936.6-968.2-938.3-968.9-939.7z"/>
	<path class="st2" d="M-952.1-943.3c1.3-2.5,3-4.4,5.2-5.7c2.2-1.3,4.6-2,7.3-2c2,0,4,0.4,5.9,1.3c1.9,0.9,3.3,2.1,4.4,3.6v-15h8.1
		v42.1h-8.1v-4.7c-1,1.6-2.4,2.8-4.2,3.8s-3.9,1.4-6.2,1.4c-2.7,0-5.1-0.7-7.3-2c-2.2-1.3-3.9-3.3-5.2-5.8s-1.9-5.3-1.9-8.6
		C-954-938-953.4-940.8-952.1-943.3z M-930.3-939.7c-0.8-1.4-1.8-2.4-3.1-3.2s-2.7-1.1-4.2-1.1s-2.9,0.4-4.1,1.1
		c-1.2,0.7-2.3,1.8-3,3.2c-0.7,1.4-1.2,3-1.2,4.9s0.4,3.6,1.2,5c0.8,1.4,1.8,2.5,3.1,3.3c1.3,0.8,2.6,1.1,4.1,1.1s2.9-0.4,4.2-1.1
		c1.3-0.7,2.3-1.8,3.1-3.2s1.1-3.1,1.1-5C-929.2-936.6-929.6-938.3-930.3-939.7z"/>
	<path class="st2" d="M-884.3-932.3h-23.1c0.2,2.3,1,4.1,2.4,5.3c1.4,1.3,3.1,1.9,5.2,1.9c3,0,5.1-1.3,6.3-3.8h8.6
		c-0.9,3-2.7,5.5-5.2,7.5c-2.6,2-5.8,2.9-9.5,2.9c-3,0-5.8-0.7-8.2-2c-2.4-1.3-4.3-3.2-5.6-5.7c-1.4-2.5-2-5.3-2-8.5
		c0-3.3,0.7-6.1,2-8.6c1.3-2.5,3.2-4.4,5.6-5.7c2.4-1.3,5.1-2,8.3-2c3,0,5.7,0.7,8.1,1.9c2.4,1.3,4.2,3.1,5.5,5.5
		c1.3,2.4,2,5.1,2,8.2C-884-934.2-884.1-933.2-884.3-932.3z M-892.3-937.6c0-2.1-0.8-3.7-2.2-4.9c-1.4-1.2-3.2-1.8-5.3-1.8
		c-2,0-3.6,0.6-5,1.8c-1.4,1.2-2.2,2.9-2.5,5L-892.3-937.6L-892.3-937.6z"/>
	<path class="st2" d="M-829.7-947.3c2.4,2.4,3.6,5.7,3.6,9.9v18.5h-8v-17.4c0-2.5-0.6-4.3-1.9-5.7s-3-2-5.1-2c-2.1,0-3.9,0.7-5.1,2
		c-1.3,1.3-1.9,3.2-1.9,5.7v17.4h-8v-17.4c0-2.5-0.6-4.3-1.9-5.7s-3-2-5.1-2c-2.2,0-3.9,0.7-5.2,2c-1.3,1.3-1.9,3.2-1.9,5.7v17.4h-8
		v-31.5h8v3.8c1-1.3,2.3-2.4,4-3.1c1.6-0.8,3.4-1.1,5.3-1.1c2.5,0,4.7,0.5,6.6,1.6c1.9,1,3.4,2.5,4.5,4.5c1-1.8,2.5-3.3,4.5-4.4
		s4.1-1.7,6.4-1.7C-835.2-950.9-832.1-949.7-829.7-947.3z"/>
	<path class="st2" d="M-788.4-950.5l-19.5,46.5h-8.5l6.8-15.7l-12.6-30.8h8.9l8.1,22l8.3-22H-788.4z"/>
</g>
<g>
	<g>
		<path class="st2" d="M-1142.2-429.5h20.7v10h-33.3v-62.8h12.6V-429.5L-1142.2-429.5z"/>
		<path class="st2" d="M-1067.5-440.7h-36.4c0.3,3.6,1.6,6.4,3.8,8.5c2.2,2,4.9,3.1,8.2,3.1c4.7,0,8-2,10-6h13.6
			c-1.4,4.8-4.2,8.7-8.3,11.8c-4.1,3.1-9.1,4.6-15,4.6c-4.8,0-9.1-1.1-12.9-3.2c-3.8-2.1-6.8-5.1-8.9-9s-3.2-8.4-3.2-13.5
			c0-5.2,1-9.7,3.1-13.6c2.1-3.9,5-6.9,8.8-9c3.8-2.1,8.1-3.1,13.1-3.1c4.7,0,9,1,12.7,3.1c3.7,2,6.7,4.9,8.7,8.7
			c2.1,3.7,3.1,8.1,3.1,12.9C-1067.1-443.8-1067.3-442.1-1067.5-440.7z M-1080.2-449.2c-0.1-3.2-1.2-5.8-3.5-7.8
			c-2.3-1.9-5.1-2.9-8.4-2.9c-3.1,0-5.7,0.9-7.9,2.8c-2.1,1.9-3.4,4.5-3.9,7.9H-1080.2L-1080.2-449.2z"/>
		<path class="st2" d="M-1058.2-458.1c2-3.9,4.7-6.9,8.2-9c3.4-2.1,7.3-3.1,11.6-3.1c3.7,0,7,0.7,9.8,2.2c2.8,1.5,5,3.4,6.7,5.7
			v-7.1h12.7v49.8h-12.7v-7.3c-1.6,2.3-3.9,4.3-6.7,5.8c-2.8,1.5-6.1,2.3-9.8,2.3c-4.2,0-8-1.1-11.5-3.2c-3.4-2.2-6.2-5.2-8.2-9.1
			c-2-3.9-3-8.4-3-13.5C-1061.2-449.7-1060.2-454.2-1058.2-458.1z M-1023.8-452.4c-1.2-2.2-2.8-3.9-4.9-5c-2-1.2-4.2-1.8-6.6-1.8
			c-2.4,0-4.5,0.6-6.5,1.7c-2,1.1-3.6,2.8-4.8,5c-1.2,2.2-1.8,4.8-1.8,7.8s0.6,5.6,1.8,7.9c1.2,2.2,2.8,4,4.9,5.2
			c2,1.2,4.2,1.8,6.4,1.8c2.3,0,4.5-0.6,6.6-1.8c2-1.2,3.7-2.8,4.9-5c1.2-2.2,1.8-4.8,1.8-7.9
			C-1022-447.5-1022.6-450.2-1023.8-452.4z"/>
		<path class="st2" d="M-978-467.9c2.6-1.5,5.6-2.2,8.9-2.2v13.2h-3.3c-4,0-6.9,0.9-8.9,2.8c-2,1.9-3,5.1-3,9.7v24.8h-12.6v-49.8
			h12.6v7.7C-982.7-464.3-980.6-466.4-978-467.9z"/>
		<path class="st2" d="M-918.6-464.5c3.7,3.7,5.5,9,5.5,15.7v29.2h-12.6v-27.5c0-4-1-7-3-9.1s-4.7-3.2-8.1-3.2
			c-3.5,0-6.2,1.1-8.2,3.2c-2,2.1-3,5.2-3,9.1v27.5h-12.6v-49.8h12.6v6.2c1.7-2.2,3.8-3.9,6.4-5.1c2.6-1.2,5.5-1.8,8.6-1.8
			C-927-470.1-922.2-468.3-918.6-464.5z"/>
		<path class="st2" d="M-900.3-477.5c-1.5-1.4-2.2-3.2-2.2-5.3s0.7-3.9,2.2-5.3c1.5-1.4,3.3-2.1,5.5-2.1c2.2,0,4.1,0.7,5.5,2.1
			c1.4,1.4,2.2,3.2,2.2,5.3s-0.7,3.9-2.2,5.3c-1.5,1.4-3.3,2.1-5.5,2.1C-897-475.4-898.8-476.1-900.3-477.5z M-888.5-469.4v49.8
			h-12.6v-49.8H-888.5z"/>
		<path class="st2" d="M-853.3-459.1h-8.7v39.5h-12.8v-39.5h-5.7v-10.4h5.7v-2.5c0-6.1,1.7-10.6,5.2-13.5s8.7-4.2,15.7-4v10.6
			c-3.1-0.1-5.2,0.4-6.4,1.5s-1.8,3-1.8,5.8v2.1h8.7L-853.3-459.1L-853.3-459.1z"/>
		<path class="st2" d="M-797.4-469.4l-30.9,73.4h-13.4l10.8-24.8l-20-48.6h14.1l12.9,34.8l13.1-34.8H-797.4z"/>
	</g>
	<g>
		<path class="st2" d="M-1116.3-351.7h-25l-4.1,12h-13.2l22.6-62.9h14.7l22.6,62.9h-13.3L-1116.3-351.7z M-1119.7-361.8l-9.1-26.3
			l-9.1,26.3H-1119.7z"/>
		<path class="st2" d="M-1090.4-378.2c2.1-3.9,5-6.9,8.7-9c3.7-2.1,8-3.2,12.8-3.2c6.2,0,11.3,1.5,15.3,4.6c4,3.1,6.8,7.4,8.1,13
			h-13.6c-0.7-2.2-1.9-3.9-3.7-5.1c-1.7-1.2-3.8-1.8-6.3-1.8c-3.6,0-6.4,1.3-8.5,3.9c-2.1,2.6-3.1,6.3-3.1,11.1c0,4.7,1,8.4,3.1,11
			c2.1,2.6,4.9,3.9,8.5,3.9c5.1,0,8.4-2.3,10-6.8h13.6c-1.4,5.4-4.1,9.7-8.2,12.9c-4.1,3.2-9.2,4.8-15.3,4.8
			c-4.8,0-9.1-1.1-12.8-3.2s-6.6-5.1-8.7-9c-2.1-3.9-3.1-8.4-3.1-13.5C-1093.6-369.8-1092.5-374.3-1090.4-378.2z"/>
		<path class="st2" d="M-1036.4-378.2c2-3.9,4.7-6.9,8.2-9c3.4-2.1,7.3-3.1,11.6-3.1c3.7,0,7,0.7,9.8,2.2c2.8,1.5,5,3.4,6.7,5.7
			v-7.1h12.7v49.8h-12.7v-7.3c-1.6,2.3-3.9,4.3-6.7,5.8c-2.8,1.5-6.1,2.3-9.8,2.3c-4.2,0-8-1.1-11.5-3.2c-3.4-2.2-6.2-5.2-8.2-9.1
			s-3-8.4-3-13.5C-1039.4-369.9-1038.4-374.3-1036.4-378.2z M-1002-372.5c-1.2-2.2-2.8-3.9-4.9-5c-2-1.2-4.2-1.8-6.6-1.8
			c-2.3,0-4.5,0.6-6.5,1.7s-3.6,2.8-4.8,5c-1.2,2.2-1.8,4.8-1.8,7.8s0.6,5.6,1.8,7.9c1.2,2.2,2.8,4,4.9,5.2c2,1.2,4.2,1.8,6.4,1.8
			c2.3,0,4.5-0.6,6.6-1.8c2-1.2,3.7-2.8,4.9-5c1.2-2.2,1.8-4.8,1.8-7.9C-1000.2-367.7-1000.8-370.3-1002-372.5z"/>
		<path class="st2" d="M-975.4-378.2c2-3.9,4.8-6.9,8.2-9c3.5-2.1,7.3-3.1,11.6-3.1c3.2,0,6.3,0.7,9.3,2.1c2.9,1.4,5.3,3.3,7,5.6
			v-23.7h12.8v66.6h-12.8v-7.4c-1.6,2.5-3.7,4.4-6.6,5.9c-2.8,1.5-6.1,2.2-9.8,2.2c-4.2,0-8-1.1-11.5-3.2c-3.5-2.2-6.2-5.2-8.2-9.1
			s-3-8.4-3-13.5S-977.4-374.3-975.4-378.2z M-941-372.5c-1.2-2.2-2.8-3.9-4.9-5c-2-1.2-4.2-1.8-6.6-1.8c-2.3,0-4.5,0.6-6.5,1.7
			s-3.6,2.8-4.8,5c-1.2,2.2-1.8,4.8-1.8,7.8s0.6,5.6,1.8,7.9c1.2,2.2,2.8,4,4.9,5.2c2,1.2,4.2,1.8,6.4,1.8c2.3,0,4.5-0.6,6.6-1.8
			c2-1.2,3.7-2.8,4.9-5c1.2-2.2,1.8-4.8,1.8-7.9C-939.2-367.7-939.8-370.3-941-372.5z"/>
		<path class="st2" d="M-868.2-360.9h-36.4c0.3,3.6,1.6,6.4,3.8,8.5c2.2,2,4.9,3.1,8.2,3.1c4.7,0,8-2,10-6h13.6
			c-1.4,4.8-4.2,8.7-8.3,11.8c-4.1,3.1-9.1,4.6-15,4.6c-4.8,0-9.1-1.1-12.9-3.2c-3.8-2.1-6.8-5.1-8.9-9s-3.2-8.4-3.2-13.5
			c0-5.2,1-9.7,3.1-13.6c2.1-3.9,5-6.9,8.8-9c3.8-2.1,8.1-3.1,13.1-3.1c4.7,0,9,1,12.7,3.1c3.7,2,6.7,4.9,8.7,8.7
			c2.1,3.7,3.1,8.1,3.1,12.9C-867.8-363.9-868-362.3-868.2-360.9z M-880.9-369.3c-0.1-3.2-1.2-5.8-3.5-7.8c-2.3-1.9-5.1-2.9-8.4-2.9
			c-3.1,0-5.7,0.9-7.9,2.8c-2.1,1.9-3.4,4.5-3.9,7.9H-880.9L-880.9-369.3z"/>
		<path class="st2" d="M-782-384.7c3.7,3.7,5.6,9,5.6,15.7v29.2h-12.5v-27.5c0-3.9-1-6.9-3-8.9c-2-2.1-4.7-3.1-8.1-3.1
			c-3.4,0-6.1,1-8.1,3.1s-3,5.1-3,8.9v27.5h-12.6v-27.5c0-3.9-1-6.9-3-8.9c-2-2.1-4.7-3.1-8.1-3.1c-3.5,0-6.2,1-8.2,3.1
			s-3,5.1-3,8.9v27.5h-12.6v-49.8h12.6v6c1.6-2.1,3.7-3.7,6.3-4.9c2.5-1.2,5.4-1.8,8.4-1.8c3.9,0,7.4,0.8,10.4,2.5
			c3.1,1.6,5.4,4,7.1,7.1c1.6-2.9,4-5.2,7.1-6.9c3.1-1.7,6.4-2.6,10-2.6C-790.6-390.3-785.7-388.4-782-384.7z"/>
		<path class="st2" d="M-716.7-389.6l-30.9,73.4h-13.3l10.8-24.8l-20-48.6h14.1l12.9,34.8l13.1-34.8H-716.7z"/>
	</g>
</g>
<g>
	<g>
		<path class="st2" d="M-1842.7,3085.9l40.7-126.8c1.5-4.6,0-9.7-3.7-12.8c-14.2-11.9-32.5-17.8-51-16.4c-4.8,0.4-9,3.7-10.5,8.3
			l-40.7,126.8c-2,6.3,1.5,13.1,7.8,15.1l42.3,13.6C-1851.4,3095.7-1844.7,3092.2-1842.7,3085.9z"/>
		<path class="st2" d="M-1904.6,2996.6c4.7-16.3,4.7-33.7,0-50c-1.5-5.1-6.2-8.6-11.5-8.6h-135.7c-5.3,0-10,3.5-11.5,8.6
			c-4.7,16.3-4.7,33.7,0,50c1.5,5.1,6.2,8.6,11.5,8.6h135.7C-1910.8,3005.2-1906.1,3001.7-1904.6,2996.6z"/>
		<path class="st2" d="M-1962.6,3082.1c4.7-16.3,4.7-33.7,0-50c-1.5-5.1-6.2-8.6-11.5-8.6h-135.7c-5.3,0-10,3.5-11.5,8.6
			c-4.7,16.3-4.7,33.7,0,50c1.5,5.1,6.2,8.6,11.5,8.6h135.7C-1968.8,3090.7-1964.1,3087.2-1962.6,3082.1z"/>
		<path class="st2" d="M-2092.1,3170.1c-7-17.2-7-36.4,0-53.6c1.8-4.5,6.2-7.4,11.1-7.4h224.4c4.9,0,9.3,2.9,11.1,7.4
			c7,17.2,7,36.4,0,53.6c-1.8,4.5-6.2,7.4-11.1,7.4h-224.3C-2085.8,3177.5-2090.2,3174.6-2092.1,3170.1z"/>
	</g>
	<g>
		<path class="st2" d="M-1741.1,3029.9h23.6v11.4h-38v-71.7h14.4V3029.9z"/>
		<path class="st2" d="M-1655.8,3017.1h-41.6c0.3,4.1,1.8,7.3,4.3,9.6s5.6,3.5,9.4,3.5c5.3,0,9.1-2.3,11.4-6.9h15.5
			c-1.6,5.5-4.8,10-9.5,13.5s-10.4,5.3-17.1,5.3c-5.5,0-10.4-1.2-14.7-3.6c-4.4-2.4-7.7-5.9-10.2-10.3c-2.4-4.4-3.6-9.6-3.6-15.4
			c0-5.9,1.2-11.1,3.6-15.5c2.4-4.4,5.8-7.9,10.1-10.3s9.3-3.6,14.9-3.6c5.4,0,10.2,1.2,14.5,3.5c4.3,2.3,7.6,5.6,10,9.9
			c2.4,4.3,3.5,9.2,3.5,14.7C-1655.4,3013.6-1655.6,3015.5-1655.8,3017.1z M-1670.3,3007.5c-0.1-3.7-1.4-6.7-4-8.9
			c-2.6-2.2-5.8-3.3-9.5-3.3c-3.6,0-6.6,1.1-9,3.2c-2.4,2.1-3.9,5.1-4.5,9H-1670.3L-1670.3,3007.5z"/>
		<path class="st2" d="M-1645.2,2997.3c2.3-4.4,5.4-7.9,9.4-10.3s8.3-3.6,13.2-3.6c4.2,0,8,0.9,11.1,2.6c3.2,1.7,5.7,3.9,7.6,6.5
			v-8.1h14.5v56.9h-14.5v-8.3c-1.9,2.7-4.4,4.9-7.6,6.6c-3.2,1.8-7,2.6-11.2,2.6c-4.8,0-9.2-1.2-13.1-3.7s-7-5.9-9.4-10.4
			c-2.3-4.5-3.4-9.6-3.4-15.5C-1648.7,3006.9-1647.5,3001.8-1645.2,2997.3z M-1605.9,3003.8c-1.4-2.5-3.2-4.4-5.5-5.8s-4.8-2-7.5-2
			s-5.1,0.6-7.4,1.9c-2.3,1.3-4.1,3.2-5.5,5.7c-1.4,2.5-2.1,5.5-2.1,8.9s0.7,6.4,2.1,9c1.4,2.6,3.2,4.5,5.5,5.9
			c2.3,1.4,4.7,2.1,7.3,2.1c2.7,0,5.2-0.7,7.5-2c2.3-1.3,4.2-3.2,5.5-5.8c1.4-2.5,2-5.5,2-9
			C-1603.9,3009.3-1604.6,3006.3-1605.9,3003.8z"/>
		<path class="st2" d="M-1553.7,2986.1c3-1.7,6.4-2.6,10.2-2.6v15.1h-3.8c-4.5,0-7.9,1.1-10.2,3.2c-2.3,2.1-3.4,5.8-3.4,11.1v28.3
			h-14.4v-56.9h14.4v8.8C-1559.1,2990.2-1556.7,2987.8-1553.7,2986.1z"/>
		<path class="st2" d="M-1485.9,2990c4.2,4.3,6.3,10.2,6.3,17.9v33.4h-14.4v-31.4c0-4.5-1.1-8-3.4-10.4c-2.3-2.4-5.3-3.6-9.2-3.6
			c-4,0-7.1,1.2-9.4,3.6c-2.3,2.4-3.4,5.9-3.4,10.4v31.4h-14.4v-56.9h14.4v7.1c1.9-2.5,4.4-4.4,7.3-5.8c3-1.4,6.2-2.1,9.8-2.1
			C-1495.5,2983.5-1490,2985.7-1485.9,2990z"/>
		<path class="st2" d="M-1465,2975.2c-1.7-1.6-2.5-3.6-2.5-6s0.8-4.4,2.5-6c1.7-1.6,3.8-2.4,6.3-2.4s4.6,0.8,6.3,2.4
			c1.7,1.6,2.5,3.6,2.5,6s-0.8,4.4-2.5,6s-3.8,2.4-6.3,2.4S-1463.3,2976.8-1465,2975.2z M-1451.6,2984.4v56.9h-14.4v-56.9H-1451.6z"
			/>
		<path class="st2" d="M-1411.3,2996.2h-10v45.1h-14.6v-45.1h-6.5v-11.8h6.5v-2.9c0-7,2-12.1,6-15.4c4-3.3,10-4.8,18-4.6v12.1
			c-3.5-0.1-5.9,0.5-7.3,1.8c-1.4,1.2-2.1,3.5-2.1,6.7v2.4h10V2996.2L-1411.3,2996.2z"/>
		<path class="st2" d="M-1347.5,2984.4l-35.2,83.8h-15.3l12.3-28.3l-22.8-55.5h16.1l14.7,39.7l14.9-39.7H-1347.5z"/>
		<path class="st2" d="M-1711.5,3123.9h-28.5l-4.7,13.7h-15.2l25.8-71.8h16.7l25.8,71.8h-15.2L-1711.5,3123.9z M-1715.4,3112.4
			l-10.4-30l-10.4,30H-1715.4z"/>
		<path class="st2" d="M-1682,3093.7c2.4-4.4,5.7-7.8,10-10.3c4.3-2.5,9.1-3.6,14.6-3.6c7,0,12.9,1.8,17.5,5.3s7.7,8.5,9.3,14.8
			h-15.5c-0.8-2.5-2.2-4.4-4.2-5.8c-2-1.4-4.4-2.1-7.2-2.1c-4.1,0-7.4,1.5-9.8,4.5s-3.6,7.2-3.6,12.7c0,5.4,1.2,9.6,3.6,12.6
			s5.6,4.5,9.8,4.5c5.8,0,9.6-2.6,11.4-7.8h15.5c-1.6,6.2-4.7,11.1-9.4,14.7c-4.7,3.6-10.5,5.4-17.5,5.4c-5.5,0-10.3-1.2-14.6-3.6
			c-4.2-2.4-7.6-5.9-10-10.3c-2.4-4.4-3.6-9.6-3.6-15.5C-1685.6,3103.3-1684.4,3098.1-1682,3093.7z"/>
		<path class="st2" d="M-1620.4,3093.6c2.3-4.4,5.4-7.9,9.4-10.3s8.3-3.6,13.2-3.6c4.2,0,8,0.9,11.1,2.6c3.2,1.7,5.7,3.9,7.6,6.5
			v-8.1h14.5v56.9h-14.5v-8.3c-1.9,2.7-4.4,4.9-7.6,6.6c-3.2,1.8-7,2.6-11.2,2.6c-4.8,0-9.2-1.2-13.1-3.7c-3.9-2.5-7-5.9-9.4-10.4
			c-2.3-4.5-3.4-9.6-3.4-15.5C-1623.8,3103.2-1622.7,3098.1-1620.4,3093.6z M-1581.1,3100.2c-1.4-2.5-3.2-4.4-5.5-5.8
			c-2.3-1.4-4.8-2-7.5-2c-2.7,0-5.1,0.6-7.4,1.9c-2.3,1.3-4.1,3.2-5.5,5.7c-1.4,2.5-2.1,5.5-2.1,8.9s0.7,6.4,2.1,9
			c1.4,2.6,3.2,4.5,5.5,5.9c2.3,1.4,4.7,2.1,7.3,2.1c2.7,0,5.2-0.7,7.5-2c2.3-1.3,4.2-3.2,5.5-5.8c1.4-2.5,2-5.5,2-9
			C-1579,3105.7-1579.7,3102.7-1581.1,3100.2z"/>
		<path class="st2" d="M-1550.7,3093.6c2.3-4.4,5.4-7.9,9.4-10.3s8.4-3.6,13.2-3.6c3.7,0,7.2,0.8,10.6,2.4c3.4,1.6,6,3.8,8,6.4v-27
			h14.6v76h-14.6v-8.4c-1.8,2.8-4.3,5.1-7.5,6.8c-3.2,1.7-6.9,2.6-11.2,2.6c-4.8,0-9.2-1.2-13.1-3.7c-4-2.5-7.1-5.9-9.4-10.4
			c-2.3-4.5-3.4-9.6-3.4-15.5C-1554.2,3103.2-1553,3098.1-1550.7,3093.6z M-1511.4,3100.2c-1.4-2.5-3.2-4.4-5.6-5.8s-4.8-2-7.5-2
			c-2.7,0-5.1,0.6-7.4,1.9s-4.1,3.2-5.5,5.7s-2.1,5.5-2.1,8.9s0.7,6.4,2.1,9s3.2,4.5,5.6,5.9c2.3,1.4,4.7,2.1,7.3,2.1
			c2.7,0,5.2-0.7,7.5-2s4.2-3.2,5.6-5.8c1.4-2.5,2.1-5.5,2.1-9C-1509.4,3105.7-1510.1,3102.7-1511.4,3100.2z"/>
		<path class="st2" d="M-1428.4,3113.5h-41.6c0.3,4.1,1.8,7.3,4.3,9.6s5.6,3.5,9.4,3.5c5.3,0,9.1-2.3,11.4-6.9h15.5
			c-1.6,5.5-4.8,10-9.5,13.5c-4.7,3.5-10.4,5.3-17.1,5.3c-5.5,0-10.4-1.2-14.7-3.6c-4.4-2.4-7.7-5.9-10.2-10.3s-3.6-9.6-3.6-15.4
			c0-5.9,1.2-11.1,3.6-15.5s5.8-7.9,10.1-10.3s9.3-3.6,14.9-3.6c5.4,0,10.2,1.2,14.5,3.5c4.3,2.3,7.6,5.6,10,9.9s3.5,9.2,3.5,14.7
			C-1428,3110-1428.1,3111.8-1428.4,3113.5z M-1442.8,3103.8c-0.1-3.7-1.4-6.7-4-8.9c-2.6-2.2-5.8-3.3-9.6-3.3c-3.6,0-6.6,1.1-9,3.2
			c-2.4,2.2-3.9,5.1-4.5,9H-1442.8L-1442.8,3103.8z"/>
		<path class="st2" d="M-1329.9,3086.3c4.3,4.3,6.4,10.2,6.4,17.9v33.4h-14.4v-31.4c0-4.4-1.1-7.9-3.4-10.2
			c-2.3-2.4-5.3-3.5-9.2-3.5s-7,1.2-9.3,3.5c-2.3,2.3-3.4,5.8-3.4,10.2v31.4h-14.4v-31.4c0-4.4-1.1-7.9-3.4-10.2
			c-2.3-2.4-5.3-3.5-9.2-3.5c-4,0-7.1,1.2-9.4,3.5c-2.3,2.4-3.4,5.8-3.4,10.2v31.4h-14.4v-56.9h14.4v6.9c1.8-2.4,4.2-4.3,7.1-5.6
			c2.9-1.4,6.1-2.1,9.6-2.1c4.4,0,8.4,0.9,11.9,2.8c3.5,1.9,6.2,4.6,8.1,8.1c1.8-3.3,4.5-5.9,8.1-7.9c3.5-2,7.3-3,11.5-3
			C-1339.8,3079.9-1334.2,3082-1329.9,3086.3z"/>
		<path class="st2" d="M-1255.4,3080.7l-35.2,83.8h-15.4l12.3-28.3l-22.8-55.5h16.2l14.7,39.7l14.9-39.7H-1255.4z"/>
	</g>
</g>
<g>
	<g>
		<path class="st0" d="M-1842.7,2739.1l40.7-126.8c1.5-4.6,0-9.7-3.7-12.8c-14.2-11.9-32.5-17.8-51-16.4c-4.8,0.4-9,3.7-10.5,8.3
			l-40.7,126.8c-2,6.3,1.5,13.1,7.8,15.1l42.3,13.6C-1851.4,2748.9-1844.7,2745.4-1842.7,2739.1z"/>
		<path class="st0" d="M-1904.6,2649.8c4.7-16.3,4.7-33.7,0-50c-1.5-5.1-6.2-8.6-11.5-8.6h-135.7c-5.3,0-10,3.5-11.5,8.6
			c-4.7,16.3-4.7,33.7,0,50c1.5,5.1,6.2,8.6,11.5,8.6h135.7C-1910.8,2658.4-1906.1,2654.9-1904.6,2649.8z"/>
		<path class="st0" d="M-1962.6,2735.3c4.7-16.3,4.7-33.7,0-50c-1.5-5.1-6.2-8.6-11.5-8.6h-135.7c-5.3,0-10,3.5-11.5,8.6
			c-4.7,16.3-4.7,33.7,0,50c1.5,5.1,6.2,8.6,11.5,8.6h135.7C-1968.8,2743.9-1964.1,2740.4-1962.6,2735.3z"/>
		<path class="st0" d="M-2092.1,2823.2c-7-17.2-7-36.4,0-53.6c1.8-4.5,6.2-7.4,11.1-7.4h224.4c4.9,0,9.3,2.9,11.1,7.4
			c7,17.2,7,36.4,0,53.6c-1.8,4.5-6.2,7.4-11.1,7.4h-224.3C-2085.8,2830.7-2090.2,2827.7-2092.1,2823.2z"/>
	</g>
	<g>
		<path class="st0" d="M-1741.1,2683h23.6v11.4h-38v-71.7h14.4V2683z"/>
		<path class="st0" d="M-1655.8,2670.3h-41.6c0.3,4.1,1.8,7.3,4.3,9.6s5.6,3.5,9.4,3.5c5.3,0,9.1-2.3,11.4-6.9h15.5
			c-1.6,5.5-4.8,10-9.5,13.5s-10.4,5.3-17.1,5.3c-5.5,0-10.4-1.2-14.7-3.6c-4.4-2.4-7.7-5.9-10.2-10.3c-2.4-4.4-3.6-9.6-3.6-15.4
			c0-5.9,1.2-11.1,3.6-15.5c2.4-4.4,5.8-7.9,10.1-10.3s9.3-3.6,14.9-3.6c5.4,0,10.2,1.2,14.5,3.5c4.3,2.3,7.6,5.6,10,9.9
			c2.4,4.3,3.5,9.2,3.5,14.7C-1655.4,2666.8-1655.6,2668.6-1655.8,2670.3z M-1670.3,2660.6c-0.1-3.7-1.4-6.7-4-8.9
			c-2.6-2.2-5.8-3.3-9.5-3.3c-3.6,0-6.6,1.1-9,3.2c-2.4,2.1-3.9,5.1-4.5,9H-1670.3L-1670.3,2660.6z"/>
		<path class="st0" d="M-1645.2,2650.5c2.3-4.4,5.4-7.9,9.4-10.3s8.3-3.6,13.2-3.6c4.2,0,8,0.9,11.1,2.6c3.2,1.7,5.7,3.9,7.6,6.5
			v-8.1h14.5v56.9h-14.5v-8.3c-1.9,2.7-4.4,4.9-7.6,6.6c-3.2,1.8-7,2.6-11.2,2.6c-4.8,0-9.2-1.2-13.1-3.7s-7-5.9-9.4-10.4
			c-2.3-4.5-3.4-9.6-3.4-15.5C-1648.7,2660-1647.5,2654.9-1645.2,2650.5z M-1605.9,2657c-1.4-2.5-3.2-4.4-5.5-5.8s-4.8-2-7.5-2
			s-5.1,0.6-7.4,1.9c-2.3,1.3-4.1,3.2-5.5,5.7c-1.4,2.5-2.1,5.5-2.1,8.9s0.7,6.4,2.1,9c1.4,2.6,3.2,4.5,5.5,5.9
			c2.3,1.4,4.7,2.1,7.3,2.1c2.7,0,5.2-0.7,7.5-2c2.3-1.3,4.2-3.2,5.5-5.8c1.4-2.5,2-5.5,2-9
			C-1603.9,2662.5-1604.6,2659.5-1605.9,2657z"/>
		<path class="st0" d="M-1553.7,2639.3c3-1.7,6.4-2.6,10.2-2.6v15.1h-3.8c-4.5,0-7.9,1.1-10.2,3.2c-2.3,2.1-3.4,5.8-3.4,11.1v28.3
			h-14.4v-56.9h14.4v8.8C-1559.1,2643.3-1556.7,2641-1553.7,2639.3z"/>
		<path class="st0" d="M-1485.9,2643.1c4.2,4.3,6.3,10.2,6.3,17.9v33.4h-14.4V2663c0-4.5-1.1-8-3.4-10.4c-2.3-2.4-5.3-3.6-9.2-3.6
			c-4,0-7.1,1.2-9.4,3.6c-2.3,2.4-3.4,5.9-3.4,10.4v31.4h-14.4v-56.9h14.4v7.1c1.9-2.5,4.4-4.4,7.3-5.8c3-1.4,6.2-2.1,9.8-2.1
			C-1495.5,2636.7-1490,2638.8-1485.9,2643.1z"/>
		<path class="st0" d="M-1465,2628.3c-1.7-1.6-2.5-3.6-2.5-6s0.8-4.4,2.5-6c1.7-1.6,3.8-2.4,6.3-2.4s4.6,0.8,6.3,2.4
			c1.7,1.6,2.5,3.6,2.5,6s-0.8,4.4-2.5,6s-3.8,2.4-6.3,2.4C-1461.2,2630.7-1463.3,2629.9-1465,2628.3z M-1451.6,2637.5v56.9h-14.4
			v-56.9H-1451.6z"/>
		<path class="st0" d="M-1411.3,2649.3h-10v45.1h-14.6v-45.1h-6.5v-11.8h6.5v-2.9c0-7,2-12.1,6-15.4c4-3.3,10-4.8,18-4.6v12.1
			c-3.5-0.1-5.9,0.5-7.3,1.8c-1.4,1.2-2.1,3.5-2.1,6.7v2.4h10V2649.3L-1411.3,2649.3z"/>
		<path class="st0" d="M-1347.5,2637.5l-35.2,83.8h-15.3l12.3-28.3l-22.8-55.5h16.1l14.7,39.7l14.9-39.7H-1347.5z"/>
		<path class="st0" d="M-1711.5,2777.1h-28.5l-4.7,13.7h-15.2l25.8-71.8h16.7l25.8,71.8h-15.2L-1711.5,2777.1z M-1715.4,2765.6
			l-10.4-30l-10.4,30H-1715.4z"/>
		<path class="st0" d="M-1682,2746.9c2.4-4.4,5.7-7.8,10-10.3c4.3-2.5,9.1-3.6,14.6-3.6c7,0,12.9,1.8,17.5,5.3s7.7,8.5,9.3,14.8
			h-15.5c-0.8-2.5-2.2-4.4-4.2-5.8c-2-1.4-4.4-2.1-7.2-2.1c-4.1,0-7.4,1.5-9.8,4.5s-3.6,7.2-3.6,12.7c0,5.4,1.2,9.6,3.6,12.6
			s5.6,4.5,9.8,4.5c5.8,0,9.6-2.6,11.4-7.8h15.5c-1.6,6.2-4.7,11.1-9.4,14.7c-4.7,3.6-10.5,5.4-17.5,5.4c-5.5,0-10.3-1.2-14.6-3.6
			c-4.2-2.4-7.6-5.9-10-10.3c-2.4-4.4-3.6-9.6-3.6-15.5C-1685.6,2756.4-1684.4,2751.3-1682,2746.9z"/>
		<path class="st0" d="M-1620.4,2746.8c2.3-4.4,5.4-7.9,9.4-10.3s8.3-3.6,13.2-3.6c4.2,0,8,0.9,11.1,2.6c3.2,1.7,5.7,3.9,7.6,6.5
			v-8.1h14.5v56.9h-14.5v-8.3c-1.9,2.7-4.4,4.9-7.6,6.6c-3.2,1.8-7,2.6-11.2,2.6c-4.8,0-9.2-1.2-13.1-3.7c-3.9-2.5-7-5.9-9.4-10.4
			c-2.3-4.5-3.4-9.6-3.4-15.5C-1623.8,2756.3-1622.7,2751.2-1620.4,2746.8z M-1581.1,2753.3c-1.4-2.5-3.2-4.4-5.5-5.8
			c-2.3-1.4-4.8-2-7.5-2c-2.7,0-5.1,0.6-7.4,1.9c-2.3,1.3-4.1,3.2-5.5,5.7c-1.4,2.5-2.1,5.5-2.1,8.9s0.7,6.4,2.1,9
			c1.4,2.6,3.2,4.5,5.5,5.9c2.3,1.4,4.7,2.1,7.3,2.1c2.7,0,5.2-0.7,7.5-2c2.3-1.3,4.2-3.2,5.5-5.8c1.4-2.5,2-5.5,2-9
			C-1579,2758.8-1579.7,2755.8-1581.1,2753.3z"/>
		<path class="st0" d="M-1550.7,2746.8c2.3-4.4,5.4-7.9,9.4-10.3s8.4-3.6,13.2-3.6c3.7,0,7.2,0.8,10.6,2.4c3.4,1.6,6,3.8,8,6.4v-27
			h14.6v76h-14.6v-8.4c-1.8,2.8-4.3,5.1-7.5,6.8c-3.2,1.7-6.9,2.6-11.2,2.6c-4.8,0-9.2-1.2-13.1-3.7c-4-2.5-7.1-5.9-9.4-10.4
			c-2.3-4.5-3.4-9.6-3.4-15.5C-1554.2,2756.3-1553,2751.2-1550.7,2746.8z M-1511.4,2753.3c-1.4-2.5-3.2-4.4-5.6-5.8s-4.8-2-7.5-2
			c-2.7,0-5.1,0.6-7.4,1.9s-4.1,3.2-5.5,5.7s-2.1,5.5-2.1,8.9s0.7,6.4,2.1,9s3.2,4.5,5.6,5.9c2.3,1.4,4.7,2.1,7.3,2.1
			c2.7,0,5.2-0.7,7.5-2s4.2-3.2,5.6-5.8c1.4-2.5,2.1-5.5,2.1-9C-1509.4,2758.8-1510.1,2755.8-1511.4,2753.3z"/>
		<path class="st0" d="M-1428.4,2766.6h-41.6c0.3,4.1,1.8,7.3,4.3,9.6s5.6,3.5,9.4,3.5c5.3,0,9.1-2.3,11.4-6.9h15.5
			c-1.6,5.5-4.8,10-9.5,13.5c-4.7,3.5-10.4,5.3-17.1,5.3c-5.5,0-10.4-1.2-14.7-3.6c-4.4-2.4-7.7-5.9-10.2-10.3s-3.6-9.6-3.6-15.4
			c0-5.9,1.2-11.1,3.6-15.5s5.8-7.9,10.1-10.3s9.3-3.6,14.9-3.6c5.4,0,10.2,1.2,14.5,3.5c4.3,2.3,7.6,5.6,10,9.9s3.5,9.2,3.5,14.7
			C-1428,2763.1-1428.1,2765-1428.4,2766.6z M-1442.8,2757c-0.1-3.7-1.4-6.7-4-8.9c-2.6-2.2-5.8-3.3-9.6-3.3c-3.6,0-6.6,1.1-9,3.2
			c-2.4,2.2-3.9,5.1-4.5,9H-1442.8L-1442.8,2757z"/>
		<path class="st0" d="M-1329.9,2739.5c4.3,4.3,6.4,10.2,6.4,17.9v33.4h-14.4v-31.4c0-4.4-1.1-7.9-3.4-10.2
			c-2.3-2.4-5.3-3.5-9.2-3.5s-7,1.2-9.3,3.5c-2.3,2.3-3.4,5.8-3.4,10.2v31.4h-14.4v-31.4c0-4.4-1.1-7.9-3.4-10.2
			c-2.3-2.4-5.3-3.5-9.2-3.5c-4,0-7.1,1.2-9.4,3.5c-2.3,2.4-3.4,5.8-3.4,10.2v31.4h-14.4v-56.9h14.4v6.9c1.8-2.4,4.2-4.3,7.1-5.6
			c2.9-1.4,6.1-2.1,9.6-2.1c4.4,0,8.4,0.9,11.9,2.8c3.5,1.9,6.2,4.6,8.1,8.1c1.8-3.3,4.5-5.9,8.1-7.9c3.5-2,7.3-3,11.5-3
			C-1339.8,2733-1334.2,2735.2-1329.9,2739.5z"/>
		<path class="st0" d="M-1255.4,2733.9l-35.2,83.8h-15.4l12.3-28.3l-22.8-55.5h16.2l14.7,39.7l14.9-39.7H-1255.4z"/>
	</g>
</g>
<g>
	<g>
		<path class="st6" d="M-1842.7,2434.8l40.7-126.8c1.5-4.6,0-9.7-3.7-12.8c-14.2-11.9-32.5-17.8-51-16.4c-4.8,0.4-9,3.7-10.5,8.3
			l-40.7,126.8c-2,6.3,1.5,13.1,7.8,15.1l42.3,13.6C-1851.4,2444.6-1844.7,2441.1-1842.7,2434.8z"/>
		<path class="st6" d="M-1904.6,2345.5c4.7-16.3,4.7-33.7,0-50c-1.5-5.1-6.2-8.6-11.5-8.6h-135.7c-5.3,0-10,3.5-11.5,8.6
			c-4.7,16.3-4.7,33.7,0,50c1.5,5.1,6.2,8.6,11.5,8.6h135.7C-1910.8,2354.1-1906.1,2350.6-1904.6,2345.5z"/>
		<path class="st6" d="M-1962.6,2431c4.7-16.3,4.7-33.7,0-50c-1.5-5.1-6.2-8.6-11.5-8.6h-135.7c-5.3,0-10,3.5-11.5,8.6
			c-4.7,16.3-4.7,33.7,0,50c1.5,5.1,6.2,8.6,11.5,8.6h135.7C-1968.8,2439.6-1964.1,2436.2-1962.6,2431z"/>
		<path class="st6" d="M-2092.1,2519c-7-17.2-7-36.4,0-53.6c1.8-4.5,6.2-7.4,11.1-7.4h224.4c4.9,0,9.3,2.9,11.1,7.4
			c7,17.2,7,36.4,0,53.6c-1.8,4.5-6.2,7.4-11.1,7.4h-224.3C-2085.8,2526.4-2090.2,2523.5-2092.1,2519z"/>
	</g>
	<g>
		<path class="st0" d="M-1741.1,2378.8h23.6v11.4h-38v-71.7h14.4V2378.8z"/>
		<path class="st0" d="M-1655.8,2366h-41.6c0.3,4.1,1.8,7.3,4.3,9.6s5.6,3.5,9.4,3.5c5.3,0,9.1-2.3,11.4-6.9h15.5
			c-1.6,5.5-4.8,10-9.5,13.5s-10.4,5.3-17.1,5.3c-5.5,0-10.4-1.2-14.7-3.6c-4.4-2.4-7.7-5.9-10.2-10.3c-2.4-4.4-3.6-9.6-3.6-15.4
			c0-5.9,1.2-11.1,3.6-15.5c2.4-4.4,5.8-7.9,10.1-10.3s9.3-3.6,14.9-3.6c5.4,0,10.2,1.2,14.5,3.5c4.3,2.3,7.6,5.6,10,9.9
			c2.4,4.3,3.5,9.2,3.5,14.7C-1655.4,2362.5-1655.6,2364.4-1655.8,2366z M-1670.3,2356.4c-0.1-3.7-1.4-6.7-4-8.9
			c-2.6-2.2-5.8-3.3-9.5-3.3c-3.6,0-6.6,1.1-9,3.2c-2.4,2.1-3.9,5.1-4.5,9H-1670.3L-1670.3,2356.4z"/>
		<path class="st0" d="M-1645.2,2346.2c2.3-4.4,5.4-7.9,9.4-10.3s8.3-3.6,13.2-3.6c4.2,0,8,0.9,11.1,2.6c3.2,1.7,5.7,3.9,7.6,6.5
			v-8.1h14.5v56.9h-14.5v-8.3c-1.9,2.7-4.4,4.9-7.6,6.6c-3.2,1.8-7,2.6-11.2,2.6c-4.8,0-9.2-1.2-13.1-3.7s-7-5.9-9.4-10.4
			c-2.3-4.5-3.4-9.6-3.4-15.5C-1648.7,2355.8-1647.5,2350.7-1645.2,2346.2z M-1605.9,2352.7c-1.4-2.5-3.2-4.4-5.5-5.8s-4.8-2-7.5-2
			s-5.1,0.6-7.4,1.9c-2.3,1.3-4.1,3.2-5.5,5.7c-1.4,2.5-2.1,5.5-2.1,8.9s0.7,6.4,2.1,9c1.4,2.6,3.2,4.5,5.5,5.9
			c2.3,1.4,4.7,2.1,7.3,2.1c2.7,0,5.2-0.7,7.5-2c2.3-1.3,4.2-3.2,5.5-5.8c1.4-2.5,2-5.5,2-9
			C-1603.9,2358.2-1604.6,2355.2-1605.9,2352.7z"/>
		<path class="st0" d="M-1553.7,2335c3-1.7,6.4-2.6,10.2-2.6v15.1h-3.8c-4.5,0-7.9,1.1-10.2,3.2c-2.3,2.1-3.4,5.8-3.4,11.1v28.3
			h-14.4v-56.9h14.4v8.8C-1559.1,2339.1-1556.7,2336.7-1553.7,2335z"/>
		<path class="st0" d="M-1485.9,2338.9c4.2,4.3,6.3,10.2,6.3,17.9v33.4h-14.4v-31.4c0-4.5-1.1-8-3.4-10.4c-2.3-2.4-5.3-3.6-9.2-3.6
			c-4,0-7.1,1.2-9.4,3.6c-2.3,2.4-3.4,5.9-3.4,10.4v31.4h-14.4v-56.9h14.4v7.1c1.9-2.5,4.4-4.4,7.3-5.8c3-1.4,6.2-2.1,9.8-2.1
			C-1495.5,2332.5-1490,2334.6-1485.9,2338.9z"/>
		<path class="st0" d="M-1465,2324.1c-1.7-1.6-2.5-3.6-2.5-6s0.8-4.4,2.5-6c1.7-1.6,3.8-2.4,6.3-2.4s4.6,0.8,6.3,2.4
			c1.7,1.6,2.5,3.6,2.5,6s-0.8,4.4-2.5,6s-3.8,2.4-6.3,2.4S-1463.3,2325.7-1465,2324.1z M-1451.6,2333.3v56.9h-14.4v-56.9H-1451.6z"
			/>
		<path class="st0" d="M-1411.3,2345.1h-10v45.1h-14.6v-45.1h-6.5v-11.8h6.5v-2.9c0-7,2-12.1,6-15.4c4-3.3,10-4.8,18-4.6v12.1
			c-3.5-0.1-5.9,0.5-7.3,1.8c-1.4,1.2-2.1,3.5-2.1,6.7v2.4h10V2345.1L-1411.3,2345.1z"/>
		<path class="st0" d="M-1347.5,2333.3l-35.2,83.8h-15.3l12.3-28.3l-22.8-55.5h16.1l14.7,39.7l14.9-39.7H-1347.5z"/>
		<path class="st0" d="M-1711.5,2472.8h-28.5l-4.7,13.7h-15.2l25.8-71.8h16.7l25.8,71.8h-15.2L-1711.5,2472.8z M-1715.4,2461.3
			l-10.4-30l-10.4,30H-1715.4z"/>
		<path class="st0" d="M-1682,2442.6c2.4-4.4,5.7-7.8,10-10.3c4.3-2.5,9.1-3.6,14.6-3.6c7,0,12.9,1.8,17.5,5.3s7.7,8.5,9.3,14.8
			h-15.5c-0.8-2.5-2.2-4.4-4.2-5.8c-2-1.4-4.4-2.1-7.2-2.1c-4.1,0-7.4,1.5-9.8,4.5s-3.6,7.2-3.6,12.7c0,5.4,1.2,9.6,3.6,12.6
			s5.6,4.5,9.8,4.5c5.8,0,9.6-2.6,11.4-7.8h15.5c-1.6,6.2-4.7,11.1-9.4,14.7c-4.7,3.6-10.5,5.4-17.5,5.4c-5.5,0-10.3-1.2-14.6-3.6
			c-4.2-2.4-7.6-5.9-10-10.3c-2.4-4.4-3.6-9.6-3.6-15.5C-1685.6,2452.2-1684.4,2447-1682,2442.6z"/>
		<path class="st0" d="M-1620.4,2442.5c2.3-4.4,5.4-7.9,9.4-10.3s8.3-3.6,13.2-3.6c4.2,0,8,0.9,11.1,2.6c3.2,1.7,5.7,3.9,7.6,6.5
			v-8.1h14.5v56.9h-14.5v-8.3c-1.9,2.7-4.4,4.9-7.6,6.6c-3.2,1.8-7,2.6-11.2,2.6c-4.8,0-9.2-1.2-13.1-3.7c-3.9-2.5-7-5.9-9.4-10.4
			c-2.3-4.5-3.4-9.6-3.4-15.5C-1623.8,2452.1-1622.7,2447-1620.4,2442.5z M-1581.1,2449.1c-1.4-2.5-3.2-4.4-5.5-5.8
			c-2.3-1.4-4.8-2-7.5-2c-2.7,0-5.1,0.6-7.4,1.9c-2.3,1.3-4.1,3.2-5.5,5.7c-1.4,2.5-2.1,5.5-2.1,8.9s0.7,6.4,2.1,9
			c1.4,2.6,3.2,4.5,5.5,5.9c2.3,1.4,4.7,2.1,7.3,2.1c2.7,0,5.2-0.7,7.5-2c2.3-1.3,4.2-3.2,5.5-5.8c1.4-2.5,2-5.5,2-9
			C-1579,2454.6-1579.7,2451.6-1581.1,2449.1z"/>
		<path class="st0" d="M-1550.7,2442.5c2.3-4.4,5.4-7.9,9.4-10.3s8.4-3.6,13.2-3.6c3.7,0,7.2,0.8,10.6,2.4c3.4,1.6,6,3.8,8,6.4v-27
			h14.6v76h-14.6v-8.4c-1.8,2.8-4.3,5.1-7.5,6.8c-3.2,1.7-6.9,2.6-11.2,2.6c-4.8,0-9.2-1.2-13.1-3.7c-4-2.5-7.1-5.9-9.4-10.4
			c-2.3-4.5-3.4-9.6-3.4-15.5C-1554.2,2452.1-1553,2447-1550.7,2442.5z M-1511.4,2449.1c-1.4-2.5-3.2-4.4-5.6-5.8s-4.8-2-7.5-2
			c-2.7,0-5.1,0.6-7.4,1.9s-4.1,3.2-5.5,5.7s-2.1,5.5-2.1,8.9s0.7,6.4,2.1,9s3.2,4.5,5.6,5.9c2.3,1.4,4.7,2.1,7.3,2.1
			c2.7,0,5.2-0.7,7.5-2s4.2-3.2,5.6-5.8c1.4-2.5,2.1-5.5,2.1-9C-1509.4,2454.6-1510.1,2451.6-1511.4,2449.1z"/>
		<path class="st0" d="M-1428.4,2462.4h-41.6c0.3,4.1,1.8,7.3,4.3,9.6s5.6,3.5,9.4,3.5c5.3,0,9.1-2.3,11.4-6.9h15.5
			c-1.6,5.5-4.8,10-9.5,13.5c-4.7,3.5-10.4,5.3-17.1,5.3c-5.5,0-10.4-1.2-14.7-3.6c-4.4-2.4-7.7-5.9-10.2-10.3s-3.6-9.6-3.6-15.4
			c0-5.9,1.2-11.1,3.6-15.5s5.8-7.9,10.1-10.3s9.3-3.6,14.9-3.6c5.4,0,10.2,1.2,14.5,3.5c4.3,2.3,7.6,5.6,10,9.9s3.5,9.2,3.5,14.7
			C-1428,2458.9-1428.1,2460.7-1428.4,2462.4z M-1442.8,2452.7c-0.1-3.7-1.4-6.7-4-8.9c-2.6-2.2-5.8-3.3-9.6-3.3
			c-3.6,0-6.6,1.1-9,3.2c-2.4,2.2-3.9,5.1-4.5,9H-1442.8L-1442.8,2452.7z"/>
		<path class="st0" d="M-1329.9,2435.2c4.3,4.3,6.4,10.2,6.4,17.9v33.4h-14.4v-31.4c0-4.4-1.1-7.9-3.4-10.2
			c-2.3-2.4-5.3-3.5-9.2-3.5s-7,1.2-9.3,3.5c-2.3,2.3-3.4,5.8-3.4,10.2v31.4h-14.4v-31.4c0-4.4-1.1-7.9-3.4-10.2
			c-2.3-2.4-5.3-3.5-9.2-3.5c-4,0-7.1,1.2-9.4,3.5c-2.3,2.4-3.4,5.8-3.4,10.2v31.4h-14.4v-56.9h14.4v6.9c1.8-2.4,4.2-4.3,7.1-5.6
			c2.9-1.4,6.1-2.1,9.6-2.1c4.4,0,8.4,0.9,11.9,2.8c3.5,1.9,6.2,4.6,8.1,8.1c1.8-3.3,4.5-5.9,8.1-7.9c3.5-2,7.3-3,11.5-3
			C-1339.8,2428.8-1334.2,2430.9-1329.9,2435.2z"/>
		<path class="st0" d="M-1255.4,2429.6l-35.2,83.8h-15.4l12.3-28.3l-22.8-55.5h16.2l14.7,39.7l14.9-39.7H-1255.4z"/>
	</g>
</g>
<g>
	<g>
		<path class="st0" d="M-1842.7,2132.9l40.7-126.8c1.5-4.6,0-9.7-3.7-12.8c-14.2-11.9-32.5-17.8-51-16.4c-4.8,0.4-9,3.7-10.5,8.3
			l-40.7,126.8c-2,6.3,1.5,13.1,7.8,15.1l42.3,13.6C-1851.4,2142.7-1844.7,2139.2-1842.7,2132.9z"/>
		<path class="st0" d="M-1904.6,2043.6c4.7-16.3,4.7-33.7,0-50c-1.5-5.1-6.2-8.6-11.5-8.6h-135.7c-5.3,0-10,3.5-11.5,8.6
			c-4.7,16.3-4.7,33.7,0,50c1.5,5.1,6.2,8.6,11.5,8.6h135.7C-1910.8,2052.2-1906.1,2048.7-1904.6,2043.6z"/>
		<path class="st0" d="M-1962.6,2129.1c4.7-16.3,4.7-33.7,0-50c-1.5-5.1-6.2-8.6-11.5-8.6h-135.7c-5.3,0-10,3.5-11.5,8.6
			c-4.7,16.3-4.7,33.7,0,50c1.5,5.1,6.2,8.6,11.5,8.6h135.7C-1968.8,2137.7-1964.1,2134.2-1962.6,2129.1z"/>
		<path class="st0" d="M-2092.1,2217c-7-17.2-7-36.4,0-53.6c1.8-4.5,6.2-7.4,11.1-7.4h224.4c4.9,0,9.3,2.9,11.1,7.4
			c7,17.2,7,36.4,0,53.6c-1.8,4.5-6.2,7.4-11.1,7.4h-224.3C-2085.8,2224.5-2090.2,2221.5-2092.1,2217z"/>
	</g>
	<g>
		<path class="st6" d="M-1741.1,2076.8h23.6v11.4h-38v-71.7h14.4V2076.8z"/>
		<path class="st6" d="M-1655.8,2064.1h-41.6c0.3,4.1,1.8,7.3,4.3,9.7c2.5,2.3,5.6,3.5,9.4,3.5c5.3,0,9.1-2.3,11.4-6.9h15.5
			c-1.6,5.5-4.8,10-9.5,13.5s-10.4,5.3-17.1,5.3c-5.5,0-10.4-1.2-14.7-3.7c-4.4-2.4-7.7-5.9-10.2-10.3c-2.4-4.4-3.6-9.6-3.6-15.4
			c0-5.9,1.2-11.1,3.6-15.5c2.4-4.4,5.8-7.9,10.1-10.3s9.3-3.6,14.9-3.6c5.4,0,10.2,1.2,14.5,3.5c4.3,2.3,7.6,5.6,10,9.9
			c2.4,4.3,3.5,9.2,3.5,14.7C-1655.4,2060.6-1655.6,2062.4-1655.8,2064.1z M-1670.3,2054.4c-0.1-3.7-1.4-6.7-4-8.9
			c-2.6-2.2-5.8-3.3-9.5-3.3c-3.6,0-6.6,1.1-9,3.2c-2.4,2.1-3.9,5.2-4.5,9L-1670.3,2054.4L-1670.3,2054.4z"/>
		<path class="st6" d="M-1645.2,2044.3c2.3-4.4,5.4-7.9,9.4-10.3s8.3-3.6,13.2-3.6c4.2,0,8,0.9,11.1,2.6c3.2,1.7,5.7,3.9,7.6,6.5
			v-8.1h14.5v56.9h-14.5v-8.3c-1.9,2.7-4.4,4.9-7.6,6.6c-3.2,1.8-7,2.6-11.2,2.6c-4.8,0-9.2-1.2-13.1-3.7s-7-5.9-9.4-10.4
			c-2.3-4.5-3.4-9.6-3.4-15.5C-1648.7,2053.8-1647.5,2048.7-1645.2,2044.3z M-1605.9,2050.8c-1.4-2.5-3.2-4.4-5.5-5.8s-4.8-2-7.5-2
			s-5.1,0.7-7.4,1.9c-2.3,1.3-4.1,3.2-5.5,5.7c-1.4,2.5-2.1,5.5-2.1,8.9c0,3.4,0.7,6.4,2.1,9c1.4,2.6,3.2,4.5,5.5,5.9
			c2.3,1.4,4.7,2.1,7.3,2.1c2.7,0,5.2-0.7,7.5-2c2.3-1.3,4.2-3.2,5.5-5.8c1.4-2.5,2-5.5,2-9
			C-1603.9,2056.3-1604.6,2053.3-1605.9,2050.8z"/>
		<path class="st6" d="M-1553.7,2033.1c3-1.7,6.4-2.6,10.2-2.6v15.1h-3.8c-4.5,0-7.9,1.1-10.2,3.2c-2.3,2.1-3.4,5.8-3.4,11.1v28.3
			h-14.4v-56.9h14.4v8.8C-1559.1,2037.2-1556.7,2034.8-1553.7,2033.1z"/>
		<path class="st6" d="M-1485.9,2036.9c4.2,4.3,6.3,10.2,6.3,17.9v33.4h-14.4v-31.4c0-4.5-1.1-8-3.4-10.4c-2.3-2.4-5.3-3.7-9.2-3.7
			c-4,0-7.1,1.2-9.4,3.7c-2.3,2.4-3.4,5.9-3.4,10.4v31.4h-14.4v-56.9h14.4v7.1c1.9-2.5,4.4-4.4,7.3-5.8s6.2-2.1,9.8-2.1
			C-1495.5,2030.5-1490,2032.7-1485.9,2036.9z"/>
		<path class="st6" d="M-1465,2022.1c-1.7-1.6-2.5-3.6-2.5-6s0.8-4.4,2.5-6c1.7-1.6,3.8-2.4,6.3-2.4s4.6,0.8,6.3,2.4s2.5,3.6,2.5,6
			s-0.8,4.4-2.5,6s-3.8,2.4-6.3,2.4S-1463.3,2023.8-1465,2022.1z M-1451.6,2031.3v56.9h-14.4v-56.9H-1451.6z"/>
		<path class="st6" d="M-1411.3,2043.1h-10v45.1h-14.6v-45.1h-6.5v-11.8h6.5v-2.9c0-7,2-12.1,6-15.4s10-4.8,18-4.6v12.1
			c-3.5-0.1-5.9,0.5-7.3,1.8c-1.4,1.2-2.1,3.5-2.1,6.7v2.4h10V2043.1L-1411.3,2043.1z"/>
		<path class="st6" d="M-1347.5,2031.3l-35.2,83.8h-15.3l12.3-28.3l-22.8-55.5h16.1l14.7,39.7l14.9-39.7H-1347.5L-1347.5,2031.3z"/>
		<path class="st6" d="M-1711.5,2170.9h-28.5l-4.7,13.7h-15.2l25.8-71.8h16.7l25.8,71.8h-15.2L-1711.5,2170.9z M-1715.4,2159.4
			l-10.4-30l-10.4,30H-1715.4z"/>
		<path class="st6" d="M-1682,2140.7c2.4-4.4,5.7-7.8,10-10.3c4.3-2.5,9.1-3.7,14.6-3.7c7,0,12.9,1.8,17.5,5.3s7.7,8.5,9.3,14.8
			h-15.5c-0.8-2.5-2.2-4.4-4.2-5.8c-2-1.4-4.4-2.1-7.2-2.1c-4.1,0-7.4,1.5-9.8,4.5s-3.6,7.2-3.6,12.7c0,5.4,1.2,9.6,3.6,12.6
			s5.6,4.5,9.8,4.5c5.8,0,9.6-2.6,11.4-7.8h15.5c-1.6,6.2-4.7,11.1-9.4,14.7c-4.7,3.6-10.5,5.4-17.5,5.4c-5.5,0-10.3-1.2-14.6-3.6
			c-4.2-2.4-7.6-5.9-10-10.3c-2.4-4.4-3.6-9.6-3.6-15.5C-1685.6,2150.2-1684.4,2145.1-1682,2140.7z"/>
		<path class="st6" d="M-1620.4,2140.6c2.3-4.4,5.4-7.9,9.4-10.3c4-2.4,8.3-3.6,13.2-3.6c4.2,0,8,0.9,11.1,2.6
			c3.2,1.7,5.7,3.9,7.6,6.5v-8.1h14.5v56.9h-14.5v-8.3c-1.9,2.7-4.4,4.9-7.6,6.6c-3.2,1.8-7,2.6-11.2,2.6c-4.8,0-9.2-1.2-13.1-3.7
			c-3.9-2.5-7-5.9-9.4-10.4c-2.3-4.5-3.4-9.6-3.4-15.5C-1623.8,2150.2-1622.7,2145.1-1620.4,2140.6z M-1581.1,2147.1
			c-1.4-2.5-3.2-4.4-5.5-5.8c-2.3-1.4-4.8-2-7.5-2c-2.7,0-5.1,0.7-7.4,1.9c-2.3,1.3-4.1,3.2-5.5,5.7c-1.4,2.5-2.1,5.5-2.1,8.9
			s0.7,6.4,2.1,9c1.4,2.6,3.2,4.5,5.5,5.9c2.3,1.4,4.7,2.1,7.3,2.1c2.7,0,5.2-0.7,7.5-2c2.3-1.3,4.2-3.2,5.5-5.8c1.4-2.5,2-5.5,2-9
			C-1579,2152.6-1579.7,2149.6-1581.1,2147.1z"/>
		<path class="st6" d="M-1550.7,2140.6c2.3-4.4,5.4-7.9,9.4-10.3c4-2.4,8.4-3.6,13.2-3.6c3.7,0,7.2,0.8,10.6,2.4
			c3.4,1.6,6,3.8,8,6.4v-27h14.6v76h-14.6v-8.4c-1.8,2.8-4.3,5.1-7.5,6.8c-3.2,1.7-6.9,2.6-11.2,2.6c-4.8,0-9.2-1.2-13.1-3.7
			c-4-2.5-7.1-5.9-9.4-10.4c-2.3-4.5-3.4-9.6-3.4-15.5C-1554.2,2150.2-1553,2145.1-1550.7,2140.6z M-1511.4,2147.1
			c-1.4-2.5-3.2-4.4-5.6-5.8c-2.4-1.4-4.8-2-7.5-2c-2.7,0-5.1,0.7-7.4,1.9c-2.3,1.3-4.1,3.2-5.5,5.7s-2.1,5.5-2.1,8.9s0.7,6.4,2.1,9
			s3.2,4.5,5.6,5.9c2.3,1.4,4.7,2.1,7.3,2.1c2.7,0,5.2-0.7,7.5-2s4.2-3.2,5.6-5.8c1.4-2.5,2.1-5.5,2.1-9
			C-1509.4,2152.6-1510.1,2149.6-1511.4,2147.1z"/>
		<path class="st6" d="M-1428.4,2160.4h-41.6c0.3,4.1,1.8,7.3,4.3,9.6s5.6,3.5,9.4,3.5c5.3,0,9.1-2.3,11.4-6.9h15.5
			c-1.6,5.5-4.8,10-9.5,13.5c-4.7,3.5-10.4,5.3-17.1,5.3c-5.5,0-10.4-1.2-14.7-3.6c-4.4-2.4-7.7-5.9-10.2-10.3s-3.6-9.6-3.6-15.4
			c0-5.9,1.2-11.1,3.6-15.5c2.4-4.4,5.8-7.9,10.1-10.3c4.3-2.4,9.3-3.6,14.9-3.6c5.4,0,10.2,1.2,14.5,3.5c4.3,2.3,7.6,5.6,10,9.9
			s3.5,9.2,3.5,14.7C-1428,2156.9-1428.1,2158.8-1428.4,2160.4z M-1442.8,2150.8c-0.1-3.7-1.4-6.7-4-8.9c-2.6-2.2-5.8-3.3-9.6-3.3
			c-3.6,0-6.6,1.1-9,3.2c-2.4,2.2-3.9,5.1-4.5,9L-1442.8,2150.8L-1442.8,2150.8z"/>
		<path class="st6" d="M-1329.9,2133.3c4.3,4.3,6.4,10.2,6.4,17.9v33.4h-14.4v-31.5c0-4.4-1.1-7.9-3.4-10.2
			c-2.3-2.4-5.3-3.5-9.2-3.5s-7,1.2-9.3,3.5c-2.3,2.4-3.4,5.8-3.4,10.2v31.4h-14.4v-31.4c0-4.4-1.1-7.9-3.4-10.2
			c-2.3-2.4-5.3-3.5-9.2-3.5c-4,0-7.1,1.2-9.4,3.5c-2.3,2.4-3.4,5.8-3.4,10.2v31.4h-14.4v-56.9h14.4v6.9c1.8-2.4,4.2-4.3,7.1-5.7
			c2.9-1.4,6.1-2.1,9.6-2.1c4.4,0,8.4,0.9,11.9,2.8c3.5,1.9,6.2,4.6,8.1,8.1c1.8-3.3,4.5-5.9,8.1-7.9c3.5-2,7.3-3,11.5-3
			C-1339.8,2126.9-1334.2,2129-1329.9,2133.3z"/>
		<path class="st6" d="M-1255.4,2127.7l-35.2,83.8h-15.4l12.3-28.3l-22.8-55.5h16.2l14.7,39.7l14.9-39.7H-1255.4L-1255.4,2127.7z"/>
	</g>
</g>
<g>
	<g>
		<path class="st6" d="M-1842.7,1697.4l40.7-126.8c1.5-4.6,0-9.7-3.7-12.8c-14.2-11.9-32.5-17.8-51-16.4c-4.8,0.4-9,3.7-10.5,8.3
			l-40.7,126.8c-2,6.3,1.5,13.1,7.8,15.1l42.3,13.6C-1851.4,1707.2-1844.7,1703.7-1842.7,1697.4z"/>
		<path class="st6" d="M-1904.6,1608.1c4.7-16.3,4.7-33.7,0-50c-1.5-5.1-6.2-8.6-11.5-8.6h-135.7c-5.3,0-10,3.5-11.5,8.6
			c-4.7,16.3-4.7,33.7,0,50c1.5,5.1,6.2,8.6,11.5,8.6h135.7C-1910.8,1616.7-1906.1,1613.2-1904.6,1608.1z"/>
		<path class="st6" d="M-1962.6,1693.6c4.7-16.3,4.7-33.7,0-50c-1.5-5.1-6.2-8.6-11.5-8.6h-135.7c-5.3,0-10,3.5-11.5,8.6
			c-4.7,16.3-4.7,33.7,0,50c1.5,5.1,6.2,8.6,11.5,8.6h135.7C-1968.8,1702.2-1964.1,1698.7-1962.6,1693.6z"/>
		<path class="st6" d="M-2092.1,1781.5c-7-17.2-7-36.4,0-53.6c1.8-4.5,6.2-7.4,11.1-7.4h224.4c4.9,0,9.3,2.9,11.1,7.4
			c7,17.2,7,36.4,0,53.6c-1.8,4.5-6.2,7.4-11.1,7.4h-224.3C-2085.8,1789-2090.2,1786-2092.1,1781.5z"/>
	</g>
	<g>
		<path class="st6" d="M-1741.1,1641.3h23.6v11.4h-38v-71.6h14.4V1641.3z"/>
		<path class="st6" d="M-1655.8,1628.6h-41.6c0.3,4.1,1.8,7.3,4.3,9.7c2.5,2.3,5.6,3.5,9.4,3.5c5.3,0,9.1-2.3,11.4-6.9h15.5
			c-1.6,5.5-4.8,10-9.5,13.5s-10.4,5.3-17.1,5.3c-5.5,0-10.4-1.2-14.7-3.7c-4.4-2.4-7.7-5.9-10.2-10.3c-2.4-4.4-3.6-9.6-3.6-15.4
			c0-5.9,1.2-11.1,3.6-15.5c2.4-4.4,5.8-7.9,10.1-10.3s9.3-3.6,14.9-3.6c5.4,0,10.2,1.2,14.5,3.5c4.3,2.3,7.6,5.6,10,9.9
			c2.4,4.3,3.5,9.2,3.5,14.7C-1655.4,1625.1-1655.6,1627-1655.8,1628.6z M-1670.3,1619c-0.1-3.7-1.4-6.7-4-8.9
			c-2.6-2.2-5.8-3.3-9.5-3.3c-3.6,0-6.6,1.1-9,3.2c-2.4,2.1-3.9,5.2-4.5,9L-1670.3,1619L-1670.3,1619z"/>
		<path class="st6" d="M-1645.2,1608.8c2.3-4.4,5.4-7.9,9.4-10.3s8.3-3.6,13.2-3.6c4.2,0,8,0.9,11.1,2.6c3.2,1.7,5.7,3.9,7.6,6.5
			v-8.1h14.5v56.9h-14.5v-8.3c-1.9,2.7-4.4,4.9-7.6,6.6c-3.2,1.8-7,2.6-11.2,2.6c-4.8,0-9.2-1.2-13.1-3.7s-7-5.9-9.4-10.4
			c-2.3-4.5-3.4-9.6-3.4-15.5C-1648.7,1618.3-1647.5,1613.2-1645.2,1608.8z M-1605.9,1615.3c-1.4-2.5-3.2-4.4-5.5-5.8s-4.8-2-7.5-2
			s-5.1,0.7-7.4,1.9c-2.3,1.3-4.1,3.2-5.5,5.7c-1.4,2.5-2.1,5.5-2.1,8.9s0.7,6.4,2.1,9c1.4,2.6,3.2,4.5,5.5,5.9
			c2.3,1.4,4.7,2.1,7.3,2.1c2.7,0,5.2-0.7,7.5-2c2.3-1.3,4.2-3.2,5.5-5.8c1.4-2.5,2-5.5,2-9
			C-1603.9,1620.8-1604.6,1617.8-1605.9,1615.3z"/>
		<path class="st6" d="M-1553.7,1597.6c3-1.7,6.4-2.6,10.2-2.6v15.1h-3.8c-4.5,0-7.9,1.1-10.2,3.2c-2.3,2.1-3.4,5.8-3.4,11.1v28.3
			h-14.4v-56.9h14.4v8.8C-1559.1,1601.7-1556.7,1599.3-1553.7,1597.6z"/>
		<path class="st6" d="M-1485.9,1601.4c4.2,4.3,6.3,10.2,6.3,17.9v33.4h-14.4v-31.4c0-4.5-1.1-8-3.4-10.4c-2.3-2.4-5.3-3.7-9.2-3.7
			c-4,0-7.1,1.2-9.4,3.7c-2.3,2.4-3.4,5.9-3.4,10.4v31.4h-14.4v-56.9h14.4v7.1c1.9-2.5,4.4-4.4,7.3-5.8s6.2-2.1,9.8-2.1
			C-1495.5,1595-1490,1597.2-1485.9,1601.4z"/>
		<path class="st6" d="M-1465,1586.7c-1.7-1.6-2.5-3.6-2.5-6s0.8-4.4,2.5-6c1.7-1.6,3.8-2.4,6.3-2.4s4.6,0.8,6.3,2.4s2.5,3.6,2.5,6
			s-0.8,4.4-2.5,6s-3.8,2.4-6.3,2.4S-1463.3,1588.3-1465,1586.7z M-1451.6,1595.9v56.9h-14.4v-56.9H-1451.6z"/>
		<path class="st6" d="M-1411.3,1607.7h-10v45.1h-14.6v-45.1h-6.5v-11.8h6.5v-2.9c0-7,2-12.1,6-15.4s10-4.8,18-4.6v12.1
			c-3.5-0.1-5.9,0.5-7.3,1.8c-1.4,1.2-2.1,3.5-2.1,6.7v2.4h10V1607.7L-1411.3,1607.7z"/>
		<path class="st6" d="M-1347.5,1595.9l-35.2,83.8h-15.3l12.3-28.3l-22.8-55.5h16.1l14.7,39.7l14.9-39.7H-1347.5L-1347.5,1595.9z"/>
		<path class="st6" d="M-1711.5,1735.4h-28.5l-4.7,13.7h-15.2l25.8-71.8h16.7l25.8,71.8h-15.2L-1711.5,1735.4z M-1715.4,1723.9
			l-10.4-30l-10.4,30H-1715.4z"/>
		<path class="st6" d="M-1682,1705.2c2.4-4.4,5.7-7.8,10-10.3c4.3-2.5,9.1-3.7,14.6-3.7c7,0,12.9,1.8,17.5,5.3s7.7,8.5,9.3,14.8
			h-15.5c-0.8-2.5-2.2-4.4-4.2-5.8s-4.4-2.1-7.2-2.1c-4.1,0-7.4,1.5-9.8,4.5s-3.6,7.2-3.6,12.7c0,5.4,1.2,9.6,3.6,12.6
			s5.6,4.5,9.8,4.5c5.8,0,9.6-2.6,11.4-7.8h15.5c-1.6,6.2-4.7,11.1-9.4,14.7c-4.7,3.6-10.5,5.4-17.5,5.4c-5.5,0-10.3-1.2-14.6-3.7
			c-4.2-2.4-7.6-5.8-10-10.3c-2.4-4.4-3.6-9.6-3.6-15.5C-1685.6,1714.8-1684.4,1709.6-1682,1705.2z"/>
		<path class="st6" d="M-1620.4,1705.1c2.3-4.4,5.4-7.9,9.4-10.3s8.3-3.6,13.2-3.6c4.2,0,8,0.9,11.1,2.6c3.2,1.7,5.7,3.9,7.6,6.5
			v-8.1h14.5v56.9h-14.5v-8.3c-1.9,2.7-4.4,4.9-7.6,6.6c-3.2,1.8-7,2.6-11.2,2.6c-4.8,0-9.2-1.2-13.1-3.7c-3.9-2.5-7-5.9-9.4-10.4
			c-2.3-4.5-3.4-9.6-3.4-15.5C-1623.8,1714.7-1622.7,1709.6-1620.4,1705.1z M-1581.1,1711.7c-1.4-2.5-3.2-4.4-5.5-5.8
			c-2.3-1.4-4.8-2-7.5-2c-2.7,0-5.1,0.7-7.4,1.9c-2.3,1.3-4.1,3.2-5.5,5.7c-1.4,2.5-2.1,5.5-2.1,8.9s0.7,6.4,2.1,9
			c1.4,2.6,3.2,4.5,5.5,5.9c2.3,1.4,4.7,2.1,7.3,2.1c2.7,0,5.2-0.7,7.5-2c2.3-1.3,4.2-3.2,5.5-5.8c1.4-2.5,2-5.5,2-9
			C-1579,1717.1-1579.7,1714.2-1581.1,1711.7z"/>
		<path class="st6" d="M-1550.7,1705.1c2.3-4.4,5.4-7.9,9.4-10.3s8.4-3.6,13.2-3.6c3.7,0,7.2,0.8,10.6,2.4c3.4,1.6,6,3.8,8,6.4v-27
			h14.6v76h-14.6v-8.4c-1.8,2.8-4.3,5.1-7.5,6.8c-3.2,1.7-6.9,2.6-11.2,2.6c-4.8,0-9.2-1.2-13.1-3.7c-4-2.5-7.1-5.9-9.4-10.4
			c-2.3-4.5-3.4-9.6-3.4-15.5C-1554.2,1714.7-1553,1709.6-1550.7,1705.1z M-1511.4,1711.7c-1.4-2.5-3.2-4.4-5.6-5.8s-4.8-2-7.5-2
			c-2.7,0-5.1,0.7-7.4,1.9c-2.3,1.3-4.1,3.2-5.5,5.7s-2.1,5.5-2.1,8.9s0.7,6.4,2.1,9s3.2,4.5,5.6,5.9c2.3,1.4,4.7,2.1,7.3,2.1
			c2.7,0,5.2-0.7,7.5-2s4.2-3.2,5.6-5.8c1.4-2.5,2.1-5.5,2.1-9C-1509.4,1717.1-1510.1,1714.2-1511.4,1711.7z"/>
		<path class="st6" d="M-1428.4,1724.9h-41.6c0.3,4.1,1.8,7.3,4.3,9.7c2.5,2.3,5.6,3.5,9.4,3.5c5.3,0,9.1-2.3,11.4-6.9h15.5
			c-1.6,5.5-4.8,10-9.5,13.5c-4.7,3.5-10.4,5.3-17.1,5.3c-5.5,0-10.4-1.2-14.7-3.7c-4.4-2.4-7.7-5.9-10.2-10.3s-3.6-9.6-3.6-15.4
			c0-5.9,1.2-11.1,3.6-15.5s5.8-7.9,10.1-10.3s9.3-3.6,14.9-3.6c5.4,0,10.2,1.2,14.5,3.5c4.3,2.3,7.6,5.6,10,9.9s3.5,9.2,3.5,14.7
			C-1428,1721.4-1428.1,1723.3-1428.4,1724.9z M-1442.8,1715.3c-0.1-3.7-1.4-6.7-4-8.9c-2.6-2.2-5.8-3.3-9.6-3.3
			c-3.6,0-6.6,1.1-9,3.2c-2.4,2.2-3.9,5.2-4.5,9L-1442.8,1715.3L-1442.8,1715.3z"/>
		<path class="st6" d="M-1329.9,1697.8c4.3,4.3,6.4,10.2,6.4,17.9v33.4h-14.4v-31.4c0-4.4-1.1-7.9-3.4-10.2
			c-2.3-2.3-5.3-3.5-9.2-3.5s-7,1.2-9.3,3.5c-2.3,2.3-3.4,5.8-3.4,10.2v31.4h-14.4v-31.4c0-4.4-1.1-7.9-3.4-10.2
			c-2.3-2.3-5.3-3.5-9.2-3.5c-4,0-7.1,1.2-9.4,3.5c-2.3,2.4-3.4,5.8-3.4,10.2v31.4h-14.4v-56.9h14.4v6.9c1.8-2.4,4.2-4.3,7.1-5.7
			c2.9-1.4,6.1-2.1,9.6-2.1c4.4,0,8.4,0.9,11.9,2.8s6.2,4.6,8.1,8.1c1.8-3.3,4.5-5.9,8.1-7.9c3.5-2,7.3-3,11.5-3
			C-1339.8,1691.4-1334.2,1693.5-1329.9,1697.8z"/>
		<path class="st6" d="M-1255.4,1692.2l-35.2,83.8h-15.4l12.3-28.3l-22.8-55.5h16.2l14.7,39.7l14.9-39.7H-1255.4L-1255.4,1692.2z"/>
	</g>
</g>
<g>
	<g>
		<path class="st6" d="M-1842.7,1380.4l40.7-126.8c1.5-4.6,0-9.7-3.7-12.8c-14.2-11.9-32.5-17.8-51-16.4c-4.8,0.4-9,3.7-10.5,8.3
			l-40.7,126.8c-2,6.3,1.5,13.1,7.8,15.1l42.3,13.6C-1851.4,1390.1-1844.7,1386.7-1842.7,1380.4z"/>
		<path class="st6" d="M-1904.6,1291.1c4.7-16.3,4.7-33.7,0-50c-1.5-5.1-6.2-8.6-11.5-8.6h-135.7c-5.3,0-10,3.5-11.5,8.6
			c-4.7,16.3-4.7,33.7,0,50c1.5,5.1,6.2,8.6,11.5,8.6h135.7C-1910.8,1299.7-1906.1,1296.2-1904.6,1291.1z"/>
		<path class="st6" d="M-1962.6,1376.6c4.7-16.3,4.7-33.7,0-50c-1.5-5.1-6.2-8.6-11.5-8.6h-135.7c-5.3,0-10,3.5-11.5,8.6
			c-4.7,16.3-4.7,33.7,0,50c1.5,5.1,6.2,8.6,11.5,8.6h135.7C-1968.8,1385.2-1964.1,1381.7-1962.6,1376.6z"/>
		<path class="st6" d="M-2092.1,1464.5c-7-17.2-7-36.4,0-53.6c1.8-4.5,6.2-7.4,11.1-7.4h224.4c4.9,0,9.3,2.9,11.1,7.4
			c7,17.2,7,36.4,0,53.6c-1.8,4.5-6.2,7.4-11.1,7.4h-224.3C-2085.8,1471.9-2090.2,1469-2092.1,1464.5z"/>
	</g>
	<g>
		<path class="st2" d="M-1741.1,1324.3h23.6v11.4h-38V1264h14.4V1324.3z"/>
		<path class="st2" d="M-1655.8,1311.6h-41.6c0.3,4.1,1.8,7.3,4.3,9.7c2.5,2.3,5.6,3.5,9.4,3.5c5.3,0,9.1-2.3,11.4-6.9h15.5
			c-1.6,5.5-4.8,10-9.5,13.5s-10.4,5.3-17.1,5.3c-5.5,0-10.4-1.2-14.7-3.7c-4.4-2.4-7.7-5.9-10.2-10.3c-2.4-4.4-3.6-9.6-3.6-15.4
			c0-5.9,1.2-11.1,3.6-15.5c2.4-4.4,5.8-7.9,10.1-10.3s9.3-3.6,14.9-3.6c5.4,0,10.2,1.2,14.5,3.5c4.3,2.3,7.6,5.6,10,9.9
			c2.4,4.3,3.5,9.2,3.5,14.7C-1655.4,1308.1-1655.6,1309.9-1655.8,1311.6z M-1670.3,1301.9c-0.1-3.7-1.4-6.7-4-8.9
			c-2.6-2.2-5.8-3.3-9.5-3.3c-3.6,0-6.6,1.1-9,3.2c-2.4,2.1-3.9,5.2-4.5,9L-1670.3,1301.9L-1670.3,1301.9z"/>
		<path class="st2" d="M-1645.2,1291.8c2.3-4.4,5.4-7.9,9.4-10.3s8.3-3.6,13.2-3.6c4.2,0,8,0.9,11.1,2.6c3.2,1.7,5.7,3.9,7.6,6.5
			v-8.1h14.5v56.9h-14.5v-8.3c-1.9,2.7-4.4,4.9-7.6,6.6c-3.2,1.8-7,2.6-11.2,2.6c-4.8,0-9.2-1.2-13.1-3.7s-7-5.9-9.4-10.4
			c-2.3-4.5-3.4-9.6-3.4-15.5C-1648.7,1301.3-1647.5,1296.2-1645.2,1291.8z M-1605.9,1298.3c-1.4-2.5-3.2-4.4-5.5-5.8s-4.8-2-7.5-2
			s-5.1,0.7-7.4,1.9c-2.3,1.3-4.1,3.2-5.5,5.7c-1.4,2.5-2.1,5.5-2.1,8.9s0.7,6.4,2.1,9c1.4,2.6,3.2,4.5,5.5,5.9
			c2.3,1.4,4.7,2.1,7.3,2.1c2.7,0,5.2-0.7,7.5-2c2.3-1.3,4.2-3.2,5.5-5.8c1.4-2.5,2-5.5,2-9
			C-1603.9,1303.8-1604.6,1300.8-1605.9,1298.3z"/>
		<path class="st2" d="M-1553.7,1280.6c3-1.7,6.4-2.6,10.2-2.6v15.1h-3.8c-4.5,0-7.9,1.1-10.2,3.2c-2.3,2.1-3.4,5.8-3.4,11.1v28.3
			h-14.4v-56.9h14.4v8.8C-1559.1,1284.6-1556.7,1282.3-1553.7,1280.6z"/>
		<path class="st2" d="M-1485.9,1284.4c4.2,4.3,6.3,10.2,6.3,17.9v33.4h-14.4v-31.4c0-4.5-1.1-8-3.4-10.4c-2.3-2.4-5.3-3.7-9.2-3.7
			c-4,0-7.1,1.2-9.4,3.7c-2.3,2.4-3.4,5.9-3.4,10.4v31.4h-14.4v-56.9h14.4v7.1c1.9-2.5,4.4-4.4,7.3-5.8s6.2-2.1,9.8-2.1
			C-1495.5,1278-1490,1280.1-1485.9,1284.4z"/>
		<path class="st2" d="M-1465,1269.6c-1.7-1.6-2.5-3.6-2.5-6s0.8-4.4,2.5-6c1.7-1.6,3.8-2.4,6.3-2.4s4.6,0.8,6.3,2.4s2.5,3.6,2.5,6
			s-0.8,4.4-2.5,6s-3.8,2.4-6.3,2.4S-1463.3,1271.2-1465,1269.6z M-1451.6,1278.8v56.9h-14.4v-56.9H-1451.6z"/>
		<path class="st2" d="M-1411.3,1290.6h-10v45.1h-14.6v-45.1h-6.5v-11.8h6.5v-2.9c0-7,2-12.1,6-15.4s10-4.8,18-4.6v12.1
			c-3.5-0.1-5.9,0.5-7.3,1.8c-1.4,1.2-2.1,3.5-2.1,6.7v2.4h10V1290.6L-1411.3,1290.6z"/>
		<path class="st2" d="M-1347.5,1278.8l-35.2,83.8h-15.3l12.3-28.3l-22.8-55.5h16.1l14.7,39.7l14.9-39.7H-1347.5L-1347.5,1278.8z"/>
		<path class="st2" d="M-1711.5,1418.4h-28.5l-4.7,13.7h-15.2l25.8-71.8h16.7l25.8,71.8h-15.2L-1711.5,1418.4z M-1715.4,1406.9
			l-10.4-30l-10.4,30H-1715.4z"/>
		<path class="st2" d="M-1682,1388.1c2.4-4.4,5.7-7.8,10-10.3c4.3-2.5,9.1-3.7,14.6-3.7c7,0,12.9,1.8,17.5,5.3s7.7,8.5,9.3,14.8
			h-15.5c-0.8-2.5-2.2-4.4-4.2-5.8s-4.4-2.1-7.2-2.1c-4.1,0-7.4,1.5-9.8,4.5s-3.6,7.2-3.6,12.7c0,5.4,1.2,9.6,3.6,12.6
			s5.6,4.5,9.8,4.5c5.8,0,9.6-2.6,11.4-7.8h15.5c-1.6,6.2-4.7,11.1-9.4,14.7c-4.7,3.6-10.5,5.4-17.5,5.4c-5.5,0-10.3-1.2-14.6-3.7
			c-4.2-2.4-7.6-5.8-10-10.3c-2.4-4.4-3.6-9.6-3.6-15.5C-1685.6,1397.7-1684.4,1392.6-1682,1388.1z"/>
		<path class="st2" d="M-1620.4,1388.1c2.3-4.4,5.4-7.9,9.4-10.3s8.3-3.6,13.2-3.6c4.2,0,8,0.9,11.1,2.6c3.2,1.7,5.7,3.9,7.6,6.5
			v-8.1h14.5v56.9h-14.5v-8.3c-1.9,2.7-4.4,4.9-7.6,6.6c-3.2,1.8-7,2.6-11.2,2.6c-4.8,0-9.2-1.2-13.1-3.7c-3.9-2.5-7-5.9-9.4-10.4
			c-2.3-4.5-3.4-9.6-3.4-15.5C-1623.8,1397.6-1622.7,1392.5-1620.4,1388.1z M-1581.1,1394.6c-1.4-2.5-3.2-4.4-5.5-5.8
			c-2.3-1.4-4.8-2-7.5-2c-2.7,0-5.1,0.7-7.4,1.9c-2.3,1.3-4.1,3.2-5.5,5.7c-1.4,2.5-2.1,5.5-2.1,8.9s0.7,6.4,2.1,9
			c1.4,2.6,3.2,4.5,5.5,5.9c2.3,1.4,4.7,2.1,7.3,2.1c2.7,0,5.2-0.7,7.5-2c2.3-1.3,4.2-3.2,5.5-5.8c1.4-2.5,2-5.5,2-9
			C-1579,1400.1-1579.7,1397.1-1581.1,1394.6z"/>
		<path class="st2" d="M-1550.7,1388.1c2.3-4.4,5.4-7.9,9.4-10.3s8.4-3.6,13.2-3.6c3.7,0,7.2,0.8,10.6,2.4c3.4,1.6,6,3.8,8,6.4v-27
			h14.6v76h-14.6v-8.4c-1.8,2.8-4.3,5.1-7.5,6.8c-3.2,1.7-6.9,2.6-11.2,2.6c-4.8,0-9.2-1.2-13.1-3.7c-4-2.5-7.1-5.9-9.4-10.4
			c-2.3-4.5-3.4-9.6-3.4-15.5C-1554.2,1397.6-1553,1392.5-1550.7,1388.1z M-1511.4,1394.6c-1.4-2.5-3.2-4.4-5.6-5.8s-4.8-2-7.5-2
			c-2.7,0-5.1,0.7-7.4,1.9c-2.3,1.3-4.1,3.2-5.5,5.7s-2.1,5.5-2.1,8.9s0.7,6.4,2.1,9s3.2,4.5,5.6,5.9c2.3,1.4,4.7,2.1,7.3,2.1
			c2.7,0,5.2-0.7,7.5-2s4.2-3.2,5.6-5.8c1.4-2.5,2.1-5.5,2.1-9C-1509.4,1400.1-1510.1,1397.1-1511.4,1394.6z"/>
		<path class="st2" d="M-1428.4,1407.9h-41.6c0.3,4.1,1.8,7.3,4.3,9.7c2.5,2.3,5.6,3.5,9.4,3.5c5.3,0,9.1-2.3,11.4-6.9h15.5
			c-1.6,5.5-4.8,10-9.5,13.5c-4.7,3.5-10.4,5.3-17.1,5.3c-5.5,0-10.4-1.2-14.7-3.7c-4.4-2.4-7.7-5.9-10.2-10.3s-3.6-9.6-3.6-15.4
			c0-5.9,1.2-11.1,3.6-15.5s5.8-7.9,10.1-10.3s9.3-3.6,14.9-3.6c5.4,0,10.2,1.2,14.5,3.5c4.3,2.3,7.6,5.6,10,9.9s3.5,9.2,3.5,14.7
			C-1428,1404.4-1428.1,1406.3-1428.4,1407.9z M-1442.8,1398.3c-0.1-3.7-1.4-6.7-4-8.9c-2.6-2.2-5.8-3.3-9.6-3.3
			c-3.6,0-6.6,1.1-9,3.2c-2.4,2.2-3.9,5.2-4.5,9L-1442.8,1398.3L-1442.8,1398.3z"/>
		<path class="st2" d="M-1329.9,1380.8c4.3,4.3,6.4,10.2,6.4,17.9v33.4h-14.4v-31.4c0-4.4-1.1-7.9-3.4-10.2
			c-2.3-2.3-5.3-3.5-9.2-3.5s-7,1.2-9.3,3.5c-2.3,2.3-3.4,5.8-3.4,10.2v31.4h-14.4v-31.4c0-4.4-1.1-7.9-3.4-10.2
			c-2.3-2.3-5.3-3.5-9.2-3.5c-4,0-7.1,1.2-9.4,3.5c-2.3,2.4-3.4,5.8-3.4,10.2v31.4h-14.4v-56.9h14.4v6.9c1.8-2.4,4.2-4.3,7.1-5.7
			c2.9-1.4,6.1-2.1,9.6-2.1c4.4,0,8.4,0.9,11.9,2.8s6.2,4.6,8.1,8.1c1.8-3.3,4.5-5.9,8.1-7.9c3.5-2,7.3-3,11.5-3
			C-1339.8,1374.3-1334.2,1376.5-1329.9,1380.8z"/>
		<path class="st2" d="M-1255.4,1375.2l-35.2,83.8h-15.4l12.3-28.3l-22.8-55.5h16.2l14.7,39.7l14.9-39.7H-1255.4L-1255.4,1375.2z"/>
	</g>
</g>
<rect x="-2025.6" y="-2617.6" class="st0" width="1957.9" height="1124.1"/>
<g>
	<path class="st6" d="M-3143.9-2528.8l40.7-126.8c1.5-4.6,0.1-9.7-3.7-12.8c-14.2-11.9-32.6-17.8-51-16.4c-4.8,0.4-9,3.7-10.5,8.3
		l-40.7,126.8c-2,6.3,1.4,13.1,7.8,15.1l42.3,13.6C-3152.7-2519-3146-2522.5-3143.9-2528.8z"/>
	<path class="st6" d="M-3205.9-2618.1c4.7-16.3,4.7-33.7,0-50c-1.5-5.1-6.2-8.6-11.5-8.6h-135.7c-5.3,0-10,3.5-11.5,8.6
		c-4.7,16.3-4.7,33.7,0,50c1.5,5.1,6.2,8.6,11.5,8.6h135.7C-3212.1-2609.5-3207.4-2613-3205.9-2618.1z"/>
	<path class="st6" d="M-3263.9-2532.6c4.7-16.3,4.7-33.7,0-50c-1.5-5.1-6.2-8.6-11.5-8.6H-3411c-5.3,0-10,3.5-11.5,8.6
		c-4.7,16.3-4.7,33.7,0,50c1.5,5.1,6.2,8.6,11.5,8.6h135.7C-3270.1-2524-3265.4-2527.5-3263.9-2532.6z"/>
	<path class="st6" d="M-3393.3-2444.7c-7-17.2-7-36.4,0-53.6c1.8-4.5,6.2-7.4,11.1-7.4h224.3c4.9,0,9.3,2.9,11.1,7.4
		c7,17.2,7,36.4,0,53.6c-1.8,4.5-6.2,7.4-11.1,7.4h-224.4C-3387.1-2437.3-3391.5-2440.2-3393.3-2444.7z"/>
</g>
<g>
	<g>
		<path class="st2" d="M-1296.7,930.5l40.7-126.8c1.5-4.6,0-9.7-3.7-12.8c-14.2-11.9-32.5-17.8-51-16.4c-4.8,0.4-9,3.7-10.5,8.3
			l-40.7,126.8c-2,6.3,1.5,13.1,7.8,15.1l42.3,13.6C-1305.5,940.3-1298.7,936.8-1296.7,930.5z"/>
		<path class="st2" d="M-1358.7,841.2c4.7-16.3,4.7-33.7,0-50c-1.5-5.1-6.2-8.6-11.5-8.6h-135.6c-5.3,0-10,3.5-11.5,8.6
			c-4.7,16.3-4.7,33.7,0,50c1.5,5.1,6.2,8.6,11.5,8.6h135.6C-1364.9,849.8-1360.1,846.3-1358.7,841.2z"/>
		<path class="st2" d="M-1416.7,926.7c4.7-16.3,4.7-33.7,0-50c-1.5-5.1-6.2-8.6-11.5-8.6h-135.6c-5.3,0-10,3.5-11.5,8.6
			c-4.7,16.3-4.7,33.7,0,50c1.5,5.1,6.2,8.6,11.5,8.6h135.6C-1422.9,935.3-1418.1,931.9-1416.7,926.7z"/>
		<path class="st2" d="M-1546.1,1014.7c-7-17.2-7-36.4,0-53.6c1.8-4.5,6.2-7.4,11.1-7.4h224.4c4.9,0,9.3,2.9,11.1,7.4
			c7,17.2,7,36.4,0,53.6c-1.8,4.5-6.2,7.4-11.1,7.4H-1535C-1539.9,1022.1-1544.3,1019.2-1546.1,1014.7z"/>
	</g>
</g>
<g>
	<g>
		<path class="st0" d="M-1296.7,591.4l40.7-126.8c1.5-4.6,0-9.7-3.7-12.8c-14.2-11.9-32.6-17.8-51-16.4c-4.8,0.4-9,3.7-10.5,8.3
			l-40.7,126.8c-2,6.3,1.5,13.1,7.8,15.1l42.3,13.6C-1305.5,601.2-1298.7,597.7-1296.7,591.4z"/>
		<path class="st0" d="M-1358.7,502.1c4.7-16.3,4.7-33.7,0-50c-1.5-5.1-6.2-8.6-11.5-8.6h-135.6c-5.3,0-10,3.5-11.5,8.6
			c-4.7,16.3-4.7,33.7,0,50c1.5,5.1,6.2,8.6,11.5,8.6h135.6C-1364.9,510.7-1360.1,507.2-1358.7,502.1z"/>
		<path class="st0" d="M-1416.7,587.6c4.7-16.3,4.7-33.7,0-50c-1.5-5.1-6.2-8.6-11.5-8.6h-135.6c-5.3,0-10,3.5-11.5,8.6
			c-4.7,16.3-4.7,33.7,0,50c1.5,5.1,6.2,8.6,11.5,8.6h135.6C-1422.9,596.2-1418.1,592.8-1416.7,587.6z"/>
		<path class="st0" d="M-1546.1,675.6c-7-17.2-7-36.4,0-53.6c1.8-4.5,6.2-7.4,11.1-7.4h224.4c4.9,0,9.3,2.9,11.1,7.4
			c7,17.2,7,36.4,0,53.6c-1.8,4.5-6.2,7.4-11.1,7.4H-1535C-1539.9,683-1544.3,680.1-1546.1,675.6z"/>
	</g>
</g>
<text transform="matrix(1 0 0 1 -1170.5684 -2455.0862)" class="st2" style="font-family:'Poppins-SemiBold'; font-size:135.6253px;">learnify</text>
<image style="overflow:visible;enable-background:new    ;" width="737" height="1105" xlink:href="FAF98B52.jpeg"  transform="matrix(0.9986 0 0 0.9986 -2844.2451 -1967.4249)">
</image>
<path class="st7" d="M2471.1-1401.2h-441.3c-51,0-92.3-41.3-92.3-92.3l0,0c0-51,41.3-92.3,92.3-92.3h441.3c51,0,92.3,41.3,92.3,92.3
	l0,0C2563.4-1442.5,2522.1-1401.2,2471.1-1401.2z"/>
<path class="st8" d="M543.9-2357.4h-285c-32.9,0-59.6-26.7-59.6-59.6l0,0c0-32.9,26.7-59.6,59.6-59.6h285
	c32.9,0,59.6,26.7,59.6,59.6l0,0C603.5-2384.1,576.8-2357.4,543.9-2357.4z"/>
<text transform="matrix(1 0 0 1 248.6708 -2395.4688)" class="st6" style="font-family:'Poppins-SemiBold'; font-size:56.4582px;">Read More</text>
<path class="st8" d="M1403.2-2168h-285c-32.9,0-59.6-26.7-59.6-59.6l0,0c0-32.9,26.7-59.6,59.6-59.6h285c32.9,0,59.6,26.7,59.6,59.6
	l0,0C1462.9-2194.7,1436.2-2168,1403.2-2168z"/>
<text transform="matrix(1 0 0 1 1108.0258 -2206.0481)" class="st2" style="font-family:'Poppins-SemiBold'; font-size:56.4582px;">Read More</text>
<path class="st0" d="M973.6-2357.4h-285c-32.9,0-59.6-26.7-59.6-59.6l0,0c0-32.9,26.7-59.6,59.6-59.6h285
	c32.9,0,59.6,26.7,59.6,59.6l0,0C1033.2-2384.1,1006.5-2357.4,973.6-2357.4z"/>
<text transform="matrix(1 0 0 1 678.3483 -2395.4688)" class="st6" style="font-family:'Poppins-SemiBold'; font-size:56.4582px;">Read More</text>
<path class="st0" d="M1403.2-2357.4h-285c-32.9,0-59.6-26.7-59.6-59.6l0,0c0-32.9,26.7-59.6,59.6-59.6h285
	c32.9,0,59.6,26.7,59.6,59.6l0,0C1462.9-2384.1,1436.2-2357.4,1403.2-2357.4z"/>
<text transform="matrix(1 0 0 1 1108.0258 -2395.4688)" class="st2" style="font-family:'Poppins-SemiBold'; font-size:56.4582px;">Read More</text>
<path class="st6" d="M1832.9-2357.4h-285c-32.9,0-59.6-26.7-59.6-59.6l0,0c0-32.9,26.7-59.6,59.6-59.6h285
	c32.9,0,59.6,26.7,59.6,59.6l0,0C1892.5-2384.1,1865.9-2357.4,1832.9-2357.4z"/>
<text transform="matrix(1 0 0 1 1537.703 -2395.4688)" class="st2" style="font-family:'Poppins-SemiBold'; font-size:56.4582px;">Read More</text>
<path class="st9" d="M1832.9-2168h-285c-32.9,0-59.6-26.7-59.6-59.6l0,0c0-32.9,26.7-59.6,59.6-59.6h285c32.9,0,59.6,26.7,59.6,59.6
	l0,0C1892.5-2194.7,1865.9-2168,1832.9-2168z"/>
<g>
	<text transform="matrix(1 0 0 1 1537.703 -2206.0481)" class="st6" style="font-family:'Poppins-SemiBold'; font-size:56.4582px;">Read More</text>
</g>
<path class="st10" d="M1832.9-2006h-285c-32.9,0-59.6-26.7-59.6-59.6l0,0c0-32.9,26.7-59.6,59.6-59.6h285
	c32.9,0,59.6,26.7,59.6,59.6l0,0C1892.5-2032.7,1865.9-2006,1832.9-2006z"/>
<g>
	<text transform="matrix(1 0 0 1 1537.703 -2044.0077)" class="st0" style="font-family:'Poppins-SemiBold'; font-size:56.4582px;">Read More</text>
</g>
<path class="st6" d="M973.6-2168h-285c-32.9,0-59.6-26.7-59.6-59.6l0,0c0-32.9,26.7-59.6,59.6-59.6h285c32.9,0,59.6,26.7,59.6,59.6
	l0,0C1033.2-2194.7,1006.5-2168,973.6-2168z"/>
<g>
	<text transform="matrix(1 0 0 1 678.3483 -2206.0481)" class="st8" style="font-family:'Poppins-SemiBold'; font-size:56.4582px;">Read More</text>
</g>
<path class="st6" d="M543.9-2168h-285c-32.9,0-59.6-26.7-59.6-59.6l0,0c0-32.9,26.7-59.6,59.6-59.6h285c32.9,0,59.6,26.7,59.6,59.6
	l0,0C603.5-2194.7,576.8-2168,543.9-2168z"/>
<g>
	<text transform="matrix(1 0 0 1 248.6708 -2206.0481)" class="st0" style="font-family:'Poppins-SemiBold'; font-size:56.4582px;">Read More</text>
</g>
<rect x="-562.9" y="-1030.5" class="st6" width="91.9" height="109.9"/>
<rect x="-553.1" y="-1035.6" class="st0" width="87.2" height="105.5"/>
<rect x="-546.5" y="-1030.5" class="st6" width="75.5" height="92.3"/>
<rect x="-556.6" y="-1030.5" class="st6" width="20.9" height="34"/>
<path class="st6" d="M-1655-1111.3h-73.3c-5.1,0-9.3-4.2-9.3-9.3v-91.3c0-5.1,4.2-9.3,9.3-9.3h73.3c5.1,0,9.3,4.2,9.3,9.3v91.3
	C-1645.7-1115.5-1649.9-1111.3-1655-1111.3z"/>
<image style="overflow:visible;enable-background:new    ;" width="1029" height="771" xlink:href="FAF98B5E.jpeg"  transform="matrix(0.2002 0 0 0.2002 -1248.1696 -1326.144)">
</image>
<path class="st0" d="M-1637.5-1135.8h-85.4c-5.5,0-10,4.5-10,10l0,0c0,5.5,4.5,10,10,10h85.4c0.3,0,0.6-0.3,0.6-0.6v-18.7
	C-1636.9-1135.5-1637.1-1135.8-1637.5-1135.8z"/>
<path class="st0" d="M-1646.8-1211.3v85.4c0,5.5,4.5,10,10,10l0,0c5.5,0,10-4.5,10-10v-85.4c0-0.3-0.3-0.6-0.6-0.6h-18.7
	C-1646.5-1211.9-1646.8-1211.6-1646.8-1211.3z"/>
<path class="st6" d="M-1407.8-1240.1v127.1c0,7.5-6.1,13.6-13.6,13.6h-85.9c-8.6,0-15.5-6.9-15.5-15.5v-126.3c0-2.5,2.1-4.6,4.6-4.6
	l0,0c2.5,0,4.6,2.1,4.6,4.6v121.2c0,7.2,5.8,13,13,13h76.7c4.4,0,7.9-3.6,7.9-7.9l0,0c0-4.4-3.6-7.9-7.9-7.9h-66.1
	c-3.7,0-6.7-3-6.7-6.7v-110c0-3.4,2.8-6.2,6.1-6.2h77.2C-1410.3-1245.7-1407.8-1243.2-1407.8-1240.1z"/>
<rect x="-1890" y="-993.5" class="st6" width="115" height="146.3"/>
<rect x="-1867.7" y="-876.7" class="st0" width="81.6" height="19.9"/>
<rect x="-1878.8" y="-996.5" class="st0" width="19.9" height="139.8"/>
<path class="st0" d="M-1460-1192.3l-13.7,23.8c-1.2,2.1,0.3,4.7,2.7,4.7h27.5c2.4,0,3.9-2.6,2.7-4.7l-13.7-23.8
	C-1455.8-1194.4-1458.8-1194.4-1460-1192.3z"/>
<path class="st6" d="M-491.5-30.2V97.9c0,7.5-6.1,13.6-13.6,13.6H-591c-8.5,0-15.5-6.9-15.5-15.5V-30.3c0-2.5,2-4.6,4.6-4.6l0,0
	c2.5,0,4.6,2,4.6,4.6V90.9c0,7.2,5.8,13,13,13h75.6c5,0,9.1-4,9.1-9l0,0c0-4.1-2.7-7.6-6.6-8.7l-51.1-14.3c-5.9-1.7-10-7.1-10-13.2
	V-46.1c0-3.9,3.6-6.7,7.4-5.8l64,16C-493.4-35.3-491.5-32.9-491.5-30.2z"/>
<path class="st6" d="M-1452.9-893.9v128c0,7.5-6.1,13.6-13.6,13.6h-85.9c-8.6,0-15.5-6.9-15.5-15.5v-126.3c0-2.5,2-4.6,4.6-4.6l0,0
	c2.5,0,4.6,2,4.6,4.6v121.2c0,7.2,5.8,13,13,13h75.6c5,0,9.1-4,9.1-9l0,0c0-4.1-2.7-7.6-6.6-8.7l-51.1-14.3c-5.9-1.7-10-7.1-10-13.2
	v-104.8c0-3.9,3.6-6.7,7.4-5.8l64,16C-1454.8-899.1-1452.9-896.7-1452.9-893.9z"/>
<g>
	<path class="st6" d="M-1496.9-883.3l-64-16c-3.8-0.9-7.4,1.9-7.4,5.8v9.8c0-3.9,3.6-6.7,7.4-5.8l64,16c2.6,0.7,4.5,3,4.5,5.8v-9.8
		C-1492.4-880.3-1494.3-882.7-1496.9-883.3z"/>
</g>
<path class="st0" d="M-746.1-102.3l-13.7,23.8c-1.2,2.1,0.3,4.6,2.7,4.6h27.5c2.4,0,3.9-2.6,2.7-4.6l-13.7-23.8
	C-741.9-104.3-744.9-104.3-746.1-102.3z"/>
<path class="st6" d="M-583.3-136.7l5.5,14.9c3.1,8.3,9.6,14.8,17.9,17.9l14.9,5.5l-14.9,5.5c-8.3,3.1-14.8,9.6-17.9,17.9l-5.5,14.9
	l-5.5-14.9c-3.1-8.3-9.6-14.8-17.9-17.9l-14.9-5.5l14.9-5.5c8.3-3.1,14.8-9.6,17.9-17.9L-583.3-136.7z"/>
<path class="st6" d="M-267.5-912.2l5.5,14.9c3.1,8.3,9.6,14.8,17.9,17.9l14.9,5.5l-14.9,5.5c-8.3,3.1-14.8,9.6-17.9,17.9l-5.5,14.9
	l-5.5-14.9c-3.1-8.3-9.6-14.8-17.9-17.9l-15-5.5l14.9-5.5c8.3-3.1,14.8-9.6,17.9-17.9L-267.5-912.2z"/>
<rect x="-741.8" y="-761" class="st2" width="48.2" height="48.2"/>
<circle class="st2" cx="-741.8" cy="-761" r="19.7"/>
<path class="st6" d="M-690.8-898h-5.6c-0.1,11.7-9.6,21.2-21.3,21.2v5.9c11.7,0,21.2,9.5,21.3,21.2h5.6c0.1-11.7,9.6-21.2,21.3-21.2
	v-5.9C-681.2-876.9-690.7-886.3-690.8-898z"/>
<path class="st6" d="M-321.9-77.1v5.8c11.7,0,21.2,9.5,21.3,21.2h5.6c0.1-11.7,9.6-21.2,21.3-21.2v-5.8c-11.8,0-21.3-9.5-21.3-21.3
	h-5.6C-300.6-86.6-310.1-77.1-321.9-77.1z"/>
<path class="st0" d="M0,73.3v0.5c0,4.5,3.3,8.5,7.8,9c29.4,3.5,52.8,26.8,56.5,56.1c0.6,4.5,4.5,7.7,9,7.7h0.2c4.5,0,8.4-3.3,9-7.7
	c3.7-29.4,27.1-52.6,56.5-56.1c4.5-0.5,7.8-4.5,7.8-9v-0.5c0-4.5-3.3-8.5-7.8-9c-29.6-3.5-53-27-56.5-56.5C82,3.3,78,0,73.5,0l0,0
	c-4.5,0-8.5,3.3-9,7.8c-3.6,29.6-27,53-56.6,56.5C3.3,64.8,0,68.7,0,73.3z"/>
<path class="st6" d="M-173.4,73.3v0.5c0,4.5,3.3,8.5,7.8,9c29.4,3.5,52.8,26.8,56.5,56.1c0.6,4.5,4.5,7.7,9,7.7h0.2
	c4.5,0,8.4-3.3,9-7.7c3.7-29.4,27.1-52.6,56.5-56.1c4.5-0.5,7.8-4.5,7.8-9v-0.5c0-4.5-3.3-8.5-7.8-9c-29.6-3.5-53-27-56.5-56.5
	c-0.5-4.5-4.5-7.8-9-7.8l0,0c-4.5,0-8.5,3.3-9,7.8c-3.6,29.6-27,53-56.6,56.5C-170.1,64.8-173.4,68.7-173.4,73.3z"/>
<g>
	<path class="st6" d="M-449.4-691.2l-54.8-13.7c-8.4-2.1-16.6,4.3-16.6,13v79.3c0,6.2,4.1,11.5,10,13.2l51.1,14.3
		c3.9,1.1,6.6,4.7,6.6,8.7c0,5-4,9-9,9h-75.6c-7.2,0-13-5.8-13-13v-105.2c0-2.5-2-4.6-4.6-4.6l0,0c-2.5,0-4.6,2-4.6,4.6v110.3
		c0,8.5,6.9,15.5,15.5,15.5h85.9c7.5,0,13.6-6.1,13.6-13.6v-112.1C-444.9-688.2-446.8-690.6-449.4-691.2z"/>
	<path class="st6" d="M-557.3-719.8c10.5,1.3,18.6,11.2,18.7,22l0,0v60.8c0,1.5,1.3,2.8,2.8,2.8s2.8-1.3,2.8-2.8v-60.9l0,0
		c0.1-10.8,8.2-20.7,18.7-22c1.5-0.2,2.6-1.5,2.6-3v-0.2c0-1.5-1.1-2.8-2.6-3c-9.7-1.2-17.3-8.8-18.5-18.4c-0.2-1.5-1.5-2.6-3-2.6
		s-2.8,1.1-3,2.6c-1.2,9.6-8.9,17.2-18.5,18.4c-1.5,0.2-2.6,1.5-2.6,3v0.2C-559.9-721.3-558.8-720-557.3-719.8z"/>
</g>
<g>
	<path class="st6" d="M-1367.8-2206.9l-110.2-27.6c-16.9-4.2-33.4,8.6-33.4,26.1v159.6c0,12.4,8.2,23.2,20.1,26.6l102.9,28.8
		c7.9,2.2,13.3,9.4,13.3,17.5c0,10.1-8.2,18.2-18.2,18.2h-152.1c-14.5,0-26.2-11.7-26.2-26.2v-211.5c0-5.1-4.1-9.2-9.2-9.2l0,0
		c-5.1,0-9.2,4.1-9.2,9.2v221.8c0,17.2,14,31.2,31.1,31.2h172.7c15.1,0,27.4-12.3,27.4-27.4v-225.4
		C-1358.7-2200.8-1362.5-2205.6-1367.8-2206.9z"/>
	<path class="st6" d="M-1584.8-2264.4c21.1,2.6,37.5,22.5,37.6,44.2l0,0v122.4c0,3.1,2.5,5.7,5.7,5.7s5.7-2.5,5.7-5.7v-122.4l0,0
		c0.1-21.8,16.5-41.7,37.6-44.2c3-0.4,5.2-3,5.2-6v-0.5c0-3-2.2-5.6-5.2-6c-19.4-2.4-34.8-17.7-37.3-37.1c-0.4-3-3-5.2-6-5.2
		s-5.6,2.2-6,5.2c-2.5,19.4-17.9,34.7-37.3,37.1c-3,0.4-5.2,3-5.2,6v0.5C-1590-2267.4-1587.8-2264.8-1584.8-2264.4z"/>
</g>
<g>
	<path class="st2" d="M-978,170l-72.5-18.2c-11.1-2.8-22,5.6-22,17.1v105c0,8.1,5.4,15.3,13.3,17.5l67.7,19
		c5.2,1.4,8.7,6.2,8.7,11.5c0,6.6-5.4,12-12,12h-100c-9.5,0-17.2-7.7-17.2-17.2V177.5c0-3.3-2.7-6.1-6.1-6.1l0,0
		c-3.3,0-6.1,2.7-6.1,6.1v145.9c0,11.3,9.2,20.5,20.5,20.5h113.6c9.9,0,18-8.1,18-18V177.6C-972.1,174-974.5,170.8-978,170z"/>
	<path class="st2" d="M-1120.8,132.1c13.9,1.7,24.7,14.8,24.8,29.1l0,0v80.5c0,2.1,1.7,3.7,3.7,3.7c2.1,0,3.7-1.7,3.7-3.7v-80.5l0,0
		c0.1-14.3,10.9-27.4,24.7-29.1c2-0.2,3.4-2,3.4-4v-0.3c0-2-1.5-3.7-3.4-4c-12.8-1.5-22.9-11.6-24.5-24.4c-0.2-2-2-3.4-3.9-3.4
		c-1.9,0-3.7,1.4-3.9,3.4c-1.6,12.7-11.8,22.8-24.5,24.4c-2,0.2-3.4,2-3.4,4v0.3C-1124.2,130.2-1122.7,131.9-1120.8,132.1z"/>
</g>
<g>
	<path class="st0" d="M-1160.8,170l-72.5-18.2c-11.2-2.8-22,5.6-22,17.1v105c0,8.1,5.4,15.3,13.3,17.5l67.7,19
		c5.2,1.4,8.7,6.2,8.7,11.5c0,6.6-5.4,12-12,12h-99.9c-9.5,0-17.2-7.7-17.2-17.2V177.5c0-3.3-2.7-6.1-6.1-6.1l0,0
		c-3.3,0-6.1,2.7-6.1,6.1v145.9c0,11.3,9.2,20.5,20.5,20.5h113.6c9.9,0,18-8.1,18-18V177.6C-1154.8,174-1157.2,170.8-1160.8,170z"/>
	<path class="st0" d="M-1303.5,132.1c13.9,1.7,24.7,14.8,24.8,29.1l0,0v80.5c0,2.1,1.7,3.7,3.7,3.7s3.7-1.7,3.7-3.7v-80.5l0,0
		c0.1-14.3,10.9-27.4,24.8-29.1c2-0.2,3.4-2,3.4-4v-0.3c0-2-1.5-3.7-3.4-4c-12.8-1.5-22.9-11.6-24.6-24.3c-0.2-2-2-3.4-3.9-3.4
		s-3.7,1.4-4,3.4c-1.6,12.7-11.7,22.8-24.5,24.4c-2,0.2-3.4,2-3.4,4v0.3C-1306.9,130.2-1305.4,131.9-1303.5,132.1z"/>
</g>
<g>
	<path class="st6" d="M-1202.1-490.1l-72.5-18.1c-11.1-2.8-22,5.6-22,17.1v105c0,8.1,5.4,15.3,13.3,17.5l67.7,19
		c5.2,1.4,8.7,6.2,8.7,11.5c0,6.6-5.4,12-12,12h-100c-9.5,0-17.2-7.7-17.2-17.2v-139.1c0-3.3-2.7-6-6-6l0,0c-3.3,0-6.1,2.7-6.1,6
		v145.9c0,11.3,9.2,20.5,20.5,20.5h113.6c9.9,0,18-8.1,18-18v-148.3C-1196.1-486.1-1198.6-489.2-1202.1-490.1z"/>
	<path class="st6" d="M-1344.8-527.9c13.9,1.7,24.7,14.8,24.8,29.1l0,0v80.5c0,2.1,1.7,3.7,3.7,3.7s3.7-1.7,3.7-3.7v-80.5l0,0
		c0.1-14.3,10.8-27.4,24.7-29.1c2-0.2,3.4-2,3.4-4v-0.3c0-2-1.5-3.7-3.4-4c-12.8-1.6-22.9-11.6-24.5-24.4c-0.2-2-2-3.4-3.9-3.4
		s-3.7,1.4-4,3.4c-1.6,12.7-11.8,22.8-24.5,24.4c-2,0.2-3.4,2-3.4,4v0.3C-1348.2-529.9-1346.8-528.2-1344.8-527.9z"/>
</g>
<g>
	<path class="st6" d="M-1347.1,170l-72.5-18.2c-11.2-2.8-22,5.6-22,17.1v105c0,8.1,5.4,15.3,13.3,17.5l67.7,19
		c5.2,1.4,8.7,6.2,8.7,11.5c0,6.6-5.4,12-12,12h-100c-9.5,0-17.2-7.7-17.2-17.2V177.5c0-3.3-2.7-6.1-6.1-6.1l0,0
		c-3.3,0-6.1,2.7-6.1,6.1v145.9c0,11.3,9.2,20.5,20.5,20.5h113.6c9.9,0,18-8.1,18-18V177.6C-1341.1,174-1343.6,170.8-1347.1,170z"/>
	<path class="st6" d="M-1489.8,132.1c13.9,1.7,24.7,14.8,24.8,29.1l0,0v80.5c0,2.1,1.7,3.7,3.7,3.7c2.1,0,3.7-1.7,3.7-3.7v-80.5l0,0
		c0.1-14.3,10.9-27.4,24.7-29.1c2-0.2,3.4-2,3.4-4v-0.3c0-2-1.5-3.7-3.4-4c-12.8-1.5-22.9-11.6-24.5-24.4c-0.2-2-2-3.4-3.9-3.4
		c-1.9,0-3.7,1.4-3.9,3.4c-1.6,12.7-11.8,22.8-24.5,24.4c-2,0.2-3.4,2-3.4,4v0.3C-1493.2,130.2-1491.8,131.9-1489.8,132.1z"/>
</g>
<text transform="matrix(1 0 0 1 -591.0192 -2024.9811)" class="st6" style="font-family:'Poppins-SemiBold'; font-size:70.2994px;">Academy</text>
<g>
	<g>
		<path class="st2" d="M-890.3-2071.6c0,12.8,0,25.7,0,38.5c0,0.9,0,1.8-0.1,2.6c-0.4,2.6-1.8,4.1-4.4,4.1c-8.2,0.1-16.4,0.1-24.6,0
			c-2.7,0-4.1-1.6-4.4-4.2c-0.1-0.9-0.1-1.8-0.1-2.6c0-27.7,0-55.5,0-83.2c0-0.7,0-1.5,0-2.2c0.3-2.9,1.5-4.4,4.4-4.4
			c9.7-0.1,19.4-0.1,29.1,0c2.8,0,4.5,1.8,5.5,4.3c4,9.2,8.5,18.1,13.6,26.8c3.3,5.6,6.7,11,10.4,16.3c0.2,0.3,0.5,0.6,1.1,1.4
			c0.1-1.2,0.1-2,0.1-2.7c0-13.2,0-26.4,0-39.6c0-5.3,1.2-6.5,6.5-6.5c7.1,0,14.2,0,21.4,0c4.4,0,5.8,1.4,5.9,5.8
			c0,28.4,0,56.8,0,85.2c0,4.4-1.6,5.9-6,5.9c-8.3,0-16.6-0.1-24.9,0c-3.7,0.1-6.2-1.4-8.3-4.3c-9-12.6-17.2-25.7-23.9-39.6
			c-0.2-0.5-0.5-1-0.8-1.5C-890-2071.6-890.1-2071.6-890.3-2071.6z"/>
		<path class="st2" d="M-957.3-2061.2c3.6,2.3,7.2,3.2,11,3.7c1.5,0.2,3.1,0.2,4.6,0.3c3.2,0.2,4.7,1.4,4.8,4.8
			c0.2,4.4,0.1,8.8,0.1,13.2c0,3,0,6,0,9c0,3.7-1.4,5.2-5.2,5.2c-6.9,0-13.6-1-20.1-3.3c-12.8-4.5-21.3-13.3-25.4-26.3
			c-0.6-2-1.9-1.4-3.1-1.4c-1.6,0-0.9,1.3-0.9,2c-0.1,7.3,0,14.5,0,21.8c0,4.4-1.5,5.9-6,5.9c-7.4,0-14.8,0-22.2,0
			c-4.5,0-6-1.6-6-6.1c0-27.1,0-54.1,0-81.2c0-6.1,1.7-8.2,7.8-9c14.3-1.7,28.6-2.7,43-1.4c8.6,0.8,16.8,3.1,24.1,8.2
			c7,4.9,10.5,11.8,11.3,20c0.9,9.5-0.9,18.4-7,26C-949.5-2066.2-952.9-2063.3-957.3-2061.2z M-991.5-2089.8c0,2.3,0,4.7,0,7
			c0,1,0.2,1.4,1.3,1.4c3,0,6,0,9-0.5c4-0.6,6.6-3.6,6.9-7.6c0.3-4.9-1.5-7.9-5.8-9.1c-3.4-0.9-6.8-0.5-10.2,0.2
			c-1,0.2-1.2,0.7-1.2,1.7C-991.5-2094.4-991.5-2092.1-991.5-2089.8z"/>
		<path class="st2" d="M-1221.1-2074.8c0-14.1,0-28.2,0-42.3c0-4.8,1.3-6.1,6.2-6.1c21.7,0,43.3,0,65,0c4.9,0,6.1,1.2,6.1,6.1
			c0,4.4,0,8.8,0,13.2c0,4.5-1.4,5.9-5.9,6c-11.4,0-22.9,0.1-34.3,0c-2.2,0-3.1,0.4-2.8,2.7c0.2,1.7,0.2,3.5,0,5.3
			c-0.2,2.1,0.3,2.9,2.7,2.8c9.7-0.2,19.4-0.1,29.1-0.1c1.2,0,2.4-0.1,3.5,0.4c1.9,0.7,2.7,2.3,2.7,4.1c0.1,5.2,0.1,10.4,0,15.6
			c-0.1,3.3-1.8,4.6-5.4,4.6c-10.1,0-20.1,0.1-30.2,0c-1.8,0-2.5,0.4-2.3,2.3c0.2,2.1,0.2,4.3,0,6.4c-0.1,1.7,0.4,2.2,2.2,2.2
			c11.7-0.1,23.5,0,35.2,0c6.5,0,7.3,0.9,7.3,7.4c0,4.1,0,8.2,0,12.3c0,4-1.6,5.6-5.6,5.6c-22.5,0-45.1,0-67.6,0
			c-4,0-5.6-1.6-5.6-5.6C-1221.1-2046.2-1221.1-2060.5-1221.1-2074.8z"/>
		<path class="st2" d="M-1050.4-2026.3c-3.7,0-7.5,0-11.2,0c-3.9,0-5.4-1.2-6.4-4.9c-0.6-2.1-1.1-4.2-1.6-6.4
			c-0.2-1.1-0.7-1.4-1.8-1.4c-9.8,0-19.5,0-29.3,0c-1.1,0-1.5,0.4-1.8,1.4c-0.5,2.1-1.1,4.3-1.7,6.4c-1.1,3.9-2.5,4.9-6.4,4.9
			c-6.9,0-13.8,0-20.7,0c-5.5,0-6.9-1.8-5.4-7.1c8.2-28.6,19.2-56,32-82.8c2.4-5.1,5.5-7.6,11.3-7.1c6.2,0.5,12.5,0.1,18.7,0.1
			c3.2,0,5.4,1.4,6.8,4.3c13.4,27.7,25.1,56.1,33.4,85.7c1.4,5,0,6.9-5.2,6.9C-1043.2-2026.3-1046.8-2026.3-1050.4-2026.3z
			 M-1086-2089.6c-3.9,9-6.4,18.3-9.4,27.4c-0.3,1,0.3,1.1,1.1,1.1c5.6,0,11.1,0,16.7,0c1.1,0,1.2-0.4,0.9-1.3
			C-1079.7-2071.5-1082.5-2080.6-1086-2089.6z"/>
		<path class="st2" d="M-760.7-2074.7c0-14.2,0-28.3,0-42.5c0-4.6,1.3-5.9,5.9-5.9c21.2,0,42.4,0,63.6,0c4.4,0,5.8,1.4,5.8,5.8
			c0,5.4,0,10.9,0,16.3c0,5-1.3,6.3-6.4,6.4c-10.8,0-21.6,0.1-32.4,0c-1.8,0-2.4,0.4-2.3,2.3c0.2,3.2,0.1,6.5,0,9.7
			c-0.1,1.6,0.4,2.1,2,2.1c8.7-0.1,17.3-0.1,26,0c0.9,0,1.8,0,2.6,0.1c2.8,0.4,3.9,1.4,4,4.3c0.2,4.9,0.1,9.8,0.1,14.7
			c0,1.5,0,2.9-0.1,4.4c-0.2,2.6-1.5,4-4.2,4.1c-4.5,0.2-9,0.1-13.4,0.1c-5.1,0-10.1,0.1-15.2,0c-1.5,0-1.8,0.5-1.8,1.9
			c0.1,6.2,0,12.5,0,18.7c0,4.6-1.5,6.1-6.1,6.1c-7.4,0-14.8,0-22.2,0c-4.5,0-5.9-1.5-6-5.9
			C-760.7-2046.4-760.7-2060.5-760.7-2074.7z"/>
		<path class="st2" d="M-630.8-2086.6c4.2-6.8,7.6-13.4,10.6-20.3c1.7-3.9,3.3-7.8,4.8-11.8c1.1-3,3.1-4.4,6.1-4.4
			c8.3,0,16.6-0.1,24.9,0c3.5,0,4.7,2.1,3.1,5.5c-3.4,7.1-7.1,14.1-10.9,21c-6.5,11.8-13.6,23.1-21.2,34.1c-0.7,1-1,2-1,3.3
			c0,8.9,0,17.9,0,26.9c0,4.5-1.5,6-5.9,6c-7.5,0-15,0-22.5,0c-4.3,0-5.9-1.6-5.9-6c0-9,0-18.1,0-27.1c0-1.2-0.2-2.2-1-3.3
			c-11.9-17.2-22.3-35.3-31.4-54.1c-0.2-0.4-0.4-0.8-0.6-1.2c-1.2-3.1,0-5,3.3-5.2c0.4,0,0.7,0,1.1,0c8,0,16,0,24,0
			c4.8,0,6,0.9,7.7,5.3c3.6,9.8,7.9,19.2,13.1,28.2C-632-2088.7-631.5-2087.8-630.8-2086.6z"/>
		<path class="st2" d="M-1304.8-2074.8c0-14,0-28,0-42c0-5.1,1.2-6.3,6.4-6.3c7.3,0,14.7,0,22,0c4.5,0,5.8,1.3,5.8,5.7
			c0,20.1,0,40.2,0,60.3c0,1.8,0.4,2.3,2.3,2.3c10.6-0.1,21.3-0.1,31.9,0c0.9,0,1.8,0,2.6,0.1c2.8,0.4,4,1.7,4.1,4.5
			c0.1,6.4,0.1,12.8,0,19.1c0,3.1-1.7,4.7-4.9,4.7c-4,0.1-8.1,0-12.1,0c-17.2,0-34.5,0-51.7,0c-4.9,0-6.3-1.4-6.3-6.3
			C-1304.9-2046.6-1304.8-2060.7-1304.8-2074.8z"/>
		<path class="st2" d="M-810.5-2074.9c0-14.1,0-28.2,0-42.2c0-4.6,1.4-5.9,5.9-5.9c7.6,0,15.1,0,22.7,0c4.3,0,5.7,1.4,5.7,5.6
			c0,28.5,0,56.9,0,85.4c0,4.3-1.6,5.8-5.9,5.8c-7.6,0-15.1,0-22.7,0c-4.1,0-5.7-1.6-5.7-5.8
			C-810.5-2046.3-810.5-2060.6-810.5-2074.9z"/>
	</g>
</g>
</svg>
